<svg width="1250" height="341" viewBox="0 0 1250 341" fill="none" xmlns="http://www.w3.org/2000/svg">
<rect x="562" y="17" width="220" height="68" rx="34" fill="black"/>
<path d="M642.395 62L639.64 39.6436H643.893L645.531 54.8525L646.991 39.6436H651.244L648.489 62H642.395ZM653.75 41.7891V38.0059H658.295V41.7891H653.75ZM653.75 62V42.957H658.295V62H653.75ZM665.143 62.2031C664.262 62.2031 663.564 62.0423 663.048 61.7207C662.532 61.3991 662.146 60.9548 661.893 60.3877C661.639 59.8206 661.469 59.1562 661.385 58.3945C661.309 57.6328 661.271 56.8161 661.271 55.9443V47.667C661.271 46.2028 661.529 45.0179 662.045 44.1123C662.57 43.2067 663.454 42.7539 664.698 42.7539C665.621 42.7539 666.327 42.9528 666.818 43.3506C667.318 43.7399 667.703 44.2858 667.974 44.9883V39.6562H672.595V62H667.974V59.9814C667.72 60.667 667.381 61.2087 666.958 61.6064C666.543 62.0042 665.938 62.2031 665.143 62.2031ZM666.882 58.6484C667.313 58.6484 667.601 58.4749 667.745 58.1279C667.897 57.7809 667.974 57.1589 667.974 56.2617V48.251C667.974 47.8024 667.906 47.3623 667.771 46.9307C667.644 46.4906 667.356 46.2705 666.907 46.2705C666.416 46.2705 666.107 46.4779 665.98 46.8926C665.854 47.3073 665.79 47.7601 665.79 48.251V56.2617C665.79 57.8529 666.154 58.6484 666.882 58.6484ZM680.979 62.2031C679.625 62.2031 678.545 61.9492 677.741 61.4414C676.937 60.9336 676.362 60.2015 676.015 59.2451C675.668 58.2887 675.494 57.1377 675.494 55.792V48.1367C675.494 46.3678 676.002 45.0306 677.018 44.125C678.033 43.2109 679.43 42.7539 681.207 42.7539C684.863 42.7539 686.692 44.5482 686.692 48.1367V49.5205C686.692 51.1963 686.675 52.3219 686.641 52.8975H680.039V56.5791C680.039 56.9176 680.06 57.252 680.103 57.582C680.145 57.9036 680.238 58.1702 680.382 58.3818C680.534 58.5934 680.776 58.6992 681.106 58.6992C681.58 58.6992 681.876 58.4961 681.994 58.0898C682.113 57.6751 682.172 57.1377 682.172 56.4775V54.6494H686.692V55.7285C686.692 57.1504 686.514 58.3438 686.158 59.3086C685.811 60.265 685.219 60.9886 684.381 61.4795C683.552 61.9619 682.418 62.2031 680.979 62.2031ZM680.014 50.6377H682.172V48.0732C682.172 47.3877 682.087 46.8968 681.918 46.6006C681.749 46.2959 681.495 46.1436 681.156 46.1436C680.793 46.1436 680.509 46.2874 680.306 46.5752C680.111 46.863 680.014 47.3623 680.014 48.0732V50.6377ZM695.177 62.2031C691.385 62.2031 689.49 60.2354 689.49 56.2998V48.6572C689.49 46.863 689.993 45.4326 691 44.3662C692.008 43.2913 693.4 42.7539 695.177 42.7539C696.963 42.7539 698.359 43.2913 699.367 44.3662C700.374 45.4326 700.877 46.863 700.877 48.6572V56.2998C700.877 60.2354 698.977 62.2031 695.177 62.2031ZM695.177 58.6992C695.558 58.6992 695.829 58.5638 695.99 58.293C696.159 58.0137 696.244 57.6624 696.244 57.2393V47.9336C696.244 46.8249 695.888 46.2705 695.177 46.2705C694.466 46.2705 694.111 46.8249 694.111 47.9336V57.2393C694.111 57.6624 694.191 58.0137 694.352 58.293C694.521 58.5638 694.796 58.6992 695.177 58.6992Z" fill="white"/>
</svg>
