<svg width="225" height="190" viewBox="0 0 225 190" fill="none" xmlns="http://www.w3.org/2000/svg">
<path d="M40.97 69.9076C40.97 69.9076 41.0872 70.248 41.364 70.8391C41.6402 71.4326 42.1084 72.2597 43.0109 73.0411C44.6458 74.7646 47.391 76.8034 50.9918 78.4146C50.7077 78.765 50.4235 79.1155 50.1291 79.4792C48.6137 77.4165 46.996 75.1046 45.3637 72.5924C44.578 71.3499 43.7599 70.0566 42.9043 68.7053C42.6885 68.3949 42.4528 68.0927 42.1866 67.8424C42.0445 67.7151 41.9299 67.6178 41.7862 67.5624C41.6409 67.4892 41.4549 67.5187 41.3297 67.6276C41.0857 67.8524 40.9992 68.2821 40.9595 68.6781C40.9225 69.0807 40.9352 69.4937 40.97 69.9076C40.8755 69.5499 40.7856 69.1862 40.7516 68.8072C40.7297 68.4279 40.6851 68.0502 40.8859 67.5747C40.9759 67.3393 41.1704 67.1466 41.4085 67.0699C41.6505 66.9838 41.9175 67.0484 42.1622 67.1472C42.6025 67.3586 42.8818 67.6083 43.1602 67.88C43.7187 68.4255 44.1406 69.0098 44.5887 69.5759L45.9245 71.3064C47.703 73.6322 49.4706 76.0477 51.2776 78.6446L52.9109 80.9929L50.4101 79.7151C48.4961 78.7374 46.55 77.6046 44.8718 75.9772C44.4576 75.5683 43.9882 75.2096 43.6142 74.744C43.2372 74.2864 42.8552 73.8227 42.4667 73.3521C41.6604 72.415 41.167 71.1573 40.97 69.9076Z" fill="#1F1713"/>
<path d="M10.3136 44.1376C8.68139 44.0565 9.7167 42.278 10.2705 41.8667C11.3273 41.0812 35.5184 41.2693 40.0167 44.4343C41.5424 45.5051 44.6949 49.8012 44.8776 50.9837C45.3681 54.107 39.1826 46.5339 38.3736 45.8848C36.4722 44.3513 14.9832 44.3736 10.3136 44.1376Z" fill="white"/>
<path d="M10.302 44.2286C10.302 44.2286 10.225 44.2209 10.0766 44.203C9.93454 44.1702 9.6411 44.1384 9.44568 43.8427C9.25531 43.5374 9.32026 43.1089 9.49774 42.7164C9.5914 42.5178 9.70409 42.3123 9.85176 42.1061C9.98198 41.9136 10.2171 41.6606 10.5163 41.6123C11.6474 41.3759 12.9282 41.2312 14.4513 41.0961C15.9641 40.9694 17.673 40.8254 19.5407 40.7759C21.4076 40.7179 23.4293 40.7844 25.5617 40.9527C27.6952 41.1257 29.9312 41.475 32.2339 41.8878C34.5248 42.3652 36.9113 42.7526 39.2404 43.6953C40.4582 44.1665 41.3131 45.1832 42.1522 46.0994C42.9919 47.0288 43.7896 47.992 44.5011 49.0491C44.8603 49.5872 45.2177 50.0808 45.4705 50.8835L45.5112 51.1494C45.5241 51.2264 45.5207 51.4067 45.513 51.5309C45.4671 51.7052 45.4751 51.8452 45.2742 52.0782C45.1357 52.2823 44.7573 52.3974 44.6061 52.3777C44.2014 52.3679 44.0421 52.2554 43.8467 52.1755C43.6735 52.0869 43.5162 51.9934 43.373 51.8979C42.269 51.1107 41.4048 50.2379 40.5167 49.3718C39.6466 48.5101 38.8186 47.5841 38.0154 46.7761C37.9369 46.6935 37.7705 46.55 37.8483 46.6194L37.6591 46.5138C37.6271 46.5115 37.5982 46.5073 37.57 46.5004C37.4451 46.4637 37.1249 46.3787 36.8769 46.3388C36.3466 46.2366 35.7796 46.1697 35.2204 46.1105C32.9659 45.8806 30.7323 45.7732 28.6239 45.6249C26.5105 45.4971 24.5079 45.3922 22.6601 45.2226C20.8095 45.0464 19.1137 44.8842 17.6101 44.7407C16.105 44.617 14.7927 44.4671 13.7107 44.4169C11.5464 44.2996 10.3091 44.2331 10.3091 44.2331L10.302 44.2286ZM10.3189 44.0441C10.3189 44.0441 10.6271 44.0507 11.2063 44.0652C11.7858 44.0759 12.6346 44.0925 13.7187 44.0622C14.8017 44.0588 16.1175 43.9606 17.6271 43.8989C19.1369 43.8324 20.843 43.7133 22.7033 43.6581C24.5644 43.5907 26.5802 43.6209 28.7155 43.6916C30.8521 43.757 33.1014 43.8851 35.4548 44.2025C36.0456 44.2883 36.6391 44.3807 37.26 44.5238C37.5882 44.601 37.845 44.6582 38.2767 44.8219L38.6036 44.9673L38.7994 45.0858C39.1282 45.3132 39.1604 45.4004 39.2925 45.5264C40.0875 46.4248 40.892 47.3331 41.703 48.2485C42.4963 49.14 43.3223 50.0677 44.185 50.771C44.2918 50.8556 44.3927 50.9305 44.4875 50.9948C44.5647 51.051 44.6898 51.0888 44.5969 51.0799C44.5815 51.0871 44.5554 51.0895 44.4805 51.1116C44.4206 51.1412 44.3789 51.1811 44.3361 51.2164C44.2564 51.3439 44.2764 51.315 44.2776 51.3463C44.2718 51.3161 44.2934 51.3414 44.2917 51.2655L44.283 51.0698C44.1933 50.6806 43.9265 50.091 43.6365 49.5794C43.0544 48.5264 42.3568 47.5085 41.6227 46.5427C41.246 46.0548 40.8522 45.6241 40.4533 45.1922C39.9803 44.7652 39.5807 44.4305 39.0113 44.2113C36.8193 43.3001 34.3891 43.0549 32.1053 42.8766C29.8064 42.6909 27.5712 42.6711 25.461 42.5729C23.3497 42.47 21.3519 42.3859 19.5095 42.2454C17.6658 42.1148 15.9725 41.9581 14.4697 41.897C12.9822 41.8444 11.6234 41.761 10.6232 41.9187C10.3656 41.9368 10.2218 42.0863 10.0617 42.27C9.91258 42.4438 9.79307 42.6301 9.70748 42.8111C9.53231 43.1716 9.49191 43.5277 9.62051 43.7333C9.92747 44.1185 10.3557 44.0041 10.3263 44.0448L10.3189 44.0441Z" fill="#1F1713"/>
<path d="M42.6759 53.4504C42.5068 53.4215 42.3178 53.3692 42.1092 53.29C41.2623 52.9661 40.4475 52.5549 39.663 52.0966C37.5725 50.8735 35.5389 50.1186 33.0818 50.3828C28.1879 50.9199 21.5536 52.4643 16.7863 53.6828C12.9836 54.6572 9.256 56.1369 5.39977 56.8108C4.05255 57.0461 2.79622 56.8917 4.24246 55.1447C5.06882 54.1431 27.4567 48.3675 34.763 48.6083C38.0779 48.7212 41.7994 51.3825 42.6806 51.987C43.9953 52.9051 43.7249 53.6307 42.6759 53.4504Z" fill="white"/>
<path d="M42.4457 53.2296C42.4457 53.2296 42.1926 53.1412 41.7071 52.9706C41.2248 52.787 40.5056 52.5174 39.6206 52.0545C38.7373 51.5935 37.6201 51.0434 36.2262 50.734C35.5328 50.5761 34.7702 50.502 33.9649 50.5324C33.1672 50.5743 32.3034 50.7345 31.3979 50.8825C27.7766 51.5132 23.4444 52.5417 18.5476 53.8397C16.084 54.4547 13.5786 55.2878 10.8569 56.1501C9.49765 56.57 8.08839 56.9832 6.60983 57.3009C5.83315 57.4289 5.24327 57.6836 4.08759 57.5874C3.33133 57.5252 2.73712 56.8667 2.8978 56.1276C3.13351 55.2669 3.38264 55.1065 3.68303 54.6844C4.0027 54.367 4.24817 54.2959 4.43415 54.2033C4.63872 54.1126 4.83239 54.0376 5.02916 53.9656C5.42014 53.821 5.80713 53.6906 6.19748 53.5643C6.9773 53.313 7.76393 53.0809 8.55959 52.8563C10.1512 52.4084 11.776 51.9891 13.4315 51.587C16.7436 50.7875 20.1774 50.0534 23.7205 49.4358C25.4923 49.1282 27.2908 48.8521 29.1191 48.637C30.9477 48.4339 32.8035 48.2488 34.7033 48.3385C36.6487 48.4687 38.4176 49.2955 40.0478 50.2464C40.865 50.731 41.6486 51.2695 42.4092 51.84C42.778 52.12 43.2034 52.4196 43.3351 52.8331C43.4513 53.2744 42.8083 53.3304 42.4142 53.2247C42.794 53.2997 43.3183 53.1813 43.2578 52.9346C43.2147 52.6474 42.8302 52.3468 42.4964 52.1291C41.7685 51.6481 41.0327 51.1956 40.2728 50.7862C38.7589 49.9771 37.151 49.2914 35.4992 49.0779C33.8631 48.9225 32.105 49.1736 30.4004 49.3942C28.6847 49.6404 26.9679 49.9499 25.2496 50.29C21.8139 50.9737 18.3655 51.7707 14.8821 52.6473C13.1407 53.0873 11.391 53.5486 9.63692 54.0437C8.76059 54.2917 7.88266 54.5486 7.01154 54.8245L5.71943 55.2568L5.10378 55.4944C4.91586 55.568 4.69144 55.6937 4.75831 55.6577C4.21981 56.388 4.45029 56.1203 4.40228 56.175C4.95418 56.2079 5.80845 56.0062 6.5661 55.8535C8.11258 55.5202 9.66511 55.0764 11.2414 54.6041C12.8179 54.1329 14.421 53.635 16.0781 53.2083C17.7328 52.7919 19.396 52.4075 21.0963 52.0315C24.4926 51.2926 27.9982 50.5964 31.6589 50.1579C32.5632 50.0575 33.5076 49.926 34.4832 49.9983C35.4479 50.0658 36.4029 50.2907 37.3019 50.6462C38.203 50.9952 39.0569 51.4653 39.8724 51.9686C40.6861 52.4431 41.5564 52.8586 42.4457 53.2296Z" fill="#1F1713"/>
<path d="M173.539 106.767C171.003 98.8426 162.401 88.9014 158.725 87.7961C158.605 87.7643 158.488 87.7344 158.369 87.6975C158.369 87.1896 158.27 86.7503 158.055 86.3972C156.16 83.2859 148.024 76.5501 144.343 75.4485C144.09 75.371 143.839 75.3027 143.59 75.2402C143.549 75.1271 143.498 75.0212 143.437 74.9272C141.543 71.8157 126.609 66.1491 122.931 65.0455C116.765 63.1984 117.159 62.7826 113.112 65.9742C112.377 56.8056 103.953 49.3809 96.0941 45.4271C90.2971 42.5079 70.0535 44.3943 69.1953 45.3947C68.7233 42.7777 67.1207 40.689 64.2134 39.6516C59.3641 37.9097 53.7572 41.856 50.4208 44.7758C48.5762 46.383 45.961 50.0389 42.6218 54.5514C38.6454 59.9287 37.2006 69.3643 40.9641 70.6349C46.0984 72.3668 53.5555 69.926 57.3689 66.3142C58.9294 64.8367 60.9829 62.6526 62.9448 60.2022C60.9343 66.7513 59.4704 73.6728 62.6352 79.985C68.4286 91.5445 85.8333 96.9837 96.0099 94.4182C99.3416 96.203 107.137 105.767 111.442 108.081C111.431 108.098 143.755 133.843 147.026 134.218C151.29 139.078 154.656 140.924 158.411 142.554C165.094 145.456 176.177 146.815 182.72 147.002C183.592 137.709 182.16 130.901 181.112 126.167C178.733 115.422 173.539 106.767 173.539 106.767Z" fill="white"/>
<path d="M173.539 106.767C173.539 106.767 173.315 105.981 172.684 104.524C172.05 103.074 170.973 100.966 169.243 98.4141C168.379 97.1401 167.355 95.7524 166.137 94.2978C164.915 92.8477 163.515 91.3092 161.818 89.8414C160.961 89.1244 160.041 88.3833 158.937 87.8921C158.812 87.8202 158.625 87.8124 158.54 87.7082C158.533 87.557 158.511 87.4044 158.462 87.2594C158.376 86.9651 158.226 86.6906 158.065 86.4245C157.739 85.8933 157.34 85.3972 156.918 84.9113C155.209 82.9818 153.138 81.1648 150.849 79.3882C149.697 78.509 148.484 77.6403 147.176 76.8504C146.521 76.4579 145.841 76.0847 145.125 75.7745C144.769 75.6079 144.387 75.5286 144.019 75.349C143.837 75.2516 143.678 75.1838 143.471 75.0923C143.357 74.911 143.234 74.7709 143.098 74.6216C141.965 73.4919 140.501 72.6882 139.037 71.8783C137.557 71.0832 136.004 70.3461 134.402 69.6299C131.194 68.2071 127.795 66.843 124.204 65.6115C123.309 65.3011 122.386 65.048 121.458 64.7648C120.53 64.4899 119.597 64.186 118.651 63.9686C117.705 63.7318 116.736 63.7235 115.896 64.2276C115.471 64.4553 115.068 64.7482 114.668 65.0477C114.2 65.4125 113.73 65.779 113.259 66.1472L113.029 66.3226C112.995 66.3426 112.944 66.4016 112.923 66.3906L112.907 66.2513L112.842 65.6926L112.778 65.1376L112.714 64.763C112.636 64.2619 112.523 63.7654 112.395 63.2712C112.136 62.2832 111.787 61.3099 111.355 60.3641C110.491 58.4741 109.317 56.6953 107.935 55.0542C105.162 51.7692 101.594 49.0156 97.6183 46.8178C97.121 46.5432 96.6152 46.279 96.1023 46.0261C95.5982 45.7639 95.1173 45.5813 94.5711 45.4259C93.4981 45.1202 92.3583 44.9402 91.2049 44.8119C88.8946 44.5609 86.5155 44.5162 84.1136 44.5518C81.7099 44.5952 79.2741 44.7308 76.8215 44.9564C75.5954 45.0704 74.3649 45.2072 73.1384 45.377C72.5255 45.4637 71.9136 45.5598 71.3115 45.6719C71.0118 45.7288 70.7132 45.7903 70.4285 45.8596C70.264 45.8611 69.8724 46.1344 69.6737 45.8722C69.4452 45.7745 69.2492 45.7712 69.1151 45.7414C69.0565 45.7295 69.0354 45.7428 68.9822 45.7224L68.7853 45.6416L68.5845 45.5593L68.3071 45.4547L68.178 44.9473C68.1561 44.8626 68.1382 44.7794 68.1027 44.6833L68.0521 44.5374C68 44.3796 67.9401 44.2249 67.8715 44.0745C67.7444 43.7704 67.5827 43.4839 67.4119 43.2056C67.0584 42.6553 66.6131 42.1698 66.0977 41.7586C65.0708 40.9476 63.728 40.3815 62.4257 40.2645C61.0941 40.136 59.6941 40.421 58.35 40.938C57.0021 41.4547 55.6986 42.1953 54.4539 43.0495C53.2212 43.8974 51.9856 44.8963 50.9012 45.904C49.8679 46.923 48.8917 48.1895 47.9304 49.4477C46.9696 50.718 46.0237 52.0272 45.0668 53.3463L43.6291 55.3303C43.1886 55.9387 42.7913 56.5928 42.4343 57.2741C41.7195 58.6392 41.1527 60.1097 40.7496 61.6225C40.3503 63.1307 40.1049 64.7018 40.149 66.1928C40.1536 67.665 40.6822 69.128 41.3502 69.2808C42.5897 69.7252 44.2376 69.8742 45.7704 69.7441C48.8976 69.4843 52.1047 68.3501 54.7558 66.5546C55.4274 66.0967 56.0099 65.6205 56.6006 65.043C57.2113 64.4525 57.8135 63.8408 58.4035 63.2126C59.585 61.9581 60.7254 60.6465 61.8136 59.2923L66.5376 53.413L64.3315 60.6232C62.9767 65.0508 61.8383 69.6286 62.3498 74.0954C62.6029 76.3203 63.2952 78.4465 64.4423 80.4048C65.5772 82.3684 67.0898 84.1454 68.8361 85.7002C72.3407 88.8092 76.7166 91.0591 81.3584 92.4583C83.6846 93.1519 86.0912 93.6316 88.5226 93.8293C89.7373 93.924 90.9584 93.9568 92.1721 93.8893C92.7782 93.8576 93.3825 93.802 93.9809 93.7211C94.2806 93.6799 94.5775 93.6321 94.8742 93.5783L95.332 93.4922L96.1753 93.3004L96.6986 93.6042C96.8682 93.7033 97.0729 93.8393 97.1393 93.8858C97.3363 94.0199 97.5189 94.1597 97.7014 94.2995C98.0607 94.5805 98.3999 94.8685 98.73 95.1599C99.3898 95.7451 100.014 96.3457 100.632 96.9516C101.861 98.1645 103.051 99.4013 104.25 100.629C105.448 101.854 106.648 103.077 107.889 104.245C108.508 104.829 109.138 105.398 109.786 105.934C110.109 106.201 110.438 106.46 110.77 106.702C111.115 106.953 111.413 107.153 111.81 107.381C115.719 110.529 119.656 113.698 123.618 116.889C127.575 120.032 131.577 123.172 135.654 126.26C137.694 127.802 139.751 129.333 141.851 130.812C142.902 131.549 143.962 132.277 145.051 132.95C145.594 133.281 146.151 133.616 146.712 133.849L146.916 133.922C146.944 133.958 147.168 133.922 147.219 134.038L147.578 134.447L148.224 135.162C149.964 137.055 151.906 138.781 154.1 140.151C156.299 141.506 158.68 142.603 161.143 143.443C166.102 145.077 171.318 145.949 176.555 146.527C177.867 146.665 179.184 146.78 180.503 146.861L182.485 146.96C182.571 146.959 182.651 146.974 182.693 146.959L182.713 146.739L182.757 146.245L182.833 145.254C183.012 142.61 183.021 139.948 182.84 137.292C182.663 134.636 182.296 131.988 181.784 129.367C181.265 126.746 180.693 124.128 179.901 121.564C179.121 118.999 178.188 116.476 177.128 114.004C176.062 111.536 174.89 109.103 173.539 106.767C176.124 111.305 178.188 116.128 179.758 121.09C180.549 123.572 181.138 126.111 181.659 128.659C182.184 131.205 182.587 133.779 182.81 136.37C183.036 138.96 183.086 141.565 182.971 144.162L182.855 146.108L182.815 146.594L182.795 146.836C182.767 146.886 182.836 147.131 182.666 147.06L181.67 147.026C180.37 146.974 179.074 146.889 177.78 146.779C172.605 146.319 167.438 145.562 162.412 144.152C157.41 142.728 152.56 140.314 148.827 136.564C148.355 136.107 147.897 135.638 147.448 135.158L146.859 134.514L146.823 134.508L146.693 134.472C146.603 134.444 146.519 134.414 146.437 134.382C146.273 134.318 146.118 134.247 145.967 134.173C144.767 133.57 143.672 132.857 142.571 132.146C140.379 130.707 138.243 129.198 136.113 127.674C131.858 124.621 127.652 121.488 123.449 118.324C121.355 116.734 119.257 115.142 117.156 113.548C115.097 111.96 113.035 110.37 110.967 108.777C109.386 107.904 108.039 106.728 106.74 105.586C105.444 104.428 104.201 103.227 102.968 102.026C101.738 100.835 100.507 99.643 99.2745 98.449C98.6539 97.8656 98.0286 97.2931 97.3941 96.7542C97.0764 96.4855 96.7562 96.227 96.4356 95.988C96.275 95.8698 96.115 95.7539 95.9567 95.6509L95.8598 95.5884L95.8397 95.5797L95.3427 95.6906C95.0303 95.7553 94.7168 95.8154 94.4035 95.8657C93.776 95.9679 93.1473 96.0436 92.5173 96.0979C91.2568 96.1991 89.995 96.2158 88.7416 96.153C86.2315 96.0293 83.7443 95.6263 81.313 94.9921C76.4635 93.7123 71.773 91.5543 67.7592 88.314C65.7632 86.6907 63.9502 84.7779 62.5124 82.5628C61.0679 80.3711 60.0321 77.7906 59.6299 75.1502C58.8007 69.8095 60.0945 64.6066 61.5594 59.7777C62.3821 60.2126 63.2286 60.6615 64.0763 61.11C63.0584 62.3801 61.9966 63.6118 60.8875 64.807C59.7428 66.0057 58.7043 67.1544 57.2729 68.2978C54.4858 70.429 51.2611 71.7395 47.8474 72.3503C46.1375 72.6376 44.3594 72.7284 42.5637 72.4534C42.1161 72.3892 41.6668 72.2914 41.22 72.1725C40.9966 72.1185 40.7759 72.0396 40.5531 71.9721C40.2807 71.8687 39.9656 71.7425 39.704 71.5651C38.5946 70.8592 38.0624 69.7595 37.7758 68.8155C37.2397 66.8777 37.3729 65.0827 37.6299 63.3465C37.9121 61.6142 38.4013 59.9434 39.0581 58.3321C39.7168 56.724 40.5504 55.1642 41.621 53.7389C42.6152 52.4185 43.6109 51.0942 44.6086 49.7681C45.6221 48.4421 46.6408 47.1124 47.7676 45.81C48.3367 45.1599 48.9264 44.5147 49.6327 43.8973C50.2847 43.3384 50.955 42.796 51.6489 42.2771C53.0362 41.2421 54.5161 40.2936 56.1326 39.538C57.7432 38.7885 59.5221 38.2222 61.4254 38.1802C62.3725 38.1705 63.3452 38.2883 64.2628 38.5983C65.1624 38.9039 66.0122 39.3035 66.7979 39.867C67.5764 40.426 68.2818 41.1196 68.8147 41.9329C69.091 42.3324 69.3108 42.7656 69.5079 43.2052C69.5969 43.4284 69.6925 43.6489 69.7622 43.8778L69.8184 44.0479C69.844 44.1221 69.8184 44.0479 69.8267 44.0787L69.834 44.1159C69.8502 44.1279 69.8347 44.203 69.8647 44.1755C69.883 44.1652 69.9003 44.1612 69.9184 44.1558L70.0522 44.1262C70.3917 44.0528 70.7238 43.9945 71.0546 43.9413C71.7151 43.8352 72.3709 43.7508 73.0254 43.6764C74.3355 43.5273 75.6457 43.4206 76.9598 43.3361C79.5864 43.1711 82.2265 43.0963 84.8831 43.1401C87.5383 43.194 90.212 43.3334 92.8921 43.8266C94.2097 44.0783 95.6197 44.447 96.8295 45.1516C98.0233 45.7872 99.186 46.4821 100.316 47.2342C104.796 50.2384 108.944 54.1015 111.457 59.0796C112.08 60.3171 112.574 61.627 112.914 62.9793C113.093 63.6536 113.21 64.3431 113.309 65.0346L113.335 65.2663L113.345 65.3694L113.35 65.4217L113.382 65.3974L113.851 65.0383C114.404 64.6235 114.962 64.2039 115.592 63.8562C116.215 63.5017 116.992 63.3009 117.722 63.3813C119.167 63.5514 120.446 64.0776 121.778 64.4715C124.447 65.2608 127.05 66.2955 129.646 67.3477C132.239 68.4151 134.819 69.5485 137.349 70.8182C138.613 71.4571 139.865 72.1289 141.067 72.8936C141.666 73.2782 142.255 73.687 142.792 74.1633C143.059 74.405 143.318 74.6581 143.52 74.9656C143.554 75.0113 143.549 75.0221 143.577 75.0277C143.613 75.0376 143.664 75.0574 143.704 75.0748L143.95 75.1929C144.111 75.277 144.259 75.3531 144.427 75.4041C145.795 75.8686 147.022 76.6323 148.221 77.4159C149.415 78.2128 150.57 79.0718 151.69 79.9765C153.905 81.8076 156.124 83.7142 157.858 86.0612C158.06 86.3651 158.256 86.674 158.397 87.0125C158.465 87.1823 158.518 87.3593 158.545 87.5409C158.576 87.6235 158.509 87.7567 158.617 87.7512C158.704 87.7783 158.79 87.812 158.875 87.8446C159.551 88.1265 160.164 88.5346 160.75 88.9683C161.92 89.8444 162.986 90.8563 164.006 91.9102C166.035 94.0302 167.873 96.3519 169.513 98.8187C171.143 101.293 172.607 103.919 173.539 106.767Z" fill="#1F1713"/>
<path d="M173.483 106.793L172.947 105.325L172.326 103.902C172.109 103.433 171.863 102.976 171.632 102.513C171.406 102.047 171.129 101.608 170.88 101.153C170.363 100.256 169.819 99.3727 169.233 98.5183C168.662 97.6532 168.045 96.8203 167.423 95.9913C166.792 95.169 166.136 94.3671 165.458 93.5835C164.774 92.8064 164.07 92.0458 163.335 91.3179C162.596 90.5933 161.828 89.8983 161.011 89.2718C160.595 88.9674 160.182 88.6587 159.731 88.4196C159.514 88.2803 159.287 88.1703 159.049 88.088C158.82 87.9857 158.586 87.9014 158.329 87.8441L158.233 87.8237L158.219 87.6996L158.15 87.1142C158.121 86.9208 158.014 86.7574 157.953 86.5774C157.775 86.256 157.473 85.9204 157.239 85.5925C156.754 84.9174 156.135 84.3845 155.592 83.7736C155.003 83.2023 154.387 82.652 153.787 82.0894L151.892 80.501C151.249 79.9872 150.582 79.503 149.928 79.0024C149.267 78.5121 148.571 78.0761 147.893 77.6101C147.56 77.3668 147.19 77.1926 146.84 76.9823L145.775 76.3763L144.663 75.922C144.304 75.75 143.908 75.6606 143.504 75.5525L143.372 75.5174L143.288 75.3525L143.193 75.1658L143.171 75.1187C143.202 75.1528 143.156 75.0992 143.15 75.0931L143.065 74.9915L142.724 74.5839C142.481 74.35 142.223 74.1632 141.978 73.9469C141.414 73.5506 140.841 73.1602 140.228 72.8163C139.636 72.447 138.998 72.1431 138.384 71.8055C137.749 71.4982 137.126 71.1725 136.484 70.8817C133.93 69.6889 131.313 68.6185 128.677 67.6059C127.358 67.101 126.035 66.6081 124.704 66.1471C123.379 65.6762 122.031 65.3029 120.667 64.8789C119.992 64.6755 119.316 64.4674 118.655 64.3081C117.992 64.1577 117.358 64.059 116.795 64.2154C116.226 64.3573 115.663 64.7186 115.108 65.117C114.551 65.5157 113.999 65.9618 113.445 66.3986L112.71 66.9766L112.578 66.0199L112.351 64.3722L111.957 62.7546L111.409 61.1797L110.728 59.6522L109.922 58.1815L109.009 56.7721L107.997 55.4239L106.903 54.1399L105.735 52.9175L104.503 51.7559C103.657 51.0075 102.784 50.2882 101.878 49.6107C100.063 48.2585 98.1331 47.059 96.1211 46.019C95.8724 45.8762 95.6482 45.7872 95.3701 45.6585C95.1131 45.5588 94.878 45.4748 94.6185 45.3903C94.0918 45.2303 93.5516 45.0953 93.0016 44.9868C91.9015 44.7686 90.7771 44.6239 89.6473 44.5241C87.3847 44.3276 85.1013 44.2777 82.8206 44.3024C80.5378 44.3337 78.2537 44.4332 75.9785 44.6239C74.8402 44.7189 73.7041 44.8339 72.5757 44.9824C72.0116 45.0542 71.45 45.1423 70.8948 45.2424C70.6184 45.2951 70.3426 45.3502 70.0765 45.4163C69.8418 45.4656 69.4784 45.6039 69.4569 45.621L68.9636 46.0002L68.8618 45.4586C68.5694 43.8999 67.8301 42.4115 66.6151 41.3843C65.4149 40.3791 63.8432 39.6876 62.286 39.548C60.6917 39.4424 59.0711 39.7855 57.5702 40.4115C56.0648 41.0336 54.6387 41.863 53.2986 42.8132C51.9589 43.7863 50.6671 44.7618 49.5489 46.0016C48.9397 46.5725 48.4713 47.2442 47.9362 47.8683C47.4077 48.4945 46.9038 49.149 46.4055 49.8119C45.4003 51.1263 44.4001 52.4469 43.4265 53.788C42.4241 55.1042 41.5284 56.4892 40.8719 57.9912C40.2018 59.4867 39.6936 61.0589 39.3687 62.664C39.0588 64.2657 38.884 65.9271 39.1495 67.5163C39.2865 68.3056 39.5581 69.0688 40.0244 69.6719C40.5 70.2947 41.2583 70.4498 42.0779 70.6659C43.6389 70.9902 45.308 70.9839 46.9158 70.7589C50.1376 70.2882 53.288 69.0555 55.8981 67.119C57.1989 66.1669 58.2621 64.8828 59.4454 63.7153C60.5615 62.4978 61.5893 61.2182 62.6643 59.975L63.7214 58.7541L63.2909 60.3059C62.9636 61.4847 62.5916 62.6533 62.3251 63.8436C62.0093 65.0246 61.8005 66.2235 61.5841 67.4204C61.4722 68.0185 61.4432 68.6242 61.3685 69.2259C61.2914 69.8281 61.2399 70.4305 61.2556 71.0356C61.26 71.6384 61.2224 72.2436 61.26 72.8437L61.4536 74.6361C61.4788 75.2402 61.7108 75.8052 61.8289 76.3915C61.968 76.9742 62.097 77.5605 62.361 78.1011L63.0471 79.7582L63.9652 81.3231C64.2547 81.8796 64.6461 82.3157 64.998 82.796C65.3599 83.2668 65.6942 83.7548 66.132 84.1766L67.3724 85.4877L68.7351 86.6773C69.1736 87.0916 69.6816 87.4232 70.1659 87.7833C70.6592 88.1304 71.1255 88.5177 71.6553 88.8127L73.2029 89.7572C73.7301 90.0517 74.2778 90.3135 74.8137 90.5926C75.3457 90.8811 75.8967 91.1312 76.4573 91.3597C77.0162 91.5911 77.5627 91.8532 78.1326 92.059C79.2749 92.4603 80.412 92.8809 81.5884 93.1725C82.7462 93.5302 83.943 93.7261 85.1265 93.9748C86.3242 94.1378 87.518 94.3308 88.7254 94.3727C89.3268 94.4257 89.9284 94.4484 90.5304 94.4249C91.13 94.4019 91.7361 94.449 92.33 94.3643C92.9245 94.2977 93.5255 94.2647 94.1141 94.1727L95.8648 93.8263L96.1432 93.7719L96.3003 93.88L97.4327 94.6594C97.8287 94.9101 98.1413 95.2091 98.473 95.4965C99.1355 96.0726 99.798 96.6487 100.408 97.2588C101.667 98.4527 102.876 99.6779 104.101 100.887C105.317 102.102 106.549 103.29 107.805 104.444C108.428 105.028 109.092 105.539 109.734 106.092C110.378 106.642 111.087 107.021 111.755 107.501L112.001 108.426C112.119 108.337 112.204 107.989 112.071 107.791C111.905 107.57 111.969 107.677 111.99 107.678L112.123 107.786L112.392 108.001L112.931 108.432L114.012 109.291L116.178 111.005L120.52 114.417L129.26 121.172C132.186 123.406 135.128 125.621 138.101 127.784C139.587 128.867 141.083 129.934 142.597 130.965C143.353 131.48 144.117 131.981 144.887 132.464C145.273 132.693 145.657 132.944 146.044 133.147C146.414 133.364 146.86 133.562 147.095 133.623L147.348 133.69L147.475 133.823L149.142 135.554C149.716 136.11 150.213 136.76 150.851 137.239L152.711 138.743C153.302 139.288 154.04 139.622 154.704 140.062C155.379 140.487 156.06 140.906 156.799 141.228C157.522 141.561 158.251 141.963 158.97 142.239L161.248 143.118L163.548 143.809C164.306 144.06 165.108 144.212 165.89 144.409C166.676 144.596 167.46 144.797 168.259 144.935L170.645 145.393L173.048 145.765C173.848 145.898 174.654 145.989 175.459 146.085C176.265 146.177 177.068 146.292 177.877 146.352C179.492 146.515 181.11 146.616 182.729 146.693L182.414 146.972L182.609 144.374C182.697 143.509 182.676 142.639 182.705 141.77C182.739 140.902 182.733 140.032 182.692 139.164C182.668 138.295 182.649 137.425 182.564 136.56C182.446 134.825 182.243 133.096 181.966 131.376C181.71 129.653 181.355 127.947 180.989 126.241L180.349 123.708C180.144 122.859 179.924 122.015 179.641 121.192L178.846 118.704L177.928 116.257C177.636 115.435 177.282 114.638 176.94 113.836C176.603 113.032 176.257 112.231 175.874 111.448C175.146 109.865 174.345 108.313 173.486 106.797L173.483 106.793ZM173.596 106.743C174.469 108.257 175.279 109.801 176.019 111.381C176.408 112.163 176.759 112.963 177.103 113.766C177.451 114.567 177.811 115.364 178.11 116.185L179.049 118.633L179.864 121.128C180.156 121.955 180.381 122.798 180.592 123.644L181.253 126.182C181.622 127.889 182.022 129.591 182.307 131.319C182.614 133.041 182.849 134.778 182.999 136.524C183.099 137.395 183.134 138.27 183.173 139.145C183.228 140.02 183.251 140.897 183.232 141.773C183.218 142.649 183.253 143.527 183.18 144.401L183.028 147.028L183.012 147.316L182.713 147.306C181.08 147.253 179.447 147.175 177.818 147.036C177.002 146.988 176.191 146.885 175.379 146.804C174.566 146.718 173.753 146.64 172.945 146.517L170.518 146.179L168.102 145.752C167.293 145.626 166.496 145.434 165.696 145.255C164.897 145.067 164.094 144.926 163.301 144.678L160.914 143.996L158.623 143.152C157.819 142.854 157.113 142.473 156.353 142.136C155.592 141.818 154.878 141.395 154.168 140.964C153.471 140.517 152.699 140.174 152.076 139.621L150.115 138.084C149.443 137.59 148.926 136.938 148.325 136.371L146.581 134.608L146.961 134.808C146.647 134.742 146.343 134.647 146.138 134.542C145.898 134.443 145.682 134.332 145.475 134.217C145.043 133.996 144.651 133.749 144.242 133.513C143.45 133.017 142.672 132.509 141.906 131.988C140.372 130.949 138.866 129.878 137.371 128.794C134.382 126.627 131.43 124.413 128.495 122.182L119.731 115.433L115.375 112.025L113.203 110.313L112.119 109.454L111.578 109.024L111.306 108.807L111.17 108.698C111.145 108.662 111.166 108.734 110.956 108.476C110.778 108.24 110.819 107.856 110.892 107.731L111.138 108.657C110.404 108.143 109.592 107.684 108.929 107.113C108.267 106.54 107.57 105.994 106.941 105.398C105.666 104.215 104.426 103.008 103.212 101.784C101.991 100.569 100.788 99.3367 99.5549 98.1561C98.9486 97.5452 98.315 96.9892 97.6811 96.4319C97.3647 96.1532 97.0535 95.8551 96.717 95.6464L95.7233 94.9538L96.1588 95.0075L94.2923 95.3672C93.6678 95.4614 93.0379 95.495 92.4117 95.5605C91.7848 95.6443 91.1564 95.5951 90.5293 95.6147C89.9013 95.6357 89.2757 95.6089 88.6514 95.5514C87.3983 95.5006 86.1647 95.2974 84.9274 95.1205C83.7071 94.8597 82.4741 94.649 81.2826 94.2761C80.0723 93.9693 78.9035 93.5317 77.7289 93.1112C77.1436 92.8968 76.5813 92.6238 76.0057 92.3829C75.4295 92.1446 74.8617 91.885 74.3163 91.5802C73.7661 91.2863 73.2055 91.0104 72.6638 90.7011L71.0737 89.7082C70.5315 89.3966 70.0504 88.9922 69.543 88.6265C69.0451 88.2489 68.5245 87.8996 68.0726 87.4641L66.6706 86.2145L65.3914 84.8347C64.947 84.395 64.5857 83.8635 64.2045 83.356C63.8351 82.8421 63.4162 82.3445 63.1422 81.8025L62.2126 80.1773L61.5045 78.4197C61.234 77.8454 61.1036 77.2268 60.962 76.6119C60.8441 75.9952 60.6113 75.3952 60.5883 74.7639L60.4058 72.8877C60.3735 72.2634 60.4183 71.6371 60.421 71.012C60.412 70.3836 60.4704 69.7638 60.5561 69.1463C60.6394 68.5293 60.6762 67.9049 60.7975 67.2949C61.0304 66.0747 61.257 64.8536 61.5897 63.6614C61.8731 62.4551 62.2601 61.2831 62.6024 60.0959L63.2279 60.4271C62.1247 61.6793 61.0577 62.9728 59.9241 64.1882C58.7423 65.336 57.6656 66.6245 56.2778 67.6306C53.546 69.6229 50.32 70.8537 46.9926 71.3184C45.3222 71.5348 43.6284 71.5394 41.9418 71.175C41.5297 71.0542 41.16 70.9914 40.7259 70.8016C40.5262 70.6924 40.3083 70.6044 40.1271 70.4703L39.6378 69.9986C39.0901 69.2845 38.8106 68.4395 38.6691 67.5991C38.4018 65.9073 38.599 64.2115 38.9262 62.5744C39.2709 60.9344 39.8002 59.338 40.4932 57.8154C41.1795 56.2797 42.106 54.8707 43.1215 53.5587L46.084 49.5634C46.5764 48.8958 47.0758 48.2327 47.6107 47.5868C48.1475 46.949 48.6316 46.2506 49.2299 45.6799C50.324 44.4407 51.6789 43.3864 53.0095 42.4057C54.3625 41.427 55.8113 40.5645 57.3629 39.9063C58.908 39.2459 60.6105 38.8585 62.3307 38.9581C64.0751 39.1103 65.6782 39.8068 67.0284 40.8998C68.3693 42.0107 69.2036 43.6531 69.5307 45.336L68.937 45.1745C69.3676 44.8279 69.5928 44.8585 69.9018 44.7473C70.19 44.6724 70.4768 44.6123 70.763 44.5549C71.3347 44.4474 71.9056 44.3522 72.4779 44.2737C73.6215 44.1121 74.7661 43.9866 75.9115 43.8803C78.2039 43.6698 80.5019 43.5308 82.8036 43.4709C85.1061 43.4145 87.4127 43.4335 89.7225 43.6034C90.8772 43.6902 92.0325 43.8217 93.1846 44.034C93.7607 44.1401 94.3359 44.2744 94.9086 44.4395C95.1944 44.5276 95.5013 44.6339 95.7793 44.7409C96.0235 44.8483 96.3324 44.9736 96.5829 45.1135C98.6514 46.1671 100.631 47.3891 102.501 48.7698C103.435 49.4616 104.336 50.1964 105.209 50.9638L106.486 52.1564L107.699 53.4155L108.841 54.7445L109.899 56.1437L110.862 57.6145L111.716 59.1567L112.441 60.7684L113.013 62.4446L113.419 64.1722L113.648 65.9335L112.781 65.5548C113.344 65.1195 113.897 64.6769 114.496 64.2552C115.09 63.8418 115.738 63.4075 116.552 63.2042C117.375 62.994 118.187 63.1477 118.892 63.3125C119.608 63.4909 120.285 63.707 120.964 63.9179C122.302 64.3446 123.683 64.7394 125.026 65.229C126.368 65.7054 127.695 66.2133 129.02 66.7314C131.66 67.7868 134.269 68.917 136.829 70.1655C137.473 70.4707 138.099 70.8125 138.735 71.1353C139.356 71.4905 139.994 71.8093 140.599 72.1998C141.217 72.5618 141.809 72.9784 142.395 73.4083C142.68 73.6615 142.987 73.9086 143.244 74.173L143.577 74.5862L143.66 74.6895C143.682 74.7197 143.671 74.6943 143.718 74.7708L143.753 74.8426L143.892 75.1332L143.676 74.9332C144.068 75.0465 144.481 75.1467 144.87 75.3371L146.048 75.8443L147.13 76.4837C147.485 76.7039 147.864 76.8929 148.196 77.1439C148.875 77.6277 149.575 78.0824 150.234 78.5902C150.885 79.1071 151.55 79.6073 152.19 80.1365L154.072 81.7703C154.67 82.3492 155.279 82.9134 155.868 83.5039C156.414 84.1372 157.047 84.7127 157.518 85.3913C157.756 85.7402 158.019 86.0275 158.237 86.4248C158.309 86.6336 158.426 86.8359 158.456 87.0522L158.52 87.7006L158.41 87.5562C158.659 87.6164 158.913 87.7096 159.157 87.8231C159.41 87.9175 159.647 88.0363 159.867 88.1834C160.33 88.4405 160.744 88.7609 161.167 89.0709C161.993 89.7136 162.763 90.419 163.502 91.1533C164.238 91.8918 164.94 92.6601 165.623 93.4436C166.298 94.2363 166.953 95.0447 167.581 95.8747C168.202 96.7091 168.815 97.55 169.383 98.4219C169.966 99.2831 170.507 100.173 171.02 101.077C171.268 101.534 171.542 101.978 171.766 102.447C171.995 102.914 172.238 103.373 172.454 103.849L173.071 105.284L173.596 106.743Z" fill="#1F1713"/>
<path d="M115.823 111.406C115.823 111.406 116.201 110.086 117.076 107.807C117.95 105.529 119.32 102.291 121.331 98.5062C123.347 94.7301 125.989 90.3783 129.551 86.0739C131.335 83.9301 133.354 81.7987 135.679 79.8748C138.006 77.9939 140.707 76.2208 143.699 75.518C140.61 77.1623 138.248 79.7508 135.96 82.3576C133.706 85.0255 131.594 87.8804 129.46 90.8965C125.219 96.9458 120.795 103.579 115.823 111.406Z" fill="#1F1713"/>
<path d="M158.141 87.5018C158.141 87.5018 155.455 92.1317 150.753 98.8898C148.408 102.276 145.552 106.189 142.364 110.414C140.792 112.517 139.143 114.719 137.425 117.016C136.598 118.167 135.746 119.336 134.97 120.571C134.204 121.816 133.412 123.066 133.025 124.624C133.03 122.772 133.647 121.068 134.282 119.439C134.943 117.81 135.722 116.242 136.554 114.698C138.236 111.621 140.158 108.651 142.292 105.685C146.576 99.7638 151.689 93.8325 158.141 87.5018Z" fill="#1F1713"/>
<path d="M147.268 134.397C147.268 134.397 149.151 130.177 153.26 124.361C155.32 121.461 157.932 118.154 161.218 114.898C162.864 113.275 164.681 111.662 166.713 110.192C167.738 109.468 168.801 108.76 169.958 108.178C171.097 107.609 172.368 107.079 173.591 107.063C172.291 107.541 171.181 108.482 170.12 109.434C169.061 110.402 168.059 111.445 167.062 112.507C165.08 114.647 163.134 116.887 161.094 119.201C157.032 123.842 152.575 128.769 147.268 134.397Z" fill="#1F1713"/>
<path d="M51.2647 58.0108C49.6503 57.1654 49.283 54.0767 49.7352 52.5138C50.5716 49.651 52.7877 47.073 55.2511 45.4626C57.152 44.2158 62.1906 42.291 63.6136 45.3158C65.8453 50.0665 56.4666 58.5049 52.036 58.2223C51.7526 58.2027 51.5021 58.1307 51.2647 58.0108Z" fill="#1F1713"/>
<path d="M51.4036 57.745C51.4036 57.745 51.3405 57.7134 51.2176 57.6532C51.1032 57.5777 50.8653 57.5343 50.6718 57.3049C50.1948 56.9394 49.6925 56.1167 49.3744 54.9519C49.2188 54.3657 49.1139 53.6951 49.1507 52.9179C49.1708 52.5107 49.2499 52.1226 49.3573 51.7365C49.4404 51.3342 49.5767 50.9366 49.7364 50.53C50.3592 48.8975 51.4398 47.168 53.0484 45.6575C53.4413 45.2687 53.879 44.9108 54.3423 44.5591C54.806 44.1988 55.3596 43.8603 55.8925 43.5896C56.9817 43.0343 58.1637 42.5764 59.5459 42.3561C60.2322 42.2465 60.9941 42.2225 61.8117 42.3615C62.6181 42.4837 63.5631 42.9232 64.2166 43.6651C65.5553 45.1767 65.5235 47.1592 65.0692 48.6499C64.5882 50.1612 63.7684 51.4281 62.8141 52.5477C61.8603 53.6696 60.7583 54.6535 59.5538 55.5082C58.3521 56.3646 57.0331 57.0905 55.6228 57.6046C54.9166 57.8546 54.1812 58.0459 53.4391 58.1187C52.7079 58.1865 51.9094 58.1304 51.4016 57.7418C52.0782 57.9739 52.8812 57.744 53.61 57.4609C54.3471 57.1662 55.0471 56.7527 55.714 56.2959C57.0481 55.3774 58.2619 54.2683 59.3419 53.0627C60.4133 51.8567 61.3779 50.5287 61.993 49.1416C62.2949 48.4524 62.4999 47.748 62.5301 47.1214C62.5535 46.5231 62.3847 45.9327 62.1143 45.6482C61.8697 45.3759 61.4517 45.1715 60.7548 45.1514C60.0777 45.1328 59.2819 45.2725 58.4918 45.5055C56.8719 45.9673 55.4047 46.771 54.0235 47.9901C52.6571 49.1683 51.4241 50.6358 50.6737 52.3984C50.2829 53.2123 50.1939 54.152 50.2682 55.1534C50.3593 56.117 50.6352 57.1617 51.4036 57.745Z" fill="#1F1713"/>
<path d="M112.854 65.8189C112.854 65.8189 108.223 81.17 95.752 94.2629C99.8443 84.8211 104.56 76.3211 112.854 65.8189Z" fill="#1F1713"/>
<path d="M77.5115 120.402C72.4082 114.811 73.9742 108.243 76.4721 101.973C78.7773 96.1609 80.9658 90.3481 83.1648 84.5013C84.3812 81.2672 86.0851 78.0129 88.497 75.4953C89.9418 73.9838 95.3839 68.9539 97.0406 72.6452C98.0533 74.9097 95.7674 78.1271 94.6359 79.9666C92.9639 82.686 89.6421 86.6744 87.5978 89.1195C85.8903 91.1693 85.8106 93.2648 85.1443 95.7767C83.7319 101.133 83.1204 104.093 78.1058 106.922C72.3265 110.189 76.715 116.534 78.1336 121.087L77.5115 120.402Z" fill="white"/>
<path d="M77.7329 120.199C77.7329 120.199 77.5892 120.049 77.3115 119.759C77.1721 119.612 76.9978 119.429 76.7914 119.212C76.6081 118.974 76.3945 118.7 76.153 118.388C75.2279 117.135 74.0594 114.958 73.8981 111.869C73.6879 108.794 74.5793 105.049 76.042 101.047C77.4093 97.0268 78.9882 92.4772 80.7651 87.4928C81.2166 86.2429 81.65 84.9826 82.1512 83.6643C82.4149 82.9985 82.6818 82.3258 82.9496 81.6469C83.2568 80.9808 83.5987 80.3175 83.9295 79.6435C84.2331 78.9564 84.694 78.3312 85.0919 77.6696L85.7171 76.6841L86.4678 75.7593C87.4392 74.4769 88.5978 73.349 89.8728 72.3217C90.5196 71.8089 91.2074 71.3157 91.9713 70.8693C92.7586 70.4454 93.6116 70.0172 94.7839 69.9012L95.2274 69.8741C95.3871 69.8834 95.5583 69.9107 95.7229 69.9358C95.8897 69.9653 96.0547 69.9867 96.2191 70.0373C96.3849 70.1046 96.5512 70.179 96.7139 70.2592C97.0586 70.4029 97.307 70.6391 97.5586 70.8842C97.8376 71.1267 97.9726 71.3866 98.134 71.6502C98.483 72.1603 98.6242 72.7886 98.7109 73.3652C98.7571 73.939 98.7317 74.5026 98.6248 75.0014C98.2052 77.0212 97.2116 78.5124 96.313 79.9635C95.8858 80.6561 95.3764 81.3761 94.8726 82.1045C94.3804 82.8461 93.8467 83.5292 93.3068 84.2114C92.2449 85.6008 91.1111 86.9254 89.9754 88.2735L89.1124 89.2739C88.8274 89.6051 88.5123 89.9578 88.3131 90.2353C87.8391 90.8138 87.5024 91.4783 87.2334 92.2314C86.9568 92.9778 86.7639 93.8189 86.5406 94.707C86.3194 95.6044 86.052 96.5014 85.796 97.3583C85.2538 99.0983 84.7417 100.927 83.7499 102.663C82.7584 104.411 81.2022 105.781 79.5514 106.766L78.308 107.489C77.9602 107.732 77.526 107.894 77.2329 108.2C76.5265 108.707 76.0717 109.453 75.7799 110.265C75.4833 111.088 75.4761 112.019 75.572 112.936C75.659 113.86 75.8999 114.78 76.1613 115.693C76.6969 117.518 77.4289 119.316 77.9006 121.159C78.0344 121.082 78.1694 121.005 78.311 120.925C78.1228 120.687 77.9284 120.443 77.7329 120.199L78.3812 120.861C78.1883 120.971 78.0009 121.079 77.8127 121.188C77.0673 119.142 75.9878 117.203 75.2446 115.056C74.8761 113.982 74.5668 112.856 74.5184 111.641C74.4745 110.435 74.8011 109.111 75.5698 108.08C75.7355 107.799 75.9602 107.58 76.1844 107.359C76.4085 107.137 76.6236 106.897 76.8827 106.738L78.2948 105.758C79.1872 105.196 79.9758 104.531 80.6608 103.799C82.0291 102.33 82.7334 100.414 83.2854 98.3163C83.5647 97.2867 83.8272 96.1689 84.0739 95.1189C84.3177 94.083 84.4843 92.9751 84.8174 91.7901C85.1447 90.6113 85.71 89.3655 86.5408 88.3519C87.2443 87.4744 87.9497 86.5953 88.6581 85.713C90.0395 83.953 91.4621 82.1713 92.6715 80.3382C93.2772 79.4577 93.9285 78.4273 94.4811 77.49C95.0341 76.549 95.5147 75.5882 95.7347 74.7069C95.9743 73.8211 95.7675 73.1655 95.4702 72.8957C95.3537 72.8267 95.3133 72.7305 94.9399 72.7935C94.6118 72.8376 94.1736 72.9774 93.7312 73.2091C92.8414 73.6566 91.9285 74.3144 91.0698 75.0385C90.64 75.4043 90.2154 75.787 89.8104 76.1811C89.4005 76.5593 89.0745 77.0285 88.698 77.4462C85.6632 80.8543 84.204 85.5861 82.2184 90.3385C80.2965 95.0617 78.3217 99.9135 76.2836 104.922C75.3702 107.403 74.6948 110.023 74.7687 112.706C74.8183 115.389 75.9092 118.03 77.7329 120.199Z" fill="#1F1713"/>
<path d="M55.667 106.805C58.7671 95.4614 57.8297 89.1089 58.323 82.2364C58.5929 78.4407 60.7043 67.2994 62.2239 64.0816C63.1342 62.1549 67.7717 54.4112 70.1825 58.2136C71.655 60.548 69.2153 66.1496 68.6708 68.3849C67.8599 71.6953 65.4056 75.6973 64.1955 78.7638C63.1823 81.3435 60.5113 86.015 60.4519 93.3659C60.4009 100.127 55.667 106.805 55.667 106.805Z" fill="white"/>
<path d="M55.9567 106.884C55.9567 106.884 56.0883 106.108 56.3371 104.646C56.617 103.193 56.9206 101.033 57.1768 98.2724C57.4477 95.5072 57.4733 92.1401 57.3808 88.2291C57.3362 86.2726 57.292 84.1656 57.3805 81.9081C57.5104 79.6094 57.8556 77.3036 58.2338 74.8568C58.6262 72.4189 59.1209 69.8882 59.7623 67.2523C59.9468 66.5902 60.1325 65.9229 60.3189 65.2482C60.5796 64.554 60.8 63.8375 61.1365 63.1403C61.8118 61.8146 62.5669 60.5881 63.4777 59.3633C63.9377 58.7554 64.4268 58.1528 65.0127 57.5752C65.6047 57.0035 66.2522 56.4202 67.2559 55.9986C67.7497 55.7951 68.4158 55.6501 69.1269 55.7797C69.8451 55.9028 70.4624 56.3195 70.8584 56.7436C71.0779 56.9598 71.22 57.1769 71.3767 57.399C71.5215 57.6434 71.6491 57.9183 71.7685 58.1842C71.8467 58.4391 71.9161 58.6983 71.9806 58.9575L72.0703 59.6886C72.1494 61.5632 71.722 63.1337 71.2836 64.6825C70.8239 66.2338 70.289 67.6848 69.8537 69.1262C69.5696 69.9241 69.284 70.7259 68.9959 71.5332C68.6441 72.2739 68.291 73.0197 67.9364 73.7695C67.2292 75.236 66.4143 76.6763 65.7608 78.1074C64.3715 81.1279 62.8355 84.0112 62.018 87.214L61.699 88.4127L61.4694 89.637L61.2471 90.8716L61.1239 92.1259L60.9957 93.3899L60.821 94.7154C60.7553 95.1562 60.7095 95.5996 60.6264 96.0335L60.2669 97.3143C59.2729 100.703 57.5575 103.861 55.4209 106.631C56.4668 104.915 57.3701 103.084 58.0577 101.206C58.455 100.284 58.6762 99.3081 58.9762 98.3635C59.1872 97.4006 59.394 96.4302 59.5061 95.4646C59.5449 94.4699 59.6317 93.5841 59.636 92.4979C59.6491 91.4496 59.6688 90.3986 59.8197 89.3538C60.0201 87.256 60.5244 85.1827 61.1819 83.1748C61.5049 82.1667 61.8968 81.1839 62.2848 80.2215C62.7001 79.2406 63.0111 78.3856 63.4569 77.3686C63.8707 76.376 64.2971 75.4011 64.7426 74.4775C65.1965 73.5326 65.6162 72.5968 66.009 71.6709C66.2013 71.2058 66.4369 70.7393 66.5968 70.2756L67.0436 68.8897L67.272 68.1969C67.349 67.9839 67.4182 67.6321 67.4982 67.3845L67.973 65.8358C68.5864 63.8623 69.2198 61.8077 69.1953 60.0806C69.1869 59.6654 69.1161 59.2949 69.0048 59.1011C68.9792 59.0112 68.8687 58.8524 68.7925 58.7742C68.7132 58.6724 68.6561 58.6613 68.6379 58.64C68.6227 58.6423 68.5514 58.5908 68.241 58.7327C67.9589 58.8607 67.6041 59.1147 67.2671 59.4203C65.9005 60.6919 64.6523 62.5461 63.6578 64.36C62.8208 66.0941 62.268 68.341 61.6959 70.5039C61.1725 72.7101 60.6589 74.9589 60.232 77.252C60.0002 78.3979 59.8184 79.5505 59.6247 80.7095C59.5528 81.2814 59.4806 81.8571 59.4083 82.4327C59.365 83.0235 59.3197 83.616 59.276 84.2105C59.1109 86.5985 59.0616 89.0628 58.8698 91.5819C58.7172 94.0979 58.3608 96.6501 57.9148 99.2131C57.632 100.485 57.3612 101.767 57.053 103.049C56.6894 104.318 56.3253 105.595 55.9567 106.884Z" fill="#1F1713"/>
<path d="M35.3461 73.5489C35.3461 73.5489 35.2829 73.6799 35.1717 73.9128C35.0714 74.1457 34.9269 74.5234 34.9721 74.9616C35.0297 75.3643 35.2435 75.9819 35.5522 76.4164C35.7329 76.6379 35.8651 76.6487 36.0145 76.5815C36.2 76.5133 36.4709 76.2945 36.7177 76.0242C37.2241 75.4807 37.7252 74.7614 38.2508 73.9855C38.5171 73.5895 38.7897 73.1835 39.0703 72.7648C39.2198 72.5509 39.3564 72.3387 39.5689 72.0824L39.6794 71.9515C39.6978 71.9315 39.6959 71.9392 39.7038 71.9313L39.7307 71.9166C39.7525 71.9007 39.7763 71.8722 39.8007 71.8205C39.8047 71.7747 39.773 71.7686 39.7306 71.7529C39.6867 71.7412 39.6633 71.7187 39.3254 71.8148C39.0636 71.8836 38.798 71.9618 38.5305 72.0477C37.4658 72.4045 36.3604 72.7999 35.3461 73.5489C36.2025 72.367 37.4228 71.5547 38.7131 70.9094L39.2153 70.6846C39.4621 70.5926 39.8045 70.4688 40.0979 70.4109C40.4006 70.346 40.6813 70.3383 40.8903 70.409C41.1009 70.455 41.2943 70.6578 41.3089 70.9103C41.4965 71.3509 41.2828 71.9967 40.9637 72.5747L40.8203 72.7835L40.7257 72.9096L40.5814 73.1041L40.2958 73.5325C39.4713 74.7422 38.6649 76.0618 37.2163 77.1619C37.0184 77.2924 36.8143 77.4219 36.546 77.5152C36.3047 77.6096 35.9307 77.6752 35.5877 77.5493C35.2514 77.4315 34.9929 77.1564 34.8731 76.9209C34.7383 76.6779 34.6705 76.4413 34.6158 76.209C34.5339 75.738 34.4646 75.332 34.557 74.7699C34.6974 74.2586 35.0122 73.8781 35.3461 73.5489Z" fill="#1F1713"/>
<path d="M69.0599 45.3283C69.0599 45.3283 68.6815 47.238 67.6856 50.0187C66.6842 52.8285 65.0739 56.3838 62.7997 60.1623C63.0474 58.9484 63.3265 57.7395 63.6526 56.5185C63.9798 55.2972 64.4727 54.1481 64.9626 52.933C65.9516 50.5116 67.3014 48.0568 69.0599 45.3283Z" fill="#1F1713"/>
<path d="M57.0193 51.396C56.2395 50.9839 56.0555 49.4803 56.2756 48.7202C56.683 47.3314 57.7625 46.0762 58.9616 45.2931C59.8824 44.6905 62.332 43.7574 63.021 45.2271C64.1061 47.532 59.5454 51.6312 57.401 51.4948C57.2589 51.4887 57.1281 51.4521 57.0193 51.396Z" fill="white"/>
<path d="M117.466 64.4087C117.466 64.4087 118.299 64.5342 119.873 64.7707C120.664 64.8831 121.642 65.0385 122.771 65.3215C123.903 65.593 125.233 65.8418 126.671 66.3085C127.397 66.5255 128.163 66.7541 128.966 66.9946C129.769 67.2414 130.586 67.5672 131.453 67.8731C133.197 68.463 135.017 69.277 136.989 70.1127C140.878 71.8975 145.188 74.1625 149.685 77.0733C154.185 79.9869 158.847 83.5787 163.303 87.9903C167.743 92.3945 172.002 97.6676 175.244 103.899C178.511 110.1 180.691 117.109 181.98 124.412C182.615 128.07 182.992 131.813 183.132 135.595C183.212 137.486 183.193 139.39 183.121 141.293C183.006 143.176 182.907 145.154 182.43 146.914C182.747 144.833 182.621 142.57 182.51 140.403C182.392 138.217 182.139 136.04 181.864 133.872C181.26 129.541 180.381 125.254 179.202 121.035C176.794 112.62 173.206 104.422 167.587 97.236C162 90.0184 154.889 83.5218 146.559 77.853C142.378 75.0186 137.91 72.3426 133.08 70.0178C128.255 67.6945 123.071 65.6744 117.466 64.4087Z" fill="#1F1713"/>
<path d="M95.5042 94.9121C95.5042 94.9121 95.5784 94.929 95.7242 94.9621C95.8684 95.004 96.0959 95.0231 96.3757 95.143C96.9529 95.3228 97.7755 95.7517 98.7707 96.4354C99.7633 97.1234 100.922 98.081 102.2 99.2854C103.485 100.475 104.882 101.955 106.49 103.456L106.493 103.459L106.524 103.494C109.491 106.803 113.87 109.987 119.277 112.863C120.63 113.597 122.071 114.281 123.542 115.065C124.283 115.455 125.033 115.851 125.792 116.254C126.549 116.715 127.316 117.183 128.091 117.656C128.9 118.115 129.554 118.673 130.289 119.197C131.007 119.731 131.733 120.272 132.466 120.817C133.93 121.918 135.423 123.041 136.945 124.186C137.703 124.763 138.468 125.345 139.239 125.932C140.015 126.515 140.72 127.195 141.472 127.833C142.954 129.114 144.457 130.377 146.016 131.637C149.135 134.145 152.444 136.595 156.011 138.815C163.108 143.216 171.467 146.738 180.719 146.836C173.774 147.564 166.734 146.135 160.292 143.404C153.843 140.628 147.903 136.704 142.27 132.211C140.865 131.072 139.474 129.918 138.122 128.742C136.714 127.621 135.246 126.554 133.797 125.436C132.344 124.324 130.878 123.202 129.397 122.068C128.66 121.498 127.918 120.926 127.172 120.351C126.416 119.859 125.654 119.364 124.889 118.868C121.719 116.945 118.146 115.164 114.762 112.848C111.396 110.567 108.117 107.798 105.46 104.379L105.51 104.434C103.924 102.702 102.522 100.888 100.938 99.1688C100.151 98.3109 99.3325 97.4688 98.4456 96.708C97.5596 95.9566 96.5923 95.2519 95.5042 94.9121Z" fill="#1F1713"/>
<path d="M116.574 92.1539C121.524 92.2065 120.507 104.849 120.415 107.911C120.252 113.678 119.356 119.378 118.669 125.095C118.047 130.31 118.547 136.028 117.313 141.113C116.111 146.077 112.983 151.157 113.962 156.426C114.803 160.982 121.593 161.854 121.94 166.352C118.042 164.125 114.146 160.348 110.828 157.241C103.1 150.007 103.844 137.325 107.077 128.277C108.523 124.231 108.733 120.379 109.391 116.182C110.106 111.611 109.076 92.9986 116.177 92.1688C116.316 92.1551 116.45 92.1484 116.574 92.1539Z" fill="white"/>
<path d="M116.373 92.4607C116.36 92.494 116.864 92.338 117.663 92.7819C118.468 93.2245 119.303 94.5018 119.81 96.3324C120.881 100.018 120.965 105.666 120.678 112.722C120.487 116.255 120.055 120.137 119.637 124.323C119.137 128.447 119.498 132.95 119.029 137.934C118.905 139.176 118.707 140.448 118.405 141.727C118.095 143.004 117.688 144.242 117.27 145.466C116.438 147.907 115.526 150.332 115.237 152.791C115.091 153.996 115.123 155.277 115.378 156.367C115.604 157.319 116.311 158.169 117.302 158.988C118.288 159.812 119.504 160.565 120.724 161.597C121.328 162.124 121.95 162.724 122.454 163.517C122.968 164.292 123.309 165.271 123.386 166.24L123.607 168.988L121.223 167.609C118.363 165.954 115.869 163.841 113.453 161.644C112.244 160.542 111.061 159.411 109.873 158.285C108.584 157.066 107.457 155.643 106.557 154.089C104.745 150.971 103.841 147.397 103.599 143.824C103.357 140.24 103.735 136.623 104.564 133.096C104.98 131.334 105.517 129.585 106.166 127.883C106.776 126.279 107.217 124.592 107.562 122.854C107.906 121.115 108.164 119.325 108.47 117.518L108.709 116.161C108.79 115.735 108.845 115.3 108.897 114.852C108.997 113.957 109.071 113.044 109.15 112.129C109.461 108.468 109.789 104.742 110.595 101.077C111.007 99.2531 111.529 97.4269 112.387 95.7595C112.82 94.9334 113.345 94.1455 114.022 93.5312C114.693 92.9145 115.534 92.5134 116.411 92.4594C114.783 92.6708 113.636 94.0385 112.936 95.5057C112.22 96.9984 111.803 98.6442 111.495 100.3C110.891 103.627 110.721 107.033 110.596 110.445C110.529 112.159 110.511 113.858 110.373 115.632L109.763 120.78C109.554 122.499 109.312 124.248 108.9 125.989C108.696 126.859 108.456 127.726 108.167 128.582C107.895 129.388 107.648 130.184 107.429 130.998C106.548 134.244 106.054 137.618 106.062 140.983C106.077 144.34 106.614 147.717 107.955 150.743C108.625 152.253 109.496 153.665 110.567 154.911C111.598 156.106 113.035 157.307 114.324 158.54C116.959 160.952 119.66 163.348 122.66 165.095C121.954 165.541 121.226 166.003 120.499 166.464C120.438 165.458 119.791 164.565 118.718 163.669C117.668 162.774 116.334 161.957 115.054 160.797C114.416 160.216 113.79 159.519 113.304 158.668C112.816 157.837 112.547 156.738 112.476 155.925C112.268 154.176 112.456 152.43 112.826 150.794C113.577 147.514 114.986 144.592 115.858 141.635C116.726 138.714 116.944 135.522 117.103 132.235C117.183 130.589 117.254 128.911 117.396 127.21C117.53 125.492 117.804 123.802 118.039 122.129C118.527 118.763 119.046 115.374 119.391 111.926C119.572 110.195 119.672 108.481 119.771 106.696C119.873 104.937 119.942 103.17 119.906 101.395C119.864 99.6242 119.744 97.8317 119.337 96.1104C119.128 95.2564 118.843 94.4101 118.376 93.7018C117.917 92.9916 117.214 92.4792 116.373 92.4607Z" fill="#1F1713"/>
<path d="M171.772 5.40988C175.119 3.3255 189.529 1.47345 191.651 5.45274C198.213 17.7491 179.168 37.2966 172.465 40.4015C154.071 48.919 97.8857 61.7012 92.3491 61.6274C87.0949 61.5637 85.6948 62.8587 85.9603 56.1868C85.9603 56.1868 164.256 10.0893 171.772 5.40988Z" fill="white"/>
<path d="M171.931 5.66606C171.931 5.66606 172.283 5.40546 173.116 5.0618C173.946 4.71919 175.235 4.2983 176.971 3.92264C178.706 3.5484 180.882 3.19124 183.48 3.07751C184.778 3.02592 186.184 3.03653 187.676 3.24936C188.42 3.36034 189.189 3.51906 189.949 3.82523C190.688 4.13157 191.498 4.60807 191.924 5.43884C192.76 6.94132 193.265 8.74178 193.359 10.6504C193.46 12.5612 193.175 14.5656 192.609 16.5635C191.462 20.5672 189.275 24.5607 186.446 28.4232C183.582 32.2709 180.173 36.1191 175.812 39.4739C175.26 39.8873 174.69 40.2915 174.074 40.6661C173.477 41.056 172.764 41.3887 172.154 41.6494C170.876 42.1949 169.597 42.8109 168.271 43.3166C166.946 43.8242 165.603 44.3399 164.247 44.861C162.876 45.338 161.492 45.8219 160.09 46.3098C148.845 50.0929 136.401 53.5313 123.031 56.8241C116.34 58.4544 109.425 60.0564 102.255 61.4915C100.468 61.8633 98.6438 62.1768 96.8136 62.51C95.878 62.648 94.9375 62.7859 93.9958 62.9241L92.4373 63.0419L91.0764 63.0548C90.1573 63.0592 89.2646 63.1413 88.124 63.0633C87.5837 63.0229 86.8279 62.9206 86.0945 62.3997C85.3641 61.8817 84.9689 61.0501 84.8419 60.4779C84.5284 59.254 84.5644 58.2684 84.555 57.2593L84.5881 56.1241L84.6079 55.4259C84.7542 55.277 84.9929 55.182 85.1812 55.0574L86.792 54.1139C113.162 38.7242 141.967 22.251 171.931 5.66606C155.094 16.0242 138.42 26.2113 121.482 36.4616C113.002 41.5694 104.468 46.7089 95.827 51.9132C93.6632 53.2084 91.4919 54.5078 89.3145 55.8122L87.6787 56.7893L87.3559 56.9825L87.3423 56.9917C87.3301 56.997 87.3411 57.0078 87.339 57.0143C87.3316 57.4925 87.3282 58.199 87.3802 58.7193C87.4121 59.2734 87.5294 59.8089 87.6477 60.0012C87.6997 60.1165 87.7228 60.0905 87.749 60.1306C87.7858 60.1427 87.8348 60.1557 87.8845 60.1818L88.1543 60.2324C88.5958 60.2859 89.2318 60.263 89.85 60.2467C91.1171 60.1899 92.5642 60.2251 93.5907 60.0868C96.0301 59.7563 98.586 59.274 101.113 58.7706C111.259 56.7287 121.549 54.2884 132.028 51.6557C142.498 48.9969 153.186 46.1121 163.908 42.497C165.235 42.0166 166.566 41.5354 167.901 41.0531C169.207 40.5182 170.516 39.9801 171.831 39.4407C174.203 38.3363 176.452 36.4347 178.563 34.5332C182.755 30.6184 186.6 26.0743 189.394 20.8739C190.762 18.273 191.863 15.4754 192.199 12.5572C192.372 11.1036 192.336 9.6228 191.993 8.20685C191.814 7.50245 191.598 6.80282 191.279 6.14399C191.116 5.77781 191.014 5.53087 190.788 5.3209C190.587 5.09331 190.307 4.90554 190.014 4.73416C188.78 4.07897 187.232 3.82697 185.718 3.6957C184.19 3.56761 182.629 3.58766 181.07 3.69115C179.508 3.79631 177.944 3.98712 176.395 4.28341C174.86 4.59086 173.267 4.93991 171.931 5.66606Z" fill="#1F1713"/>
<mask id="mask0_283_829" style="mask-type:luminance" maskUnits="userSpaceOnUse" x="85" y="3" width="109" height="59">
<path d="M171.772 5.41036C175.119 3.32598 189.53 1.47382 191.651 5.45305C198.213 17.7492 179.168 37.2966 172.465 40.4016C154.07 48.9191 97.8854 61.7016 92.3488 61.6278C87.0946 61.5641 85.6945 62.8592 85.9601 56.1873C85.9601 56.1873 164.256 10.0898 171.772 5.41036Z" fill="white"/>
</mask>
<g mask="url(#mask0_283_829)">
<path d="M87.3005 59.1007C87.3005 59.1007 87.9682 58.6364 89.227 57.7595C89.8587 57.323 90.6387 56.7831 91.558 56.1481C92.0183 55.8311 92.5144 55.49 93.0427 55.1258C93.5529 54.7354 94.0959 54.3193 94.67 53.8803C99.1569 50.2661 106.056 45.4474 114.946 40.4721C123.819 35.4363 134.718 30.3519 146.417 24.4006C152.33 21.4048 158.74 18.953 165.054 15.8552C168.23 14.3412 171.318 12.5627 174.313 10.552C175.073 10.0642 175.738 9.44774 176.459 8.89963L177.527 8.05099C177.885 7.76844 178.253 7.49696 178.549 7.14849C179.934 5.91765 180.556 4.08051 181.419 2.4932C180.981 3.45269 180.591 4.43742 180.115 5.40796C179.631 6.38266 178.912 7.23231 178.136 7.97603C176.522 9.3677 174.97 10.8468 173.173 12.0018C169.722 14.5164 165.928 16.4868 162.111 18.4054C158.272 20.2915 154.355 22.0403 150.452 23.9074C146.584 25.8752 142.67 27.8671 138.686 29.8947C130.677 33.9106 122.292 37.8592 113.7 42.5319C112.626 43.1176 111.546 43.7072 110.458 44.3009C109.391 44.9289 108.316 45.561 107.233 46.1984C105.038 47.4343 102.921 48.8375 100.748 50.2415C100.204 50.5922 99.6585 50.9435 99.1106 51.2965C98.5732 51.6738 98.0349 52.0524 97.4934 52.4331C96.4113 53.1929 95.321 53.9594 94.2226 54.7327C92.0074 56.2519 89.6431 57.6188 87.3005 59.1007Z" fill="#1F1713"/>
</g>
<mask id="mask1_283_829" style="mask-type:luminance" maskUnits="userSpaceOnUse" x="85" y="3" width="109" height="59">
<path d="M171.772 5.41036C175.119 3.32598 189.53 1.47382 191.651 5.45305C198.213 17.7492 179.168 37.2966 172.465 40.4016C154.07 48.9191 97.8854 61.7016 92.3488 61.6278C87.0946 61.5641 85.6945 62.8592 85.9601 56.1873C85.9601 56.1873 164.256 10.0898 171.772 5.41036Z" fill="white"/>
</mask>
<g mask="url(#mask1_283_829)">
<path d="M100.206 54.4857C100.206 54.4857 100.847 54.3127 102.053 53.9886C102.355 53.9082 102.691 53.8187 103.061 53.7201C103.429 53.6134 103.813 53.4399 104.239 53.2848C105.083 52.9533 106.07 52.6217 107.12 52.0948C111.313 50.0047 117.44 47.1547 124.949 43.7718C128.718 42.0948 132.82 40.2704 137.197 38.3235C138.295 37.8437 139.411 37.3574 140.543 36.8636C141.681 36.3808 142.774 35.7665 143.916 35.2148C146.187 34.0875 148.519 32.9307 150.903 31.7471C160.514 27.1707 170.763 21.7911 181.52 16.5722C175.527 19.9938 169.586 23.3499 163.546 26.7145C157.465 30.0012 151.194 33.1339 144.718 36.4291C141.514 38.1555 138.055 39.4714 134.595 40.9962C131.115 42.47 127.554 43.978 123.89 45.5291C120.222 47.0558 116.451 48.6242 112.557 50.243C108.731 51.9103 104.718 53.8717 100.206 54.4857Z" fill="#1F1713"/>
</g>
<mask id="mask2_283_829" style="mask-type:luminance" maskUnits="userSpaceOnUse" x="85" y="3" width="109" height="59">
<path d="M171.772 5.41036C175.119 3.32598 189.53 1.47382 191.651 5.45305C198.213 17.7492 179.168 37.2966 172.465 40.4016C154.07 48.9191 97.8854 61.7016 92.3488 61.6278C87.0946 61.5641 85.6945 62.8592 85.9601 56.1873C85.9601 56.1873 164.256 10.0898 171.772 5.41036Z" fill="white"/>
</mask>
<g mask="url(#mask2_283_829)">
<path d="M101.622 58.9389C101.622 58.9389 102.165 58.8452 103.196 58.6682C104.235 58.5439 105.718 58.1246 107.616 57.5782C111.379 56.3692 116.854 54.6481 123.627 52.5878C125.324 52.0755 127.1 51.539 128.951 50.9815C130.82 50.4661 132.763 49.9286 134.774 49.3729C138.804 48.2903 143.113 47.0624 147.666 45.9514C152.213 44.827 156.984 43.6441 161.761 41.9468C166.529 40.2517 171.317 37.9797 175.574 34.6756L175.548 34.6998C180.194 30.403 185.843 27.0682 191.883 24.618C186.1 27.3897 180.71 30.8794 176.195 35.3692L176.184 35.379L176.161 35.3975C171.57 39.2233 166.082 41.9016 160.321 43.8839C154.554 45.9099 148.451 47.1756 142.267 48.809C136.074 50.435 129.633 51.9751 122.929 53.8496C119.573 54.749 116.138 55.6678 112.614 56.6107C109.102 57.4771 105.509 58.7547 101.622 58.9389Z" fill="#1F1713"/>
</g>
<mask id="mask3_283_829" style="mask-type:luminance" maskUnits="userSpaceOnUse" x="85" y="3" width="109" height="59">
<path d="M171.772 5.41036C175.119 3.32598 189.53 1.47382 191.651 5.45305C198.213 17.7492 179.168 37.2966 172.465 40.4016C154.07 48.9191 97.8854 61.7016 92.3488 61.6278C87.0946 61.5641 85.6945 62.8592 85.9601 56.1873C85.9601 56.1873 164.256 10.0898 171.772 5.41036Z" fill="white"/>
</mask>
<g mask="url(#mask3_283_829)">
<path d="M184.314 20.6614C184.314 20.6614 183.754 20.9794 182.701 21.5799C181.655 22.1942 180.086 23.0613 178.243 24.4063C176.428 25.7848 174.087 27.3126 171.433 29.1476C170.096 30.0534 168.669 31.0212 167.162 32.0426C165.655 33.0688 164.056 34.1417 162.334 35.1812C158.906 37.2913 155.185 39.6293 151.144 41.9997C146.986 44.157 142.55 46.4256 137.897 48.7624C135.569 49.921 133.189 51.1058 130.762 52.3125C128.327 53.4909 125.786 54.5553 123.235 55.6922C118.121 57.9353 112.847 60.197 107.473 62.4381C113.498 59.4335 119.461 56.493 125.515 53.5543C127.022 52.8058 128.565 52.1133 130.062 51.3196C131.563 50.53 133.07 49.7377 134.586 48.9397C137.629 47.3596 140.706 45.7606 143.839 44.1328C145.41 43.3271 146.996 42.513 148.597 41.6917C149.398 41.2792 150.203 40.8659 151.011 40.4504C151.793 39.9866 152.58 39.5191 153.37 39.0496C156.541 37.1853 159.785 35.2798 163.122 33.3179C166.405 31.2796 169.779 29.1866 173.266 27.0228C175.005 25.931 176.796 24.8854 178.561 23.6662C180.401 22.5633 182.337 21.6043 184.314 20.6614Z" fill="#1F1713"/>
</g>
<mask id="mask4_283_829" style="mask-type:luminance" maskUnits="userSpaceOnUse" x="85" y="3" width="109" height="59">
<path d="M171.772 5.41036C175.119 3.32598 189.53 1.47382 191.651 5.45305C198.213 17.7492 179.168 37.2966 172.465 40.4016C154.07 48.9191 97.8854 61.7016 92.3488 61.6278C87.0946 61.5641 85.6945 62.8592 85.9601 56.1873C85.9601 56.1873 164.256 10.0898 171.772 5.41036Z" fill="white"/>
</mask>
<g mask="url(#mask4_283_829)">
<path d="M92.5797 59.1471C92.5797 59.1471 92.7884 59.0481 93.194 58.8564C93.5869 58.641 94.2266 58.4342 94.9538 57.9599C96.4793 57.1355 98.4903 55.5663 101.314 53.9409C106.813 50.4416 115.099 46.0284 125.218 40.7031C126.483 40.0358 127.776 39.3548 129.096 38.6578C130.436 37.9974 131.805 37.3243 133.199 36.638C135.995 35.2748 138.895 33.8608 141.889 32.4022C147.869 29.4541 154.311 26.5355 161.033 23.449C167.763 20.3984 174.784 17.2154 182.024 13.9333C185.663 12.3441 189.28 10.5869 192.975 8.88537C196.666 7.18512 200.4 5.46506 204.171 3.72907C187.207 12.6322 170.308 20.6838 152.056 29.1683C147.476 31.2639 142.895 33.5369 138.155 35.7749C135.79 36.8995 133.397 38.0365 130.973 39.1879C128.548 40.3395 126.142 41.6142 123.674 42.8413C118.743 45.3124 113.667 47.8158 108.493 50.5152C105.895 51.8439 103.342 53.3462 100.695 54.7867C98.0433 56.1834 95.5725 58.0877 92.5797 59.1471Z" fill="#1F1713"/>
</g>
<mask id="mask5_283_829" style="mask-type:luminance" maskUnits="userSpaceOnUse" x="85" y="3" width="109" height="59">
<path d="M171.772 5.41036C175.119 3.32598 189.53 1.47382 191.651 5.45305C198.213 17.7492 179.168 37.2966 172.465 40.4016C154.07 48.9191 97.8854 61.7016 92.3488 61.6278C87.0946 61.5641 85.6945 62.8592 85.9601 56.1873C85.9601 56.1873 164.256 10.0898 171.772 5.41036Z" fill="white"/>
</mask>
<g mask="url(#mask5_283_829)">
<path d="M169.186 26.1842C169.186 26.1842 168.588 26.3365 167.494 26.6771C166.421 27.0857 164.887 27.7737 163.045 28.8857C161.198 29.9721 159.028 31.4833 156.283 32.8434C153.569 34.2121 150.498 35.761 147.127 37.4606C140.363 40.8281 132.315 44.7438 123.442 48.8825C114.6 52.9592 105.047 57.8837 94.5159 61.0052C95.9785 60.4026 97.4379 59.802 98.893 59.2036C100.35 58.6121 101.807 58.03 103.215 57.3238C106.059 55.9834 108.904 54.6573 111.719 53.1976C117.373 50.3512 123.142 47.4542 129.142 44.6008C135.141 41.7224 141.381 38.7811 148.011 35.7158C151.306 34.1721 154.777 32.6495 158.213 30.9959C159.912 30.112 161.612 29.1154 163.406 28.2158C165.201 27.3293 167.102 26.4752 169.186 26.1842Z" fill="#1F1713"/>
</g>
<mask id="mask6_283_829" style="mask-type:luminance" maskUnits="userSpaceOnUse" x="85" y="3" width="109" height="59">
<path d="M171.772 5.41036C175.119 3.32598 189.53 1.47382 191.651 5.45305C198.213 17.7492 179.168 37.2966 172.465 40.4016C154.07 48.9191 97.8854 61.7016 92.3488 61.6278C87.0946 61.5641 85.6945 62.8592 85.9601 56.1873C85.9601 56.1873 164.256 10.0898 171.772 5.41036Z" fill="white"/>
</mask>
<g mask="url(#mask6_283_829)">
<path d="M91.6134 56.5631C91.6134 56.5631 92.3869 56.4685 93.8452 56.2889C95.3043 56.1078 97.4546 55.896 100.183 55.4238C105.644 54.5726 113.485 53.0691 122.708 50.0865C127.341 48.6637 132.246 46.6957 137.396 44.4189C139.955 43.2557 142.595 41.9674 145.395 40.8081C146.809 40.2688 148.264 39.714 149.742 39.2607C151.225 38.8208 152.727 38.3752 154.239 37.9601C155.762 37.551 157.264 37.0801 158.789 36.6194C160.298 36.1068 161.776 35.5613 163.302 34.9467C166.336 33.7141 169.406 32.461 172.426 30.9891C175.45 29.5298 178.424 27.8442 181.147 25.7279C183.893 23.6488 186.283 21.0223 188.113 17.9793C187.155 19.7932 185.988 21.4891 184.648 23.0406C183.299 24.5833 181.764 25.9517 180.156 27.211C176.908 29.7079 173.298 31.6781 169.602 33.4367C165.887 35.156 162.158 36.8799 158.145 38.1972C154.169 39.5136 150.06 40.458 146.164 42.0518C142.248 43.6404 138.371 45.7206 134.175 47.3338C130.039 49.0785 125.666 50.4984 121.144 51.823C112.072 54.379 102.216 56.0077 91.6134 56.5631Z" fill="#1F1713"/>
</g>
<mask id="mask7_283_829" style="mask-type:luminance" maskUnits="userSpaceOnUse" x="85" y="3" width="109" height="59">
<path d="M173.093 7.5325L173.093 7.53265C169.302 9.89288 147.809 22.6107 127.318 34.7065C117.061 40.7616 107.038 46.6704 99.5804 51.0653C95.8514 53.2628 92.7635 55.0819 90.6077 56.3516L88.4297 57.6343C88.4316 58.3546 88.4684 58.8456 88.5251 59.1796C88.6567 59.1866 88.8353 59.1915 89.073 59.1892C89.2802 59.1872 89.5716 59.1782 89.9153 59.1675C90.6106 59.1459 91.52 59.1176 92.3792 59.128L92.3822 59.128C92.8026 59.1336 94.0504 58.9901 96.2055 58.622C98.2667 58.2699 100.955 57.7499 104.106 57.0928C110.403 55.7792 118.488 53.9296 126.98 51.8108C144.051 47.5514 162.466 42.2765 171.414 38.1331L173.093 7.5325ZM173.093 7.5325C173.544 7.25179 174.714 6.81562 176.524 6.42069C178.246 6.04507 180.294 5.76041 182.303 5.6544C184.332 5.54729 186.201 5.6293 187.612 5.92233C188.969 6.20409 189.37 6.56569 189.437 6.62646C189.448 6.63665 189.45 6.63838 189.446 6.62985L189.446 6.63015M173.093 7.5325L189.446 6.63015M189.446 6.63015C190.695 8.97104 190.812 11.7988 189.95 15.0175M189.446 6.63015L189.95 15.0175M189.95 15.0175C189.084 18.2483 187.277 21.6726 184.986 24.9383M189.95 15.0175L184.986 24.9383M184.986 24.9383C182.705 28.1888 180.018 31.1792 177.504 33.5362M184.986 24.9383L177.504 33.5362M177.504 33.5362C174.942 35.9377 172.727 37.5251 171.415 38.133L177.504 33.5362Z" fill="white" stroke="white" stroke-width="5"/>
</mask>
<g mask="url(#mask7_283_829)">
<path d="M184.94 3.76258C184.94 3.76258 184.156 4.09369 182.677 4.71573C181.169 5.26558 179.095 6.40566 176.53 7.96914C174.003 9.611 171.036 11.7655 167.784 14.4996C164.493 17.1798 160.865 20.3741 156.497 23.4625C152.082 26.4391 147.173 29.5733 141.665 32.4103C136.186 35.2964 130.236 38.1186 123.93 40.828C117.646 43.5879 110.971 46.1989 104.314 49.2752C97.6676 52.4047 90.8205 55.7406 83.5257 58.1332C91.8484 55.0297 99.3883 50.5229 107.463 46.7309C115.524 42.9286 123.839 39.509 132.248 35.4907C140.654 31.5011 149.247 27.0537 157.583 21.2189C161.736 18.3012 165.75 14.8981 170.131 11.6733C174.497 8.46912 179.337 5.39927 184.94 3.76258Z" fill="#1F1713"/>
</g>
<path d="M154.75 36.7311C157.813 35.8688 169.369 37.7967 170.064 41.4526C172.223 52.7483 152.908 63.7669 147.008 64.6462C130.805 67.0677 103.087 64.5726 98.6177 64.5025C92.6874 64.4091 84.1754 61.4184 85.9609 56.1871C85.9609 56.1871 147.843 38.6766 154.75 36.7311Z" fill="white"/>
<path d="M154.757 36.7593C154.757 36.7593 155.087 36.6519 155.757 36.5921C156.425 36.5326 157.428 36.5234 158.732 36.6402C160.033 36.7586 161.641 36.9848 163.494 37.4405C164.419 37.6735 165.409 37.9558 166.432 38.3592C167.441 38.7754 168.539 39.2584 169.442 40.15C169.885 40.5827 170.225 41.2405 170.255 41.8954C170.377 42.544 170.406 43.2284 170.377 43.9226C170.321 45.3154 169.967 46.7597 169.373 48.1675C168.18 50.9923 166.102 53.6586 163.545 56.0956C160.972 58.5265 157.91 60.777 154.389 62.677C152.621 63.6167 150.76 64.4979 148.675 65.1081C148.156 65.2567 147.595 65.3859 147.038 65.4587C146.51 65.5051 145.98 65.5531 145.447 65.6008C144.38 65.6914 143.302 65.7823 142.211 65.8747C141.666 65.9191 141.118 65.9642 140.567 66.0087C140.016 66.0206 139.461 66.0332 138.903 66.0441C137.789 66.0655 136.663 66.0873 135.527 66.1104C133.252 66.1992 130.935 66.1123 128.573 66.106C126.212 66.1167 123.808 66.046 121.362 65.9986C118.916 65.9449 116.427 65.8904 113.899 65.8351C108.852 65.7383 103.602 65.5523 98.3036 65.4867C95.4905 65.4741 92.6854 64.9588 89.9562 63.8683C88.6061 63.2858 87.2528 62.5476 86.0942 61.3546C85.8056 61.0598 85.5588 60.6935 85.2982 60.357C85.097 59.9572 84.855 59.5752 84.7231 59.134C84.6154 58.6823 84.4517 58.235 84.4805 57.7652L84.4793 57.0658C84.514 56.7898 84.614 56.4188 84.6789 56.1007C84.7673 55.7845 84.788 55.4062 84.9333 55.1424L85.9251 54.8641L87.1596 54.513L89.1985 53.928C90.5626 53.5397 91.9335 53.1499 93.3115 52.7584C96.072 51.9962 98.8609 51.2251 101.674 50.4484C107.31 48.9267 113.069 47.4663 118.917 46.0096C124.77 44.5773 130.705 43.1236 136.709 41.6552C142.698 40.1455 148.704 38.4536 154.757 36.7593C147.767 38.7434 140.85 40.8283 133.977 43.0777C127.104 45.3283 120.227 47.5641 113.265 49.6763C106.311 51.8159 99.2807 53.8577 92.1361 55.8338C90.4499 56.2975 88.7589 56.7611 87.0609 57.2263C87.0307 57.2054 87.0366 57.2574 87.0299 57.2808C87.0583 57.541 86.9862 57.891 87.1027 58.1758C87.2415 58.7731 87.6102 59.3842 88.2 59.9079C89.3143 61.0031 90.9839 61.7569 92.6489 62.3433C94.3396 62.9201 96.1416 63.3064 97.9508 63.4558C101.756 63.7224 105.616 64.1546 109.486 64.462C111.425 64.6362 113.377 64.7587 115.339 64.8788C117.302 65.0086 119.276 65.1029 121.263 65.1483C125.236 65.3132 129.257 65.2379 133.322 65.1233C135.347 64.9803 137.386 64.8367 139.438 64.6925C141.487 64.5368 143.518 64.1732 145.575 63.9368C146.077 63.8636 146.629 63.8202 147.093 63.7242C147.548 63.6375 148.026 63.4884 148.498 63.3313C149.446 63.0109 150.394 62.6106 151.331 62.1789C153.206 61.3091 155.043 60.2893 156.837 59.1775C160.395 56.9268 163.867 54.3067 166.595 50.95C167.94 49.2736 169.081 47.3761 169.611 45.2595C169.891 44.208 169.968 43.1013 169.855 42.0072C169.899 40.8862 169.065 40.0842 168.14 39.4606C166.24 38.2519 163.977 37.5971 161.719 37.1195C160.582 36.8869 159.426 36.719 158.26 36.624C157.099 36.5508 155.904 36.4902 154.757 36.7593Z" fill="#1F1713"/>
<mask id="mask8_283_829" style="mask-type:luminance" maskUnits="userSpaceOnUse" x="85" y="36" width="86" height="30">
<path d="M154.75 36.7312C157.813 35.8688 169.369 37.7965 170.064 41.4523C172.222 52.7477 152.908 63.7664 147.008 64.6458C130.804 67.0676 103.086 64.573 98.6174 64.503C92.6872 64.4097 84.1753 61.4192 85.9609 56.188C85.9609 56.188 147.843 38.6767 154.75 36.7312Z" fill="white"/>
</mask>
<g mask="url(#mask8_283_829)">
<path d="M87.1285 57.5184C87.1285 57.5184 87.857 57.4232 89.2287 57.2417C90.606 57.1002 92.6121 56.7519 95.175 56.2947C100.303 55.352 107.518 53.3501 116.354 50.9226C125.193 48.5149 135.604 45.5838 147.071 42.6193C152.803 41.1241 158.79 39.6098 164.967 38.0799C168.051 37.3002 171.203 36.5849 174.349 35.7594C177.501 34.946 180.69 34.1227 183.913 33.2903C180.248 34.4463 176.605 35.5948 172.965 36.7427C169.298 37.7936 165.634 38.8439 161.948 39.9019C154.559 41.9899 147.061 44.0654 139.272 46.1693C131.476 48.2432 123.418 50.4745 114.829 52.5444C106.271 54.6363 97.1469 57.0078 87.1285 57.5184Z" fill="#1F1713"/>
</g>
<mask id="mask9_283_829" style="mask-type:luminance" maskUnits="userSpaceOnUse" x="85" y="36" width="86" height="30">
<path d="M154.75 36.7312C157.813 35.8688 169.369 37.7965 170.064 41.4523C172.222 52.7477 152.908 63.7664 147.008 64.6458C130.804 67.0676 103.086 64.573 98.6174 64.503C92.6872 64.4097 84.1753 61.4192 85.9609 56.188C85.9609 56.188 147.843 38.6767 154.75 36.7312Z" fill="white"/>
</mask>
<g mask="url(#mask9_283_829)">
<path d="M90.3652 63.5586C90.3652 63.5586 91.082 63.4492 92.4338 63.2444C93.7838 63.0267 95.7781 62.806 98.2913 62.2488C100.812 61.7504 103.886 61.1173 107.463 60.4714C109.271 60.2341 111.2 59.9824 113.239 59.7164C115.27 59.4955 117.411 59.2618 119.652 59.0182C121.891 58.7616 124.241 58.5742 126.668 58.2466C129.09 57.8814 131.603 57.5024 134.197 57.1108C135.493 56.9199 136.811 56.7265 138.149 56.5298C139.486 56.3345 140.828 56.0363 142.196 55.7914C144.929 55.2841 147.733 54.7641 150.601 54.2329C153.465 53.6809 156.363 52.9852 159.335 52.3637C160.818 52.0473 162.315 51.7265 163.827 51.4038C165.334 51.0735 166.816 50.6071 168.33 50.2145C174.363 48.5773 180.628 46.9251 186.961 45.3155C179.755 47.6148 172.638 49.8561 165.364 52.102C161.696 53.0755 157.97 53.9195 154.211 54.8317C152.337 55.3096 150.425 55.6751 148.499 56.0461C146.573 56.4182 144.633 56.7938 142.675 57.1722C138.773 58.0058 134.729 58.4527 130.618 59.0603C126.514 59.726 122.268 60.0158 117.914 60.3765C115.745 60.5681 113.512 60.7044 111.311 60.9402C109.098 61.1505 106.847 61.3444 104.572 61.7424C102.289 62.0878 99.9702 62.4378 97.6132 62.7942C97.0233 62.8804 96.4299 62.9674 95.8354 63.0547C95.2349 63.1106 94.6318 63.1659 94.0266 63.2229C92.8144 63.3337 91.5953 63.4461 90.3652 63.5586Z" fill="#1F1713"/>
</g>
<mask id="mask10_283_829" style="mask-type:luminance" maskUnits="userSpaceOnUse" x="85" y="36" width="86" height="30">
<path d="M154.75 36.7312C157.813 35.8688 169.369 37.7965 170.064 41.4523C172.222 52.7477 152.908 63.7664 147.008 64.6458C130.804 67.0676 103.086 64.573 98.6174 64.503C92.6872 64.4097 84.1753 61.4192 85.9609 56.188C85.9609 56.188 147.843 38.6767 154.75 36.7312Z" fill="white"/>
</mask>
<g mask="url(#mask10_283_829)">
<path d="M87.2679 59.7814C87.2679 59.7814 87.8991 59.7111 89.0868 59.5781C89.6731 59.4709 90.3955 59.3178 91.2381 59.1285C92.0708 58.8857 93.0345 58.6382 94.0897 58.2617C96.2172 57.5666 98.7282 56.4946 101.788 55.5824C103.303 55.1411 104.92 54.6704 106.629 54.1736C108.331 53.6503 110.125 53.0975 112.003 52.5193C119.515 50.2174 128.372 47.1475 138.512 45.4826C141.02 45.0176 143.52 44.4452 146.108 43.9314C148.681 43.3687 151.27 42.6062 153.92 41.9543C156.563 41.2714 159.248 40.5789 161.97 39.8765C164.708 39.2577 167.496 38.7268 170.287 38.1638C168.696 38.5922 167.11 39.0194 165.528 39.4446C163.944 39.8666 162.363 40.2732 160.805 40.7911C157.677 41.7688 154.552 42.7421 151.376 43.6825C149.784 44.1365 148.215 44.6751 146.584 45.057C144.951 45.4368 143.31 45.8185 141.66 46.2023C140.004 46.6095 138.351 46.92 136.688 47.2282C135.015 47.5104 133.36 47.9391 131.678 48.3181C124.965 49.9123 118.119 52.0692 110.789 54.1145C108.952 54.6141 107.099 55.1417 105.192 55.5982C103.281 56.0906 101.366 56.5002 99.4593 57.0948C95.6403 58.2305 91.6381 59.7649 87.2679 59.7814Z" fill="#1F1713"/>
</g>
<mask id="mask11_283_829" style="mask-type:luminance" maskUnits="userSpaceOnUse" x="85" y="36" width="86" height="30">
<path d="M154.75 36.7312C157.813 35.8688 169.369 37.7965 170.064 41.4523C172.222 52.7477 152.908 63.7664 147.008 64.6458C130.804 67.0676 103.086 64.573 98.6174 64.503C92.6872 64.4097 84.1753 61.4192 85.9609 56.188C85.9609 56.188 147.843 38.6767 154.75 36.7312Z" fill="white"/>
</mask>
<g mask="url(#mask11_283_829)">
<path d="M166.654 43.7818C166.654 43.7818 164.39 44.1107 160.402 44.6902C158.411 45.0374 156 45.5541 153.213 46.0897C150.456 46.7977 147.301 47.4422 143.893 48.43C137.039 50.2431 129.047 52.7682 120.17 55.2042C115.708 56.4031 111.068 57.5159 106.289 58.7528C101.513 59.9696 96.4874 61.0658 91.3472 61.2076C97.2614 60.6001 102.865 58.8229 108.561 57.0995C114.303 55.4067 120.087 53.834 126.083 52.0365C132.092 50.2979 138.312 48.4355 145.021 46.914C151.722 45.4075 158.895 44.139 166.654 43.7818Z" fill="#1F1713"/>
</g>
<mask id="mask12_283_829" style="mask-type:luminance" maskUnits="userSpaceOnUse" x="85" y="36" width="86" height="30">
<path d="M154.75 36.7312C157.813 35.8688 169.369 37.7965 170.064 41.4523C172.222 52.7477 152.908 63.7664 147.008 64.6458C130.804 67.0676 103.086 64.573 98.6174 64.503C92.6872 64.4097 84.1753 61.4192 85.9609 56.188C85.9609 56.188 147.843 38.6767 154.75 36.7312Z" fill="white"/>
</mask>
<g mask="url(#mask12_283_829)">
<path d="M96.7039 64.8511C96.7039 64.8511 104.262 63.8649 116.145 62.8424C122.086 62.3318 129.109 61.8109 136.808 61.4007C140.675 61.2033 144.639 61.0017 148.75 60.509C150.802 60.2968 152.888 60.0816 155.009 59.8621C157.121 59.635 159.277 59.6062 161.426 59.4892C156.471 60.0683 151.647 60.998 146.692 61.7846C141.696 62.4944 136.645 62.7963 131.412 63.1607C120.936 63.865 109.698 64.4285 96.7039 64.8511Z" fill="#1F1713"/>
</g>
<mask id="mask13_283_829" style="mask-type:luminance" maskUnits="userSpaceOnUse" x="85" y="36" width="86" height="30">
<path d="M154.75 36.7312C157.813 35.8688 169.369 37.7965 170.064 41.4523C172.222 52.7477 152.908 63.7664 147.008 64.6458C130.804 67.0676 103.086 64.573 98.6174 64.503C92.6872 64.4097 84.1753 61.4192 85.9609 56.188C85.9609 56.188 147.843 38.6767 154.75 36.7312Z" fill="white"/>
</mask>
<g mask="url(#mask13_283_829)">
<path d="M164.096 52.4779C164.096 52.4779 162.001 52.7959 158.314 53.3555C156.472 53.6672 154.247 54.186 151.67 54.6865C149.114 55.3298 146.206 55.9637 143.035 56.8312C136.676 58.442 129.206 60.653 120.766 62.092C118.656 62.4206 116.487 62.6779 114.287 62.9678C112.081 63.1986 109.832 63.3845 107.554 63.5821C106.416 63.6746 105.27 63.7688 104.114 63.8643C102.959 63.9378 101.793 63.9566 100.623 64.0019C98.2924 64.0636 95.9282 64.1259 93.5339 64.189C96.2769 63.9134 98.9984 63.6391 101.718 63.3665L103.759 63.1665L105.792 62.8884C107.149 62.7054 108.509 62.5231 109.87 62.3403C115.336 61.6956 120.803 60.7317 126.439 59.5193C132.064 58.2256 137.869 56.7475 144.071 55.3535C150.279 54.0104 156.913 52.8102 164.096 52.4779Z" fill="#1F1713"/>
</g>
<mask id="mask14_283_829" style="mask-type:luminance" maskUnits="userSpaceOnUse" x="85" y="36" width="86" height="30">
<path d="M154.75 36.7312C157.813 35.8688 169.369 37.7965 170.064 41.4523C172.222 52.7477 152.908 63.7664 147.008 64.6458C130.804 67.0676 103.086 64.573 98.6174 64.503C92.6872 64.4097 84.1753 61.4192 85.9609 56.188C85.9609 56.188 147.843 38.6767 154.75 36.7312Z" fill="white"/>
</mask>
<g mask="url(#mask14_283_829)">
<path d="M89.9924 57.8994C89.9924 57.8994 92.3499 57.6605 96.5066 57.2386C100.708 56.8585 106.725 56.3134 114.036 55.651C115.871 55.4948 117.789 55.3306 119.78 55.1603C121.777 55.0058 123.846 54.843 125.938 54.5585C130.156 54.1079 134.549 52.9939 139.24 52.0196C140.423 51.8005 141.58 51.4672 142.818 51.3408C144.052 51.1776 145.285 51.0753 146.528 50.9865C149.012 50.8216 151.523 50.7315 154.045 50.4632C156.57 50.21 159.092 49.7076 161.525 48.7385C162.738 48.2554 164.013 47.8875 165.203 47.3092C166.406 46.7543 167.615 46.1955 168.833 45.6325C167.472 46.3788 166.12 47.1221 164.768 47.864C163.37 48.5159 161.95 49.1195 160.538 49.7467C157.63 50.8957 154.52 51.4135 151.437 51.7358C148.354 52.0618 145.239 52.2305 142.213 52.7519C139.149 53.4483 136.049 54.1529 132.894 54.8702C131.286 55.168 129.67 55.5026 128.023 55.767C126.362 55.946 124.678 56.1595 122.985 56.3047C119.611 56.5147 116.161 56.729 112.608 56.9498C105.508 57.4111 98.0225 57.6143 89.9924 57.8994Z" fill="#1F1713"/>
</g>
<mask id="mask15_283_829" style="mask-type:luminance" maskUnits="userSpaceOnUse" x="85" y="36" width="86" height="30">
<path d="M88.3391 58.1132C88.3747 58.1924 88.4178 58.271 88.4678 58.3505C88.789 58.8615 89.4586 59.4715 90.5735 60.0669C92.8017 61.257 96.0052 61.9615 98.6567 62.0033L88.3391 58.1132ZM88.3391 58.1132L89.3139 57.8374L96.4184 55.8271C102.328 54.155 110.279 51.9053 118.446 49.5948C134.78 44.9737 151.974 40.1103 155.427 39.1377L88.3391 58.1132ZM146.638 62.1733L146.639 62.1731C147.71 62.0136 149.735 61.3074 152.265 60.0135C154.734 58.7504 157.487 57.0292 159.987 55.01C162.501 52.98 164.666 50.7256 166.064 48.4208C167.439 46.1558 167.981 44.0084 167.623 42.0032C167.593 41.9706 167.396 41.681 166.597 41.2376C165.633 40.7034 164.26 40.2117 162.695 39.8243C161.149 39.4418 159.533 39.1897 158.147 39.0837C156.669 38.9708 155.745 39.0482 155.427 39.1376L146.638 62.1733ZM146.638 62.1733C138.782 63.3474 128.002 63.3396 118.499 63.0103M146.638 62.1733L118.499 63.0103M118.499 63.0103C113.772 62.8465 109.406 62.6052 105.933 62.3998M118.499 63.0103L105.933 62.3998M105.933 62.3998C105.195 62.3561 104.492 62.3137 103.832 62.2739M105.933 62.3998L103.832 62.2739M103.832 62.2739C101.432 62.1291 99.5897 62.0179 98.6569 62.0033L103.832 62.2739Z" fill="white" stroke="white" stroke-width="5"/>
</mask>
<g mask="url(#mask15_283_829)">
<path d="M170.657 44.1518C170.657 44.1518 170.479 44.1817 170.135 44.2416C169.792 44.3 169.29 44.4314 168.667 44.6743C167.401 45.114 165.729 46.1503 163.402 47.0939C158.89 49.3291 151.92 51.4066 143.444 53.7827C141.325 54.3776 139.113 54.9989 136.814 55.6439C134.47 56.1936 132.04 56.7633 129.529 57.3504C126.998 57.8208 124.381 58.265 121.691 58.7149C118.988 59.0431 116.218 59.4366 113.377 59.7129C102.004 60.8373 89.6223 61.0448 76.8643 61.356C91.56 60.0733 105.967 59.4999 121.263 57.3127C128.912 56.1843 136.653 54.3655 144.89 52.1596C146.944 51.6354 149.027 51.1045 151.141 50.5642C153.234 49.9788 155.358 49.3839 157.517 48.7797C159.651 48.1037 161.75 47.2151 163.926 46.4275C166.1 45.7 168.16 44.3462 170.657 44.1518Z" fill="#1F1713"/>
</g>
<path d="M161.724 143.967C161.724 143.967 162.565 143.673 164.07 143.27C165.561 142.849 167.751 142.383 169.954 141.292C170.526 141.064 171.035 140.657 171.609 140.349C171.875 140.164 172.126 139.953 172.395 139.761C172.659 139.563 172.953 139.388 173.148 139.111C173.573 138.588 174.099 138.167 174.486 137.509C174.702 137.206 174.923 136.901 175.145 136.592C175.336 136.249 175.532 135.902 175.728 135.551C177.347 132.779 178.608 129.013 180.98 125.785C180.458 127.974 180.136 130.15 179.614 132.385C179.111 134.605 178.375 136.951 176.888 139.117C176.704 139.387 176.529 139.663 176.328 139.929L175.617 140.678C175.136 141.178 174.658 141.693 174.041 142.022C173.747 142.206 173.453 142.391 173.155 142.577C172.853 142.752 172.53 142.875 172.214 143.023C171.59 143.334 170.919 143.541 170.235 143.725C167.474 144.491 164.64 144.185 161.724 143.967Z" fill="#1F1713"/>
</svg>
