<svg width="45" height="28" viewBox="0 0 45 28" fill="none" xmlns="http://www.w3.org/2000/svg">
<path d="M40.6244 1.41977H29.2262V4.54495H40.6694L40.6244 1.41977ZM38.2189 22.9192C37.3542 23.4841 36.3331 23.7706 35.2963 23.7393C34.61 23.8098 33.9163 23.7399 33.2587 23.534C32.601 23.3281 31.9936 22.9905 31.4744 22.5424C30.5144 21.4694 30.0147 20.0708 30.0805 18.6415H44.9634C45.0707 17.1533 44.9417 15.6576 44.5812 14.2086C44.2325 12.83 43.6222 11.529 42.7827 10.3742C41.9376 9.254 40.8462 8.33709 39.5903 7.69229C38.1929 7.01304 36.6517 6.67117 35.0939 6.69489C33.6288 6.68431 32.1764 6.96316 30.8224 7.51498C29.5826 8.03028 28.4591 8.78373 27.5176 9.73142C26.5788 10.698 25.8517 11.8448 25.3818 13.1004C24.8776 14.4559 24.6262 15.8901 24.6399 17.3338C24.6168 18.798 24.8605 20.2544 25.3594 21.6337C25.7831 22.8827 26.4557 24.0357 27.3378 25.0248C28.2503 25.996 29.3718 26.7533 30.6201 27.2413C32.0119 27.7641 33.4923 28.0199 34.9815 27.9949C37.071 28.0591 39.134 27.5198 40.9167 26.4434C42.7173 25.1819 44.0136 23.3393 44.5812 21.2347H39.6128C39.3468 21.931 38.8573 22.5225 38.2189 22.9192ZM30.5077 13.7875C30.6826 13.2349 30.9731 12.7246 31.3603 12.2894C31.7475 11.8542 32.2229 11.5038 32.7558 11.2608C33.4617 10.9475 34.2303 10.796 35.004 10.8175C35.5629 10.7704 36.1256 10.8431 36.6533 11.0306C37.1811 11.218 37.6615 11.5158 38.0615 11.9035C38.8254 12.8254 39.3156 13.9377 39.4779 15.1174H30.148C30.1844 14.6669 30.2672 14.2213 30.3953 13.7875H30.5077ZM18.6149 12.7236C19.7591 12.2539 20.7533 11.4881 21.4925 10.5072C22.172 9.46545 22.5095 8.2427 22.4592 7.00519C22.5033 5.87667 22.2801 4.75354 21.8073 3.72487C21.41 2.83367 20.7724 2.06703 19.9638 1.50843C19.1064 0.927662 18.1329 0.534665 17.1086 0.355881C15.8964 0.105231 14.66 -0.0136885 13.4216 0.00125086H0V27.884H13.7138C14.9654 27.8849 16.2119 27.7285 17.4233 27.4186C18.5716 27.1257 19.6594 26.6382 20.6382 25.9779C21.5863 25.3301 22.3584 24.4624 22.8864 23.4512C23.4707 22.3203 23.7568 21.0626 23.7182 19.794C23.7608 18.222 23.3135 16.6749 22.4367 15.3612C21.4938 14.04 20.0953 13.1024 18.5024 12.7236H18.6149ZM6.22743 4.76659H12.0502C12.5851 4.76594 13.1191 4.81043 13.6464 4.89958C14.1319 4.97051 14.5981 5.13629 15.0178 5.3872C15.4232 5.6133 15.7518 5.95262 15.962 6.36243C16.2224 6.85385 16.3465 7.40437 16.3217 7.95826C16.3636 8.43532 16.2896 8.91536 16.1059 9.35862C15.9221 9.80187 15.6339 10.1956 15.2651 10.5072C14.4605 11.0525 13.4977 11.3248 12.5223 11.2829H6.22743V4.76659ZM17.1086 21.2569C16.8776 21.7086 16.5283 22.0912 16.0969 22.3651C15.648 22.6404 15.1533 22.8355 14.6356 22.9414C14.0602 23.0684 13.4716 23.1279 12.882 23.1187H6.13751V15.472H12.882C14.0394 15.422 15.1824 15.7406 16.1419 16.3807C16.5753 16.7642 16.9111 17.243 17.122 17.7782C17.3329 18.3135 17.4131 18.8901 17.3559 19.4616C17.4167 20.0708 17.332 20.6857 17.1086 21.2569Z" fill="white"/>
</svg>
