<svg width="1560" height="2976" viewBox="0 0 1560 2976" fill="none" xmlns="http://www.w3.org/2000/svg">
<path d="M568.283 479.244C706.936 477.827 858.422 479.331 981.021 578.204C1226.44 776.129 1131.45 1026.03 854.406 1134.41C661.144 1210.01 257.54 1216.16 453 1536C509.179 1627.93 642.53 1651.84 742.573 1672.95C834.796 1692.41 924.17 1720.21 1002.91 1773.63C1046.69 1803.33 1084.5 1843.19 1111.11 1889.15C1181.3 2010.38 1150.89 2111.34 1069 2188C910.891 2336 775.39 2293.56 595 2344C211 2480 264.375 2765.4 413 2850C502.334 2915.31 713.601 2957.03 875.05 2960" stroke="black" stroke-width="30" stroke-miterlimit="10" stroke-dasharray="49.83 49.83"/>
</svg>
