<svg width="660" height="665" viewBox="0 0 660 665" fill="none" xmlns="http://www.w3.org/2000/svg">
<rect x="317" y="56" width="220" height="68" rx="34" fill="black"/>
<path d="M390.201 102V79.6562H396.346C397.954 79.6562 399.164 80.1048 399.977 81.002C400.789 81.8906 401.195 83.194 401.195 84.9121V95.373C401.195 97.4889 400.823 99.1224 400.078 100.273C399.342 101.424 398.047 102 396.193 102H390.201ZM394.695 98.0518H395.47C396.291 98.0518 396.701 97.654 396.701 96.8584V85.3311C396.701 84.5863 396.6 84.1081 396.396 83.8965C396.202 83.6764 395.8 83.5664 395.19 83.5664H394.695V98.0518ZM404.222 81.7891V78.0059H408.767V81.7891H404.222ZM404.222 102V82.957H408.767V102H404.222ZM417.087 102.203C413.329 102.203 411.451 100.299 411.451 96.4902V94.9795H416.021V97.2139C416.021 97.6455 416.106 97.984 416.275 98.2295C416.444 98.4749 416.715 98.5977 417.087 98.5977C417.747 98.5977 418.078 98.1025 418.078 97.1123C418.078 96.2829 417.904 95.665 417.557 95.2588C417.21 94.8441 416.787 94.4463 416.287 94.0654L413.863 92.1992C413.101 91.6068 412.521 90.9805 412.123 90.3203C411.726 89.6602 411.527 88.7419 411.527 87.5654C411.527 86.4736 411.785 85.5723 412.301 84.8613C412.826 84.1504 413.516 83.6214 414.371 83.2744C415.234 82.9274 416.165 82.7539 417.163 82.7539C420.854 82.7539 422.699 84.5947 422.699 88.2764V88.6318H418.001V87.9082C418.001 87.5273 417.934 87.1592 417.798 86.8037C417.671 86.4482 417.417 86.2705 417.037 86.2705C416.393 86.2705 416.072 86.609 416.072 87.2861C416.072 87.9717 416.343 88.5091 416.884 88.8984L419.703 90.9551C420.583 91.5898 421.319 92.3431 421.912 93.2148C422.512 94.0866 422.813 95.2461 422.813 96.6934C422.813 98.4876 422.301 99.8545 421.277 100.794C420.261 101.733 418.865 102.203 417.087 102.203ZM430.841 102.203C429.487 102.203 428.408 101.949 427.604 101.441C426.8 100.934 426.225 100.201 425.878 99.2451C425.531 98.2887 425.357 97.1377 425.357 95.792V88.1367C425.357 86.3678 425.865 85.0306 426.88 84.125C427.896 83.2109 429.293 82.7539 431.07 82.7539C434.726 82.7539 436.554 84.5482 436.554 88.1367V89.5205C436.554 91.1963 436.537 92.3219 436.504 92.8975H429.902V96.5791C429.902 96.9176 429.923 97.252 429.965 97.582C430.008 97.9036 430.101 98.1702 430.245 98.3818C430.397 98.5934 430.638 98.6992 430.968 98.6992C431.442 98.6992 431.739 98.4961 431.857 98.0898C431.976 97.6751 432.035 97.1377 432.035 96.4775V94.6494H436.554V95.7285C436.554 97.1504 436.377 98.3438 436.021 99.3086C435.674 100.265 435.082 100.989 434.244 101.479C433.414 101.962 432.28 102.203 430.841 102.203ZM429.877 90.6377H432.035V88.0732C432.035 87.3877 431.95 86.8968 431.781 86.6006C431.612 86.2959 431.358 86.1436 431.019 86.1436C430.655 86.1436 430.372 86.2874 430.169 86.5752C429.974 86.863 429.877 87.3623 429.877 88.0732V90.6377ZM439.505 102V82.957H444.05V85.3818C444.219 84.654 444.532 84.0361 444.989 83.5283C445.455 83.012 446.098 82.7539 446.919 82.7539C448.239 82.7539 449.195 83.1602 449.788 83.9727C450.389 84.7852 450.689 85.8981 450.689 87.3115V102H446.208V87.7812C446.208 87.4089 446.132 87.0661 445.979 86.7529C445.827 86.4313 445.565 86.2705 445.192 86.2705C444.845 86.2705 444.587 86.3932 444.418 86.6387C444.257 86.8757 444.155 87.1761 444.113 87.54C444.071 87.8955 444.05 88.251 444.05 88.6064V102H439.505ZM447.198 81.5479C446.546 81.5479 445.971 81.4505 445.471 81.2559C444.972 81.0612 444.515 80.8708 444.1 80.6846C443.694 80.4899 443.296 80.3926 442.907 80.3926C442.687 80.3926 442.48 80.4561 442.285 80.583C442.09 80.71 441.908 80.9342 441.739 81.2559L439.86 80.2656C440.072 79.7493 440.3 79.2796 440.546 78.8564C440.8 78.4248 441.121 78.082 441.511 77.8281C441.9 77.5658 442.395 77.4346 442.996 77.4346C443.622 77.4346 444.177 77.5234 444.659 77.7012C445.141 77.8789 445.577 78.0566 445.967 78.2344C446.364 78.4121 446.728 78.501 447.058 78.501C447.287 78.501 447.498 78.429 447.693 78.2852C447.888 78.1413 448.07 77.8958 448.239 77.5488L450.346 78.2344C450.143 78.8014 449.919 79.3389 449.674 79.8467C449.428 80.3545 449.111 80.765 448.721 81.0781C448.341 81.3913 447.833 81.5479 447.198 81.5479ZM459.314 102.203C455.523 102.203 453.627 100.235 453.627 96.2998V88.6572C453.627 86.863 454.131 85.4326 455.138 84.3662C456.145 83.2913 457.537 82.7539 459.314 82.7539C461.1 82.7539 462.497 83.2913 463.504 84.3662C464.511 85.4326 465.015 86.863 465.015 88.6572V96.2998C465.015 100.235 463.115 102.203 459.314 102.203ZM459.314 98.6992C459.695 98.6992 459.966 98.5638 460.127 98.293C460.296 98.0137 460.381 97.6624 460.381 97.2393V87.9336C460.381 86.8249 460.025 86.2705 459.314 86.2705C458.604 86.2705 458.248 86.8249 458.248 87.9336V97.2393C458.248 97.6624 458.328 98.0137 458.489 98.293C458.659 98.5638 458.934 98.6992 459.314 98.6992Z" fill="white"/>
</svg>
