<svg width="456" height="514" viewBox="0 0 456 514" fill="none" xmlns="http://www.w3.org/2000/svg">
<rect x="174" y="67" width="220" height="68" rx="34" fill="black"/>
<path d="M221.801 113V90.6562H226.117V113H221.801ZM229.118 113V90.6562H233.739V113H229.118ZM240.537 113.203C239.521 113.203 238.742 112.992 238.201 112.568C237.667 112.145 237.303 111.557 237.109 110.804C236.914 110.042 236.817 109.153 236.817 108.138V93.957H241.387V107.604C241.387 108.366 241.446 108.899 241.565 109.204C241.683 109.5 241.963 109.648 242.403 109.648C242.877 109.648 243.173 109.437 243.291 109.014C243.418 108.59 243.482 108.045 243.482 107.376V93.957H248.014V113H243.469V110.969C243.181 111.697 242.834 112.251 242.428 112.632C242.03 113.013 241.4 113.203 240.537 113.203ZM256.36 113.203C252.602 113.203 250.723 111.299 250.723 107.49V105.979H255.294V108.214C255.294 108.646 255.378 108.984 255.547 109.229C255.717 109.475 255.988 109.598 256.36 109.598C257.02 109.598 257.35 109.103 257.35 108.112C257.35 107.283 257.177 106.665 256.83 106.259C256.483 105.844 256.06 105.446 255.56 105.065L253.135 103.199C252.374 102.607 251.794 101.98 251.396 101.32C250.998 100.66 250.799 99.7419 250.799 98.5654C250.799 97.4736 251.058 96.5723 251.574 95.8613C252.099 95.1504 252.788 94.6214 253.643 94.2744C254.506 93.9274 255.437 93.7539 256.436 93.7539C260.126 93.7539 261.971 95.5947 261.971 99.2764V99.6318H257.274V98.9082C257.274 98.5273 257.206 98.1592 257.071 97.8037C256.944 97.4482 256.69 97.2705 256.309 97.2705C255.666 97.2705 255.344 97.609 255.344 98.2861C255.344 98.9717 255.615 99.5091 256.157 99.8984L258.975 101.955C259.855 102.59 260.592 103.343 261.184 104.215C261.785 105.087 262.086 106.246 262.086 107.693C262.086 109.488 261.574 110.854 260.549 111.794C259.534 112.733 258.137 113.203 256.36 113.203ZM268.692 113.203C267.465 113.203 266.636 112.945 266.204 112.429C265.781 111.904 265.569 111.104 265.569 110.029V98.1592H264.287V94.6934H265.569V90.6562H269.987V94.6934H271.269V98.1592H269.987V108.963C269.987 109.276 270.038 109.496 270.139 109.623C270.241 109.75 270.436 109.813 270.723 109.813C270.927 109.813 271.109 109.797 271.269 109.763V112.86C271.168 112.894 270.85 112.958 270.317 113.051C269.784 113.152 269.242 113.203 268.692 113.203ZM274.029 113V93.957H278.65V96.0771C278.87 95.3408 279.26 94.7653 279.818 94.3506C280.377 93.9359 281.079 93.7285 281.926 93.7285V97.5244C281.553 97.5244 281.109 97.5667 280.593 97.6514C280.076 97.7275 279.624 97.8376 279.234 97.9814C278.845 98.1169 278.65 98.2692 278.65 98.4385V113H274.029ZM287.809 113.203C286.751 113.203 285.943 112.958 285.384 112.467C284.834 111.976 284.457 111.303 284.254 110.448C284.051 109.593 283.949 108.624 283.949 107.541C283.949 106.382 284.064 105.434 284.292 104.697C284.521 103.952 284.91 103.343 285.46 102.869C286.019 102.395 286.785 101.993 287.758 101.663L290.576 100.698V98.7432C290.576 97.7191 290.242 97.207 289.573 97.207C288.964 97.207 288.659 97.6217 288.659 98.4512V99.5938H284.241C284.233 99.526 284.229 99.4414 284.229 99.3398C284.229 99.2298 284.229 99.1071 284.229 98.9717C284.229 97.0758 284.673 95.7344 285.562 94.9473C286.459 94.1517 287.877 93.7539 289.815 93.7539C290.83 93.7539 291.74 93.9359 292.544 94.2998C293.348 94.6553 293.983 95.1842 294.448 95.8867C294.922 96.5892 295.159 97.4567 295.159 98.4893V113H290.64V110.74C290.42 111.536 290.056 112.145 289.548 112.568C289.04 112.992 288.46 113.203 287.809 113.203ZM289.599 109.674C289.971 109.674 290.225 109.517 290.361 109.204C290.496 108.891 290.564 108.552 290.564 108.188V102.882C289.937 103.136 289.451 103.457 289.104 103.847C288.757 104.228 288.583 104.79 288.583 105.535V107.985C288.583 109.111 288.922 109.674 289.599 109.674ZM303.937 113.203C301.804 113.203 300.289 112.657 299.392 111.565C298.503 110.474 298.059 108.87 298.059 106.754V100.889C298.059 99.2975 298.228 97.973 298.567 96.915C298.905 95.8571 299.498 95.0658 300.344 94.541C301.191 94.0163 302.367 93.7539 303.873 93.7539C304.923 93.7539 305.862 93.9401 306.692 94.3125C307.53 94.6849 308.19 95.2308 308.672 95.9502C309.155 96.6696 309.396 97.5498 309.396 98.5908V101.498H304.762V98.832C304.762 98.3919 304.699 98.0238 304.572 97.7275C304.445 97.4229 304.17 97.2705 303.746 97.2705C303.002 97.2705 302.629 97.7995 302.629 98.8574V108.087C302.629 108.476 302.714 108.836 302.883 109.166C303.052 109.488 303.332 109.648 303.721 109.648C304.119 109.648 304.394 109.492 304.546 109.179C304.707 108.857 304.788 108.485 304.788 108.062V104.862H309.396V108.188C309.396 109.238 309.159 110.139 308.685 110.893C308.219 111.637 307.576 112.209 306.755 112.606C305.934 113.004 304.995 113.203 303.937 113.203ZM312.156 113V93.957H316.701V113H312.156ZM311.42 93.2842V90.4531L317.45 87.6855V92.0908L311.42 93.2842ZM325.237 113.203C321.445 113.203 319.55 111.235 319.55 107.3V99.6572C319.55 97.863 320.053 96.4326 321.06 95.3662C322.068 94.2913 323.46 93.7539 325.237 93.7539C327.023 93.7539 328.419 94.2913 329.427 95.3662C330.434 96.4326 330.937 97.863 330.937 99.6572V107.3C330.937 111.235 329.037 113.203 325.237 113.203ZM325.237 109.699C325.618 109.699 325.889 109.564 326.05 109.293C326.219 109.014 326.304 108.662 326.304 108.239V98.9336C326.304 97.8249 325.948 97.2705 325.237 97.2705C324.526 97.2705 324.171 97.8249 324.171 98.9336V108.239C324.171 108.662 324.251 109.014 324.412 109.293C324.581 109.564 324.856 109.699 325.237 109.699ZM333.926 113V93.957H338.471V96.3818C338.64 95.654 338.953 95.0361 339.41 94.5283C339.876 94.012 340.519 93.7539 341.34 93.7539C342.66 93.7539 343.617 94.1602 344.209 94.9727C344.81 95.7852 345.11 96.8981 345.11 98.3115V113H340.629V98.7812C340.629 98.4089 340.553 98.0661 340.4 97.7529C340.248 97.4313 339.986 97.2705 339.613 97.2705C339.266 97.2705 339.008 97.3932 338.839 97.6387C338.678 97.8757 338.576 98.1761 338.534 98.54C338.492 98.8955 338.471 99.251 338.471 99.6064V113H333.926Z" fill="white"/>
</svg>
