<svg width="563" height="665" viewBox="0 0 563 665" fill="none" xmlns="http://www.w3.org/2000/svg">
<g clip-path="url(#clip0_295_830)">
<g clip-path="url(#clip1_295_830)">
<path d="M147.313 376.913L216.725 475.92C216.725 475.92 230.23 499.476 272.403 499.74C286.871 500.829 327.006 479.853 323.144 434.482C319.283 389.111 305.691 250.665 305.691 250.665" fill="white"/>
<path d="M147.313 376.913L216.725 475.92C216.725 475.92 230.23 499.476 272.403 499.74C286.871 500.829 327.006 479.853 323.144 434.482C319.283 389.111 305.691 250.665 305.691 250.665" stroke="#66127D" stroke-width="4" stroke-miterlimit="10"/>
<path d="M187.843 149.092C192.217 136.878 210.669 137.585 226.772 139.296C242.875 141.008 256.629 143.724 260.154 154.896" fill="white"/>
<path d="M187.843 149.092C192.217 136.878 210.669 137.585 226.772 139.296C242.875 141.008 256.629 143.724 260.154 154.896" stroke="#66127D" stroke-width="3" stroke-miterlimit="10"/>
<path d="M170.563 174.816C172.962 162.272 173.227 159.625 178.057 153.444C186.109 143.139 253.762 143.143 267.367 160.527C273.079 167.823 270.608 189.974 270.127 196.363" fill="white"/>
<path d="M170.563 174.816C172.962 162.272 173.227 159.625 178.057 153.444C186.109 143.139 253.762 143.143 267.367 160.527C273.079 167.823 270.608 189.974 270.127 196.363" stroke="#66127D" stroke-width="3" stroke-miterlimit="10"/>
<path d="M-119.778 150.065C-119.778 150.065 -73.9007 158.037 -42.4123 156.371C-13.1997 154.824 9.47905 134.145 51.2201 136.43C81.7489 138.102 83.0944 144.062 114.467 160.573C121.383 164.214 127.499 166.859 142.289 169.9C153.034 172.108 170.206 175.276 186.313 178.174C202.187 181.03 214.004 173.912 233.813 228.412C247.45 265.932 136.436 337.975 65.3131 364.21C43.3131 348.912 8.31312 359.412 8.31312 359.412" fill="white"/>
<path d="M-119.778 150.065C-119.778 150.065 -73.9007 158.037 -42.4123 156.371C-13.1997 154.824 9.47905 134.145 51.2201 136.43C81.7489 138.102 83.0944 144.062 114.467 160.573C121.383 164.214 127.499 166.859 142.289 169.9C153.034 172.108 170.206 175.276 186.313 178.174C202.187 181.03 214.004 173.912 233.813 228.412C247.45 265.932 136.436 337.975 65.3131 364.21C43.3131 348.912 8.31312 359.412 8.31312 359.412" fill="white"/>
<path d="M8.31312 359.412C43.1131 351.012 62.4798 360.579 67.8131 366.412M8.31312 359.412C-26.4869 367.812 -84.8535 276.912 -109.687 230.412L-119.778 150.065C-119.778 150.065 -73.9007 158.037 -42.4123 156.371C-13.1997 154.824 9.47905 134.145 51.2201 136.43C81.7489 138.102 83.0944 144.062 114.467 160.573C121.383 164.214 127.499 166.859 142.289 169.9C153.034 172.108 170.206 175.276 186.313 178.174C202.187 181.03 214.004 173.912 233.813 228.412C247.45 265.932 136.436 337.975 65.3131 364.21C43.3131 348.912 8.31312 359.412 8.31312 359.412Z" stroke="#66127D" stroke-width="5" stroke-miterlimit="10"/>
<path d="M124.338 287.643C122.797 279.738 122.254 271.505 122.887 263.087C126.702 212.374 170.927 174.358 221.665 178.175C272.403 181.992 310.442 226.197 306.627 276.909C302.812 327.622 258.587 365.638 207.849 361.821C199.148 361.167 190.835 359.299 183.029 356.441C178.721 387.896 150.594 410.956 118.492 408.541C85.1322 406.032 60.1226 376.968 62.631 343.625C65.0578 311.367 92.354 286.925 124.338 287.643Z" fill="white" stroke="#66127D" stroke-width="4" stroke-miterlimit="10"/>
<path d="M167.323 285.578C178.376 286.409 188.01 278.127 188.841 267.08C189.672 256.033 181.385 246.403 170.333 245.572C159.28 244.74 149.646 253.022 148.815 264.069C147.983 275.116 156.27 284.746 167.323 285.578Z" fill="white" stroke="#66127D" stroke-width="3" stroke-miterlimit="10"/>
<path d="M214.507 245.016C225.56 245.848 235.194 237.566 236.025 226.519C236.856 215.472 228.57 205.842 217.517 205.01C206.464 204.179 196.83 212.461 195.999 223.508C195.168 234.555 203.454 244.185 214.507 245.016Z" fill="white" stroke="#66127D" stroke-width="3" stroke-miterlimit="10"/>
<path d="M256.058 292.253C267.111 293.084 276.745 284.803 277.576 273.755C278.407 262.708 270.12 253.078 259.067 252.247C248.014 251.415 238.38 259.697 237.549 270.744C236.718 281.792 245.005 291.421 256.058 292.253Z" fill="white" stroke="#66127D" stroke-width="3" stroke-miterlimit="10"/>
<path d="M206.763 335.079C217.816 335.911 227.45 327.629 228.281 316.582C229.112 305.535 220.826 295.905 209.773 295.073C198.72 294.242 189.086 302.524 188.255 313.571C187.424 324.618 195.71 334.248 206.763 335.079Z" fill="white" stroke="#66127D" stroke-width="3" stroke-miterlimit="10"/>
<path d="M55.9936 195.975L47.9314 195.322L41.1518 221.907L49.3287 222.564L55.9936 195.975Z" fill="white" stroke="#66127D" stroke-width="3" stroke-miterlimit="10"/>
<path d="M62.9616 197.443L60.743 205.487C67.4074 208.958 69.1347 216.245 67.0687 224.348C64.3488 235.033 53.3045 242.977 41.9993 242.071C30.6858 241.159 23.7232 231.767 26.4545 221.086C26.478 220.967 26.5147 220.848 26.5464 220.736L19.4458 220.161C19.4185 220.253 19.388 220.35 19.3649 220.444C15.5856 235.288 25.0862 248.326 40.5925 249.572C56.1056 250.825 71.4079 239.775 75.1896 224.937C78.3676 212.478 74.1358 201.445 62.9616 197.443Z" fill="white" stroke="#66127D" stroke-width="3" stroke-miterlimit="10"/>
<path d="M257.611 274.66C258.864 274.754 259.957 273.815 260.051 272.562C260.146 271.309 259.206 270.217 257.952 270.122C256.698 270.028 255.606 270.967 255.511 272.22C255.417 273.474 256.357 274.566 257.611 274.66Z" fill="#66127D"/>
<path d="M258.596 260.505C251.949 260.005 246.158 264.986 245.658 271.629C245.158 278.271 250.141 284.06 256.786 284.56C263.431 285.06 269.225 280.08 269.725 273.44C270.225 266.797 265.241 261.005 258.596 260.505ZM257.108 280.276C252.83 279.955 249.623 276.229 249.945 271.952C250.267 267.674 253.995 264.468 258.273 264.789C262.554 265.112 265.758 268.841 265.437 273.117C265.115 277.393 261.389 280.599 257.108 280.276Z" fill="#66127D"/>
<path d="M177.892 258.034L159.673 256.664L158.302 274.879L176.522 276.25L177.892 258.034Z" stroke="#66127D" stroke-width="3" stroke-miterlimit="10"/>
<path d="M200.835 306.737L201.748 303.108C201.778 302.986 201.982 302.846 202.177 302.864L220.313 304.248C220.542 304.266 220.636 304.428 220.606 304.551L219.689 308.179C219.654 308.332 219.492 308.44 219.262 308.424L201.126 307.038C200.93 307.023 200.794 306.891 200.835 306.737Z" fill="#66127D"/>
<path d="M211.508 311.245L207.382 327.641C207.351 327.764 207.15 327.901 206.916 327.884L202.688 327.555C202.458 327.538 202.362 327.375 202.392 327.251L206.521 310.858L211.508 311.245Z" fill="#66127D"/>
<path d="M207.396 211.587L206.764 223.5L219.005 218.497L207.396 211.587Z" fill="#66127D"/>
<path d="M206.753 223.715L206.152 235.562L218.108 230.501L206.753 223.715Z" fill="#66127D"/>
<path d="M219.073 218.579L218.186 230.373L230.424 225.363L219.073 218.579Z" fill="#66127D"/>
<path d="M5.94222 358.543C5.94222 358.543 47.9693 351.495 64.5168 364.411" stroke="#66127D" stroke-width="3.4398" stroke-miterlimit="10"/>
<path d="M54.3983 297.951C54.1109 301.772 47.197 304.362 38.9547 303.742C30.7125 303.122 24.2656 299.525 24.5529 295.706C24.8398 291.891 31.7525 289.298 39.9947 289.918C48.237 290.538 54.6852 294.137 54.3983 297.951Z" fill="white" stroke="#66127D" stroke-width="3" stroke-miterlimit="10"/>
<path d="M86.7422 264.214C88.769 267.462 84.7238 273.638 77.7111 278.007C70.6954 282.375 63.3698 283.283 61.3432 280.031C59.3162 276.786 63.3586 270.61 70.3742 266.241C77.3897 261.874 84.7154 260.965 86.7422 264.214Z" fill="white" stroke="#66127D" stroke-width="3" stroke-miterlimit="10"/>
<path d="M56.6873 328.598L42.1704 327.506L41.5155 336.211L56.0324 337.304L56.6873 328.598Z" fill="white" stroke="#66127D" stroke-width="3" stroke-miterlimit="10"/>
<path d="M92.8258 105.622L95.0848 96.0939L96.6185 96.2093L94.3593 105.737L92.8258 105.622Z" fill="#66127D" stroke="#66127D" stroke-width="0.25" stroke-miterlimit="10"/>
<path d="M97.3165 105.96L99.5756 96.4318L100.779 96.5223L104.76 104.36L104.773 104.361L106.527 96.9548L107.951 97.0619L105.69 106.59L104.448 106.496L100.475 98.7288L98.7401 106.067L97.3165 105.96Z" fill="#66127D" stroke="#66127D" stroke-width="0.25" stroke-miterlimit="10"/>
<path d="M108.646 106.812L110.905 97.2838L112.439 97.3992L110.18 106.927L108.646 106.812Z" fill="#66127D" stroke="#66127D" stroke-width="0.25" stroke-miterlimit="10"/>
<path d="M117.546 107.618C116.587 107.546 115.802 107.283 115.189 106.83C114.577 106.377 114.158 105.764 113.932 104.995C113.706 104.226 113.699 103.327 113.915 102.297C114.073 101.53 114.323 100.857 114.667 100.276C115.007 99.6966 115.422 99.2115 115.909 98.8221C116.397 98.4327 116.949 98.1529 117.563 97.9824C118.176 97.8133 118.834 97.7552 119.537 97.8081C120.195 97.8576 120.783 97.9992 121.301 98.2302C121.82 98.4612 122.24 98.7821 122.558 99.19L121.838 100.334C121.499 99.9508 121.13 99.6686 120.73 99.4873C120.331 99.306 119.875 99.1961 119.366 99.1578C118.719 99.1091 118.128 99.2072 117.596 99.4508C117.063 99.6942 116.617 100.078 116.251 100.602C115.886 101.124 115.623 101.779 115.463 102.565C115.305 103.333 115.293 103.982 115.427 104.516C115.56 105.048 115.826 105.46 116.228 105.752C116.627 106.044 117.143 106.214 117.772 106.261C118.274 106.299 118.756 106.261 119.212 106.148C119.67 106.036 120.145 105.82 120.636 105.499L121.001 106.709C120.688 106.943 120.347 107.132 119.973 107.277C119.599 107.424 119.208 107.525 118.8 107.582C118.392 107.638 117.976 107.651 117.546 107.618Z" fill="#66127D" stroke="#66127D" stroke-width="0.25" stroke-miterlimit="10"/>
<path d="M123.059 107.897L125.318 98.3683L126.851 98.4837L124.592 108.012L123.059 107.897Z" fill="#66127D" stroke="#66127D" stroke-width="0.25" stroke-miterlimit="10"/>
<path d="M131.93 108.687C130.972 108.615 130.187 108.352 129.576 107.898C128.962 107.444 128.547 106.833 128.33 106.063C128.113 105.295 128.112 104.411 128.324 103.409C128.48 102.65 128.728 101.976 129.066 101.388C129.403 100.798 129.816 100.312 130.306 99.9269C130.79 99.5417 131.335 99.2598 131.937 99.0797C132.537 98.9008 133.185 98.8361 133.878 98.8883C134.854 98.9617 135.643 99.2233 136.248 99.673C136.852 100.121 137.266 100.73 137.486 101.5C137.707 102.268 137.712 103.148 137.501 104.14C137.342 104.918 137.09 105.6 136.748 106.189C136.405 106.779 135.99 107.265 135.503 107.65C135.017 108.035 134.47 108.317 133.871 108.497C133.271 108.676 132.624 108.739 131.93 108.687ZM132.1 107.352C132.756 107.401 133.345 107.299 133.865 107.044C134.383 106.789 134.822 106.393 135.179 105.857C135.535 105.32 135.794 104.663 135.955 103.886C136.205 102.75 136.128 101.872 135.725 101.255C135.32 100.637 134.652 100.293 133.71 100.222C133.064 100.174 132.477 100.275 131.955 100.524C131.43 100.773 130.994 101.162 130.643 101.692C130.289 102.22 130.034 102.882 129.873 103.675C129.621 104.813 129.698 105.692 130.101 106.313C130.503 106.937 131.171 107.282 132.1 107.352Z" fill="#66127D" stroke="#66127D" stroke-width="0.25" stroke-miterlimit="10"/>
<path d="M350.325 280.249C349.367 280.177 348.583 279.912 347.971 279.46C347.359 279.005 346.938 278.394 346.712 277.625C346.486 276.856 346.48 275.957 346.695 274.927C346.852 274.16 347.102 273.483 347.446 272.904C347.787 272.326 348.202 271.84 348.691 271.452C349.177 271.063 349.729 270.784 350.343 270.612C350.957 270.445 351.616 270.385 352.317 270.438C352.976 270.487 353.562 270.629 354.081 270.86C354.602 271.09 355.02 271.413 355.339 271.821L354.617 272.962C354.278 272.581 353.91 272.297 353.511 272.117C353.113 271.936 352.655 271.826 352.146 271.788C351.498 271.739 350.907 271.837 350.377 272.082C349.843 272.326 349.395 272.711 349.03 273.233C348.665 273.754 348.403 274.409 348.242 275.196C348.086 275.961 348.073 276.612 348.209 277.145C348.339 277.679 348.608 278.092 349.008 278.382C349.408 278.674 349.922 278.843 350.553 278.891C351.055 278.929 351.535 278.891 351.991 278.781C352.451 278.667 352.925 278.451 353.416 278.131L353.779 279.34C353.469 279.573 353.126 279.764 352.753 279.909C352.38 280.055 351.988 280.156 351.581 280.212C351.173 280.27 350.755 280.282 350.325 280.249Z" fill="#66127D" stroke="#66127D" stroke-width="0.25" stroke-miterlimit="10"/>
<path d="M359.923 280.957C358.964 280.885 358.18 280.621 357.567 280.167C356.954 279.713 356.538 279.1 356.321 278.333C356.104 277.563 356.102 276.681 356.316 275.677C356.472 274.92 356.719 274.245 357.059 273.656C357.395 273.067 357.809 272.58 358.296 272.195C358.782 271.811 359.327 271.527 359.928 271.348C360.53 271.169 361.176 271.106 361.869 271.158C362.844 271.231 363.635 271.494 364.238 271.941C364.843 272.389 365.256 272.999 365.477 273.768C365.7 274.536 365.704 275.418 365.492 276.41C365.334 277.186 365.083 277.868 364.739 278.457C364.397 279.045 363.982 279.532 363.494 279.917C363.008 280.302 362.461 280.584 361.861 280.764C361.265 280.944 360.614 281.009 359.923 280.957ZM360.092 279.621C360.747 279.671 361.337 279.568 361.856 279.314C362.374 279.06 362.813 278.663 363.171 278.126C363.527 277.59 363.784 276.933 363.945 276.155C364.194 275.019 364.12 274.14 363.715 273.525C363.312 272.908 362.642 272.563 361.7 272.492C361.054 272.443 360.467 272.544 359.943 272.794C359.421 273.043 358.984 273.432 358.632 273.961C358.279 274.488 358.024 275.151 357.863 275.945C357.611 277.081 357.688 277.962 358.089 278.584C358.493 279.206 359.161 279.552 360.092 279.621Z" fill="#66127D" stroke="#66127D" stroke-width="0.25" stroke-miterlimit="10"/>
<path d="M366.937 281.359L369.195 271.833L370.4 271.923L374.38 279.758L374.395 279.76L376.149 272.356L377.573 272.463L375.313 281.99L374.068 281.896L370.099 274.127L368.362 281.467L366.937 281.359Z" fill="#66127D" stroke="#66127D" stroke-width="0.25" stroke-miterlimit="10"/>
<path d="M380.611 282.388L382.563 274.172L379.169 273.916L379.487 272.607L387.793 273.232L387.475 274.541L384.082 274.286L382.141 282.503L380.611 282.388Z" fill="#66127D" stroke="#66127D" stroke-width="0.25" stroke-miterlimit="10"/>
<path d="M387.426 282.901L389.684 273.374L393.667 273.674C394.406 273.729 395.009 273.884 395.477 274.14C395.945 274.396 396.264 274.743 396.439 275.181C396.612 275.621 396.633 276.157 396.502 276.79C396.413 277.269 396.232 277.675 395.964 278.008C395.695 278.34 395.361 278.602 394.962 278.793C394.562 278.984 394.122 279.106 393.64 279.158L393.625 279.186L393.731 279.223C393.919 279.291 394.072 279.409 394.193 279.575C394.315 279.741 394.422 279.984 394.519 280.301L395.447 283.506L393.846 283.385L392.96 280.348C392.893 280.106 392.805 279.911 392.687 279.772C392.569 279.626 392.418 279.526 392.235 279.461C392.052 279.398 391.824 279.353 391.549 279.333L389.865 279.206L388.973 283.019L387.426 282.901ZM390.133 278.016L392.693 278.209C393.358 278.259 393.88 278.153 394.252 277.891C394.624 277.63 394.868 277.216 394.986 276.645C395.1 276.085 395.026 275.666 394.763 275.391C394.5 275.113 394.029 274.95 393.354 274.899L390.917 274.716L390.133 278.016Z" fill="#66127D" stroke="#66127D" stroke-width="0.25" stroke-miterlimit="10"/>
<path d="M401.95 284.119C400.992 284.047 400.207 283.783 399.594 283.329C398.981 282.875 398.567 282.262 398.35 281.495C398.133 280.725 398.132 279.843 398.345 278.839C398.5 278.082 398.748 277.407 399.086 276.818C399.423 276.229 399.835 275.742 400.326 275.357C400.81 274.973 401.356 274.689 401.956 274.51C402.557 274.331 403.205 274.268 403.899 274.32C404.874 274.393 405.663 274.656 406.267 275.103C406.87 275.551 407.284 276.161 407.506 276.93C407.728 277.698 407.731 278.58 407.52 279.572C407.361 280.348 407.11 281.03 406.768 281.619C406.425 282.207 406.009 282.694 405.521 283.079C405.036 283.464 404.491 283.746 403.889 283.926C403.289 284.106 402.641 284.171 401.95 284.119ZM402.12 282.784C402.774 282.833 403.364 282.73 403.882 282.475C404.402 282.222 404.84 281.825 405.197 281.287C405.553 280.751 405.811 280.095 405.972 279.317C406.222 278.181 406.147 277.302 405.742 276.687C405.339 276.07 404.669 275.725 403.727 275.654C403.081 275.605 402.494 275.706 401.972 275.956C401.447 276.205 401.01 276.594 400.659 277.123C400.306 277.65 400.05 278.313 399.888 279.107C399.639 280.242 399.715 281.124 400.118 281.746C400.52 282.368 401.188 282.713 402.12 282.784Z" fill="#66127D" stroke="#66127D" stroke-width="0.25" stroke-miterlimit="10"/>
<path d="M408.966 284.522L411.223 274.995L412.759 275.11L410.805 283.326L415.582 283.686L415.275 284.996L408.966 284.522Z" fill="#66127D" stroke="#66127D" stroke-width="0.25" stroke-miterlimit="10"/>
<path d="M417.328 285.15L419.571 275.622L426.073 276.112L425.772 277.367L420.762 276.99L420.082 279.816L424.818 280.172L424.531 281.414L419.795 281.058L419.091 284.005L424.117 284.383L423.813 285.638L417.328 285.15Z" fill="#66127D" stroke="#66127D" stroke-width="0.25" stroke-miterlimit="10"/>
<path d="M429.732 286.209C429.22 286.17 428.734 286.099 428.267 285.994C427.804 285.892 427.386 285.744 427.013 285.558C426.643 285.37 426.327 285.151 426.073 284.902L426.75 283.729C427.026 283.988 427.33 284.201 427.667 284.368C428.003 284.537 428.363 284.663 428.753 284.746C429.14 284.832 429.549 284.889 429.979 284.921C430.445 284.956 430.854 284.929 431.212 284.835C431.568 284.743 431.853 284.6 432.07 284.397C432.286 284.198 432.422 283.968 432.478 283.707C432.548 283.4 432.541 283.148 432.454 282.948C432.367 282.748 432.207 282.582 431.969 282.451C431.732 282.318 431.414 282.196 431.018 282.082L429.494 281.667C428.648 281.439 428.083 281.075 427.794 280.583C427.505 280.089 427.432 279.503 427.576 278.826C427.662 278.392 427.836 278.015 428.094 277.696C428.351 277.378 428.677 277.113 429.069 276.91C429.461 276.705 429.901 276.565 430.388 276.487C430.874 276.409 431.389 276.389 431.927 276.43C432.61 276.481 433.217 276.617 433.746 276.836C434.275 277.054 434.707 277.354 435.036 277.738L434.342 278.911C434.031 278.521 433.654 278.235 433.208 278.055C432.763 277.876 432.266 277.764 431.72 277.723C431.271 277.689 430.857 277.719 430.472 277.809C430.09 277.897 429.775 278.042 429.526 278.239C429.278 278.435 429.123 278.684 429.065 278.982C428.979 279.378 429.032 279.698 429.219 279.934C429.409 280.174 429.773 280.37 430.31 280.521L431.836 280.938C432.734 281.177 433.36 281.53 433.709 281.992C434.061 282.455 434.152 283.048 433.989 283.767C433.9 284.211 433.731 284.596 433.483 284.917C433.234 285.245 432.92 285.511 432.543 285.716C432.165 285.922 431.738 286.066 431.263 286.148C430.789 286.23 430.281 286.25 429.732 286.209Z" fill="#66127D" stroke="#66127D" stroke-width="0.25" stroke-miterlimit="10"/>
<path d="M344.682 296.193L346.94 286.665L350.335 286.921C351.94 287.041 353.078 287.541 353.752 288.422C354.424 289.302 354.597 290.525 354.268 292.085C354.11 292.851 353.86 293.523 353.518 294.092C353.176 294.663 352.753 295.134 352.249 295.505C351.743 295.872 351.162 296.141 350.502 296.31C349.844 296.474 349.111 296.527 348.311 296.466L344.682 296.193ZM346.517 295.01L348.501 295.159C349.077 295.202 349.598 295.161 350.059 295.038C350.523 294.912 350.932 294.709 351.288 294.429C351.642 294.147 351.943 293.789 352.181 293.355C352.42 292.917 352.6 292.407 352.717 291.819C352.966 290.693 352.865 289.833 352.406 289.237C351.953 288.645 351.183 288.306 350.096 288.224L348.152 288.078L346.517 295.01Z" fill="#66127D" stroke="#66127D" stroke-width="0.25" stroke-miterlimit="10"/>
<path d="M355.74 297.025L357.984 287.496L364.486 287.985L364.183 289.244L359.175 288.867L358.495 291.689L363.229 292.045L362.944 293.291L358.208 292.934L357.504 295.88L362.527 296.258L362.226 297.515L355.74 297.027L355.74 297.025Z" fill="#66127D" stroke="#66127D" stroke-width="0.25" stroke-miterlimit="10"/>
<path d="M368.974 298.021L371.217 288.492L377.691 288.979L377.39 290.237L372.464 289.867L371.779 292.758L376.446 293.11L376.143 294.378L371.476 294.027L370.491 298.135L368.974 298.021Z" fill="#66127D" stroke="#66127D" stroke-width="0.25" stroke-miterlimit="10"/>
<path d="M381.542 299.092C380.893 299.043 380.338 298.914 379.871 298.704C379.405 298.495 379.039 298.21 378.774 297.85C378.504 297.492 378.342 297.06 378.278 296.554C378.215 296.051 378.255 295.485 378.391 294.851L379.758 289.134L381.277 289.249L379.922 295.009C379.719 295.872 379.776 296.526 380.092 296.966C380.408 297.407 380.966 297.658 381.768 297.719C382.581 297.78 383.233 297.624 383.723 297.254C384.212 296.883 384.561 296.268 384.763 295.412L386.149 289.615L387.681 289.73L386.31 295.542C386.107 296.38 385.793 297.073 385.366 297.623C384.94 298.173 384.41 298.57 383.773 298.818C383.132 299.065 382.39 299.156 381.542 299.092Z" fill="#66127D" stroke="#66127D" stroke-width="0.25" stroke-miterlimit="10"/>
<path d="M388.256 299.472L390.515 289.943L391.717 290.034L395.698 297.874L395.712 297.875L397.467 290.466L398.889 290.573L396.631 300.102L395.386 300.008L391.415 292.24L389.68 299.579L388.256 299.472Z" fill="#66127D" stroke="#66127D" stroke-width="0.25" stroke-miterlimit="10"/>
<path d="M403.998 300.794C403.039 300.722 402.254 300.458 401.644 300.006C401.03 299.551 400.608 298.938 400.384 298.169C400.156 297.402 400.151 296.503 400.368 295.472C400.523 294.706 400.775 294.031 401.118 293.45C401.459 292.871 401.873 292.386 402.361 291.996C402.848 291.61 403.402 291.327 404.014 291.158C404.629 290.991 405.287 290.933 405.99 290.985C406.647 291.035 407.236 291.172 407.754 291.405C408.272 291.637 408.69 291.958 409.01 292.369L408.29 293.51C407.95 293.127 407.583 292.843 407.182 292.662C406.784 292.48 406.328 292.371 405.818 292.332C405.171 292.283 404.581 292.383 404.048 292.628C403.515 292.87 403.067 293.255 402.701 293.779C402.339 294.3 402.074 294.956 401.915 295.741C401.757 296.509 401.744 297.158 401.879 297.693C402.012 298.225 402.279 298.636 402.679 298.928C403.079 299.22 403.596 299.39 404.224 299.437C404.727 299.475 405.207 299.437 405.664 299.326C406.12 299.214 406.596 298.999 407.088 298.675L407.452 299.886C407.139 300.119 406.796 300.309 406.423 300.453C406.049 300.602 405.659 300.701 405.252 300.759C404.845 300.814 404.426 300.826 403.998 300.794Z" fill="#66127D" stroke="#66127D" stroke-width="0.25" stroke-miterlimit="10"/>
<path d="M409.51 301.071L411.769 291.543L413.302 291.658L411.044 301.186L409.51 301.071Z" fill="#66127D" stroke="#66127D" stroke-width="0.25" stroke-miterlimit="10"/>
<path d="M418.381 301.863C417.425 301.791 416.639 301.526 416.027 301.074C415.415 300.619 414.999 300.006 414.783 299.239C414.564 298.471 414.564 297.587 414.776 296.585C414.932 295.825 415.18 295.154 415.519 294.563C415.854 293.976 416.269 293.486 416.756 293.103C417.243 292.716 417.787 292.433 418.39 292.256C418.989 292.077 419.637 292.014 420.329 292.066C421.304 292.139 422.096 292.401 422.7 292.849C423.303 293.297 423.716 293.906 423.939 294.674C424.159 295.444 424.164 296.324 423.952 297.316C423.794 298.094 423.543 298.776 423.202 299.362C422.859 299.953 422.445 300.438 421.957 300.825C421.467 301.208 420.923 301.492 420.324 301.672C419.724 301.852 419.076 301.915 418.381 301.863ZM418.552 300.528C419.208 300.577 419.797 300.473 420.316 300.219C420.836 299.965 421.273 299.568 421.629 299.03C421.987 298.494 422.243 297.836 422.406 297.059C422.656 295.923 422.58 295.046 422.176 294.428C421.772 293.812 421.101 293.469 420.162 293.398C419.515 293.35 418.928 293.449 418.408 293.7C417.883 293.947 417.444 294.338 417.095 294.865C416.741 295.393 416.486 296.056 416.326 296.848C416.074 297.987 416.149 298.865 416.554 299.488C416.955 300.113 417.623 300.458 418.552 300.528ZM420.083 291.345L422.203 289.122L423.887 289.249L421.247 291.432L420.083 291.345Z" fill="#66127D" stroke="#66127D" stroke-width="0.25" stroke-miterlimit="10"/>
<path d="M425.4 302.266L427.658 292.738L428.862 292.828L432.842 300.668L432.857 300.669L434.61 293.261L436.033 293.368L433.776 302.896L432.53 302.803L428.559 295.035L426.823 302.373L425.4 302.266Z" fill="#66127D" stroke="#66127D" stroke-width="0.25" stroke-miterlimit="10"/>
<path d="M105.884 511.071L106.065 509.764L107.246 509.799C107.548 509.803 107.825 509.751 108.077 509.642C108.328 509.532 108.541 509.369 108.713 509.152C108.883 508.936 109.007 508.672 109.075 508.356L110.669 501.627L112.202 501.742L110.571 508.592C110.449 509.115 110.228 509.57 109.909 509.96C109.593 510.35 109.203 510.643 108.743 510.842C108.283 511.041 107.764 511.132 107.187 511.118L105.884 511.071Z" fill="#66127D" stroke="#66127D" stroke-width="0.25" stroke-miterlimit="10"/>
<path d="M117.282 511.944C116.326 511.872 115.54 511.606 114.929 511.152C114.316 510.7 113.901 510.087 113.684 509.32C113.466 508.551 113.463 507.666 113.675 506.666C113.834 505.906 114.081 505.233 114.421 504.642C114.756 504.054 115.17 503.567 115.657 503.182C116.143 502.797 116.689 502.515 117.291 502.337C117.89 502.156 118.537 502.093 119.231 502.145C120.206 502.219 120.996 502.48 121.601 502.929C122.206 503.377 122.618 503.985 122.84 504.752C123.06 505.524 123.066 506.404 122.855 507.396C122.693 508.173 122.444 508.855 122.102 509.442C121.759 510.033 121.342 510.519 120.855 510.904C120.368 511.289 119.823 511.572 119.223 511.751C118.623 511.933 117.977 511.996 117.282 511.944ZM117.453 510.607C118.108 510.657 118.696 510.554 119.216 510.299C119.736 510.045 120.173 509.65 120.53 509.111C120.888 508.574 121.144 507.917 121.306 507.14C121.556 506.002 121.481 505.125 121.077 504.509C120.671 503.893 120.001 503.55 119.061 503.479C118.414 503.43 117.829 503.53 117.306 503.779C116.784 504.028 116.345 504.416 115.994 504.945C115.64 505.474 115.387 506.136 115.225 506.931C114.974 508.068 115.049 508.946 115.453 509.568C115.856 510.193 116.522 510.537 117.453 510.607Z" fill="#66127D" stroke="#66127D" stroke-width="0.25" stroke-miterlimit="10"/>
<path d="M125.898 512.468L127.07 507.507L127.081 508.636L124.517 502.666L126.174 502.79L127.912 506.951L127.925 506.952L131.553 503.195L133.331 503.329L128.056 508.709L128.605 507.622L127.417 512.582L125.898 512.468Z" fill="#66127D" stroke="#66127D" stroke-width="0.25" stroke-miterlimit="10"/>
<path d="M135.688 513.329C135.179 513.291 134.691 513.219 134.224 513.114C133.762 513.011 133.343 512.864 132.971 512.678C132.601 512.489 132.287 512.27 132.028 512.021L132.709 510.849C132.983 511.108 133.288 511.322 133.625 511.488C133.959 511.656 134.322 511.782 134.711 511.867C135.099 511.95 135.508 512.009 135.938 512.042C136.403 512.077 136.813 512.048 137.171 511.956C137.524 511.863 137.811 511.717 138.026 511.517C138.243 511.319 138.381 511.088 138.436 510.825C138.507 510.518 138.498 510.267 138.411 510.067C138.326 509.868 138.162 509.703 137.925 509.571C137.687 509.438 137.372 509.315 136.976 509.204L135.452 508.787C134.608 508.558 134.04 508.196 133.751 507.702C133.464 507.208 133.389 506.622 133.531 505.945C133.621 505.512 133.792 505.136 134.052 504.813C134.31 504.497 134.635 504.232 135.026 504.027C135.418 503.824 135.856 503.684 136.345 503.604C136.831 503.528 137.345 503.509 137.886 503.55C138.569 503.602 139.176 503.736 139.705 503.955C140.235 504.175 140.664 504.475 140.993 504.859L140.298 506.029C139.99 505.638 139.609 505.355 139.166 505.175C138.72 504.996 138.225 504.884 137.678 504.843C137.23 504.81 136.814 504.838 136.432 504.928C136.048 505.019 135.733 505.162 135.483 505.359C135.235 505.555 135.081 505.804 135.021 506.102C134.937 506.499 134.991 506.818 135.178 507.055C135.367 507.293 135.73 507.49 136.269 507.638L137.791 508.057C138.693 508.298 139.315 508.649 139.667 509.113C140.019 509.576 140.11 510.166 139.945 510.889C139.858 511.332 139.69 511.715 139.441 512.039C139.19 512.363 138.876 512.631 138.501 512.837C138.122 513.041 137.696 513.185 137.222 513.268C136.747 513.346 136.238 513.37 135.688 513.329Z" fill="#66127D" stroke="#66127D" stroke-width="0.25" stroke-miterlimit="10"/>
<path d="M143.773 513.812L145.726 505.597L142.332 505.342L142.651 504.031L150.956 504.656L150.638 505.967L147.245 505.712L145.303 513.927L143.773 513.812Z" fill="#66127D" stroke="#66127D" stroke-width="0.25" stroke-miterlimit="10"/>
<path d="M150.589 514.325L152.848 504.798L154.381 504.913L152.122 514.44L150.589 514.325Z" fill="#66127D" stroke="#66127D" stroke-width="0.25" stroke-miterlimit="10"/>
<path d="M159.487 515.131C158.53 515.059 157.743 514.798 157.132 514.342C156.52 513.89 156.097 513.276 155.873 512.508C155.647 511.739 155.64 510.84 155.856 509.81C156.014 509.041 156.264 508.368 156.606 507.789C156.947 507.209 157.361 506.724 157.85 506.335C158.339 505.947 158.89 505.666 159.504 505.497C160.116 505.329 160.775 505.269 161.478 505.322C162.136 505.372 162.724 505.51 163.243 505.744C163.761 505.975 164.18 506.293 164.498 506.704L163.779 507.847C163.44 507.465 163.071 507.18 162.672 507C162.272 506.819 161.818 506.709 161.308 506.671C160.659 506.622 160.069 506.721 159.536 506.965C159.004 507.208 158.556 507.591 158.191 508.116C157.825 508.639 157.565 509.295 157.404 510.078C157.246 510.845 157.234 511.496 157.367 512.028C157.501 512.56 157.767 512.974 158.17 513.266C158.567 513.558 159.084 513.728 159.712 513.775C160.215 513.813 160.695 513.775 161.152 513.665C161.613 513.552 162.084 513.337 162.578 513.015L162.941 514.225C162.63 514.46 162.288 514.648 161.912 514.793C161.54 514.941 161.15 515.041 160.741 515.099C160.333 515.152 159.916 515.163 159.487 515.131Z" fill="#66127D" stroke="#66127D" stroke-width="0.25" stroke-miterlimit="10"/>
<path d="M165 515.409L167.258 505.882L168.793 505.998L167.786 510.212L167.855 510.217L173.13 506.324L175.114 506.473L168.804 511.142L168.893 510.336L173.199 516.025L171.31 515.882L167.651 511.082L167.583 511.077L166.532 515.523L165 515.409Z" fill="#66127D" stroke="#66127D" stroke-width="0.25" stroke-miterlimit="10"/>
<path d="M105.874 527.469L108.133 517.941L111.529 518.197C113.133 518.317 114.273 518.817 114.947 519.7C115.617 520.576 115.79 521.799 115.461 523.361C115.303 524.129 115.054 524.798 114.712 525.368C114.37 525.937 113.947 526.409 113.442 526.778C112.937 527.147 112.353 527.417 111.696 527.583C111.038 527.75 110.304 527.803 109.504 527.742L105.874 527.469ZM107.712 526.286L109.696 526.435C110.271 526.478 110.79 526.436 111.256 526.309C111.716 526.186 112.126 525.982 112.482 525.702C112.839 525.421 113.138 525.064 113.379 524.63C113.617 524.192 113.793 523.681 113.91 523.093C114.162 521.968 114.06 521.106 113.604 520.511C113.148 519.917 112.378 519.581 111.293 519.499L109.348 519.353L107.712 526.286Z" fill="#66127D" stroke="#66127D" stroke-width="0.25" stroke-miterlimit="10"/>
<path d="M116.933 528.301L119.176 518.772L125.68 519.261L125.377 520.518L120.368 520.141L119.689 522.965L124.421 523.321L124.137 524.566L119.4 524.21L118.698 527.157L123.721 527.535L123.419 528.791L116.933 528.303L116.933 528.301Z" fill="#66127D" stroke="#66127D" stroke-width="0.25" stroke-miterlimit="10"/>
<path d="M126.033 528.986L128.291 519.458L132.275 519.757C133.013 519.813 133.616 519.967 134.082 520.223C134.55 520.478 134.872 520.827 135.046 521.266C135.219 521.706 135.238 522.242 135.109 522.875C135.018 523.352 134.839 523.76 134.57 524.092C134.303 524.425 133.968 524.685 133.568 524.876C133.169 525.066 132.729 525.19 132.247 525.243L132.232 525.27L132.338 525.308C132.526 525.376 132.679 525.491 132.8 525.659C132.922 525.824 133.029 526.067 133.126 526.384L134.053 529.591L132.452 529.47L131.567 526.431C131.502 526.189 131.41 525.995 131.294 525.854C131.174 525.711 131.025 525.609 130.842 525.545C130.657 525.483 130.431 525.438 130.156 525.418L128.472 525.291L127.58 529.104L126.033 528.987L126.033 528.986ZM128.739 524.101L131.3 524.294C131.964 524.344 132.487 524.236 132.859 523.975C133.23 523.716 133.475 523.3 133.591 522.73C133.707 522.169 133.633 521.75 133.37 521.474C133.105 521.198 132.636 521.035 131.962 520.984L129.524 520.801L128.739 524.101Z" fill="#66127D" stroke="#66127D" stroke-width="0.25" stroke-miterlimit="10"/>
<path d="M136.254 529.755L138.501 520.226L145.001 520.715L144.698 521.972L139.691 521.595L139.01 524.419L143.744 524.775L143.458 526.02L138.724 525.664L138.021 528.611L143.043 528.989L142.742 530.244L136.254 529.756L136.254 529.755Z" fill="#66127D" stroke="#66127D" stroke-width="0.25" stroke-miterlimit="10"/>
<path d="M149.74 530.906C148.782 530.834 147.998 530.568 147.384 530.115C146.773 529.662 146.35 529.051 146.124 528.282C145.9 527.512 145.895 526.614 146.109 525.585C146.267 524.817 146.517 524.143 146.86 523.563C147.201 522.986 147.617 522.499 148.104 522.111C148.591 521.72 149.144 521.441 149.756 521.271C150.371 521.104 151.029 521.043 151.732 521.096C152.389 521.145 152.978 521.285 153.496 521.518C154.016 521.749 154.434 522.071 154.751 522.48L154.032 523.622C153.694 523.24 153.324 522.956 152.926 522.776C152.526 522.595 152.07 522.485 151.561 522.447C150.911 522.398 150.322 522.496 149.789 522.738C149.257 522.985 148.809 523.367 148.443 523.891C148.08 524.411 147.818 525.068 147.659 525.853C147.499 526.62 147.488 527.271 147.621 527.804C147.754 528.338 148.021 528.748 148.421 529.041C148.823 529.333 149.337 529.501 149.965 529.548C150.469 529.586 150.948 529.55 151.406 529.439C151.864 529.326 152.338 529.11 152.831 528.79L153.194 529.999C152.883 530.23 152.541 530.42 152.166 530.568C151.793 530.713 151.403 530.816 150.996 530.871C150.587 530.926 150.168 530.938 149.74 530.906Z" fill="#66127D" stroke="#66127D" stroke-width="0.25" stroke-miterlimit="10"/>
<path d="M155.251 531.184L157.508 521.656L159.042 521.771L158.077 525.813L163.333 526.208L164.299 522.167L165.817 522.281L163.559 531.809L162.039 531.695L163.029 527.504L157.773 527.109L156.783 531.299L155.251 531.184Z" fill="#66127D" stroke="#66127D" stroke-width="0.25" stroke-miterlimit="10"/>
<path d="M170.898 532.485C169.939 532.413 169.156 532.15 168.544 531.695C167.931 531.242 167.514 530.629 167.298 529.862C167.081 529.093 167.078 528.21 167.29 527.206C167.447 526.449 167.695 525.774 168.034 525.186C168.372 524.596 168.784 524.109 169.272 523.724C169.759 523.339 170.304 523.054 170.905 522.877C171.505 522.698 172.152 522.634 172.845 522.686C173.823 522.759 174.612 523.024 175.215 523.47C175.819 523.917 176.231 524.528 176.453 525.296C176.676 526.066 176.68 526.944 176.468 527.936C176.308 528.714 176.057 529.396 175.718 529.985C175.372 530.573 174.957 531.061 174.47 531.445C173.984 531.831 173.439 532.113 172.836 532.293C172.239 532.471 171.591 532.537 170.898 532.485ZM171.067 531.149C171.723 531.199 172.311 531.095 172.832 530.841C173.349 530.587 173.787 530.189 174.145 529.653C174.503 529.116 174.76 528.459 174.92 527.682C175.17 526.546 175.094 525.667 174.69 525.052C174.286 524.434 173.616 524.09 172.676 524.02C172.031 523.971 171.443 524.071 170.922 524.322C170.397 524.571 169.959 524.958 169.609 525.487C169.255 526.016 169 526.679 168.838 527.471C168.588 528.608 168.665 529.488 169.068 530.109C169.469 530.734 170.137 531.079 171.067 531.149Z" fill="#66127D" stroke="#66127D" stroke-width="0.25" stroke-miterlimit="10"/>
<path d="M281.832 272.586L331.599 276.33" stroke="#66127D" stroke-width="2" stroke-miterlimit="10"/>
<path d="M119.138 372.895L110.531 487.3" stroke="#66127D" stroke-width="2" stroke-miterlimit="10"/>
<path d="M82.9553 255.122L93.4331 115.846" stroke="#66127D" stroke-width="2" stroke-miterlimit="10"/>
<path d="M119.102 385.926C141.674 387.624 161.349 370.712 163.046 348.15C164.744 325.589 147.821 305.923 125.248 304.225C102.676 302.527 83.001 319.44 81.3038 342.001C79.6065 364.562 96.5292 384.228 119.102 385.926Z" fill="white" stroke="#66127D" stroke-width="4" stroke-miterlimit="10"/>
</g>
</g>
<defs>
<clipPath id="clip0_295_830">
<rect width="563" height="665" fill="white"/>
</clipPath>
<clipPath id="clip1_295_830">
<rect width="396.075" height="596" fill="white" transform="matrix(-0.997182 -0.0750183 -0.0750183 0.997182 493.67 5.71289)"/>
</clipPath>
</defs>
</svg>
