<svg width="563" height="665" viewBox="0 0 563 665" fill="none" xmlns="http://www.w3.org/2000/svg">
<g clip-path="url(#clip0_74_2071)">
<path d="M44.6621 652.059H139.022L88.5001 124L44.6621 652.059Z" fill="white" stroke="black" stroke-width="5"/>
<g clip-path="url(#clip1_74_2071)">
<path d="M52.2107 260.533L54.4616 251.005L55.9901 251.12L54.042 259.337L58.7989 259.695L58.4931 261.005L52.2107 260.533Z" fill="#66127D" stroke="#66127D" stroke-width="0.25" stroke-miterlimit="10"/>
<path d="M60.5373 261.159L62.7739 251.63L69.2481 252.117L68.9478 253.373L63.959 252.998L63.2814 255.823L67.9965 256.178L67.7104 257.42L62.9952 257.065L62.2926 260.013L67.2973 260.389L66.9941 261.645L60.5373 261.159Z" fill="#66127D" stroke="#66127D" stroke-width="0.25" stroke-miterlimit="10"/>
<path d="M72.8884 262.213C72.3784 262.174 71.8941 262.103 71.4297 261.998C70.9679 261.897 70.5516 261.749 70.1803 261.563C69.8119 261.375 69.498 261.157 69.2444 260.908L69.9195 259.734C70.1941 259.993 70.4967 260.206 70.8319 260.373C71.1669 260.542 71.5254 260.668 71.9132 260.751C72.2994 260.836 72.7065 260.893 73.1344 260.925C73.5983 260.96 74.006 260.933 74.3622 260.839C74.7169 260.746 75.0001 260.603 75.2167 260.4C75.4316 260.201 75.5677 259.971 75.6235 259.711C75.693 259.403 75.6859 259.151 75.5995 258.951C75.5131 258.751 75.3533 258.585 75.1169 258.454C74.8806 258.321 74.5637 258.2 74.1695 258.086L72.652 257.671C71.81 257.443 71.2477 257.08 70.9602 256.588C70.6728 256.094 70.5995 255.508 70.7432 254.831C70.8294 254.397 71.0027 254.02 71.26 253.701C71.5157 253.383 71.8399 253.118 72.2304 252.915C72.621 252.71 73.059 252.57 73.5444 252.491C74.0284 252.413 74.5413 252.393 75.0772 252.434C75.7571 252.485 76.3612 252.62 76.8881 252.839C77.4149 253.057 77.8443 253.357 78.1719 253.741L77.481 254.914C77.1713 254.524 76.7958 254.238 76.3516 254.058C75.9087 253.879 75.4143 253.768 74.8698 253.727C74.4232 253.693 74.0109 253.723 73.6274 253.814C73.247 253.901 72.9333 254.046 72.6853 254.243C72.4387 254.44 72.2838 254.688 72.2266 254.986C72.1403 255.383 72.1931 255.702 72.3795 255.939C72.5687 256.179 72.9306 256.374 73.4654 256.525L74.9843 256.942C75.879 257.181 76.5016 257.533 76.8493 257.995C77.1999 258.458 77.29 259.051 77.1273 259.77C77.0388 260.214 76.8708 260.599 76.6234 260.92C76.3757 261.248 76.0631 261.514 75.6868 261.72C75.3106 261.925 74.8854 262.069 74.4128 262.152C73.9401 262.234 73.4344 262.254 72.8884 262.213Z" fill="#66127D" stroke="#66127D" stroke-width="0.25" stroke-miterlimit="10"/>
<path d="M52.7477 277.081L55.0002 267.552L56.5258 267.667L54.2747 277.196L52.7477 277.081Z" fill="#66127D" stroke="#66127D" stroke-width="0.25" stroke-miterlimit="10"/>
<path d="M61.5809 277.871C60.6286 277.799 59.846 277.534 59.2367 277.082C58.6276 276.628 58.213 276.015 57.9983 275.248C57.7809 274.48 57.7808 273.596 57.9923 272.594C58.1481 271.833 58.3955 271.163 58.7326 270.571C59.0665 269.984 59.4801 269.495 59.9653 269.111C60.4507 268.724 60.9922 268.441 61.5923 268.263C62.1896 268.084 62.8347 268.021 63.5233 268.073C64.4943 268.146 65.2831 268.407 65.8839 268.855C66.4848 269.303 66.8954 269.912 67.1172 270.68C67.336 271.45 67.3408 272.33 67.13 273.322C66.9715 274.1 66.7217 274.782 66.382 275.368C66.0406 275.959 65.6274 276.444 65.1419 276.831C64.6538 277.215 64.1124 277.498 63.515 277.679C62.9175 277.859 62.2724 277.923 61.5809 277.871ZM61.7508 276.535C62.4049 276.585 62.9908 276.48 63.5084 276.225C64.0258 275.972 64.4614 275.574 64.8162 275.037C65.1724 274.501 65.4276 273.842 65.5904 273.065C65.8396 271.929 65.7636 271.052 65.3624 270.435C64.9596 269.818 64.2914 269.476 63.3565 269.405C62.7125 269.357 62.1284 269.457 61.6097 269.707C61.087 269.954 60.6503 270.346 60.3021 270.873C59.9494 271.402 59.6953 272.065 59.5357 272.857C59.2849 273.995 59.3593 274.874 59.7617 275.496C60.1609 276.12 60.826 276.466 61.7508 276.535ZM63.2791 267.352L65.3907 265.129L67.0675 265.255L64.4374 267.439L63.2791 267.352Z" fill="#66127D" stroke="#66127D" stroke-width="0.25" stroke-miterlimit="10"/>
<path d="M68.5694 278.272L70.8206 268.743L72.0192 268.833L75.9801 276.671L75.9945 276.672L77.7427 269.263L79.1603 269.37L76.9092 278.899L75.6688 278.806L71.7169 271.039L69.9856 278.378L68.5694 278.272Z" fill="#66127D" stroke="#66127D" stroke-width="0.25" stroke-miterlimit="10"/>
</g>
</g>
<defs>
<clipPath id="clip0_74_2071">
<rect width="563" height="665" fill="white"/>
</clipPath>
<clipPath id="clip1_74_2071">
<rect width="25.2296" height="596" fill="white" transform="matrix(-0.997182 -0.0750183 -0.0750183 0.997182 125.87 -19.1074)"/>
</clipPath>
</defs>
</svg>
