<svg width="660" height="665" viewBox="0 0 660 665" fill="none" xmlns="http://www.w3.org/2000/svg">
<g clip-path="url(#clip0_294_144)">
<g clip-path="url(#clip1_294_144)">
<path d="M204.885 383.093L274.297 482.1C274.297 482.1 287.802 505.657 329.976 505.921C344.443 507.009 384.578 486.034 380.716 440.663C376.855 395.292 363.263 256.845 363.263 256.845" fill="white"/>
<path d="M204.885 383.093L274.297 482.1C274.297 482.1 287.802 505.657 329.976 505.921C344.443 507.009 384.578 486.034 380.716 440.663C376.855 395.292 363.263 256.845 363.263 256.845" stroke="#66127D" stroke-width="4" stroke-miterlimit="10"/>
<path d="M245.415 155.273C249.789 143.059 268.242 143.765 284.344 145.477C300.447 147.189 314.202 149.904 317.726 161.076" fill="white"/>
<path d="M245.415 155.273C249.789 143.059 268.242 143.765 284.344 145.477C300.447 147.189 314.202 149.904 317.726 161.076" stroke="#66127D" stroke-width="3" stroke-miterlimit="10"/>
<path d="M228.136 180.997C230.534 168.453 230.799 165.806 235.629 159.625C243.682 149.32 311.334 149.324 324.94 166.708C330.651 174.004 328.18 196.155 327.7 202.544" fill="white"/>
<path d="M228.136 180.997C230.534 168.453 230.799 165.806 235.629 159.625C243.682 149.32 311.334 149.324 324.94 166.708C330.651 174.004 328.18 196.155 327.7 202.544" stroke="#66127D" stroke-width="3" stroke-miterlimit="10"/>
<path d="M-62.2059 156.246C-62.2059 156.246 -16.3285 164.218 15.16 162.551C44.3726 161.005 67.0513 140.326 108.792 142.611C139.321 144.282 140.667 150.243 172.039 166.754C178.955 170.395 185.071 173.039 199.862 176.08C210.606 178.288 227.778 181.457 243.885 184.355C259.759 187.211 271.576 180.093 291.385 234.593C305.023 272.113 194.008 344.156 122.885 370.39C100.885 355.093 65.8854 365.593 65.8854 365.593" fill="white"/>
<path d="M-62.2059 156.246C-62.2059 156.246 -16.3285 164.218 15.16 162.551C44.3726 161.005 67.0513 140.326 108.792 142.611C139.321 144.282 140.667 150.243 172.039 166.754C178.955 170.395 185.071 173.039 199.862 176.08C210.606 178.288 227.778 181.457 243.885 184.355C259.759 187.211 271.576 180.093 291.385 234.593C305.023 272.113 194.008 344.156 122.885 370.39C100.885 355.093 65.8854 365.593 65.8854 365.593" fill="white"/>
<path d="M65.8854 365.593C100.685 357.193 120.052 366.76 125.385 372.593M65.8854 365.593C31.0854 373.993 -27.2813 283.093 -52.1146 236.593L-62.2059 156.246C-62.2059 156.246 -16.3285 164.218 15.16 162.551C44.3726 161.005 67.0513 140.326 108.792 142.611C139.321 144.282 140.667 150.243 172.039 166.754C178.955 170.395 185.071 173.039 199.862 176.08C210.606 178.288 227.778 181.457 243.885 184.355C259.759 187.211 271.576 180.093 291.385 234.593C305.023 272.113 194.008 344.156 122.885 370.39C100.885 355.093 65.8854 365.593 65.8854 365.593Z" stroke="#66127D" stroke-width="5" stroke-miterlimit="10"/>
<path d="M181.91 293.823C180.369 285.919 179.826 277.686 180.459 269.267C184.274 218.555 228.499 180.538 279.237 184.355C329.975 188.172 368.014 232.378 364.199 283.09C360.384 333.802 316.16 371.819 265.421 368.002C256.72 367.347 248.408 365.48 240.602 362.621C236.293 394.076 208.166 417.137 176.064 414.722C142.704 412.212 117.695 383.149 120.203 349.806C122.63 317.548 149.926 293.105 181.91 293.823Z" fill="white" stroke="#66127D" stroke-width="4" stroke-miterlimit="10"/>
<path d="M224.895 291.758C235.948 292.59 245.582 284.308 246.413 273.261C247.244 262.213 238.958 252.584 227.905 251.752C216.852 250.921 207.218 259.202 206.387 270.25C205.556 281.297 213.842 290.927 224.895 291.758Z" fill="white" stroke="#66127D" stroke-width="3" stroke-miterlimit="10"/>
<path d="M272.08 251.197C283.133 252.029 292.767 243.747 293.598 232.7C294.429 221.652 286.142 212.023 275.089 211.191C264.036 210.36 254.402 218.641 253.571 229.689C252.74 240.736 261.027 250.366 272.08 251.197Z" fill="white" stroke="#66127D" stroke-width="3" stroke-miterlimit="10"/>
<path d="M313.63 298.433C324.683 299.265 334.317 290.983 335.148 279.936C335.979 268.889 327.693 259.259 316.64 258.427C305.587 257.596 295.953 265.878 295.122 276.925C294.291 287.972 302.577 297.602 313.63 298.433Z" fill="white" stroke="#66127D" stroke-width="3" stroke-miterlimit="10"/>
<path d="M264.336 341.26C275.389 342.092 285.022 333.81 285.854 322.763C286.685 311.715 278.398 302.086 267.345 301.254C256.292 300.423 246.658 308.704 245.827 319.752C244.996 330.799 253.283 340.429 264.336 341.26Z" fill="white" stroke="#66127D" stroke-width="3" stroke-miterlimit="10"/>
<path d="M113.566 202.156L105.504 201.503L98.7241 228.088L106.901 228.745L113.566 202.156Z" fill="white" stroke="#66127D" stroke-width="3" stroke-miterlimit="10"/>
<path d="M120.534 203.624L118.315 211.667C124.98 215.138 126.707 222.426 124.641 230.529C121.921 241.213 110.877 249.157 99.5715 248.252C88.258 247.339 81.2955 237.948 84.0268 227.267C84.0503 227.148 84.087 227.029 84.1187 226.916L77.0181 226.341C76.9908 226.434 76.9602 226.53 76.9372 226.625C73.1579 241.469 82.6585 254.506 98.1648 255.753C113.678 257.006 128.98 245.956 132.762 231.118C135.94 218.659 131.708 207.626 120.534 203.624Z" fill="white" stroke="#66127D" stroke-width="3" stroke-miterlimit="10"/>
<path d="M315.183 280.841C316.437 280.935 317.529 279.996 317.624 278.743C317.718 277.49 316.778 276.397 315.524 276.303C314.271 276.209 313.178 277.148 313.084 278.401C312.989 279.654 313.929 280.746 315.183 280.841Z" fill="#66127D"/>
<path d="M316.168 266.686C309.522 266.185 303.73 271.167 303.23 277.81C302.731 284.451 307.713 290.24 314.358 290.74C321.003 291.24 326.798 286.261 327.297 279.62C327.797 272.977 322.813 267.185 316.168 266.686ZM314.681 286.457C310.403 286.135 307.195 282.41 307.517 278.132C307.839 273.855 311.568 270.648 315.846 270.97C320.127 271.292 323.331 275.022 323.009 279.298C322.687 283.574 318.962 286.779 314.681 286.457Z" fill="#66127D"/>
<path d="M235.464 264.215L217.245 262.844L215.875 281.06L234.094 282.431L235.464 264.215Z" stroke="#66127D" stroke-width="3" stroke-miterlimit="10"/>
<path d="M258.407 312.918L259.32 309.288C259.35 309.167 259.554 309.027 259.749 309.044L277.886 310.429C278.114 310.446 278.208 310.609 278.179 310.732L277.261 314.359C277.226 314.512 277.064 314.621 276.834 314.605L258.699 313.219C258.502 313.204 258.366 313.072 258.407 312.918Z" fill="#66127D"/>
<path d="M269.08 317.426L264.955 333.822C264.924 333.944 264.723 334.082 264.488 334.064L260.26 333.736C260.03 333.719 259.935 333.556 259.964 333.432L264.093 317.039L269.08 317.426Z" fill="#66127D"/>
<path d="M264.969 217.768L264.336 229.681L276.577 224.677L264.969 217.768Z" fill="#66127D"/>
<path d="M264.326 229.896L263.724 241.743L275.68 236.681L264.326 229.896Z" fill="#66127D"/>
<path d="M276.646 224.76L275.758 236.554L287.996 231.544L276.646 224.76Z" fill="#66127D"/>
<path d="M63.5145 364.724C63.5145 364.724 105.542 357.676 122.089 370.592" stroke="#66127D" stroke-width="3.4398" stroke-miterlimit="10"/>
<path d="M111.971 304.132C111.683 307.952 104.769 310.543 96.527 309.923C88.2848 309.303 81.8378 305.706 82.1251 301.887C82.4121 298.072 89.3247 295.479 97.567 296.099C105.809 296.719 112.258 300.317 111.971 304.132Z" fill="white" stroke="#66127D" stroke-width="3" stroke-miterlimit="10"/>
<path d="M144.314 270.394C146.341 273.643 142.296 279.819 135.283 284.187C128.268 288.556 120.942 289.463 118.915 286.212C116.888 282.966 120.931 276.79 127.946 272.422C134.962 268.055 142.288 267.146 144.314 270.394Z" fill="white" stroke="#66127D" stroke-width="3" stroke-miterlimit="10"/>
<path d="M73.5967 270.633C67.3157 265.264 60.2064 263.27 57.7176 266.178C55.2289 269.087 58.3031 275.797 64.5842 281.166C70.8652 286.535 77.9746 288.53 80.4633 285.621C82.9521 282.712 79.8778 276.002 73.5967 270.633Z" stroke="#66127D" stroke-width="3" stroke-miterlimit="10"/>
<path d="M94.4388 333.288L79.9219 332.196L79.267 340.901L93.7839 341.993L94.4388 333.288Z" fill="white" stroke="#66127D" stroke-width="3" stroke-miterlimit="10"/>
<path d="M114.26 334.779L99.7427 333.687L99.0878 342.392L113.605 343.484L114.26 334.779Z" fill="white" stroke="#66127D" stroke-width="3" stroke-miterlimit="10"/>
<path d="M17.6471 279.043C20.3536 271.458 22.1223 263.399 22.7557 254.981C26.5708 204.268 -11.4681 160.063 -62.2063 156.246C-112.945 152.429 -157.169 190.445 -160.984 241.158C-164.799 291.87 -126.76 336.075 -76.0221 339.892C-67.3212 340.547 -58.8226 339.944 -50.6766 338.286C-51.1225 370.031 -26.7629 397.041 5.33945 399.456C38.6991 401.965 67.7755 376.971 70.2839 343.628C72.7107 311.37 49.3772 283.118 17.6471 279.043Z" stroke="#66127D" stroke-width="3" stroke-miterlimit="10"/>
<path d="M53.4547 43.0992L55.7108 33.5707L57.2444 33.6861L54.9853 43.2143L53.4547 43.0992Z" fill="#66127D" stroke="#66127D" stroke-width="0.25" stroke-miterlimit="10"/>
<path d="M62.3228 43.8915C61.365 43.8195 60.5802 43.5569 59.9684 43.1022C59.3536 42.6488 58.9398 42.0374 58.7241 41.2679C58.5041 40.4995 58.5037 39.6153 58.7158 38.6133C58.8719 37.8543 59.1204 37.1808 59.4586 36.5911C59.7955 36.0013 60.2103 35.5148 60.6976 35.1298C61.1849 34.7447 61.7299 34.4629 62.3313 34.2827C62.9296 34.1038 63.5776 34.0391 64.2706 34.0912C65.2471 34.1647 66.0379 34.4263 66.6413 34.876C67.2449 35.3242 67.6589 35.9327 67.8804 36.7012C68.1005 37.4696 68.1054 38.3512 67.8941 39.3431C67.7338 40.1192 67.4831 40.8027 67.1405 41.3921C66.798 41.98 66.3831 42.4665 65.8943 42.8529C65.4084 43.2381 64.8634 43.5199 64.2635 43.7002C63.6651 43.8806 63.0187 43.9439 62.3228 43.8915ZM62.4945 42.5564C63.1499 42.6057 63.7381 42.5031 64.2578 42.2484C64.776 41.9937 65.2147 41.5977 65.5722 41.0618C65.9298 40.5244 66.1858 39.8675 66.3476 39.09C66.5974 37.9542 66.5209 37.0759 66.1177 36.4595C65.7132 35.8416 65.0436 35.4974 64.1032 35.4267C63.4565 35.378 62.8712 35.4794 62.3492 35.7266C61.8255 35.9766 61.3874 36.3654 61.0363 36.8945C60.6822 37.4234 60.4273 38.0848 60.2658 38.8783C60.0158 40.0156 60.0908 40.8952 60.4951 41.516C60.8994 42.1368 61.5628 42.4863 62.4945 42.5564ZM64.0235 33.3717L66.1445 31.1522L67.8271 31.2787L65.1868 33.4592L64.0235 33.3717Z" fill="#66127D" stroke="#66127D" stroke-width="0.25" stroke-miterlimit="10"/>
<path d="M69.3419 44.2945L71.601 34.7663L72.8032 34.8567L76.7836 42.6948L76.7966 42.6958L78.5527 35.2892L79.9763 35.3963L77.7158 44.9245L76.4701 44.8307L72.5005 37.0632L70.7655 44.4016L69.3419 44.2945Z" fill="#66127D" stroke="#66127D" stroke-width="0.25" stroke-miterlimit="10"/>
<path d="M150.398 111.803L152.657 102.275L154.191 102.39L151.932 111.918L150.398 111.803Z" fill="#66127D" stroke="#66127D" stroke-width="0.25" stroke-miterlimit="10"/>
<path d="M154.889 112.141L157.148 102.612L158.352 102.703L162.332 110.541L162.345 110.542L164.1 103.135L165.523 103.243L163.263 112.771L162.02 112.677L158.047 104.909L156.312 112.248L154.889 112.141Z" fill="#66127D" stroke="#66127D" stroke-width="0.25" stroke-miterlimit="10"/>
<path d="M166.218 112.993L168.477 103.464L170.011 103.58L167.752 113.108L166.218 112.993Z" fill="#66127D" stroke="#66127D" stroke-width="0.25" stroke-miterlimit="10"/>
<path d="M175.119 113.799C174.16 113.727 173.375 113.464 172.761 113.011C172.149 112.558 171.73 111.944 171.504 111.176C171.278 110.407 171.272 109.508 171.487 108.478C171.645 107.711 171.895 107.037 172.239 106.457C172.579 105.877 172.994 105.392 173.482 105.003C173.969 104.613 174.521 104.334 175.135 104.163C175.749 103.994 176.406 103.936 177.109 103.989C177.768 104.038 178.355 104.18 178.873 104.411C179.393 104.642 179.812 104.963 180.131 105.371L179.41 106.515C179.071 106.132 178.702 105.849 178.303 105.668C177.903 105.487 177.447 105.377 176.938 105.338C176.291 105.29 175.701 105.388 175.169 105.631C174.635 105.875 174.189 106.259 173.824 106.782C173.458 107.305 173.195 107.959 173.036 108.746C172.877 109.513 172.865 110.163 172.999 110.696C173.133 111.228 173.398 111.641 173.8 111.933C174.2 112.225 174.715 112.394 175.345 112.442C175.847 112.479 176.328 112.442 176.785 112.329C177.243 112.217 177.717 112.001 178.208 111.68L178.573 112.89C178.26 113.123 177.92 113.313 177.545 113.458C177.172 113.604 176.78 113.706 176.373 113.762C175.964 113.819 175.548 113.831 175.119 113.799Z" fill="#66127D" stroke="#66127D" stroke-width="0.25" stroke-miterlimit="10"/>
<path d="M180.631 114.077L182.89 104.549L184.424 104.664L182.165 114.193L180.631 114.077Z" fill="#66127D" stroke="#66127D" stroke-width="0.25" stroke-miterlimit="10"/>
<path d="M189.502 114.868C188.544 114.796 187.76 114.533 187.148 114.078C186.534 113.625 186.119 113.014 185.902 112.244C185.685 111.476 185.684 110.592 185.897 109.59C186.053 108.831 186.3 108.157 186.638 107.569C186.975 106.979 187.388 106.492 187.878 106.108C188.363 105.722 188.908 105.44 189.509 105.26C190.109 105.081 190.757 105.017 191.45 105.069C192.426 105.142 193.216 105.404 193.821 105.854C194.424 106.302 194.838 106.91 195.058 107.68C195.28 108.449 195.285 109.329 195.073 110.321C194.914 111.098 194.662 111.78 194.32 112.37C193.977 112.959 193.562 113.446 193.075 113.831C192.589 114.216 192.043 114.498 191.443 114.678C190.843 114.857 190.197 114.92 189.502 114.868ZM189.672 113.533C190.328 113.582 190.918 113.479 191.437 113.225C191.955 112.97 192.394 112.574 192.752 112.038C193.108 111.501 193.367 110.844 193.527 110.066C193.777 108.93 193.7 108.052 193.297 107.436C192.893 106.818 192.224 106.474 191.283 106.403C190.636 106.354 190.049 106.456 189.527 106.704C189.002 106.954 188.567 107.343 188.216 107.872C187.861 108.401 187.607 109.062 187.445 109.856C187.194 110.993 187.27 111.873 187.673 112.494C188.076 113.117 188.744 113.463 189.672 113.533Z" fill="#66127D" stroke="#66127D" stroke-width="0.25" stroke-miterlimit="10"/>
<path d="M407.897 286.43C406.94 286.358 406.155 286.093 405.543 285.641C404.931 285.186 404.51 284.574 404.284 283.805C404.058 283.037 404.052 282.137 404.268 281.108C404.424 280.34 404.674 279.664 405.018 279.085C405.36 278.507 405.774 278.021 406.263 277.633C406.75 277.243 407.301 276.965 407.915 276.793C408.529 276.625 409.188 276.566 409.89 276.619C410.548 276.668 411.134 276.81 411.653 277.041C412.174 277.27 412.592 277.594 412.911 278.002L412.189 279.143C411.85 278.761 411.483 278.478 411.083 278.298C410.685 278.117 410.228 278.007 409.718 277.968C409.07 277.92 408.479 278.018 407.949 278.263C407.415 278.506 406.967 278.891 406.602 279.414C406.237 279.934 405.975 280.589 405.814 281.377C405.658 282.142 405.645 282.792 405.781 283.326C405.911 283.859 406.18 284.272 406.58 284.563C406.98 284.855 407.494 285.024 408.125 285.072C408.627 285.109 409.107 285.071 409.563 284.962C410.023 284.848 410.497 284.632 410.989 284.311L411.352 285.521C411.042 285.753 410.698 285.944 410.325 286.089C409.952 286.236 409.56 286.337 409.153 286.392C408.746 286.45 408.327 286.462 407.897 286.43Z" fill="#66127D" stroke="#66127D" stroke-width="0.25" stroke-miterlimit="10"/>
<path d="M417.495 287.138C416.536 287.065 415.753 286.801 415.139 286.348C414.526 285.893 414.111 285.28 413.893 284.514C413.676 283.744 413.674 282.861 413.888 281.858C414.044 281.1 414.291 280.425 414.631 279.837C414.968 279.247 415.381 278.761 415.868 278.376C416.354 277.992 416.899 277.707 417.501 277.528C418.102 277.35 418.748 277.286 419.441 277.339C420.416 277.412 421.207 277.675 421.811 278.122C422.416 278.57 422.828 279.18 423.05 279.948C423.273 280.717 423.276 281.598 423.065 282.59C422.906 283.367 422.655 284.049 422.311 284.638C421.969 285.226 421.554 285.712 421.067 286.097C420.581 286.483 420.033 286.764 419.433 286.944C418.837 287.125 418.187 287.19 417.495 287.138ZM417.664 285.802C418.319 285.851 418.909 285.749 419.429 285.494C419.947 285.241 420.385 284.844 420.743 284.306C421.099 283.77 421.357 283.113 421.517 282.336C421.767 281.2 421.692 280.32 421.287 279.705C420.884 279.089 420.214 278.743 419.272 278.672C418.626 278.624 418.039 278.725 417.515 278.975C416.993 279.224 416.557 279.613 416.204 280.142C415.852 280.669 415.597 281.332 415.435 282.125C415.184 283.261 415.26 284.142 415.661 284.764C416.066 285.387 416.734 285.732 417.664 285.802Z" fill="#66127D" stroke="#66127D" stroke-width="0.25" stroke-miterlimit="10"/>
<path d="M424.509 287.54L426.767 278.013L427.972 278.104L431.953 285.939L431.967 285.94L433.722 278.536L435.145 278.644L432.885 288.17L431.641 288.077L427.671 280.308L425.935 287.647L424.509 287.54Z" fill="#66127D" stroke="#66127D" stroke-width="0.25" stroke-miterlimit="10"/>
<path d="M438.183 288.569L440.135 280.352L436.741 280.097L437.059 278.787L445.365 279.412L445.047 280.722L441.654 280.467L439.714 288.684L438.183 288.569Z" fill="#66127D" stroke="#66127D" stroke-width="0.25" stroke-miterlimit="10"/>
<path d="M444.999 289.082L447.256 279.555L451.239 279.854C451.978 279.91 452.581 280.064 453.049 280.321C453.517 280.577 453.836 280.924 454.011 281.361C454.184 281.802 454.205 282.337 454.075 282.97C453.985 283.449 453.804 283.856 453.536 284.189C453.267 284.521 452.933 284.782 452.535 284.973C452.135 285.164 451.695 285.287 451.212 285.339L451.197 285.367L451.303 285.404C451.492 285.472 451.644 285.59 451.766 285.756C451.887 285.922 451.994 286.164 452.091 286.481L453.02 289.686L451.418 289.566L450.532 286.528C450.466 286.286 450.377 286.092 450.26 285.952C450.141 285.807 449.99 285.707 449.807 285.642C449.624 285.579 449.396 285.534 449.121 285.513L447.437 285.387L446.545 289.199L444.999 289.082ZM447.706 284.197L450.265 284.389C450.931 284.44 451.452 284.333 451.824 284.072C452.196 283.811 452.441 283.397 452.558 282.826C452.673 282.266 452.598 281.847 452.335 281.571C452.072 281.294 451.601 281.131 450.926 281.08L448.489 280.897L447.706 284.197Z" fill="#66127D" stroke="#66127D" stroke-width="0.25" stroke-miterlimit="10"/>
<path d="M459.522 290.299C458.564 290.227 457.78 289.963 457.166 289.51C456.553 289.055 456.139 288.442 455.922 287.676C455.705 286.906 455.705 286.023 455.917 285.02C456.073 284.262 456.32 283.587 456.658 282.999C456.995 282.409 457.407 281.923 457.898 281.538C458.383 281.154 458.928 280.869 459.528 280.69C460.129 280.512 460.777 280.448 461.471 280.501C462.446 280.574 463.236 280.837 463.839 281.284C464.443 281.732 464.857 282.342 465.078 283.11C465.3 283.879 465.303 284.76 465.092 285.752C464.933 286.529 464.682 287.211 464.34 287.8C463.997 288.388 463.581 288.874 463.094 289.259C462.608 289.645 462.063 289.926 461.462 290.107C460.862 290.287 460.214 290.351 459.522 290.299ZM459.692 288.964C460.346 289.013 460.936 288.911 461.454 288.656C461.974 288.403 462.413 288.005 462.769 287.468C463.125 286.932 463.384 286.275 463.544 285.498C463.794 284.362 463.719 283.482 463.314 282.867C462.911 282.251 462.241 281.905 461.3 281.834C460.653 281.786 460.066 281.887 459.544 282.137C459.019 282.386 458.582 282.774 458.231 283.304C457.879 283.831 457.622 284.494 457.461 285.287C457.211 286.423 457.287 287.304 457.69 287.926C458.093 288.549 458.761 288.894 459.692 288.964Z" fill="#66127D" stroke="#66127D" stroke-width="0.25" stroke-miterlimit="10"/>
<path d="M466.538 290.702L468.796 281.175L470.331 281.291L468.377 289.507L473.154 289.866L472.848 291.177L466.538 290.702Z" fill="#66127D" stroke="#66127D" stroke-width="0.25" stroke-miterlimit="10"/>
<path d="M474.901 291.331L477.144 281.803L483.645 282.292L483.344 283.548L478.334 283.171L477.655 285.996L482.39 286.353L482.103 287.595L477.368 287.238L476.663 290.185L481.689 290.564L481.385 291.819L474.901 291.331Z" fill="#66127D" stroke="#66127D" stroke-width="0.25" stroke-miterlimit="10"/>
<path d="M487.305 292.389C486.793 292.351 486.306 292.279 485.84 292.174C485.376 292.073 484.958 291.925 484.585 291.738C484.215 291.55 483.9 291.332 483.645 291.083L484.322 289.909C484.598 290.169 484.902 290.382 485.239 290.548C485.575 290.718 485.935 290.844 486.325 290.927C486.713 291.013 487.122 291.07 487.551 291.102C488.017 291.137 488.427 291.11 488.784 291.016C489.141 290.923 489.425 290.78 489.642 290.577C489.858 290.378 489.995 290.149 490.051 289.888C490.12 289.581 490.113 289.329 490.026 289.129C489.939 288.929 489.779 288.763 489.541 288.631C489.304 288.498 488.986 288.377 488.59 288.263L487.066 287.847C486.22 287.619 485.655 287.255 485.366 286.764C485.078 286.27 485.004 285.684 485.148 285.007C485.234 284.573 485.408 284.196 485.667 283.877C485.923 283.559 486.249 283.294 486.641 283.091C487.033 282.886 487.473 282.746 487.96 282.668C488.446 282.589 488.961 282.57 489.5 282.611C490.183 282.662 490.789 282.798 491.318 283.016C491.848 283.235 492.279 283.535 492.608 283.919L491.915 285.091C491.603 284.701 491.226 284.416 490.78 284.235C490.335 284.056 489.839 283.945 489.292 283.904C488.843 283.87 488.429 283.9 488.044 283.99C487.662 284.078 487.347 284.223 487.098 284.419C486.851 284.616 486.695 284.864 486.638 285.163C486.551 285.559 486.604 285.878 486.792 286.115C486.982 286.355 487.345 286.551 487.882 286.702L489.408 287.119C490.306 287.358 490.932 287.711 491.281 288.173C491.633 288.636 491.724 289.229 491.561 289.948C491.472 290.392 491.303 290.776 491.055 291.098C490.806 291.425 490.493 291.691 490.115 291.897C489.737 292.103 489.31 292.246 488.836 292.329C488.361 292.411 487.853 292.431 487.305 292.389Z" fill="#66127D" stroke="#66127D" stroke-width="0.25" stroke-miterlimit="10"/>
<path d="M402.254 302.374L404.512 292.846L407.908 293.101C409.512 293.222 410.65 293.722 411.324 294.603C411.996 295.482 412.169 296.705 411.84 298.266C411.682 299.032 411.432 299.704 411.09 300.273C410.749 300.843 410.325 301.315 409.821 301.685C409.315 302.053 408.734 302.322 408.074 302.491C407.416 302.655 406.683 302.707 405.883 302.647L402.254 302.374ZM404.09 301.19L406.073 301.339C406.649 301.383 407.17 301.342 407.632 301.218C408.095 301.093 408.505 300.89 408.86 300.61C409.215 300.328 409.515 299.97 409.753 299.535C409.993 299.098 410.172 298.588 410.289 297.999C410.538 296.874 410.437 296.014 409.978 295.418C409.525 294.825 408.755 294.487 407.668 294.405L405.724 294.259L404.09 301.19Z" fill="#66127D" stroke="#66127D" stroke-width="0.25" stroke-miterlimit="10"/>
<path d="M413.312 303.206L415.557 293.677L422.058 294.166L421.756 295.424L416.747 295.047L416.068 297.87L420.802 298.226L420.516 299.471L415.78 299.115L415.076 302.061L420.099 302.438L419.798 303.695L413.312 303.208L413.312 303.206Z" fill="#66127D" stroke="#66127D" stroke-width="0.25" stroke-miterlimit="10"/>
<path d="M426.546 304.202L428.789 294.672L435.263 295.159L434.962 296.418L430.036 296.047L429.351 298.939L434.019 299.29L433.715 300.559L429.048 300.208L428.064 304.316L426.546 304.202Z" fill="#66127D" stroke="#66127D" stroke-width="0.25" stroke-miterlimit="10"/>
<path d="M439.115 305.273C438.465 305.224 437.91 305.095 437.443 304.885C436.977 304.675 436.612 304.391 436.346 304.03C436.076 303.673 435.914 303.24 435.85 302.735C435.787 302.232 435.827 301.666 435.964 301.032L437.331 295.315L438.85 295.429L437.494 301.189C437.291 302.052 437.348 302.707 437.664 303.146C437.98 303.588 438.539 303.839 439.34 303.899C440.153 303.96 440.805 303.804 441.296 303.434C441.785 303.064 442.134 302.449 442.335 301.593L443.721 295.796L445.253 295.911L443.882 301.722C443.679 302.561 443.365 303.254 442.938 303.804C442.513 304.353 441.982 304.751 441.345 304.998C440.704 305.245 439.962 305.336 439.115 305.273Z" fill="#66127D" stroke="#66127D" stroke-width="0.25" stroke-miterlimit="10"/>
<path d="M445.828 305.652L448.087 296.124L449.29 296.215L453.27 304.054L453.284 304.055L455.039 296.647L456.461 296.754L454.204 306.282L452.958 306.189L448.987 298.421L447.252 305.759L445.828 305.652Z" fill="#66127D" stroke="#66127D" stroke-width="0.25" stroke-miterlimit="10"/>
<path d="M461.57 306.975C460.611 306.903 459.826 306.638 459.216 306.187C458.603 305.732 458.18 305.119 457.956 304.35C457.728 303.582 457.723 302.683 457.94 301.653C458.096 300.886 458.347 300.212 458.691 299.631C459.031 299.052 459.446 298.567 459.933 298.177C460.421 297.791 460.975 297.508 461.587 297.339C462.202 297.171 462.859 297.113 463.562 297.166C464.219 297.216 464.808 297.353 465.326 297.585C465.844 297.818 466.262 298.138 466.582 298.549L465.862 299.691C465.523 299.307 465.156 299.024 464.755 298.842C464.356 298.661 463.901 298.551 463.39 298.513C462.743 298.464 462.154 298.564 461.62 298.809C461.087 299.051 460.639 299.436 460.274 299.959C459.911 300.48 459.647 301.137 459.487 301.922C459.329 302.689 459.317 303.338 459.451 303.873C459.584 304.405 459.851 304.817 460.251 305.109C460.651 305.4 461.168 305.57 461.796 305.617C462.3 305.655 462.78 305.617 463.236 305.506C463.693 305.395 464.169 305.179 464.66 304.856L465.024 306.067C464.711 306.299 464.368 306.49 463.995 306.634C463.622 306.783 463.232 306.882 462.824 306.94C462.417 306.995 461.999 307.007 461.57 306.975Z" fill="#66127D" stroke="#66127D" stroke-width="0.25" stroke-miterlimit="10"/>
<path d="M467.083 307.252L469.342 297.723L470.874 297.839L468.616 307.367L467.083 307.252Z" fill="#66127D" stroke="#66127D" stroke-width="0.25" stroke-miterlimit="10"/>
<path d="M475.954 308.044C474.997 307.972 474.211 307.706 473.599 307.254C472.987 306.8 472.571 306.187 472.355 305.42C472.136 304.652 472.136 303.768 472.348 302.766C472.504 302.005 472.752 301.335 473.091 300.743C473.426 300.156 473.841 299.667 474.328 299.283C474.816 298.897 475.359 298.614 475.962 298.436C476.562 298.258 477.21 298.194 477.901 298.246C478.876 298.32 479.668 298.581 480.272 299.03C480.876 299.478 481.288 300.086 481.511 300.855C481.731 301.625 481.736 302.505 481.525 303.497C481.366 304.274 481.115 304.956 480.774 305.543C480.432 306.134 480.017 306.619 479.529 307.005C479.039 307.389 478.496 307.672 477.896 307.852C477.296 308.033 476.648 308.096 475.954 308.044ZM476.124 306.709C476.781 306.758 477.369 306.654 477.889 306.399C478.408 306.146 478.846 305.748 479.202 305.211C479.559 304.675 479.815 304.017 479.979 303.239C480.228 302.103 480.152 301.227 479.749 300.609C479.344 299.992 478.673 299.65 477.734 299.579C477.087 299.53 476.501 299.63 475.98 299.88C475.455 300.127 475.017 300.519 474.667 301.045C474.313 301.574 474.058 302.237 473.898 303.029C473.647 304.168 473.722 305.046 474.126 305.668C474.527 306.293 475.195 306.639 476.124 306.709ZM477.656 297.525L479.775 295.303L481.46 295.43L478.819 297.613L477.656 297.525Z" fill="#66127D" stroke="#66127D" stroke-width="0.25" stroke-miterlimit="10"/>
<path d="M482.973 308.447L485.23 298.918L486.434 299.009L490.414 306.849L490.429 306.85L492.182 299.441L493.606 299.549L491.348 309.077L490.102 308.983L486.131 301.216L484.395 308.554L482.973 308.447Z" fill="#66127D" stroke="#66127D" stroke-width="0.25" stroke-miterlimit="10"/>
<path d="M163.457 517.252L163.638 515.945L164.818 515.98C165.12 515.984 165.398 515.932 165.649 515.823C165.9 515.712 166.113 515.549 166.285 515.333C166.456 515.117 166.579 514.853 166.648 514.537L168.241 507.807L169.774 507.923L168.143 514.773C168.021 515.296 167.8 515.75 167.482 516.141C167.166 516.53 166.775 516.824 166.315 517.023C165.855 517.221 165.336 517.313 164.759 517.299L163.457 517.252Z" fill="#66127D" stroke="#66127D" stroke-width="0.25" stroke-miterlimit="10"/>
<path d="M174.854 518.125C173.898 518.053 173.112 517.787 172.502 517.333C171.888 516.881 171.473 516.268 171.256 515.501C171.039 514.731 171.035 513.847 171.247 512.846C171.406 512.086 171.653 511.414 171.993 510.823C172.329 510.235 172.742 509.748 173.229 509.363C173.715 508.978 174.262 508.696 174.863 508.517C175.463 508.337 176.109 508.274 176.804 508.326C177.779 508.399 178.568 508.661 179.173 509.109C179.778 509.558 180.191 510.166 180.412 510.933C180.632 511.704 180.639 512.584 180.427 513.576C180.265 514.354 180.016 515.036 179.674 515.622C179.331 516.213 178.915 516.7 178.427 517.085C177.94 517.47 177.395 517.753 176.795 517.932C176.195 518.114 175.549 518.177 174.854 518.125ZM175.025 516.788C175.68 516.837 176.268 516.735 176.788 516.48C177.308 516.225 177.745 515.831 178.103 515.292C178.46 514.755 178.716 514.098 178.878 513.32C179.128 512.183 179.053 511.306 178.65 510.69C178.243 510.073 177.574 509.73 176.633 509.66C175.987 509.611 175.402 509.711 174.878 509.96C174.356 510.208 173.918 510.597 173.567 511.126C173.213 511.655 172.959 512.317 172.797 513.111C172.546 514.249 172.621 515.127 173.025 515.749C173.428 516.374 174.095 516.718 175.025 516.788Z" fill="#66127D" stroke="#66127D" stroke-width="0.25" stroke-miterlimit="10"/>
<path d="M183.47 518.648L184.642 513.687L184.653 514.817L182.089 508.846L183.746 508.971L185.484 513.131L185.497 513.132L189.125 509.375L190.903 509.509L185.629 514.89L186.177 513.803L184.989 518.763L183.47 518.648Z" fill="#66127D" stroke="#66127D" stroke-width="0.25" stroke-miterlimit="10"/>
<path d="M193.26 519.509C192.751 519.471 192.263 519.4 191.797 519.295C191.335 519.192 190.915 519.045 190.543 518.859C190.173 518.669 189.86 518.451 189.6 518.202L190.281 517.03C190.555 517.289 190.861 517.502 191.197 517.669C191.531 517.836 191.894 517.963 192.283 518.047C192.671 518.13 193.08 518.19 193.51 518.222C193.976 518.257 194.385 518.229 194.743 518.136C195.096 518.044 195.383 517.898 195.598 517.697C195.815 517.5 195.953 517.269 196.008 517.005C196.079 516.698 196.07 516.447 195.983 516.247C195.898 516.049 195.734 515.884 195.497 515.751C195.26 515.619 194.944 515.496 194.548 515.385L193.024 514.968C192.18 514.738 191.612 514.377 191.324 513.883C191.036 513.389 190.961 512.803 191.104 512.126C191.193 511.693 191.364 511.316 191.624 510.994C191.882 510.678 192.207 510.413 192.598 510.208C192.99 510.005 193.429 509.865 193.918 509.785C194.404 509.708 194.917 509.69 195.458 509.731C196.141 509.782 196.748 509.917 197.277 510.135C197.807 510.355 198.236 510.655 198.565 511.039L197.87 512.21C197.562 511.819 197.182 511.536 196.738 511.356C196.292 511.177 195.797 511.065 195.25 511.024C194.802 510.99 194.386 511.019 194.004 511.109C193.621 511.2 193.306 511.343 193.055 511.539C192.808 511.736 192.654 511.985 192.593 512.283C192.51 512.679 192.563 512.999 192.75 513.235C192.939 513.474 193.302 513.671 193.841 513.819L195.364 514.238C196.265 514.479 196.887 514.829 197.24 515.293C197.592 515.756 197.683 516.346 197.518 517.07C197.43 517.512 197.262 517.895 197.014 518.22C196.762 518.544 196.448 518.811 196.073 519.017C195.694 519.221 195.269 519.365 194.794 519.449C194.32 519.527 193.81 519.551 193.26 519.509Z" fill="#66127D" stroke="#66127D" stroke-width="0.25" stroke-miterlimit="10"/>
<path d="M201.345 519.993L203.299 511.778L199.905 511.523L200.223 510.212L208.529 510.837L208.21 512.148L204.818 511.892L202.876 520.108L201.345 519.993Z" fill="#66127D" stroke="#66127D" stroke-width="0.25" stroke-miterlimit="10"/>
<path d="M208.161 520.505L210.42 510.979L211.953 511.094L209.694 520.621L208.161 520.505Z" fill="#66127D" stroke="#66127D" stroke-width="0.25" stroke-miterlimit="10"/>
<path d="M217.06 521.312C216.102 521.24 215.316 520.978 214.704 520.522C214.092 520.07 213.67 519.457 213.445 518.688C213.219 517.919 213.213 517.02 213.428 515.991C213.587 515.222 213.837 514.548 214.178 513.969C214.519 513.39 214.934 512.905 215.423 512.516C215.912 512.128 216.462 511.846 217.076 511.677C217.688 511.51 218.347 511.45 219.05 511.503C219.709 511.552 220.296 511.691 220.815 511.925C221.334 512.156 221.752 512.474 222.07 512.885L221.351 514.027C221.012 513.646 220.643 513.361 220.244 513.181C219.844 512.999 219.39 512.89 218.881 512.851C218.231 512.802 217.641 512.902 217.108 513.145C216.576 513.389 216.128 513.771 215.763 514.296C215.398 514.82 215.137 515.475 214.977 516.259C214.818 517.026 214.806 517.677 214.939 518.209C215.074 518.741 215.339 519.155 215.742 519.447C216.139 519.739 216.656 519.909 217.284 519.956C217.787 519.994 218.268 519.956 218.724 519.846C219.185 519.732 219.656 519.518 220.151 519.196L220.514 520.405C220.202 520.641 219.86 520.829 219.484 520.973C219.112 521.121 218.722 521.222 218.313 521.279C217.905 521.333 217.488 521.344 217.06 521.312Z" fill="#66127D" stroke="#66127D" stroke-width="0.25" stroke-miterlimit="10"/>
<path d="M222.572 521.59L224.83 512.063L226.365 512.178L225.358 516.393L225.428 516.398L230.702 512.505L232.686 512.654L226.377 517.323L226.465 516.517L230.771 522.205L228.882 522.063L225.223 517.262L225.155 517.257L224.105 521.704L222.572 521.59Z" fill="#66127D" stroke="#66127D" stroke-width="0.25" stroke-miterlimit="10"/>
<path d="M163.446 533.65L165.705 524.122L169.101 524.377C170.706 524.498 171.845 524.998 172.519 525.881C173.189 526.757 173.362 527.98 173.034 529.542C172.876 530.309 172.626 530.978 172.285 531.549C171.942 532.118 171.52 532.589 171.015 532.959C170.51 533.328 169.925 533.598 169.268 533.764C168.611 533.931 167.876 533.983 167.076 533.923L163.446 533.65ZM165.284 532.466L167.268 532.616C167.844 532.659 168.362 532.616 168.828 532.49C169.289 532.366 169.698 532.163 170.054 531.883C170.411 531.601 170.71 531.244 170.951 530.81C171.189 530.373 171.366 529.861 171.483 529.274C171.735 528.148 171.632 527.287 171.176 526.691C170.72 526.097 169.95 525.761 168.865 525.68L166.92 525.534L165.284 532.466Z" fill="#66127D" stroke="#66127D" stroke-width="0.25" stroke-miterlimit="10"/>
<path d="M174.505 534.482L176.749 524.953L183.252 525.442L182.949 526.699L177.941 526.322L177.261 529.146L181.993 529.502L181.709 530.747L176.972 530.391L176.271 533.338L181.294 533.716L180.991 534.971L174.505 534.483L174.505 534.482Z" fill="#66127D" stroke="#66127D" stroke-width="0.25" stroke-miterlimit="10"/>
<path d="M183.606 535.167L185.863 525.638L189.848 525.938C190.585 525.993 191.188 526.148 191.654 526.404C192.123 526.659 192.444 527.007 192.618 527.446C192.791 527.887 192.811 528.422 192.682 529.055C192.59 529.533 192.411 529.941 192.142 530.273C191.875 530.606 191.54 530.866 191.14 531.057C190.742 531.246 190.302 531.37 189.819 531.424L189.804 531.451L189.91 531.489C190.099 531.557 190.251 531.672 190.373 531.839C190.494 532.004 190.601 532.248 190.698 532.565L191.625 535.771L190.025 535.651L189.139 532.612C189.074 532.37 188.983 532.175 188.867 532.034C188.746 531.892 188.597 531.79 188.414 531.725C188.23 531.664 188.003 531.619 187.728 531.598L186.044 531.472L185.152 535.284L183.605 535.168L183.606 535.167ZM186.311 530.282L188.872 530.474C189.536 530.524 190.059 530.417 190.431 530.155C190.802 529.897 191.048 529.481 191.163 528.91C191.28 528.349 191.205 527.931 190.942 527.655C190.678 527.379 190.208 527.216 189.534 527.165L187.096 526.982L186.311 530.282Z" fill="#66127D" stroke="#66127D" stroke-width="0.25" stroke-miterlimit="10"/>
<path d="M193.827 535.936L196.073 526.406L202.573 526.895L202.271 528.152L197.263 527.776L196.582 530.599L201.316 530.956L201.03 532.201L196.297 531.845L195.593 534.792L200.615 535.169L200.314 536.425L193.827 535.937L193.827 535.936Z" fill="#66127D" stroke="#66127D" stroke-width="0.25" stroke-miterlimit="10"/>
<path d="M207.312 537.086C206.355 537.014 205.57 536.749 204.957 536.296C204.345 535.842 203.922 535.232 203.696 534.463C203.472 533.693 203.467 532.795 203.681 531.766C203.839 530.998 204.089 530.323 204.433 529.744C204.773 529.166 205.189 528.68 205.677 528.292C206.163 527.901 206.717 527.621 207.329 527.452C207.944 527.285 208.602 527.224 209.305 527.276C209.961 527.326 210.55 527.466 211.068 527.698C211.588 527.93 212.006 528.252 212.323 528.661L211.604 529.802C211.266 529.421 210.896 529.137 210.498 528.957C210.098 528.776 209.642 528.666 209.133 528.628C208.484 528.579 207.894 528.677 207.361 528.919C206.829 529.165 206.381 529.548 206.016 530.071C205.652 530.592 205.39 531.249 205.231 532.034C205.071 532.801 205.06 533.452 205.193 533.985C205.326 534.519 205.594 534.929 205.993 535.222C206.395 535.514 206.909 535.682 207.537 535.729C208.042 535.767 208.52 535.73 208.978 535.619C209.436 535.507 209.911 535.291 210.403 534.97L210.766 536.18C210.455 536.411 210.113 536.601 209.739 536.748C209.365 536.893 208.975 536.996 208.568 537.052C208.159 537.107 207.741 537.119 207.312 537.086Z" fill="#66127D" stroke="#66127D" stroke-width="0.25" stroke-miterlimit="10"/>
<path d="M212.823 537.365L215.08 527.836L216.614 527.952L215.649 531.993L220.906 532.389L221.872 528.347L223.389 528.462L221.132 537.99L219.611 537.875L220.601 533.685L215.345 533.289L214.355 537.48L212.823 537.365Z" fill="#66127D" stroke="#66127D" stroke-width="0.25" stroke-miterlimit="10"/>
<path d="M228.471 538.665C227.511 538.593 226.728 538.331 226.116 537.876C225.503 537.423 225.086 536.81 224.87 536.043C224.653 535.273 224.65 534.39 224.862 533.387C225.02 532.63 225.267 531.954 225.606 531.366C225.945 530.777 226.357 530.29 226.844 529.905C227.331 529.52 227.876 529.235 228.478 529.058C229.077 528.879 229.724 528.814 230.417 528.866C231.395 528.94 232.184 529.204 232.788 529.651C233.391 530.098 233.804 530.709 234.025 531.476C234.248 532.246 234.252 533.125 234.04 534.117C233.88 534.894 233.629 535.576 233.29 536.166C232.944 536.754 232.529 537.242 232.042 537.625C231.556 538.012 231.011 538.294 230.408 538.474C229.812 538.651 229.164 538.717 228.471 538.665ZM228.639 537.33C229.295 537.379 229.883 537.275 230.404 537.022C230.921 536.767 231.36 536.37 231.717 535.834C232.075 535.297 232.332 534.64 232.493 533.862C232.743 532.726 232.666 531.848 232.263 531.233C231.858 530.615 231.189 530.271 230.248 530.2C229.603 530.152 229.015 530.251 228.494 530.503C227.969 530.752 227.531 531.139 227.181 531.668C226.827 532.197 226.572 532.86 226.411 533.652C226.161 534.789 226.237 535.669 226.64 536.29C227.041 536.915 227.709 537.26 228.639 537.33Z" fill="#66127D" stroke="#66127D" stroke-width="0.25" stroke-miterlimit="10"/>
<path d="M339.404 278.767L389.172 282.511" stroke="#66127D" stroke-width="2" stroke-miterlimit="10"/>
<path d="M176.71 379.076L168.103 493.48" stroke="#66127D" stroke-width="2" stroke-miterlimit="10"/>
<path d="M60.7143 257.801L75.8696 56.3481" stroke="#66127D" stroke-width="2" stroke-miterlimit="10"/>
<path d="M140.528 261.303L151.005 122.026" stroke="#66127D" stroke-width="2" stroke-miterlimit="10"/>
<path d="M176.674 392.107C199.247 393.805 218.921 376.892 220.619 354.331C222.316 331.77 205.393 312.104 182.82 310.406C160.248 308.708 140.573 325.62 138.876 348.182C137.179 370.743 154.102 390.409 176.674 392.107Z" fill="white" stroke="#66127D" stroke-width="4" stroke-miterlimit="10"/>
</g>
</g>
<defs>
<clipPath id="clip0_294_144">
<rect width="660" height="665" fill="white"/>
</clipPath>
<clipPath id="clip1_294_144">
<rect width="451.804" height="596" fill="white" transform="matrix(-0.997182 -0.0750183 -0.0750183 0.997182 551.242 11.8936)"/>
</clipPath>
</defs>
</svg>
