<svg width="443" height="695" viewBox="0 0 443 695" fill="none" xmlns="http://www.w3.org/2000/svg">
<g clip-path="url(#clip0_52_2948)">
<path d="M-45.0107 695.342C-0.255898 587.268 55.1759 485.182 108.348 380.994C131.108 336.394 158.286 293.322 184.318 250.515C198.427 227.31 161.4 255.262 175.546 232.176L173.763 227.031C117.864 329.788 78.2653 404.772 7.96684 542.986" fill="white"/>
<path d="M-44.7312 695.457C-44.7312 695.457 -39.1984 682.256 -29.0142 657.953C-26.4569 651.881 -23.3736 645.221 -20.1151 637.85C-16.8186 630.497 -13.2296 622.49 -9.36108 613.863C-1.28047 596.768 7.72877 577.089 18.4176 555.515C21.059 550.106 23.768 544.56 26.5409 538.881C29.3209 533.205 32.2549 527.441 35.2066 521.526C41.1409 509.711 47.2873 497.357 53.828 484.602C66.8823 459.08 80.9173 431.641 95.8029 402.537C110.39 373.313 127.001 342.861 145.424 311.754C154.766 296.275 164.29 280.437 174.145 264.398C176.601 260.382 179.069 256.349 181.548 252.295C182.784 250.25 184.072 248.274 185.044 246.235C185.532 245.224 185.946 244.172 186.112 243.251C186.19 242.806 186.156 242.408 186.09 242.316C186.056 242.234 186.026 242.181 185.662 242.073C184.931 241.904 183.756 242.024 182.652 242.211C181.523 242.399 180.357 242.662 179.16 242.903C177.953 243.14 176.731 243.387 175.349 243.445C174.654 243.46 173.904 243.447 173.031 243.149C172.592 242.979 172.118 242.735 171.724 242.308C171.344 241.892 171.068 241.358 170.972 240.881C170.749 239.904 170.895 239.132 171.048 238.438C171.217 237.746 171.433 237.103 171.686 236.501C172.184 235.289 172.772 234.174 173.389 233.083L174.015 232.015L174.011 231.999L173.943 231.8L173.645 230.937L173.493 230.48C147.783 278.219 120.824 328.28 93.0122 379.925C65.391 432.907 36.8317 487.47 7.70153 542.846C34.6025 490.135 61.2287 437.965 88.093 385.326C94.7321 372.126 101.769 359.096 108.74 345.975C115.724 332.86 122.732 319.701 129.772 306.482C144.373 279.121 159.107 251.512 174.042 223.525L176.347 230.16L176.66 231.06L176.965 231.94C176.996 232.085 177.113 232.24 177.074 232.379L176.834 232.781L176.146 233.931L175.69 234.735C175.097 235.808 174.541 236.9 174.139 237.977C173.941 238.512 173.789 239.046 173.723 239.511C173.654 239.976 173.728 240.329 173.778 240.347C173.771 240.381 173.976 240.527 174.445 240.579C174.89 240.632 175.45 240.611 176.021 240.548C177.176 240.419 178.402 240.154 179.649 239.894C180.904 239.633 182.181 239.351 183.573 239.203C184.273 239.135 185.003 239.092 185.834 239.201C186.255 239.27 186.697 239.356 187.179 239.596C187.646 239.824 188.154 240.2 188.472 240.72C189.12 241.771 189.052 242.784 188.96 243.557C188.844 244.351 188.624 245.044 188.386 245.71C187.892 247.025 187.284 248.216 186.645 249.38C185.33 251.705 183.975 253.811 182.642 256.034C179.961 260.425 177.273 264.829 174.58 269.243C169.179 278.068 163.773 286.949 158.387 295.903C155.684 300.376 152.975 304.862 150.256 309.362C148.899 311.612 147.54 313.867 146.178 316.123C144.857 318.402 143.534 320.686 142.209 322.973C139.558 327.545 136.9 332.132 134.232 336.733C132.899 339.033 131.563 341.337 130.225 343.644C128.902 345.96 127.503 348.239 126.273 350.614C121.203 360.035 116.102 369.516 110.964 379.063C100.986 398.349 90.8718 417.896 80.6035 437.742C70.328 457.584 59.8985 477.721 49.2962 498.191C44.0571 508.455 38.7755 518.802 33.4488 529.238C32.1163 531.847 30.7813 534.462 29.444 537.081C28.1316 539.714 26.8169 542.351 25.4997 544.996C22.8642 550.283 20.218 555.592 17.5589 560.926C-3.61512 603.631 -24.7796 648.2 -44.7312 695.457Z" fill="#1F1713"/>
<path d="M213.67 273.282C208.437 279.137 190.445 276.215 183.581 275.255C173.669 273.581 166.266 266.696 158.573 261.034C141.97 249.423 127.018 236.27 127.746 213.908C136.155 216.518 143.636 228.568 150.86 233.475C158.082 238.389 166.817 242.361 174.034 247.268C188.016 256.336 204.542 262.778 217.621 272.918C216.869 273.383 216.723 273.999 215.504 273.712L213.67 273.282Z" fill="white"/>
<path d="M213.445 273.081C213.429 273.064 213.214 273.403 212.612 273.895C212.019 274.394 211.017 275.03 209.556 275.563C206.629 276.635 201.957 277.17 196.036 276.93C193.071 276.822 189.788 276.532 186.219 276.112C182.665 275.866 178.671 274.859 174.848 273.07C170.984 271.29 167.229 268.731 163.434 265.925C161.533 264.515 159.608 263.083 157.605 261.651C155.557 260.251 153.466 258.78 151.359 257.213C147.16 254.073 142.895 250.543 138.972 246.3C136.982 244.207 135.185 241.85 133.465 239.374C131.873 236.813 130.306 234.14 129.219 231.188C128.003 228.288 127.289 225.157 126.735 221.974C126.653 221.17 126.57 220.364 126.488 219.555C126.403 218.745 126.308 217.933 126.328 217.115C126.328 215.858 126.328 214.597 126.328 213.33L126.333 212.155L126.334 211.861C126.313 211.781 126.392 211.847 126.43 211.852L126.568 211.904L127.117 212.114L129.319 212.952L130.381 213.426C130.595 213.52 130.623 213.544 130.739 213.601L131.031 213.75C131.428 213.941 131.798 214.161 132.156 214.399L133.246 215.096L134.274 215.859C135.639 216.885 136.895 218.016 138.114 219.18C140.54 221.515 142.79 224.008 145.097 226.433C147.435 228.838 149.707 231.233 152.538 232.977C153.97 233.892 155.41 234.813 156.858 235.738C158.336 236.629 159.857 237.488 161.364 238.372C162.884 239.257 164.41 240.146 165.943 241.037C167.476 241.937 169.032 242.806 170.532 243.815C173.536 245.743 176.565 247.686 179.615 249.643C185.783 253.392 192.275 256.867 198.739 260.578C205.192 264.291 211.653 268.244 217.521 273.047C217.526 272.957 217.531 272.868 217.535 272.774C217.214 272.96 216.936 273.23 216.683 273.391C216.42 273.564 216.109 273.585 215.798 273.523C215.149 273.382 214.427 273.164 213.743 272.986C214.429 273.126 215.17 273.311 215.806 273.412C216.105 273.457 216.368 273.42 216.593 273.255C216.801 273.107 217.085 272.807 217.422 272.591C217.411 272.803 217.399 273.01 217.389 273.217C210.42 268.049 202.77 264 195.079 260.037C187.378 256.104 179.58 252.141 172.145 247.438C164.86 242.755 156.827 239.183 149.264 233.99C145.507 231.162 142.532 227.733 139.397 224.521C136.288 221.325 133.089 218.072 129.316 216.135C129.153 216.049 129.253 216.102 129.224 216.086V216.085C129.238 215.581 129.2 217.335 129.285 218.325C129.396 219.439 129.508 220.557 129.62 221.678C129.833 222.782 130.047 223.887 130.261 224.997C131.295 229.395 133.124 233.64 135.622 237.554C140.629 245.429 148.067 251.854 156.076 257.78C157.091 258.518 158.111 259.259 159.133 260.001C160.147 260.78 161.163 261.561 162.184 262.344C164.191 263.922 166.204 265.497 168.264 267.012C172.378 270.014 176.851 272.708 181.862 273.983L183.741 274.46L185.715 274.769C187.037 274.966 188.365 275.164 189.698 275.361C192.363 275.727 195.056 276.029 197.777 276.186C200.494 276.337 203.248 276.366 205.977 276.038C207.339 275.869 208.696 275.606 209.99 275.161C211.284 274.725 212.506 274.053 213.445 273.081Z" fill="#1F1713"/>
<path d="M238.321 237.347C257.699 235.863 276.946 240.363 296.326 238.89C317.248 237.289 338.058 233.962 358.889 231.029C367.654 229.802 404.502 222.026 394.946 243.116C386.413 261.083 359.227 258.654 343.792 259.61C310.815 261.657 278.889 259.108 247.74 248.567C241.806 246.559 236.723 244.838 231.643 243.122" fill="white"/>
<path d="M238.345 237.647C238.345 237.647 240.826 237.488 245.52 237.188C247.872 237.193 250.785 237.111 254.218 237.207C255.934 237.27 257.781 237.338 259.754 237.41C261.725 237.52 263.822 237.637 266.042 237.761C270.479 238.021 275.399 238.329 280.77 238.506C283.455 238.59 286.252 238.546 289.155 238.562C290.602 238.483 292.076 238.402 293.578 238.32C295.077 238.246 296.603 238.172 298.158 237.97C310.6 236.731 324.66 234.902 340.091 232.521C343.953 231.942 347.902 231.35 351.934 230.745C353.951 230.443 355.988 230.138 358.046 229.83C360.077 229.536 362.143 229.165 364.25 228.833C368.46 228.162 372.789 227.576 377.256 227.326C379.49 227.204 381.759 227.164 384.067 227.302C386.372 227.45 388.728 227.75 391.078 228.537C392.256 228.895 393.415 229.5 394.518 230.229C395.591 231.04 396.567 232.09 397.191 233.384C397.339 233.705 397.437 234.046 397.557 234.379L397.722 234.883L397.803 235.396L397.948 236.425L397.932 237.432C397.895 238.775 397.591 240.037 397.215 241.244C395.674 246.04 392.401 250.248 388.205 253.133C384.01 256.043 379.122 257.708 374.191 258.746C369.238 259.78 364.174 260.206 359.095 260.431C354.015 260.663 348.893 260.629 343.811 260.886C341.225 260.983 338.627 261.08 336.018 261.177C334.713 261.226 333.405 261.273 332.094 261.322C330.784 261.364 329.466 261.329 328.148 261.337C325.513 261.33 322.867 261.323 320.207 261.316C317.549 261.277 314.883 261.095 312.206 260.991C306.846 260.855 301.475 260.196 296.06 259.721C293.356 259.437 290.664 258.97 287.952 258.6C286.599 258.402 285.242 258.204 283.884 258.006C282.524 257.828 281.185 257.491 279.832 257.24C277.133 256.697 274.427 256.151 271.713 255.604C269.02 254.967 266.343 254.222 263.648 253.531L259.608 252.471C258.274 252.065 256.951 251.615 255.621 251.188C252.966 250.32 250.305 249.45 247.637 248.578C242.361 246.672 237.061 244.756 231.74 242.834C234.849 243.842 237.955 244.849 241.057 245.854C244.165 246.833 247.241 247.932 250.368 248.8L259.706 251.535L269.175 253.733C281.853 256.399 294.736 258.005 307.751 258.699C311.009 258.793 314.271 258.886 317.541 258.981C319.174 259.058 320.813 259.007 322.452 258.992L327.374 258.931C329.015 258.897 330.66 258.925 332.306 258.84C333.951 258.758 335.597 258.677 337.247 258.594C340.562 258.429 343.885 258.265 347.22 258.1C353.917 257.851 360.594 257.806 367.209 257.002C373.774 256.197 380.449 254.732 385.94 251.172C388.661 249.4 390.993 247.078 392.657 244.294C393.471 242.912 394.172 241.416 394.586 239.883C395.023 238.369 395.233 236.804 394.876 235.473C394.537 234.144 393.642 233.069 392.368 232.28C391.097 231.488 389.526 230.988 387.902 230.653C384.627 229.999 381.114 229.96 377.611 230.115C374.098 230.272 370.553 230.673 366.992 231.168C365.207 231.435 363.418 231.705 361.623 231.974C359.814 232.264 357.971 232.508 356.17 232.76C348.9 233.752 341.539 234.759 334.077 235.778C319.115 237.647 303.776 239.818 287.679 240.005C271.611 239.859 255.339 236.692 238.345 237.647Z" fill="#1F1713"/>
<path d="M223.305 248.662C258.775 247.525 293.675 248.819 327.875 256.82C338.459 259.304 349.04 261.777 358.046 267.314C364.178 270.468 383.82 281.934 381.723 290.881C378.061 302.897 327.908 286.015 319.764 284.112C293.714 278.012 240.521 263.212 231.753 260.304" fill="white"/>
<path d="M223.314 248.964C223.314 248.964 226.764 248.807 233.214 248.511C239.669 248.251 249.138 247.99 261.183 248.149C273.218 248.419 287.852 249.077 304.47 251.369C306.543 251.687 308.648 252.01 310.784 252.338C312.919 252.683 315.101 252.953 317.277 253.435C321.634 254.338 326.159 255.15 330.724 256.211C335.293 257.269 339.998 258.396 344.74 259.916C349.475 261.437 354.266 263.372 358.781 266.119L358.688 266.067C361.776 267.659 364.784 269.424 367.756 271.373C370.72 273.328 373.644 275.456 376.382 277.95C377.745 279.202 379.062 280.548 380.253 282.068C381.409 283.609 382.517 285.309 383.048 287.412C383.324 288.456 383.417 289.576 383.211 290.76C383.023 291.988 382.301 293.16 381.422 293.935C379.599 295.511 377.489 295.986 375.525 296.312C371.549 296.855 367.673 296.535 363.812 296.091C359.954 295.615 356.117 294.904 352.281 294.082C344.609 292.426 336.931 290.306 329.195 288.027C325.318 286.894 321.464 285.678 317.551 284.687C313.605 283.619 309.631 282.544 305.632 281.463C297.644 279.28 289.554 277.07 281.379 274.835C277.298 273.707 273.195 272.573 269.074 271.434C264.981 270.188 260.871 268.938 256.744 267.682C248.507 265.147 240.203 262.592 231.846 260.021C239.368 262.065 246.861 264.099 254.343 266.132C261.829 268.146 269.26 270.295 276.805 272.085C291.854 275.859 306.934 279.642 322.189 283.469C329.794 285.585 337.351 287.777 345.074 289.634C352.776 291.46 360.639 293.174 368.563 293.662C370.536 293.76 372.512 293.766 374.415 293.551C376.288 293.332 378.206 292.865 379.359 291.884C379.935 291.391 380.288 290.845 380.365 290.161C380.472 289.434 380.385 288.587 380.136 287.768C379.613 286.105 378.514 284.486 377.256 282.994C374.676 280.014 371.445 277.44 368.076 275.065C364.69 272.705 361.099 270.514 357.398 268.576L357.343 268.547L357.304 268.523C348.565 263.111 338.102 260.597 327.526 258.064C316.915 255.714 306.028 253.496 294.738 252.183C272.208 249.183 248.379 248.57 223.314 248.964Z" fill="#1F1713"/>
<path d="M216.368 213.522C223.053 190.32 244.271 148.258 259.153 129.214C271.445 113.489 296.994 85.2369 319.061 98.6609C339.939 110.754 307.582 148.374 295.841 158.912C278.002 175.518 245.338 199.377 224.409 211.616" fill="white"/>
<path d="M216.658 213.605C216.658 213.605 217.362 211.302 218.693 206.946C219.046 205.863 219.36 204.623 219.858 203.309C220.349 201.992 220.884 200.552 221.463 198.994C222.045 197.436 222.672 195.76 223.34 193.968C224.017 192.18 224.856 190.326 225.68 188.337C226.52 186.354 227.407 184.263 228.337 182.066C229.306 179.886 230.389 177.633 231.485 175.262C232.614 172.909 233.689 170.403 234.996 167.897C236.28 165.377 237.613 162.762 238.992 160.057C240.326 157.326 241.937 154.628 243.489 151.784C244.278 150.369 245.079 148.932 245.891 147.474C246.699 146.014 247.635 144.598 248.521 143.127C249.422 141.663 250.337 140.181 251.263 138.678C251.736 137.933 252.173 137.158 252.684 136.423C253.201 135.689 253.72 134.95 254.241 134.207C256.341 131.241 258.418 128.136 260.842 125.207C265.607 119.282 270.923 113.307 277.162 107.788C280.297 105.053 283.637 102.395 287.352 100.107C289.188 98.9332 291.152 97.9103 293.167 96.9501C295.208 96.0337 297.337 95.2451 299.559 94.652C301.795 94.1002 304.113 93.7557 306.48 93.7071C308.849 93.6906 311.243 94.0233 313.564 94.6697C315.905 95.3079 318.074 96.3948 320.153 97.6451C322.281 98.8788 324.21 100.773 325.481 103.042C326.766 105.322 327.312 107.947 327.331 110.479C327.348 113.023 326.932 115.523 326.226 117.903C324.842 122.683 322.62 127.136 320.077 131.393C314.935 139.892 308.57 147.758 301.417 155.107C294.1 162.366 286.048 168.863 277.747 175.343C261.081 188.157 243.289 200.515 224.258 211.356C235.07 204.788 245.363 197.536 255.513 190.117C265.649 182.677 275.601 174.968 285.197 166.745C287.642 164.742 289.959 162.587 292.314 160.467C294.683 158.344 297.013 156.239 299.184 153.942C303.565 149.381 307.684 144.499 311.482 139.359C315.266 134.217 318.748 128.772 321.356 122.939C322.642 120.024 323.692 116.995 324.194 113.914C324.733 110.842 324.501 107.707 323.28 105.036C322.579 103.757 321.766 102.509 320.584 101.565C319.49 100.549 318.109 99.7905 316.7 99.0244C313.887 97.5551 310.771 96.7441 307.582 96.6328C301.161 96.3557 294.744 98.8883 288.998 102.386C283.213 105.918 277.913 110.451 272.946 115.418C270.461 117.907 268.058 120.513 265.715 123.209C264.543 124.556 263.39 125.928 262.249 127.322C261.107 128.712 259.97 130.119 258.934 131.597C254.579 137.356 250.6 143.556 246.739 149.952C244.873 153.189 242.917 156.41 241.079 159.73C239.277 163.071 237.461 166.438 235.631 169.832C233.907 173.28 232.168 176.754 230.416 180.257C228.669 183.762 227.113 187.391 225.429 190.998C225.019 191.905 224.588 192.804 224.194 193.722L223.058 196.5C222.297 198.356 221.535 200.22 220.768 202.09C219.954 203.947 219.33 205.876 218.663 207.801C217.996 209.727 217.328 211.662 216.658 213.605Z" fill="#1F1713"/>
<path d="M216.077 260.957C236.973 261.561 267.684 266.871 288.341 275.829C294.12 278.504 320.182 302.565 299.264 302.79C284.195 303.195 266.318 295.107 252.183 292.185C238.905 288.459 208.655 268.584 194.522 265.662" fill="white"/>
<path d="M216.068 261.258C216.068 261.258 217.724 261.291 220.855 261.354C223.993 261.358 228.599 261.689 234.5 262.186C237.437 262.538 240.718 262.822 244.271 263.344C246.046 263.616 247.897 263.9 249.819 264.195C250.779 264.349 251.762 264.483 252.755 264.664C253.745 264.858 254.753 265.057 255.778 265.257C257.829 265.663 259.948 266.083 262.135 266.516C264.301 267.048 266.532 267.596 268.826 268.158C271.134 268.677 273.455 269.399 275.841 270.131C278.225 270.865 280.691 271.542 283.131 272.533C284.361 272.997 285.605 273.466 286.861 273.94C287.49 274.177 288.123 274.417 288.759 274.657C289.467 274.977 290.12 275.367 290.701 275.755C293.068 277.328 295.21 279.138 297.338 281.077C299.443 283.031 301.509 285.113 303.418 287.44C304.381 288.596 305.294 289.824 306.138 291.14C306.973 292.463 307.764 293.861 308.279 295.507C308.388 295.933 308.501 296.357 308.588 296.796C308.624 297.266 308.725 297.707 308.687 298.206C308.678 299.177 308.387 300.252 307.778 301.147C307.479 301.578 307.09 301.96 306.71 302.294C306.301 302.556 305.889 302.899 305.461 303.068C304.604 303.492 303.746 303.707 302.889 303.909C301.191 304.201 299.519 304.266 297.907 304.231C296.278 304.255 294.646 304.105 293.009 303.968C286.474 303.262 280.011 301.565 273.554 299.62C267.081 297.691 260.614 295.438 253.892 293.761C253.037 293.531 252.2 293.416 251.325 293.089C250.464 292.785 249.568 292.516 248.736 292.175L246.249 291.14L243.81 290.013C240.568 288.484 237.386 286.811 234.207 285.094C227.89 281.612 221.484 278.08 215.006 274.509C211.747 272.777 208.475 271.012 205.093 269.432C201.708 267.869 198.284 266.296 194.582 265.364C198.901 266.253 202.973 267.892 206.957 269.617C210.938 271.362 214.856 273.228 218.727 275.172C226.489 279.016 234.118 283.13 241.963 286.795C243.92 287.72 245.9 288.591 247.896 289.385C248.896 289.762 249.9 290.196 250.891 290.476L252.378 290.952C252.897 291.085 253.444 291.188 253.977 291.306C258.293 292.246 262.582 293.5 266.833 294.761C275.336 297.269 283.901 300 292.798 301.022C293.907 301.185 295.019 301.195 296.132 301.292C297.243 301.333 298.372 301.331 299.477 301.322C300.017 301.288 300.571 301.282 301.101 301.229C301.609 301.139 302.16 301.116 302.638 300.981C303.638 300.775 304.505 300.373 305.069 299.869C305.618 299.361 305.838 298.708 305.801 297.816C305.774 296.936 305.431 295.929 304.991 294.961C304.106 293.003 302.77 291.116 301.331 289.316C298.421 285.721 294.99 282.367 291.283 279.386C290.357 278.649 289.391 277.939 288.437 277.359C288.189 277.206 288.001 277.113 287.75 276.987L286.903 276.65L285.204 275.974C284.069 275.521 282.932 275.067 281.79 274.611C280.651 274.148 279.508 273.683 278.314 273.323C275.951 272.544 273.572 271.76 271.176 270.97C268.741 270.296 266.289 269.617 263.818 268.932C261.359 268.198 258.817 267.711 256.286 267.1C255.016 266.806 253.743 266.512 252.464 266.216C251.18 265.945 249.881 265.718 248.583 265.463C238.2 263.432 227.363 261.832 216.068 261.258Z" fill="#1F1713"/>
<path d="M348.209 174.294C359.605 176.963 384.406 175.862 377.384 194.828C369.598 215.87 340.109 224.034 322.256 230.384C297.493 239.2 269.892 235.504 242.813 231.173L218.003 208.321" fill="white"/>
<path d="M348.14 174.587C348.14 174.587 349.77 174.928 352.862 175.28C355.948 175.689 360.525 175.947 366.296 177.166C367.734 177.485 369.245 177.885 370.787 178.471C372.326 179.056 373.914 179.811 375.38 180.945C376.847 182.061 378.113 183.685 378.764 185.643C379.44 187.601 379.401 189.787 379.004 191.89C378.61 194.013 377.84 196.078 376.882 198.121C375.914 200.163 374.726 202.187 373.267 204.085C370.37 207.9 366.623 211.36 362.306 214.336C353.669 220.35 343.038 224.672 331.705 228.626C328.877 229.612 326.003 230.614 323.088 231.629C321.595 232.115 320.092 232.604 318.58 233.096C317.056 233.565 315.491 233.919 313.932 234.338C307.652 235.836 301.065 236.674 294.337 236.956C280.857 237.527 266.896 235.903 252.775 233.552C251.01 233.249 249.24 232.945 247.463 232.639L244.798 232.162L243.463 231.922L242.643 231.777C242.467 231.787 242.392 231.588 242.262 231.504L241.96 231.216C239.354 228.699 236.733 226.164 234.096 223.617C228.853 218.497 223.553 213.319 218.208 208.099C224.659 213.831 231.071 219.528 237.482 225.225L242.282 229.513C242.657 229.835 243.181 230.347 243.252 230.346L244.638 230.541L247.824 230.998C252.075 231.587 256.332 232.176 260.61 232.664C269.159 233.674 277.791 234.395 286.517 234.395C295.238 234.449 304.057 233.633 312.764 231.651C317.124 230.607 321.324 229.192 325.74 227.637C330.121 226.138 334.529 224.646 338.927 223.001C343.318 221.345 347.71 219.556 351.99 217.435C356.275 215.327 360.454 212.881 364.305 209.916C368.148 206.958 371.619 203.391 374.167 199.147C375.423 197.03 376.494 194.732 377.152 192.353C377.496 191.164 377.669 189.948 377.707 188.741C377.698 187.538 377.516 186.346 377.068 185.242C376.163 183.023 374.162 181.344 371.891 180.166C369.595 178.991 367.036 178.215 364.421 177.601C359.179 176.349 353.655 175.883 348.14 174.587Z" fill="#1F1713"/>
<path d="M230.276 218.878C245.712 201.381 246.526 196.582 267.603 180.319C282.745 168.637 329.352 134.578 346.69 149.897C358.472 160.303 350.736 173.278 340.504 183.644C310.605 213.931 267.38 207.678 231.873 224.423" fill="white"/>
<path d="M230.502 219.078C230.502 219.078 231.892 217.375 234.52 214.157C235.854 212.565 237.403 210.517 239.286 208.151C241.153 205.77 243.272 203.005 245.774 199.984C246.989 198.445 248.428 196.952 249.858 195.309C251.337 193.713 252.987 192.136 254.659 190.437C256.427 188.843 258.27 187.181 260.186 185.455C262.174 183.817 264.237 182.116 266.371 180.358C275.002 173.453 285.101 165.962 296.952 158.806C302.901 155.275 309.274 151.784 316.315 148.958C319.834 147.551 323.52 146.302 327.422 145.475L328.89 145.17L330.389 144.952C331.385 144.78 332.409 144.717 333.437 144.65C334.457 144.538 335.512 144.642 336.556 144.634C337.079 144.656 337.607 144.741 338.135 144.795C338.663 144.861 339.194 144.894 339.717 145.04C341.84 145.415 343.907 146.284 345.822 147.433C346.703 148.112 347.675 148.744 348.393 149.55L349.554 150.709C349.945 151.091 350.247 151.572 350.598 152.003C352.019 153.716 352.989 155.856 353.604 158.067C354.179 160.323 354.123 162.676 353.778 164.941C352.876 169.446 350.682 173.486 348.027 177.065C345.362 180.665 342.321 183.955 338.977 187.011C332.299 193.137 324.357 198.124 315.738 201.781C307.12 205.472 297.91 207.922 288.549 209.91C279.18 211.905 269.622 213.462 260.06 215.508C250.508 217.554 240.904 220.109 231.744 224.155C242.155 219.091 253.311 215.938 264.482 213.371C275.662 210.781 286.939 208.689 297.967 205.551C308.958 202.409 319.792 198.145 329.206 191.407C333.914 188.068 338.277 184.187 342.155 179.808C344.081 177.621 345.918 175.337 347.427 172.868C348.936 170.411 350.18 167.784 350.775 165.05C351.38 162.326 351.25 159.502 350.181 156.967C349.144 154.441 347.172 152.18 344.988 150.427C342.791 148.735 340.018 147.823 337.11 147.558C334.195 147.286 331.165 147.594 328.168 148.186C322.153 149.385 316.249 151.729 310.464 154.426C304.677 157.159 298.991 160.333 293.363 163.78C287.733 167.227 282.16 170.955 276.616 174.894C273.843 176.865 271.081 178.892 268.323 180.971C265.62 183.111 262.831 185.196 260.144 187.434C254.711 191.852 249.629 196.801 244.928 202.299C240.238 207.805 235.533 213.511 230.502 219.078Z" fill="#1F1713"/>
<path d="M184.858 172.996C180.206 156.548 184.565 134.273 186.264 117.549C188.019 100.248 191.974 82.6473 198.682 66.5616C204.116 53.52 213.664 32.7813 229.774 30.6927C252.465 29.137 248.567 53.1186 250.592 66.4693L246.174 105.962L207.845 183.834" fill="white"/>
<path d="M185.148 172.914C185.148 172.914 185.039 172.512 184.826 171.723C184.615 170.934 184.264 169.766 183.986 168.188C183.34 165.055 182.736 160.331 182.694 154.199C182.612 148.067 183.139 140.552 184.07 131.864C184.522 127.519 185.07 122.876 185.52 117.949C185.777 115.479 186.018 112.923 186.331 110.31C186.716 107.706 186.993 105.012 187.506 102.287C187.742 100.921 187.98 99.538 188.222 98.1385C188.509 96.7473 188.8 95.3396 189.093 93.9164C189.639 91.0583 190.434 88.1907 191.146 85.2354C192.777 79.3842 194.627 73.3139 197.099 67.2152C199.513 61.1247 202.257 54.8709 205.849 48.7615C207.626 45.7009 209.704 42.7232 212.097 39.9112C214.503 37.117 217.276 34.4756 220.617 32.4569C221.485 32.007 222.354 31.5547 223.227 31.1012C224.127 30.7034 225.082 30.4074 226.014 30.0593C226.957 29.7373 227.987 29.6094 228.976 29.3844C229.226 29.3406 229.476 29.2696 229.727 29.2506L230.483 29.221C230.986 29.2068 231.495 29.1725 231.996 29.1784C233.989 29.1962 236.029 29.427 238.033 30.0048C240.032 30.5814 241.988 31.5677 243.627 32.966C245.274 34.3572 246.574 36.1154 247.536 37.9885C248.503 39.8651 249.159 41.8542 249.641 43.8551C250.596 47.8676 250.9 51.9429 251.147 55.9886C251.266 57.9966 251.387 60.0153 251.509 62.0423C251.58 63.0463 251.672 64.0421 251.78 65.0343L251.877 65.7719L251.932 66.1922C251.997 66.4231 251.926 66.7652 251.919 66.8742L251.74 68.4039C251.259 72.4886 250.775 76.6101 250.285 80.7659C249.281 89.1355 248.26 97.6436 247.224 106.271C240.892 118.733 234.407 131.497 227.81 144.482C221.204 157.389 214.446 170.492 207.571 183.704C213.818 170.621 220.024 157.628 226.239 144.611C232.468 131.676 238.707 118.717 245.012 105.625C245.974 96.5614 246.942 87.4459 247.919 78.2475C248.169 75.9305 248.419 73.6099 248.67 71.2822L249.048 67.787L249.142 66.9121L249.189 66.4929C249.189 66.4917 249.189 66.4823 249.189 66.4894V66.4929L249.174 66.3923C249.089 65.7908 249.006 65.1894 248.946 64.5914C248.436 59.8081 248.375 55.0947 247.843 50.4499C247.305 45.8549 246.392 41.1698 243.899 37.5362C242.624 35.778 240.994 34.3027 238.985 33.4431C236.998 32.5528 234.748 32.1514 232.447 32.0958C231.869 32.0543 231.304 32.0922 230.735 32.1088L229.883 32.1407L229.059 32.3148L227.408 32.6499C226.861 32.7872 226.327 33.024 225.784 33.2028C223.598 33.9238 221.608 35.1931 219.682 36.5381C215.926 39.4258 212.769 43.1992 210.022 47.291C207.265 51.3912 204.936 55.8548 202.793 60.4629C200.64 65.0757 198.687 69.8448 196.915 74.7051C193.42 84.4635 190.735 94.7405 188.909 105.405C187.999 110.753 187.345 116.141 186.689 121.696C185.991 127.22 185.183 132.774 184.53 138.404C183.883 144.032 183.375 149.741 183.304 155.526C183.227 161.304 183.687 167.18 185.148 172.914Z" fill="#1F1713"/>
<path d="M202.867 181.912C202.867 181.912 195.774 165.442 203.616 134.707C208.366 116.095 215.323 97.2945 225.385 80.862C233.024 68.3863 257.705 42.618 272.762 62.2118C286.157 79.6366 269.613 105.347 260.101 120.619C246.461 142.509 233.249 166.89 214.064 184.531" fill="white"/>
<path d="M203.144 181.793C203.144 181.793 202.916 181.3 202.561 180.267C202.224 179.232 201.725 177.681 201.284 175.596C200.384 171.442 199.516 165.155 199.828 157.076C200.02 148.999 201.63 139.182 204.607 128.199C205.361 125.456 206.167 122.624 207.047 119.718C207.999 116.835 208.882 113.83 210.023 110.819C212.127 104.734 214.809 98.475 217.879 92.0447C218.687 90.4546 219.503 88.8468 220.329 87.2224C221.167 85.6027 222.124 84.0244 223.033 82.3976C224.785 79.1215 227.055 75.9011 229.511 72.8937C231.982 69.8639 234.714 66.9513 237.741 64.2317C240.77 61.5227 244.097 58.9807 247.877 56.9632C251.62 54.954 255.981 53.4491 260.64 53.6966C262.951 53.8292 265.285 54.4626 267.366 55.5779C269.445 56.7039 271.237 58.2585 272.779 59.9859C275.856 63.4337 277.972 67.8334 278.776 72.4912C279.56 77.1585 279.146 81.9394 278.091 86.5155C275.891 95.6914 271.445 104.178 266.527 112.365C264.06 116.47 261.415 120.485 258.858 124.585C256.28 128.682 253.681 132.811 251.066 136.969C245.789 145.267 240.357 153.653 234.308 161.732C228.199 169.76 221.476 177.468 213.859 184.31C222.42 176.127 229.629 166.779 236.215 157.059C242.804 147.324 248.769 137.172 254.875 126.991C260.921 116.76 267.669 106.863 272.2 95.824C274.447 90.335 276.144 84.5394 276.353 78.6562C276.452 75.7235 276.09 72.7955 275.227 70.0226C274.383 67.2426 272.915 64.6639 271.037 62.4167C269.162 60.186 266.88 58.2822 264.19 57.3587C262.865 56.8436 261.439 56.6589 260.01 56.5583C258.569 56.563 257.108 56.6684 255.663 57.026C249.847 58.4124 244.503 62.0461 239.748 66.2007C237.357 68.2951 235.097 70.5826 232.968 73.011C230.837 75.4334 228.828 78.0038 227.054 80.7128C223.649 86.3036 220.33 92.1477 217.541 98.3234L216.452 100.625L215.447 102.976C214.782 104.55 214.113 106.128 213.443 107.712C212.223 110.93 210.917 114.143 209.822 117.463C207.51 124.051 205.476 130.874 203.754 137.854C202.061 144.835 200.896 152.072 200.563 159.485C200.436 163.189 200.494 166.934 200.861 170.685C201.256 174.416 201.862 178.224 203.144 181.793Z" fill="#1F1713"/>
<path d="M148.343 172.153C138.57 169.869 131.418 152.742 125.428 145.332C107.051 122.618 105.49 114.897 91.9035 89.4778C85.942 78.327 63.8476 32.8927 78.1137 21.453C92.0302 10.2975 106.544 35.2109 112.268 44.1512C122.729 60.5222 128.943 78.6976 132.742 97.665C136.559 116.698 138.234 137.079 148.27 154.113" fill="white"/>
<path d="M148.412 171.858C148.412 171.858 147.838 171.684 146.718 171.343C146.188 171.098 145.521 170.788 144.757 170.365C144.033 169.873 143.155 169.346 142.295 168.565C140.519 167.075 138.558 164.94 136.521 162.218C134.473 159.502 132.347 156.201 129.971 152.503C128.773 150.661 127.514 148.713 126.062 146.782C124.586 144.888 122.937 142.897 121.274 140.819C120.437 139.777 119.584 138.714 118.712 137.629C117.884 136.51 117.038 135.368 116.177 134.204C115.323 133.034 114.423 131.863 113.563 130.632C112.729 129.381 111.881 128.107 111.019 126.81C110.588 126.161 110.153 125.508 109.715 124.848C109.307 124.17 108.897 123.485 108.484 122.795C107.663 121.411 106.828 120.006 105.981 118.577C104.398 115.666 102.731 112.678 101.14 109.562C99.5269 106.459 97.8698 103.27 96.1701 99.9999C94.4419 96.7522 92.6699 93.4229 90.8576 90.0177C87.1691 83.1601 83.6844 75.83 80.4922 68.0027C77.3367 60.1718 74.3885 51.8519 72.7551 42.811C72.0219 38.2893 71.5445 33.538 72.4921 28.6481C72.992 26.2281 73.9751 23.737 75.7518 21.7088C76.2173 21.2293 76.7172 20.7734 77.2076 20.3141C77.7347 19.9411 78.2428 19.5433 78.7948 19.1952C79.9224 18.5357 81.1164 17.9153 82.4406 17.6027C85.0619 16.8426 87.9213 17.2085 90.3779 18.1272C92.8381 19.0946 95.014 20.5355 96.9637 22.1717C100.846 25.4774 104.027 29.4355 106.947 33.564C108.404 35.6325 109.796 37.7554 111.147 39.9031C111.817 40.9734 112.49 42.0473 113.164 43.1236C113.818 44.2235 114.474 45.327 115.131 46.4328C115.785 47.5434 116.441 48.6551 117.099 49.7705C117.692 50.9201 118.287 52.0721 118.884 53.2277C119.469 54.388 120.103 55.5282 120.649 56.7134C121.183 57.9033 121.72 59.0967 122.256 60.2914C126.5 69.8781 129.717 80.0793 132.055 90.5943C134.419 101.121 135.705 111.94 137.702 122.735C139.703 133.5 142.524 144.391 148.012 154.26C144.685 148.674 142.099 142.67 140.185 136.488C138.239 130.31 136.824 123.995 135.594 117.669C134.352 111.342 133.274 104.998 131.976 98.707C130.61 92.4366 129.156 86.1721 127.187 80.0426C123.461 67.7221 118.083 55.8467 111.097 44.8119C107.546 39.2342 104.006 33.6813 99.6513 28.7819C97.4801 26.3536 95.1076 24.0791 92.4318 22.3825C89.7857 20.6716 86.7285 19.6617 83.8372 20.243C82.3956 20.5177 81.0181 21.1677 79.7566 22.0533C79.0874 22.4819 78.5839 23.0076 78.0486 23.5085C77.7986 23.7784 77.5973 24.0957 77.3651 24.3846C77.1199 24.664 76.941 24.9979 76.7657 25.3353C75.2531 27.978 74.867 31.3346 74.8646 34.6344C74.9428 41.3203 76.6236 48.1306 78.668 54.8142C82.8919 68.2276 88.9127 81.3782 95.9142 94.5192C99.3564 101.148 102.591 107.991 106.119 114.757C109.644 121.524 113.558 128.191 118.222 134.534L119.922 136.952L121.728 139.311C122.935 140.886 124.145 142.468 125.361 144.057C127.917 147.235 129.945 150.792 132.063 154.257C134.175 157.733 136.313 161.231 138.849 164.461C140.142 166.047 141.498 167.606 143.076 168.921C144.657 170.22 146.425 171.326 148.412 171.858Z" fill="#1F1713"/>
<path d="M159.527 176.746C143.705 159.578 138.599 120.855 135.859 98.727C133.798 82.021 118.312 -13.8263 156.457 3.52267C182.095 14.6415 182.347 64.4494 182.348 88.1126C182.34 127.696 176.681 157.533 164.867 195.884" fill="white"/>
<path d="M159.749 176.542C159.749 176.542 159.279 175.992 158.362 174.92C157.914 174.375 157.308 173.735 156.679 172.901C156.083 172.041 155.391 171.044 154.607 169.912C151.604 165.301 147.928 157.965 144.836 147.994C141.631 138.061 138.952 125.577 136.731 111.054C136.17 107.422 135.647 103.662 135.125 99.7843C134.578 95.9139 134.015 91.9262 133.437 87.8272C132.308 79.6104 131.265 70.9128 130.551 61.757C129.861 52.6037 129.418 42.9849 129.981 32.959C130.278 27.9507 130.82 22.8311 132.034 17.6903C132.648 15.1234 133.451 12.5506 134.596 10.05C135.733 7.56126 137.276 5.10449 139.512 3.15683C141.727 1.20799 144.783 -0.00441393 147.783 0.00624195C150.798 -0.082557 153.658 0.787672 156.289 1.87812C158.917 3.01001 161.507 4.44856 163.744 6.34294C165.982 8.22784 167.95 10.4158 169.674 12.7803C171.378 15.1601 172.801 17.7246 174.073 20.3625C175.324 23.0123 176.35 25.7639 177.283 28.5545C179.063 34.1631 180.334 39.9658 181.224 45.8679C183.023 57.6782 183.498 69.8543 183.493 82.1844C183.536 88.3447 183.274 94.5724 183.125 100.843C183.051 103.978 182.739 107.119 182.554 110.274C182.334 113.429 182.167 116.597 181.753 119.757C181.397 122.919 181.038 126.095 180.679 129.28C180.183 132.445 179.684 135.621 179.184 138.807C178.733 142.001 178.065 145.165 177.412 148.341C177.089 149.929 176.764 151.519 176.44 153.111L175.949 155.5L175.368 157.872C174.589 161.034 173.81 164.206 173.028 167.385C172.212 170.555 171.266 173.698 170.385 176.864L169.037 181.612L167.559 186.333C166.568 189.48 165.573 192.634 164.577 195.794C168.877 181.095 172.72 166.355 175.557 151.422L176.569 145.813C176.907 143.943 177.266 142.079 177.493 140.19C178.004 136.425 178.516 132.66 179.029 128.89C179.385 125.104 179.743 121.314 180.1 117.519C180.411 113.722 180.525 109.904 180.75 106.09C181.249 90.831 181.362 75.3634 180.119 59.8804C179.475 52.1431 178.432 44.3892 176.621 36.7773C174.786 29.2045 172.199 21.6495 167.814 15.2015C165.612 12.0154 162.972 9.09097 159.743 6.98821C156.546 4.94228 152.783 3.25747 149.085 2.93424C147.238 2.79335 145.399 3.01475 143.774 3.78434C142.146 4.54446 140.72 5.7616 139.546 7.25579C137.221 10.2963 135.813 14.1667 134.817 18.1106C132.883 26.08 132.418 34.5573 132.346 43.0761C132.311 51.6162 132.793 60.283 133.541 69.0469C134.287 77.8155 135.35 86.6729 136.518 95.6723C137.597 104.704 138.678 113.811 140.206 123.019C141.773 132.205 143.687 141.497 146.548 150.672C147.321 152.943 148.017 155.258 148.939 157.494C149.392 158.614 149.777 159.77 150.288 160.871C150.789 161.977 151.293 163.084 151.796 164.194C153.958 168.559 156.477 172.815 159.749 176.542Z" fill="#1F1713"/>
<path d="M85.6093 146.32C76.8807 130.542 63.8039 119.034 56.3618 102.186C51.7292 91.7191 45.9572 80.8134 44.2954 69.3559C39.8002 38.2112 72.6533 67.9766 80.1049 75.9188C88.2969 84.6471 95.7035 94.0266 102.893 103.581C109.961 112.963 117.537 121.904 124.205 131.595C131.145 141.706 137.355 155.749 143.208 166.485" fill="white"/>
<path d="M85.8733 146.174C85.8733 146.174 84.8653 144.611 82.9607 141.656C81.0252 138.726 77.9373 134.587 73.8211 129.417C69.7252 124.237 64.4802 118.057 59.5906 110.021C59.2827 109.522 58.9522 109.029 58.6561 108.511C58.3801 107.98 58.1017 107.445 57.821 106.906C57.2607 105.825 56.691 104.729 56.113 103.615C54.9569 101.382 53.9584 99.067 52.8 96.692C50.5553 91.9359 48.1544 86.8945 46.1561 81.3522C45.1635 78.5817 44.2692 75.6857 43.6284 72.6499C42.9758 69.613 42.4901 66.4743 42.5813 63.1236C42.6015 61.4624 42.881 59.6971 43.632 57.9567C44.0181 57.0912 44.6056 56.2292 45.4064 55.5544C45.8292 55.2406 46.2331 54.8807 46.733 54.709L47.4603 54.4035C47.7043 54.3076 47.9542 54.2875 48.2018 54.2307C50.2071 53.8447 52.0668 54.2354 53.7772 54.7469C55.4982 55.2737 57.0712 56.0457 58.6324 56.8485C61.7097 58.5155 64.6105 60.4904 67.4178 62.6393C70.2298 64.7847 72.96 67.0947 75.631 69.5396C78.2926 71.9644 80.9459 74.6047 83.3456 77.3942C84.5775 78.7711 85.8153 80.1576 87.0614 81.5511C88.2565 82.9861 89.4576 84.4294 90.6658 85.8798C95.5021 91.6766 100.109 97.8606 104.783 104.123C109.432 110.372 114.345 116.639 119.121 123.165C123.859 129.705 128.362 136.652 131.984 144.1C133.894 147.775 135.681 151.526 137.465 155.302C139.242 159.08 141.118 162.831 142.945 166.631C138.22 158.111 133.88 149.452 129.1 141.081C127.911 138.985 126.544 137.01 125.278 134.969C124.628 133.959 124.002 132.936 123.333 131.938L121.181 129.029C118.364 125.116 115.321 121.343 112.318 117.521C109.267 113.728 106.222 109.906 103.195 106.018C100.139 102.166 97.2231 98.2087 94.0819 94.3856C91.0176 90.5009 87.7875 86.7228 84.5195 82.9317C82.8399 81.0799 81.1543 79.2199 79.4605 77.3527C77.7797 75.5175 75.9556 73.7878 74.0995 72.0662C70.3707 68.6481 66.4358 65.3637 62.2285 62.4511C60.1237 61.0042 57.943 59.6509 55.6712 58.5605C54.5341 58.0372 53.3756 57.5494 52.2136 57.2522C51.0528 56.9029 49.8849 56.8035 48.8793 56.955C47.8713 57.122 47.0741 57.5802 46.5056 58.4267C46.2699 58.8956 45.9595 59.3182 45.8292 59.9008C45.7487 60.1778 45.6504 60.4454 45.5769 60.7296L45.4348 61.6306C45.0877 64.0648 45.308 66.7193 45.6468 69.3407C46.3824 74.6071 48.0537 79.819 50.0661 84.9823C52.0857 90.1528 54.4879 95.2866 56.7952 100.59C57.3567 101.935 58.0117 103.18 58.6276 104.479C59.272 105.758 59.8346 107.085 60.5524 108.339C62.0461 110.818 63.4225 113.393 65.1364 115.803C71.6476 125.626 79.8005 134.968 85.8733 146.174Z" fill="#1F1713"/>
<path d="M220.611 188.636C221.508 187.558 225.171 188.417 226.861 189.457C229.019 191.246 227.367 192.792 228.77 195.05C230.819 200.039 236.563 197.519 239.515 201.431C242.606 204.726 240.854 209.466 243.941 212.765C247.651 216.208 250.516 214.953 251.676 221.014C251.851 222.987 251.428 224.819 252.361 226.326C253.011 229.052 254.375 228.73 255.168 230.847C257.653 234.001 257.403 237.8 257.62 242.362C257.379 246.17 258.028 248.897 257.923 252.085C258.609 257.4 256.494 258.192 254.124 262.792C251.761 267.384 252.555 269.499 245.41 269.76C240.85 269.981 236.574 268.982 231.726 270.423C227.64 271.397 222.97 274.814 218.697 273.816C214.568 272.199 212.517 267.216 209.136 265.138C200.371 258.577 188.912 255.253 179.101 250.387C169.76 246.268 161.742 239.243 154.34 232.356C147.404 226.23 140.932 220.856 133.852 215.336C129.395 212.363 127.24 210.564 127.162 205.399C127.266 202.207 127.372 199.007 127.006 195.065C126.605 188.525 126.346 181.388 126.552 174.997C127.127 172.555 127.657 167.531 128.697 165.848C130.491 163.687 131.103 163.827 133.686 163.79C137.023 163.28 136.74 164.507 140.214 163.389C142.478 161.988 144.27 159.83 146.389 159.04C148.976 158.999 150.055 159.9 152.031 159.717C154.614 159.678 154.904 158.457 157.627 157.805C159.603 157.625 163.125 159.094 165.097 158.912C168.907 159.159 172.385 158.04 176.053 158.897C180.326 159.901 181.017 165.205 185.429 165.597C190.317 166.742 190.707 162.326 195.775 165.441C198.071 166.624 196.277 168.779 200.697 169.169C204.97 170.17 205.404 168.337 208.494 171.637C210.181 172.677 209.897 173.9 212.192 175.082C213.274 175.976 216.005 175.326 217.083 176.223C220.312 178.91 223.3 185.404 220.611 188.636Z" fill="#D19117"/>
<path d="M220.844 188.829C220.859 188.844 220.924 188.665 221.372 188.524C221.811 188.381 222.6 188.355 223.618 188.532C224.128 188.621 224.699 188.757 225.314 188.967C225.62 189.075 225.94 189.193 226.26 189.347C226.419 189.415 226.59 189.514 226.731 189.59C226.86 189.696 226.984 189.836 227.123 189.967C227.683 190.489 227.977 191.283 227.979 192.207C227.998 193.119 228.114 194.177 228.707 195.09L228.703 195.08C229.081 195.882 229.603 196.689 230.397 197.277C231.182 197.874 232.17 198.221 233.213 198.471C234.258 198.728 235.381 198.898 236.517 199.273C237.647 199.639 238.804 200.284 239.625 201.348L239.615 201.337C240.153 201.921 240.621 202.594 240.968 203.35C241.301 204.111 241.53 204.926 241.708 205.759C242.066 207.422 242.234 209.192 242.984 210.791C243.674 212.437 245.239 213.501 246.917 214.431C247.758 214.896 248.685 215.305 249.543 215.965C250.4 216.629 251.059 217.583 251.462 218.595C251.677 219.099 251.835 219.624 251.967 220.151L252.158 220.977L252.213 221.825C252.255 222.921 252.19 224.007 252.401 224.974C252.474 225.204 252.525 225.444 252.635 225.654L252.814 225.999C252.868 226.091 252.909 226.217 252.934 226.303L252.993 226.485C253.141 226.98 253.331 227.442 253.63 227.825C253.902 228.227 254.321 228.552 254.756 229.033C254.98 229.251 255.156 229.543 255.348 229.811C255.433 229.952 255.495 230.103 255.569 230.25L255.675 230.473C255.716 230.553 255.7 230.531 255.719 230.552C256.397 231.485 257.091 232.637 257.418 233.841C257.826 235.043 257.972 236.293 258.11 237.537C258.208 238.778 258.264 240.026 258.323 241.266L258.371 242.2L258.374 243.206C258.373 243.822 258.372 244.44 258.371 245.063C258.464 246.33 258.559 247.611 258.655 248.906C258.724 249.555 258.738 250.235 258.753 250.916L258.778 251.942L258.781 252.07C258.784 252.087 258.777 251.981 258.783 252.063L258.805 252.325L258.849 252.852C259.04 254.228 258.874 255.789 258.367 257.215C257.833 258.67 256.965 259.8 256.278 260.966C255.555 262.125 254.925 263.303 254.372 264.561C253.782 265.796 253.436 267.227 252.272 268.631C251.68 269.319 250.853 269.812 250.066 270.085C249.269 270.386 248.484 270.529 247.71 270.638C246.167 270.842 244.658 270.875 243.124 270.87C240.071 270.829 237.098 270.564 234.234 271.058C232.803 271.326 231.35 271.69 229.974 272.231C228.568 272.773 227.134 273.449 225.599 274.043C224.063 274.629 222.4 275.178 220.533 275.236C220.071 275.245 219.595 275.231 219.123 275.161L218.309 275.022L217.611 274.673C217.204 274.451 216.75 274.271 216.383 274.002L215.291 273.178C212.576 270.857 210.845 267.818 208.444 266.268L208.383 266.228L208.344 266.199C198.749 259.169 186.144 255.956 174.274 249.577C168.326 246.289 162.889 242.032 157.742 237.418C156.439 236.271 155.175 235.102 153.904 233.929C152.626 232.764 151.291 231.667 149.98 230.525C147.329 228.277 144.723 225.939 141.98 223.711C139.232 221.49 136.462 219.251 133.672 216.995L133.15 216.573L133.028 216.474C133.015 216.462 133.017 216.466 133.025 216.471L132.964 216.428L132.68 216.233L131.542 215.45C130.786 214.883 130.018 214.342 129.286 213.649C128.907 213.34 128.562 212.953 128.225 212.556C128.056 212.358 127.878 212.173 127.722 211.961L127.295 211.283C127.157 211.053 127.005 210.831 126.885 210.593L126.586 209.85L126.297 209.103L126.134 208.343C125.864 207.329 125.87 206.307 125.804 205.311L125.87 202.571C125.966 200.728 125.851 198.93 125.775 197.116C125.627 193.415 125.477 189.689 125.326 185.942C125.253 184.06 125.325 182.167 125.318 180.272L125.337 177.424L125.346 175.997L125.351 175.283L125.352 175.1C125.358 175.002 125.339 174.926 125.368 174.807L125.464 174.363C125.846 172.593 126.123 170.686 126.546 168.779C126.777 167.81 126.971 166.869 127.467 165.797C127.59 165.563 127.727 165.178 127.994 164.94L128.512 164.362L129.126 163.789C129.369 163.608 129.62 163.421 129.894 163.262C130.473 162.959 131.16 162.777 131.695 162.757C132.26 162.701 132.748 162.714 133.228 162.707L133.588 162.706C133.666 162.706 133.612 162.706 133.628 162.707L133.825 162.687L134.61 162.609C135.146 162.589 135.702 162.585 136.235 162.657C137.335 162.821 137.895 162.898 138.771 162.702C138.977 162.665 139.198 162.591 139.411 162.539L139.708 162.46C139.756 162.453 139.798 162.436 139.834 162.406C140.155 162.2 140.568 161.927 140.922 161.647C141.665 161.095 142.39 160.469 143.19 159.854C143.577 159.545 144.009 159.244 144.449 158.957L145.142 158.547L145.992 158.164C146.164 158.049 146.366 158.077 146.565 158.085L147.021 158.1C147.288 158.103 147.552 158.132 147.816 158.168C148.343 158.221 148.87 158.338 149.35 158.451C150.336 158.69 151.129 158.891 151.95 158.814L151.993 158.811H152.02C153.052 158.824 153.792 158.547 154.808 157.982C155.319 157.708 155.894 157.453 156.48 157.25L157.416 156.985C157.842 156.936 158.14 156.974 158.478 156.971C159.726 157.095 160.824 157.408 161.923 157.662C163 157.916 164.119 158.2 165.029 158.149L165.114 158.144L165.15 158.146C168.718 158.464 172.602 157.257 176.598 158.4C177.612 158.712 178.517 159.31 179.251 160.003C179.993 160.697 180.598 161.469 181.199 162.198C182.361 163.673 183.693 164.959 185.476 165.108L185.508 165.111L185.545 165.119C186.37 165.308 187.208 165.382 188.023 165.228C188.845 165.087 189.614 164.707 190.486 164.352C191.346 163.993 192.398 163.794 193.362 164.014C194.325 164.218 195.159 164.677 195.959 165.15L195.936 165.138C196.335 165.364 196.72 165.656 196.997 166.044C197.279 166.426 197.435 166.855 197.596 167.219C197.757 167.589 197.945 167.901 198.229 168.135C198.518 168.359 198.868 168.531 199.249 168.645C199.629 168.76 200.031 168.839 200.438 168.888C200.883 168.94 201.286 169.043 201.689 169.115C202.499 169.284 203.327 169.313 204.166 169.329C205.008 169.324 205.917 169.444 206.683 169.892C207.022 170.159 207.403 170.381 207.702 170.685L208.596 171.572C209.334 172.006 209.835 172.772 210.312 173.441C210.802 174.124 211.472 174.644 212.209 175.056L212.213 175.06C213.554 175.954 215.365 175.403 216.771 176.103C217.428 176.509 217.95 177.143 218.444 177.746C218.946 178.355 219.362 179.03 219.763 179.708C220.517 181.09 221.099 182.58 221.33 184.124C221.434 184.896 221.443 185.675 221.315 186.427C221.159 187.172 220.851 187.869 220.382 188.445C220.832 187.855 221.113 187.158 221.245 186.42C221.348 185.675 221.319 184.909 221.193 184.154C220.924 182.642 220.307 181.19 219.53 179.855C219.118 179.2 218.693 178.55 218.187 177.971C217.949 177.667 217.672 177.404 217.411 177.125C217.139 176.898 216.829 176.542 216.583 176.464C216.038 176.193 215.226 176.171 214.443 176.119C213.656 176.044 212.78 176.105 211.872 175.472L211.962 175.532C211.172 175.121 210.39 174.545 209.841 173.818C209.274 173.082 208.941 172.537 208.2 172.11C208.135 172.069 208.059 171.99 208.017 171.949L207.907 171.846L207.687 171.639L207.249 171.224C206.961 170.936 206.631 170.774 206.329 170.537C205.693 170.197 205.021 170.103 204.184 170.126C203.338 170.131 202.438 170.122 201.572 169.967C201.151 169.902 200.659 169.797 200.352 169.774C199.91 169.732 199.461 169.658 199.004 169.534C198.549 169.408 198.075 169.213 197.641 168.886C197.204 168.549 196.894 168.054 196.706 167.643C196.347 166.786 196.079 166.386 195.454 166.065L195.408 166.039C194.67 165.623 193.911 165.241 193.157 165.101C192.402 164.957 191.706 165.099 190.934 165.428C190.172 165.752 189.278 166.229 188.269 166.431C187.259 166.647 186.213 166.578 185.247 166.374L185.359 166.392C184.274 166.305 183.185 165.89 182.32 165.257C181.446 164.631 180.769 163.864 180.141 163.136C178.909 161.669 177.742 160.312 176.189 159.874C174.564 159.429 172.713 159.438 170.868 159.6C169.008 159.753 167.057 160.01 165.035 159.892L165.188 159.889C163.762 159.978 162.663 159.657 161.536 159.431C160.431 159.192 159.34 158.918 158.358 158.837L157.769 158.844L157.117 159.04C156.65 159.211 156.206 159.412 155.731 159.676C155.258 159.937 154.686 160.256 154.028 160.476C153.704 160.581 153.362 160.645 153.029 160.714L152.047 160.795L152.129 160.79C151.13 160.894 150.102 160.713 149.286 160.519C148.461 160.325 147.744 160.196 146.991 160.167C146.426 160.166 146.777 160.111 146.324 160.299C146.007 160.439 145.695 160.661 145.38 160.861C144.751 161.303 144.125 161.823 143.479 162.366C142.826 162.907 142.155 163.471 141.403 163.986L140.723 164.446L139.92 164.681C139.493 164.821 139.015 164.913 138.523 164.986C138.038 165.051 137.479 165.069 137.001 165.012C136.505 164.969 136.12 164.895 135.764 164.876C135.397 164.849 135.052 164.855 134.677 164.886L134.112 164.951L133.971 164.966C133.937 164.97 133.728 164.998 133.667 164.991L133.344 164.996C132.496 165.016 131.657 165.005 131.244 165.197C130.815 165.368 130.311 165.83 129.8 166.457C129.595 166.71 129.295 167.559 129.122 168.303C128.927 169.076 128.773 169.89 128.623 170.712L128.191 173.216C128.113 173.645 128.051 174.059 127.957 174.502L127.827 175.135C127.829 175.062 127.829 175.339 127.83 175.547C127.837 177.238 127.846 178.93 127.854 180.626C127.876 182.32 127.833 184.015 127.908 185.714C127.991 187.412 128.075 189.112 128.158 190.816C128.242 192.527 128.327 194.24 128.409 195.955C128.477 197.701 128.631 199.468 128.624 201.204L128.579 203.804C128.561 204.674 128.531 205.567 128.621 206.292C128.739 207.832 129.133 209.253 130.023 210.383C130.899 211.536 132.263 212.506 133.644 213.478L134.173 213.838L134.438 214.018L134.571 214.108C134.61 214.131 134.763 214.239 134.787 214.265L135.813 215.087L137.865 216.732C140.594 218.943 143.38 221.1 146.089 223.381C148.78 225.685 151.482 227.997 154.195 230.319C159.501 235.102 164.684 239.927 170.579 243.917C173.496 245.946 176.605 247.629 179.86 249.157C183.139 250.739 186.453 252.193 189.863 253.615C196.64 256.462 203.667 259.454 209.95 264.053L209.848 263.983C212.186 265.524 213.574 267.602 215.109 269.305C215.484 269.747 215.866 270.166 216.263 270.535C216.461 270.725 216.652 270.929 216.853 271.109L217.48 271.588C217.88 271.951 218.34 272.15 218.785 272.386L219.069 272.54C219.139 272.579 219.136 272.557 219.292 272.591C219.526 272.643 219.769 272.671 220.02 272.675C224.124 272.853 228.423 269.426 233.601 268.728C236.171 268.29 238.742 268.409 241.185 268.519C242.416 268.574 243.611 268.624 244.804 268.591C245.995 268.571 247.21 268.515 248.295 268.301C249.412 268.089 250.271 267.721 250.822 266.994C251.409 266.268 251.835 265.058 252.364 263.905C252.876 262.721 253.526 261.57 254.189 260.461C254.866 259.362 255.608 258.32 256.16 257.322C256.672 256.318 256.974 255.304 256.992 254.156C257.036 253.595 256.934 252.99 256.916 252.406C256.914 252.315 256.904 252.331 256.896 252.019L256.894 251.79L256.889 251.333L256.881 250.417C256.814 247.96 256.49 245.352 256.653 242.689L256.659 242.441L256.658 242.302L256.643 241.818L256.612 240.848L256.55 238.932C256.485 237.674 256.423 236.415 256.165 235.236C255.912 234.058 255.535 232.921 254.859 231.956L254.617 231.586L254.439 231.316C254.391 231.242 254.362 231.169 254.327 231.094L254.277 230.986C254.174 230.74 254.062 230.501 253.905 230.3C253.621 229.876 253.139 229.485 252.637 228.878C252.145 228.26 251.832 227.522 251.649 226.827L251.588 226.625C251.576 226.599 251.61 226.667 251.547 226.538C251.46 226.358 251.362 226.179 251.291 225.996C251.173 225.622 251.058 225.245 251.019 224.878C250.908 224.141 250.921 223.442 250.927 222.791C250.933 222.163 250.944 221.438 250.868 220.981C250.636 219.746 250.256 218.557 249.581 217.643C248.91 216.73 247.82 216.164 246.626 215.508C245.428 214.83 244.276 214.105 243.246 212.985C242.282 211.863 241.735 210.451 241.455 209.096C241.154 207.733 241.032 206.399 240.736 205.142C240.451 203.887 239.933 202.739 239.101 201.815L239.077 201.788L239.062 201.769C238.507 201.029 237.751 200.447 236.841 200.054C235.935 199.653 234.906 199.424 233.841 199.166C232.781 198.902 231.645 198.62 230.617 197.976C229.583 197.341 228.805 196.313 228.365 195.213L228.398 195.277C227.812 194.337 227.675 193.136 227.695 192.13C227.673 191.635 227.631 191.167 227.427 190.766C227.262 190.365 226.866 189.98 226.565 189.714C225.725 189.218 224.692 188.859 223.676 188.639C223.163 188.531 222.639 188.454 222.128 188.456C221.628 188.455 221.102 188.562 220.844 188.829Z" fill="#1F1713"/>
<path d="M220.844 188.829C220.859 188.844 220.924 188.665 221.372 188.524C221.811 188.381 222.6 188.355 223.618 188.532C224.128 188.621 224.699 188.757 225.314 188.967C225.62 189.075 225.94 189.193 226.26 189.347C226.419 189.415 226.59 189.514 226.731 189.59C226.86 189.696 226.984 189.836 227.123 189.967C227.683 190.489 227.977 191.283 227.979 192.207C227.998 193.119 228.114 194.177 228.707 195.09L228.703 195.08C229.081 195.882 229.603 196.689 230.397 197.277C231.182 197.874 232.17 198.221 233.213 198.471C234.258 198.728 235.381 198.898 236.517 199.273C237.647 199.639 238.804 200.284 239.625 201.348L239.615 201.337C240.153 201.921 240.621 202.594 240.968 203.35C241.301 204.111 241.53 204.926 241.708 205.759C242.066 207.422 242.234 209.192 242.984 210.791C243.674 212.437 245.239 213.501 246.917 214.431C247.758 214.896 248.685 215.305 249.543 215.965C250.4 216.629 251.059 217.583 251.462 218.595C251.677 219.099 251.835 219.624 251.967 220.151L252.158 220.977L252.213 221.825C252.255 222.921 252.19 224.007 252.401 224.974C252.474 225.204 252.525 225.444 252.635 225.654L252.814 225.999C252.868 226.091 252.909 226.217 252.934 226.303L252.993 226.485C253.141 226.98 253.331 227.442 253.63 227.825C253.902 228.227 254.321 228.552 254.756 229.033C254.98 229.251 255.156 229.543 255.348 229.811C255.433 229.952 255.495 230.103 255.569 230.25L255.675 230.473C255.716 230.553 255.7 230.531 255.719 230.552C256.397 231.485 257.091 232.637 257.418 233.841C257.826 235.043 257.972 236.293 258.11 237.537C258.208 238.778 258.264 240.026 258.323 241.266L258.371 242.2L258.374 243.206C258.373 243.822 258.372 244.44 258.371 245.063C258.464 246.33 258.559 247.611 258.655 248.906C258.724 249.555 258.738 250.235 258.753 250.916L258.778 251.942L258.781 252.07C258.784 252.087 258.777 251.981 258.783 252.063L258.805 252.325L258.849 252.852C259.04 254.228 258.874 255.789 258.367 257.215C257.833 258.67 256.965 259.8 256.278 260.966C255.555 262.125 254.925 263.303 254.372 264.561C253.782 265.796 253.436 267.227 252.272 268.631C251.68 269.319 250.853 269.812 250.066 270.085C249.269 270.386 248.484 270.529 247.71 270.638C246.167 270.842 244.658 270.875 243.124 270.87C240.071 270.829 237.098 270.564 234.234 271.058C232.803 271.326 231.35 271.69 229.974 272.231C228.568 272.773 227.134 273.449 225.599 274.043C224.063 274.629 222.4 275.178 220.533 275.236C220.071 275.245 219.595 275.231 219.123 275.161L218.309 275.022L217.611 274.673C217.204 274.451 216.75 274.271 216.383 274.002L215.291 273.178C212.576 270.857 210.845 267.818 208.444 266.268L208.383 266.228L208.344 266.199C198.749 259.169 186.144 255.956 174.274 249.577C168.326 246.289 162.889 242.032 157.742 237.418C156.439 236.271 155.175 235.102 153.904 233.929C152.626 232.764 151.291 231.667 149.98 230.525C147.329 228.277 144.723 225.939 141.98 223.711C139.232 221.49 136.462 219.251 133.672 216.995L133.15 216.573L133.028 216.474C133.015 216.462 133.017 216.466 133.025 216.471L132.964 216.428L132.68 216.233L131.542 215.45C130.786 214.883 130.018 214.342 129.286 213.649C128.907 213.34 128.562 212.953 128.225 212.556C128.056 212.358 127.878 212.173 127.722 211.961L127.295 211.283C127.157 211.053 127.005 210.831 126.885 210.593L126.586 209.85L126.297 209.103L126.134 208.343C125.864 207.329 125.87 206.307 125.804 205.311L125.87 202.571C125.966 200.728 125.851 198.93 125.775 197.116C125.627 193.415 125.477 189.689 125.326 185.942C125.253 184.06 125.325 182.167 125.318 180.272L125.337 177.424L125.346 175.997L125.351 175.283L125.352 175.1C125.358 175.002 125.339 174.926 125.368 174.807L125.464 174.363C125.846 172.593 126.123 170.686 126.546 168.779C126.777 167.81 126.971 166.869 127.467 165.797C127.59 165.563 127.727 165.178 127.994 164.94L128.512 164.362L129.126 163.789C129.369 163.608 129.62 163.421 129.894 163.262C130.473 162.959 131.16 162.777 131.695 162.757C132.26 162.701 132.748 162.714 133.228 162.707L133.588 162.706C133.666 162.706 133.612 162.706 133.628 162.707L133.825 162.687L134.61 162.609C135.146 162.589 135.702 162.585 136.235 162.657C137.335 162.821 137.895 162.898 138.771 162.702C138.977 162.665 139.198 162.591 139.411 162.539L139.708 162.46C139.756 162.453 139.798 162.436 139.834 162.406C140.155 162.2 140.568 161.927 140.922 161.647C141.665 161.095 142.39 160.469 143.19 159.854C143.577 159.545 144.009 159.244 144.449 158.957L145.142 158.547L145.992 158.164C146.164 158.049 146.366 158.077 146.565 158.085L147.021 158.1C147.288 158.103 147.552 158.132 147.816 158.168C148.343 158.221 148.87 158.338 149.35 158.451C150.336 158.69 151.129 158.891 151.95 158.814L151.993 158.811H152.02C153.052 158.824 153.792 158.547 154.808 157.982C155.319 157.708 155.894 157.453 156.48 157.25L157.416 156.985C157.842 156.936 158.14 156.974 158.478 156.971C159.726 157.095 160.824 157.408 161.923 157.662C163 157.916 164.119 158.2 165.029 158.149L165.114 158.144L165.15 158.146C168.718 158.464 172.602 157.257 176.598 158.4C177.612 158.712 178.517 159.31 179.251 160.003C179.993 160.697 180.598 161.469 181.199 162.198C182.361 163.673 183.693 164.959 185.476 165.108L185.508 165.111L185.545 165.119C186.37 165.308 187.208 165.382 188.023 165.228C188.845 165.087 189.614 164.707 190.486 164.352C191.346 163.993 192.398 163.794 193.362 164.014C194.325 164.218 195.159 164.677 195.959 165.15L195.936 165.138C196.335 165.364 196.72 165.656 196.997 166.044C197.279 166.426 197.435 166.855 197.596 167.219C197.757 167.589 197.945 167.901 198.229 168.135C198.518 168.359 198.868 168.531 199.249 168.645C199.629 168.76 200.031 168.839 200.438 168.888C200.883 168.94 201.286 169.043 201.689 169.115C202.499 169.284 203.327 169.313 204.166 169.329C205.008 169.324 205.917 169.444 206.683 169.892C207.022 170.159 207.403 170.381 207.702 170.685L208.596 171.572C209.334 172.006 209.835 172.772 210.312 173.441C210.802 174.124 211.472 174.644 212.209 175.056L212.213 175.06C213.554 175.954 215.365 175.403 216.771 176.103C217.428 176.509 217.95 177.143 218.444 177.746C218.946 178.355 219.362 179.03 219.763 179.708C220.517 181.09 221.099 182.58 221.33 184.124C221.434 184.896 221.443 185.675 221.315 186.427C221.159 187.172 220.851 187.869 220.382 188.445C220.832 187.855 221.113 187.158 221.245 186.42C221.348 185.675 221.319 184.909 221.193 184.154C220.924 182.642 220.307 181.19 219.53 179.855C219.118 179.2 218.693 178.55 218.187 177.971C217.949 177.667 217.672 177.404 217.411 177.125C217.139 176.898 216.829 176.542 216.583 176.464C216.038 176.193 215.226 176.171 214.443 176.119C213.656 176.044 212.78 176.105 211.872 175.472L211.962 175.532C211.172 175.121 210.39 174.545 209.841 173.818C209.274 173.082 208.941 172.537 208.2 172.11C208.135 172.069 208.059 171.99 208.017 171.949L207.907 171.846L207.687 171.639L207.249 171.224C206.961 170.936 206.631 170.774 206.329 170.537C205.693 170.197 205.021 170.103 204.184 170.126C203.338 170.131 202.438 170.122 201.572 169.967C201.151 169.902 200.659 169.797 200.352 169.774C199.91 169.732 199.461 169.658 199.004 169.534C198.549 169.408 198.075 169.213 197.641 168.886C197.204 168.549 196.894 168.054 196.706 167.643C196.347 166.786 196.079 166.386 195.454 166.065L195.408 166.039C194.67 165.623 193.911 165.241 193.157 165.101C192.402 164.957 191.706 165.099 190.934 165.428C190.172 165.752 189.278 166.229 188.269 166.431C187.259 166.647 186.213 166.578 185.247 166.374L185.359 166.392C184.274 166.305 183.185 165.89 182.32 165.257C181.446 164.631 180.769 163.864 180.141 163.136C178.909 161.669 177.742 160.312 176.189 159.874C174.564 159.429 172.713 159.438 170.868 159.6C169.008 159.753 167.057 160.01 165.035 159.892L165.188 159.889C163.762 159.978 162.663 159.657 161.536 159.431C160.431 159.192 159.34 158.918 158.358 158.837L157.769 158.844L157.117 159.04C156.65 159.211 156.206 159.412 155.731 159.676C155.258 159.937 154.686 160.256 154.028 160.476C153.704 160.581 153.362 160.645 153.029 160.714L152.047 160.795L152.129 160.79C151.13 160.894 150.102 160.713 149.286 160.519C148.461 160.325 147.744 160.196 146.991 160.167C146.426 160.166 146.777 160.111 146.324 160.299C146.007 160.439 145.695 160.661 145.38 160.861C144.751 161.303 144.125 161.823 143.479 162.366C142.826 162.907 142.155 163.471 141.403 163.986L140.723 164.446L139.92 164.681C139.493 164.821 139.015 164.913 138.523 164.986C138.038 165.051 137.479 165.069 137.001 165.012C136.505 164.969 136.12 164.895 135.764 164.876C135.397 164.849 135.052 164.855 134.677 164.886L134.112 164.951L133.971 164.966C133.937 164.97 133.728 164.998 133.667 164.991L133.344 164.996C132.496 165.016 131.657 165.005 131.244 165.197C130.815 165.368 130.311 165.83 129.8 166.457C129.595 166.71 129.295 167.559 129.122 168.303C128.927 169.076 128.773 169.89 128.623 170.712L128.191 173.216C128.113 173.645 128.051 174.059 127.957 174.502L127.827 175.135C127.829 175.062 127.829 175.339 127.83 175.547C127.837 177.238 127.846 178.93 127.854 180.626C127.876 182.32 127.833 184.015 127.908 185.714C127.991 187.412 128.075 189.112 128.158 190.816C128.242 192.527 128.327 194.24 128.409 195.955C128.477 197.701 128.631 199.468 128.624 201.204L128.579 203.804C128.561 204.674 128.531 205.567 128.621 206.292C128.739 207.832 129.133 209.253 130.023 210.383C130.899 211.536 132.263 212.506 133.644 213.478L134.173 213.838L134.438 214.018L134.571 214.108C134.61 214.131 134.763 214.239 134.787 214.265L135.813 215.087L137.865 216.732C140.594 218.943 143.38 221.1 146.089 223.381C148.78 225.685 151.482 227.997 154.195 230.319C159.501 235.102 164.684 239.927 170.579 243.917C173.496 245.946 176.605 247.629 179.86 249.157C183.139 250.739 186.453 252.193 189.863 253.615C196.64 256.462 203.667 259.454 209.95 264.053L209.848 263.983C212.186 265.524 213.574 267.602 215.109 269.305C215.484 269.747 215.866 270.166 216.263 270.535C216.461 270.725 216.652 270.929 216.853 271.109L217.48 271.588C217.88 271.951 218.34 272.15 218.785 272.386L219.069 272.54C219.139 272.579 219.136 272.557 219.292 272.591C219.526 272.643 219.769 272.671 220.02 272.675C224.124 272.853 228.423 269.426 233.601 268.728C236.171 268.29 238.742 268.409 241.185 268.519C242.416 268.574 243.611 268.624 244.804 268.591C245.995 268.571 247.21 268.515 248.295 268.301C249.412 268.089 250.271 267.721 250.822 266.994C251.409 266.268 251.835 265.058 252.364 263.905C252.876 262.721 253.526 261.57 254.189 260.461C254.866 259.362 255.608 258.32 256.16 257.322C256.672 256.318 256.974 255.304 256.992 254.156C257.036 253.595 256.934 252.99 256.916 252.406C256.914 252.315 256.904 252.33 256.896 252.019L256.894 251.79L256.889 251.333L256.881 250.417C256.814 247.96 256.49 245.352 256.653 242.689L256.659 242.441L256.658 242.302L256.643 241.818L256.612 240.848L256.55 238.932C256.485 237.674 256.423 236.415 256.165 235.236C255.912 234.058 255.535 232.921 254.859 231.956L254.617 231.586L254.439 231.316C254.391 231.242 254.362 231.169 254.327 231.094L254.277 230.986C254.174 230.74 254.062 230.501 253.905 230.3C253.621 229.876 253.139 229.485 252.637 228.878C252.145 228.26 251.832 227.522 251.649 226.827L251.588 226.625C251.576 226.599 251.61 226.667 251.547 226.538C251.46 226.358 251.362 226.179 251.291 225.996C251.173 225.622 251.058 225.245 251.019 224.878C250.908 224.141 250.921 223.442 250.927 222.791C250.933 222.163 250.944 221.438 250.868 220.981C250.636 219.746 250.256 218.557 249.581 217.643C248.91 216.73 247.82 216.164 246.626 215.508C245.428 214.83 244.276 214.105 243.246 212.985C242.282 211.863 241.735 210.451 241.455 209.096C241.154 207.733 241.032 206.399 240.736 205.142C240.451 203.887 239.933 202.739 239.101 201.815L239.077 201.788L239.062 201.769C238.507 201.029 237.751 200.447 236.841 200.054C235.935 199.653 234.906 199.424 233.841 199.166C232.781 198.902 231.645 198.62 230.617 197.976C229.583 197.341 228.805 196.313 228.365 195.213L228.398 195.277C227.812 194.337 227.675 193.136 227.695 192.13C227.673 191.635 227.631 191.167 227.427 190.766C227.262 190.365 226.866 189.98 226.565 189.714C225.725 189.218 224.692 188.859 223.676 188.639C223.163 188.531 222.639 188.454 222.128 188.456C221.628 188.455 221.102 188.562 220.844 188.829Z" fill="#1F1713"/>
<path d="M127.785 186.233C122.08 170.299 114.432 147.914 101.879 135.532C98.9961 133.142 88.3642 127.22 84.5347 128.899C78.6963 131.824 83.1121 142.298 84.601 146.938C88.6437 159.045 95.4983 170.09 101.543 180.948C108.022 193.624 111.864 206.539 124.375 215.474" fill="white"/>
<path d="M128.07 186.131C128.07 186.131 126.116 181.355 122.641 172.857C120.861 168.626 118.64 163.483 115.722 157.741C114.267 154.869 112.62 151.855 110.699 148.792C108.8 145.717 106.616 142.588 104.011 139.617C103.391 138.847 102.684 138.145 101.984 137.425L101.458 136.882C101.301 136.727 101.055 136.454 101.003 136.427C100.636 136.14 100.228 135.859 99.8112 135.579C98.1138 134.477 96.2589 133.455 94.3388 132.532C92.4164 131.622 90.3909 130.8 88.3536 130.307C87.3586 130.089 86.2973 129.938 85.5333 130.08C85.3876 130.153 85.2455 130.138 85.0832 130.228C84.9197 130.348 84.7551 130.459 84.5833 130.563C84.3974 130.652 84.3014 130.855 84.1474 130.985C84.0787 131.06 83.9994 131.126 83.9342 131.205L83.7802 131.481C83.3254 132.181 83.1027 133.137 83.0731 134.179C83.0091 135.209 83.1335 136.322 83.3301 137.44C83.7258 139.686 84.4495 141.971 85.2443 144.307C86.0343 146.711 86.867 149 87.7542 151.357C88.2375 152.518 88.7231 153.688 89.2111 154.864C89.7145 156.035 90.2772 157.191 90.8102 158.366C93.0145 163.041 95.5103 167.725 98.1031 172.487C99.399 174.88 100.707 177.294 102.024 179.727C103.305 182.208 104.434 184.784 105.562 187.344C107.821 192.474 109.997 197.704 112.916 202.618C115.778 207.56 119.561 212.069 124.202 215.719C118.537 211.907 113.984 206.612 110.506 200.792C106.986 194.978 104.303 188.748 101.224 182.804C98.0226 176.947 94.3885 171.133 91.1205 165.021C90.3222 163.478 89.5001 161.943 88.7172 160.377C87.9721 158.79 87.1667 157.227 86.469 155.599C85.0346 152.393 83.753 148.955 82.6313 145.626C81.4977 142.248 80.2386 138.736 80.1533 134.72C80.1746 134.21 80.1936 133.699 80.2469 133.182C80.3618 132.654 80.3902 132.132 80.594 131.602C80.7752 131.071 80.954 130.542 81.2928 130.047C81.5593 129.524 81.9774 129.095 82.4027 128.673C82.8101 128.238 83.374 127.974 83.8703 127.644C84.4743 127.402 85.1851 127.214 85.7252 127.217C86.8955 127.133 87.8975 127.339 88.8889 127.55C92.7587 128.555 96.157 130.307 99.502 132.311C100.335 132.82 101.154 133.361 101.97 133.959L102.586 134.441C102.91 134.693 103.012 134.872 103.193 135.047L104.196 136.132L105.195 137.225L106.126 138.375C106.744 139.145 107.386 139.904 107.944 140.722C110.31 143.908 112.362 147.352 114.245 150.927C116.125 154.504 117.86 158.212 119.435 162.044C122.616 169.698 125.323 177.777 128.07 186.131Z" fill="#1F1713"/>
<path d="M169.531 224.323C178.243 223.789 181.398 217.657 190.543 218.941C196.243 220.273 201.129 221.417 204.629 224.815C214.066 232.171 223.232 248.047 215.487 259.106C209.13 267.924 190.833 265.361 182.448 260.824C176.322 257.676 169.324 250.885 168.21 244.617C167.107 238.348 167.812 231.651 166.71 225.377L169.531 224.323Z" fill="white"/>
<path d="M169.55 224.624C169.55 224.624 169.775 224.589 170.214 224.522C170.653 224.463 171.302 224.362 172.136 224.143C172.972 223.947 173.982 223.604 175.135 223.133C176.282 222.639 177.558 221.986 178.982 221.217C180.41 220.461 182.012 219.595 183.935 218.993C185.849 218.382 188.092 218.114 190.45 218.363C192.821 218.799 195.164 219.283 197.745 220.052C200.277 220.831 203.01 221.995 205.317 224.105L205.237 224.035C208.242 226.312 211.048 229.187 213.509 232.587C215.975 235.976 218.042 239.981 219.16 244.548C219.647 246.838 219.988 249.273 219.664 251.768C219.394 254.24 218.67 256.789 217.238 258.996L216.735 259.843C216.552 260.12 216.302 260.367 216.087 260.631C215.628 261.139 215.213 261.705 214.655 262.097C214.112 262.502 213.621 263.01 213.022 263.321C212.434 263.649 211.856 264.021 211.247 264.307C208.797 265.469 206.148 265.98 203.505 266.23C200.853 266.467 198.17 266.384 195.507 266.023C192.842 265.673 190.182 265.097 187.564 264.254C182.278 262.624 177.385 259.408 173.51 255.28C171.571 253.204 169.832 250.863 168.66 248.176C168.071 246.857 167.654 245.355 167.57 243.928C167.46 242.497 167.321 241.065 167.243 239.633C167.232 236.782 167.22 233.911 167.21 231.024C167.23 229.581 167.038 228.15 166.965 226.696L166.901 225.704C166.902 225.629 166.876 225.539 166.901 225.48L167.138 225.405L167.6 225.26L169.638 224.607L167.988 225.276L167.356 225.539L167.207 225.601L167.134 225.631C167.126 225.652 167.139 225.683 167.14 225.71L167.19 226.03L167.671 229.408C167.934 231.772 168.021 234.158 168.2 236.498C168.284 237.669 168.34 238.846 168.446 240.01L168.919 243.456C169.023 244.644 169.351 245.638 169.753 246.684C170.211 247.697 170.724 248.697 171.373 249.628C172.621 251.518 174.195 253.215 175.889 254.766C177.588 256.317 179.455 257.7 181.436 258.858C185.382 261.204 189.952 262.475 194.617 263.161C199.265 263.791 204.161 263.774 208.549 262.284C210.728 261.546 212.687 260.284 214.032 258.571C215.365 256.764 216.338 254.581 216.748 252.266C217.451 247.579 216.192 242.524 213.816 237.973C212.661 235.67 211.21 233.472 209.549 231.41C207.894 229.347 206.034 227.396 203.942 225.695L203.881 225.646L203.851 225.616C201.923 223.707 199.338 222.428 196.541 221.49C195.138 221.022 193.686 220.617 192.205 220.23L191.089 219.942L190.53 219.798C190.413 219.768 190.412 219.764 190.325 219.754L190.052 219.722L188.946 219.592C188.577 219.567 188.207 219.571 187.835 219.558C186.352 219.553 184.864 219.768 183.402 220.212C181.939 220.649 180.508 221.299 179.045 221.968C177.585 222.635 176.076 223.306 174.481 223.784C172.892 224.266 171.228 224.547 169.55 224.624Z" fill="#1F1713"/>
<path d="M137.937 227.234C123.316 212.654 111.854 191.941 112.541 170.645C112.823 162.127 113.962 157.24 123.109 158.523C141.491 161.099 155.018 187.346 158.655 203.465C160.642 212.282 166.96 219.296 169.328 227.945C170.893 233.649 171.263 246.993 161.511 243.905C153.752 240.373 137.937 227.234 137.937 227.234Z" fill="white"/>
<path d="M138.148 227.021C138.148 227.021 137.857 226.741 137.292 226.195C136.738 225.638 135.864 224.856 134.811 223.745C132.674 221.554 129.631 218.208 126.212 213.523C124.483 211.195 122.752 208.474 120.967 205.435C119.277 202.347 117.491 198.948 116.026 195.102C114.545 191.267 113.242 187.049 112.382 182.457C111.516 177.869 111.233 172.894 111.51 167.731C111.614 166.426 111.714 165.1 112.038 163.726C112.359 162.368 112.852 160.916 113.889 159.654C114.911 158.375 116.5 157.556 118.015 157.261C119.542 156.948 121.055 156.946 122.5 157.113C128.4 157.637 133.953 160.686 138.522 164.683C143.113 168.73 146.971 173.722 150.232 179.192C153.495 184.669 156.219 190.634 158.265 196.995C158.78 198.584 159.227 200.209 159.632 201.854L159.918 203.096L160.239 204.252C160.468 205.017 160.636 205.797 160.911 206.557C161.985 209.606 163.517 212.575 165.081 215.602C166.673 218.615 168.268 221.757 169.458 225.123L170.266 227.689C170.492 228.582 170.653 229.474 170.775 230.372C171.016 232.166 171.089 233.978 170.974 235.803C170.852 237.621 170.541 239.476 169.74 241.226C169.335 242.092 168.783 242.933 168.025 243.604C167.274 244.281 166.294 244.717 165.312 244.867C164.326 245.018 163.341 244.938 162.425 244.711C162.19 244.669 161.971 244.584 161.744 244.523C161.542 244.472 161.222 244.373 161.042 244.242L159.851 243.57C158.229 242.72 156.747 241.679 155.242 240.663C149.287 236.52 143.669 231.832 138.127 227.003C141.458 229.638 144.848 232.183 148.276 234.652C151.691 237.14 155.209 239.471 158.804 241.597L161.56 243.013C161.808 243.158 161.882 243.158 162.17 243.231C162.407 243.295 162.644 243.355 162.882 243.385C163.354 243.472 163.828 243.513 164.283 243.49C166.142 243.479 167.557 242.251 168.24 240.457C168.961 238.693 169.154 236.632 169.13 234.607C169.093 232.576 168.839 230.508 168.333 228.564C167.223 224.63 165.248 220.914 163.183 217.168C161.132 213.417 158.968 209.528 157.734 205.145C157.58 204.607 157.399 204.041 157.27 203.524L156.88 201.979C156.606 200.95 156.304 199.926 155.985 198.903C155.341 196.859 154.602 194.833 153.789 192.829C152.161 188.82 150.241 184.887 147.999 181.111C145.77 177.328 143.193 173.71 140.227 170.411C137.254 167.133 133.824 164.189 129.881 162.17C127.912 161.166 125.816 160.413 123.642 160.015C121.489 159.637 119.142 159.449 117.406 160.185C115.679 160.865 114.752 162.727 114.328 164.959C113.91 167.166 113.765 169.607 113.752 171.994C113.556 181.587 115.86 191.479 120.134 200.812C124.402 210.165 130.506 219.059 138.148 227.021Z" fill="#1F1713"/>
</g>
<defs>
<clipPath id="clip0_52_2948">
<rect width="443" height="695" fill="white"/>
</clipPath>
</defs>
</svg>
