<svg width="443" height="695" viewBox="0 0 443 695" fill="none" xmlns="http://www.w3.org/2000/svg">
<g clip-path="url(#clip0_52_3221)">
<path d="M-104.977 680.133C-43.8583 580.378 26.8669 488.207 95.6895 393.605C125.149 353.11 158.733 314.813 191.142 276.599C208.709 255.883 167.767 277.706 185.352 257.114L184.396 251.753C113.105 344.514 62.259 412.391 -28.8043 537.924" fill="white"/>
<path d="M-104.719 680.3C-104.719 680.3 -97.1884 668.124 -83.3257 645.71C-79.8494 640.112 -75.7618 634.015 -71.3898 627.244C-66.983 620.495 -62.1851 613.148 -57.0139 605.23C-46.3574 589.608 -34.3791 571.577 -20.4454 551.936C-16.99 547.007 -13.4465 541.952 -9.81889 536.775C-6.1848 531.603 -2.38494 526.368 1.4562 520.987C9.16649 510.244 17.1705 499.001 25.6269 487.424C42.5146 464.254 60.671 439.344 79.928 412.921C98.9089 386.335 120.081 358.85 143.144 331.003C154.794 317.172 166.679 303.016 178.922 288.714C181.976 285.13 185.045 281.531 188.128 277.914C189.668 276.088 191.25 274.337 192.529 272.475C193.169 271.553 193.743 270.579 194.051 269.695C194.198 269.267 194.226 268.869 194.175 268.767C194.155 268.682 194.133 268.624 193.791 268.461C193.096 268.179 191.917 268.114 190.798 268.126C189.653 268.136 188.46 268.213 187.241 268.265C186.012 268.31 184.766 268.364 183.392 268.205C182.705 268.111 181.965 267.981 181.15 267.551C180.744 267.314 180.314 266.999 179.991 266.515C179.681 266.045 179.492 265.475 179.472 264.988C179.405 263.989 179.67 263.249 179.929 262.587C180.205 261.93 180.519 261.328 180.863 260.774C181.544 259.654 182.3 258.644 183.081 257.664L183.865 256.706L183.864 256.69L183.828 256.482L183.669 255.583L183.59 255.108C150.726 298.247 116.265 343.483 80.7137 390.15C45.1411 438.168 8.39464 487.601 -29.043 537.749C5.77599 489.886 40.2389 442.514 75.0103 394.717C83.6334 382.715 92.6229 370.945 101.561 359.073C110.511 347.21 119.493 335.307 128.514 323.35C147.218 298.605 166.091 273.635 185.222 248.324L186.459 255.238L186.627 256.176L186.791 257.093C186.798 257.241 186.89 257.413 186.83 257.544L186.529 257.904L185.67 258.932L185.093 259.654C184.34 260.621 183.62 261.614 183.055 262.614C182.775 263.112 182.541 263.616 182.404 264.065C182.262 264.514 182.28 264.874 182.327 264.899C182.314 264.932 182.494 265.108 182.949 265.233C183.38 265.355 183.937 265.421 184.51 265.448C185.671 265.501 186.923 265.431 188.195 265.369C189.475 265.307 190.78 265.228 192.177 265.3C192.879 265.341 193.608 265.413 194.411 265.651C194.816 265.784 195.239 265.939 195.677 266.251C196.103 266.549 196.545 267 196.778 267.563C197.253 268.703 197.027 269.692 196.815 270.441C196.576 271.208 196.251 271.858 195.912 272.479C195.218 273.7 194.43 274.782 193.618 275.831C191.955 277.923 190.287 279.792 188.622 281.778C185.288 285.697 181.944 289.628 178.593 293.567C171.877 301.439 165.148 309.367 158.427 317.371C155.058 321.367 151.68 325.375 148.291 329.394C146.598 331.405 144.904 333.42 143.205 335.436C141.544 337.481 139.88 339.53 138.213 341.581C134.879 345.684 131.536 349.799 128.182 353.927C126.504 355.991 124.824 358.058 123.142 360.127C121.473 362.208 119.735 364.241 118.148 366.394C111.666 374.908 105.144 383.476 98.5757 392.103C85.7022 409.594 72.6532 427.322 59.4055 445.321C46.1515 463.314 32.699 481.576 19.0237 500.138C12.2429 509.458 5.407 518.853 -1.48742 528.33C-3.21176 530.698 -4.93957 533.073 -6.67026 535.451C-8.37862 537.847 -10.0899 540.246 -11.8047 542.653C-15.2351 547.463 -18.6796 552.294 -22.1408 557.147C-49.7375 596.021 -77.6167 636.738 -104.719 680.3Z" fill="#1F1713"/>
<path d="M216.566 303.696C210.481 308.662 193.169 302.963 186.54 300.942C177.013 297.739 170.78 289.781 164.069 282.986C149.49 268.922 136.782 253.592 141.004 231.617C148.9 235.51 154.401 248.582 160.768 254.558C167.131 260.541 175.135 265.83 181.494 271.804C193.883 282.947 209.196 291.893 220.525 303.953C219.709 304.295 219.469 304.881 218.31 304.407L216.566 303.696Z" fill="white"/>
<path d="M216.373 303.462C216.359 303.443 216.094 303.744 215.422 304.136C214.759 304.536 213.669 305.008 212.142 305.306C209.084 305.908 204.386 305.707 198.576 304.544C195.665 303.975 192.468 303.175 189.009 302.202C185.538 301.404 181.752 299.786 178.256 297.421C174.719 295.058 171.411 291.944 168.103 288.579C166.446 286.889 164.77 285.174 163.016 283.446C161.213 281.743 159.378 279.963 157.543 278.086C153.888 274.328 150.228 270.174 147.018 265.37C145.381 262.992 143.976 260.382 142.665 257.668C141.494 254.889 140.365 252.003 139.754 248.918C139.008 245.863 138.793 242.658 138.744 239.428C138.789 238.621 138.833 237.811 138.879 237C138.922 236.186 138.956 235.369 139.104 234.564C139.301 233.322 139.498 232.076 139.697 230.825L139.885 229.665L139.933 229.374C139.924 229.292 139.992 229.37 140.029 229.381L140.156 229.454L140.666 229.747L142.71 230.919L143.683 231.553C143.88 231.68 143.905 231.707 144.01 231.782L144.275 231.975C144.637 232.225 144.969 232.5 145.285 232.791L146.252 233.651L147.147 234.564C148.334 235.792 149.398 237.105 150.42 238.445C152.45 241.131 154.282 243.946 156.179 246.701C158.112 249.442 159.98 252.163 162.503 254.328C163.774 255.456 165.052 256.591 166.337 257.731C167.657 258.842 169.025 259.928 170.375 261.037C171.737 262.149 173.105 263.265 174.479 264.385C175.853 265.514 177.253 266.616 178.577 267.847C181.241 270.22 183.928 272.613 186.634 275.022C192.138 279.69 198.005 284.137 203.807 288.813C209.599 293.489 215.361 298.404 220.403 304.065C220.422 303.977 220.441 303.89 220.46 303.798C220.114 303.931 219.797 304.155 219.521 304.274C219.234 304.404 218.925 304.376 218.627 304.266C218.008 304.025 217.33 303.697 216.681 303.415C217.337 303.66 218.04 303.958 218.652 304.158C218.94 304.249 219.206 304.253 219.454 304.126C219.683 304.012 220.01 303.76 220.377 303.599C220.333 303.807 220.289 304.009 220.246 304.213C214.173 298.018 207.252 292.823 200.277 287.707C193.289 282.618 186.207 277.485 179.601 271.677C173.141 265.913 165.767 261.13 159.111 254.818C155.843 251.437 153.443 247.585 150.85 243.922C148.28 240.279 145.631 236.565 142.207 234.062C142.061 233.953 142.151 234.02 142.125 234L142.125 233.999C142.217 233.503 141.905 235.23 141.834 236.221C141.769 237.339 141.704 238.461 141.64 239.586C141.678 240.709 141.715 241.835 141.753 242.965C142.085 247.471 143.226 251.95 145.08 256.207C148.791 264.769 155.131 272.278 162.112 279.383C162.999 280.271 163.89 281.162 164.783 282.055C165.663 282.983 166.544 283.913 167.43 284.847C169.164 286.718 170.906 288.59 172.703 290.407C176.295 294.016 180.291 297.376 185.04 299.419L186.821 300.183L188.722 300.797C189.997 301.198 191.277 301.601 192.563 302.004C195.137 302.782 197.75 303.501 200.412 304.082C203.072 304.655 205.787 305.114 208.534 305.217C209.906 305.262 211.286 305.215 212.635 304.977C213.98 304.749 215.293 304.275 216.373 303.462Z" fill="#1F1713"/>
<path d="M246.545 272.06C265.917 273.622 284.221 281.077 303.593 282.651C324.508 284.34 345.582 284.306 366.616 284.665C375.465 284.822 413.076 282.9 400.336 302.242C389.094 318.659 362.623 312.01 347.229 310.541C314.339 307.409 283.205 299.9 254.091 284.617C248.544 281.705 243.794 279.211 239.045 276.721" fill="white"/>
<path d="M246.522 272.361C246.522 272.361 248.998 272.592 253.681 273.029C256.002 273.402 258.893 273.776 262.268 274.408C263.953 274.738 265.767 275.093 267.704 275.473C269.634 275.89 271.686 276.333 273.859 276.803C278.201 277.753 283.012 278.826 288.289 279.841C290.928 280.344 293.697 280.737 296.562 281.206C298.004 281.354 299.472 281.505 300.968 281.659C302.461 281.82 303.979 281.986 305.547 282.029C318.029 282.75 332.202 283.14 347.816 283.2C351.721 283.231 355.714 283.263 359.791 283.296C361.83 283.313 363.89 283.329 365.971 283.347C368.023 283.374 370.121 283.33 372.255 283.332C376.517 283.326 380.885 283.424 385.336 283.875C387.561 284.104 389.809 284.419 392.066 284.916C394.32 285.423 396.6 286.087 398.798 287.232C399.906 287.77 400.955 288.549 401.93 289.442C402.863 290.411 403.662 291.601 404.076 292.977C404.172 293.317 404.216 293.669 404.282 294.017L404.366 294.541L404.366 295.06L404.348 296.099L404.175 297.092C403.927 298.413 403.43 299.613 402.869 300.746C400.595 305.244 396.704 308.89 392.108 311.085C387.509 313.304 382.42 314.185 377.387 314.44C372.334 314.687 367.266 314.317 362.214 313.746C357.16 313.181 352.107 312.346 347.047 311.806C344.478 311.498 341.897 311.187 339.305 310.876C338.008 310.719 336.709 310.562 335.406 310.405C334.106 310.242 332.81 310.001 331.507 309.803C328.905 309.384 326.293 308.964 323.668 308.541C321.048 308.087 318.443 307.491 315.816 306.97C310.543 305.998 305.341 304.507 300.068 303.191C297.442 302.488 294.856 301.606 292.236 300.816C290.93 300.409 289.621 300.002 288.31 299.594C286.995 299.205 285.726 298.664 284.428 298.204C281.848 297.245 279.261 296.283 276.666 295.318C274.105 294.268 271.578 293.114 269.025 292.01L265.2 290.331C263.947 289.721 262.711 289.07 261.464 288.44C258.978 287.167 256.485 285.892 253.987 284.614C249.075 281.906 244.14 279.185 239.186 276.453C242.099 277.936 245.009 279.416 247.915 280.894C250.832 282.347 253.698 283.913 256.65 285.259L265.444 289.421L274.452 293.073C286.557 297.688 299.029 301.289 311.775 304.009C314.977 304.611 318.185 305.213 321.4 305.818C323.001 306.149 324.627 306.355 326.248 306.596L331.119 307.305C332.746 307.528 334.366 307.813 336.004 307.986C337.642 308.163 339.281 308.339 340.924 308.515C344.223 308.871 347.531 309.228 350.85 309.586C357.504 310.387 364.105 311.386 370.765 311.626C377.375 311.857 384.198 311.452 390.178 308.793C393.144 307.468 395.809 305.538 397.889 303.047C398.909 301.809 399.836 300.441 400.486 298.991C401.155 297.563 401.607 296.049 401.463 294.679C401.335 293.313 400.621 292.111 399.485 291.132C398.354 290.15 396.881 289.411 395.33 288.826C392.197 287.669 388.734 287.081 385.25 286.687C381.756 286.292 378.191 286.135 374.597 286.067C372.792 286.052 370.982 286.039 369.168 286.024C367.336 286.028 365.477 285.981 363.659 285.949C356.324 285.793 348.895 285.637 341.365 285.478C326.296 284.985 310.806 284.733 294.878 282.402C279.031 279.747 263.456 274.074 246.522 272.361Z" fill="#1F1713"/>
<path d="M229.945 280.886C265.155 285.306 299.422 292.039 331.947 305.29C342.012 309.398 352.075 313.495 360.103 320.372C365.665 324.447 383.27 338.844 379.797 347.355C374.299 358.654 327.408 334.136 319.663 330.984C294.889 320.886 244.67 297.951 236.466 293.708" fill="white"/>
<path d="M229.909 281.186C229.909 281.186 233.34 281.57 239.758 282.285C246.173 283.038 255.566 284.259 267.437 286.299C279.282 288.447 293.632 291.383 309.686 296.245C311.683 296.883 313.711 297.532 315.77 298.19C317.824 298.864 319.937 299.471 322.011 300.287C326.173 301.861 330.515 303.371 334.857 305.132C339.204 306.891 343.674 308.74 348.12 310.983C352.558 313.226 356.987 315.886 361.016 319.305L360.932 319.239C363.732 321.295 366.427 323.509 369.057 325.899C371.678 328.294 374.233 330.853 376.546 333.745C377.696 335.195 378.786 336.731 379.724 338.419C380.624 340.121 381.453 341.974 381.648 344.135C381.757 345.209 381.674 346.331 381.285 347.468C380.907 348.652 380.009 349.697 379.02 350.326C376.973 351.598 374.815 351.737 372.824 351.752C368.812 351.667 365.034 350.746 361.29 349.704C357.554 348.631 353.876 347.328 350.216 345.917C342.898 343.081 335.647 339.787 328.364 336.327C324.712 334.601 321.096 332.798 317.387 331.207C313.656 329.535 309.9 327.852 306.12 326.159C298.572 322.754 290.928 319.306 283.205 315.821C279.35 314.068 275.475 312.306 271.584 310.537C267.737 308.667 263.874 306.789 259.995 304.903C252.256 301.111 244.455 297.289 236.604 293.444C243.712 296.638 250.794 299.819 257.866 302.997C264.944 306.156 271.946 309.441 279.118 312.389C293.39 318.47 307.691 324.564 322.158 330.728C329.338 334.007 336.458 337.355 343.795 340.396C351.116 343.403 358.613 346.326 366.363 348.046C368.296 348.451 370.247 348.766 372.16 348.851C374.044 348.927 376.011 348.766 377.304 347.976C377.95 347.58 378.384 347.096 378.568 346.431C378.787 345.73 378.834 344.88 378.716 344.032C378.46 342.306 377.628 340.535 376.619 338.865C374.538 335.518 371.75 332.47 368.795 329.597C365.82 326.736 362.617 324.01 359.265 321.516L359.215 321.48L359.181 321.45C351.397 314.738 341.457 310.618 331.408 306.463C321.297 302.483 310.891 298.59 299.947 295.529C278.164 289.044 254.726 284.714 229.909 281.186Z" fill="#1F1713"/>
<path d="M228.589 245.103C238.824 223.23 266.365 184.998 284.045 168.512C298.647 154.901 328.303 130.987 347.994 147.695C366.719 162.903 328.872 195.007 315.627 203.581C295.409 217.196 259.414 235.659 236.829 244.477" fill="white"/>
<path d="M228.862 245.236C228.862 245.236 229.918 243.071 231.915 238.976C232.433 237.961 232.937 236.785 233.635 235.565C234.326 234.341 235.08 233.003 235.896 231.554C236.715 230.106 237.596 228.548 238.536 226.882C239.485 225.222 240.604 223.522 241.73 221.686C242.87 219.858 244.073 217.931 245.336 215.906C246.634 213.904 248.056 211.847 249.511 209.677C250.994 207.528 252.447 205.221 254.131 202.95C255.794 200.662 257.52 198.286 259.305 195.829C261.051 193.341 263.065 190.927 265.042 188.36C266.043 187.086 267.059 185.791 268.09 184.478C269.116 183.162 270.262 181.91 271.367 180.594C272.487 179.29 273.622 177.968 274.772 176.629C275.356 175.966 275.909 175.269 276.529 174.623C277.154 173.978 277.782 173.33 278.413 172.676C280.952 170.075 283.49 167.333 286.342 164.818C291.976 159.71 298.162 154.638 305.187 150.161C308.712 147.949 312.427 145.845 316.453 144.165C318.45 143.293 320.55 142.589 322.69 141.955C324.849 141.369 327.076 140.923 329.363 140.684C331.657 140.488 334 140.51 336.346 140.832C338.688 141.186 341 141.888 343.19 142.889C345.403 143.886 347.374 145.298 349.231 146.858C351.14 148.409 352.748 150.582 353.647 153.021C354.559 155.474 354.687 158.153 354.31 160.657C353.928 163.172 353.125 165.577 352.055 167.818C349.94 172.323 347.049 176.375 343.87 180.183C337.461 187.775 329.943 194.551 321.728 200.693C313.365 206.72 304.396 211.88 295.183 216.984C276.718 227.038 257.212 236.466 236.719 244.202C248.426 239.402 259.727 233.847 270.912 228.104C282.087 222.338 293.122 216.278 303.888 209.655C306.616 208.058 309.241 206.291 311.899 204.565C314.571 202.839 317.201 201.123 319.705 199.193C324.747 195.371 329.578 191.193 334.135 186.709C338.676 182.221 342.968 177.386 346.458 172.031C348.184 169.352 349.696 166.525 350.674 163.56C351.688 160.609 351.949 157.476 351.162 154.647C350.67 153.274 350.063 151.914 349.043 150.798C348.121 149.623 346.876 148.658 345.605 147.681C343.057 145.79 340.107 144.502 336.975 143.894C330.678 142.617 323.945 144.116 317.722 146.674C311.456 149.259 305.511 152.909 299.829 157.039C296.985 159.109 294.203 161.308 291.467 163.605C290.099 164.753 288.745 165.928 287.4 167.127C286.055 168.321 284.712 169.534 283.457 170.832C278.255 175.84 273.353 181.344 268.539 187.058C266.188 189.964 263.753 192.84 261.417 195.832C259.115 198.851 256.794 201.894 254.455 204.96C252.212 208.097 249.951 211.257 247.672 214.443C245.398 217.633 243.293 220.975 241.065 224.274C240.518 225.106 239.952 225.928 239.418 226.773L237.861 229.339C236.82 231.054 235.775 232.776 234.725 234.504C233.63 236.211 232.712 238.018 231.752 239.816C230.791 241.614 229.829 243.421 228.862 245.236Z" fill="#1F1713"/>
<path d="M220.881 291.897C241.424 295.76 270.925 305.806 289.924 317.884C295.212 321.429 317.185 349.272 296.49 346.225C281.544 344.27 265.153 333.486 251.651 328.39C239.12 322.634 212.356 298.272 198.855 293.176" fill="white"/>
<path d="M220.826 292.192C220.826 292.192 222.457 292.484 225.54 293.035C228.638 293.53 233.135 294.576 238.885 295.99C241.731 296.796 244.927 297.59 248.354 298.661C250.065 299.207 251.849 299.777 253.7 300.369C254.625 300.671 255.575 300.957 256.527 301.291C257.474 301.637 258.438 301.991 259.419 302.349C261.382 303.071 263.409 303.816 265.501 304.586C267.557 305.45 269.674 306.34 271.852 307.254C274.049 308.127 276.229 309.203 278.471 310.299C280.711 311.397 283.04 312.451 285.295 313.812C286.436 314.462 287.591 315.12 288.758 315.784C289.342 316.118 289.929 316.453 290.52 316.79C291.17 317.216 291.753 317.704 292.267 318.177C294.358 320.102 296.189 322.225 297.988 324.472C299.76 326.733 301.475 329.112 302.996 331.71C303.766 333.002 304.475 334.358 305.102 335.79C305.72 337.227 306.282 338.732 306.533 340.439C306.574 340.877 306.619 341.313 306.637 341.761C306.598 342.231 306.629 342.682 306.513 343.169C306.353 344.127 305.896 345.144 305.155 345.933C304.791 346.312 304.348 346.628 303.92 346.898C303.475 347.094 303.015 347.368 302.566 347.468C301.653 347.753 300.772 347.832 299.893 347.897C298.171 347.92 296.509 347.723 294.923 347.436C293.31 347.206 291.722 346.803 290.126 346.411C283.783 344.693 277.666 342.007 271.593 339.076C265.503 336.159 259.468 332.922 253.092 330.214C252.283 329.854 251.474 329.61 250.662 329.15C249.859 328.715 249.016 328.309 248.248 327.842L245.953 326.431L243.721 324.937C240.759 322.919 237.879 320.769 235.008 318.576C229.314 314.149 223.541 309.658 217.703 305.118C214.754 302.897 211.8 300.642 208.707 298.553C205.609 296.48 202.473 294.391 198.963 292.892C203.089 294.445 206.855 296.7 210.519 299.027C214.177 301.373 217.755 303.829 221.273 306.355C228.337 311.366 235.228 316.621 242.402 321.469C244.189 322.688 246.009 323.859 247.856 324.954C248.784 325.484 249.708 326.069 250.642 326.501L252.037 327.203C252.529 327.415 253.053 327.603 253.561 327.803C257.675 329.406 261.715 331.315 265.716 333.225C273.722 337.031 281.753 341.068 290.38 343.468C291.449 343.803 292.546 343.986 293.63 344.256C294.721 344.47 295.836 344.644 296.929 344.808C297.468 344.859 298.015 344.94 298.548 344.97C299.064 344.961 299.611 345.024 300.104 344.965C301.125 344.918 302.044 344.657 302.68 344.246C303.301 343.83 303.621 343.22 303.724 342.332C303.835 341.459 303.654 340.41 303.371 339.386C302.804 337.313 301.78 335.239 300.641 333.236C298.329 329.23 295.467 325.381 292.272 321.856C291.473 320.983 290.631 320.131 289.779 319.408C289.558 319.219 289.387 319.097 289.158 318.934L288.375 318.468L286.803 317.535C285.753 316.911 284.701 316.284 283.645 315.655C282.592 315.02 281.536 314.381 280.413 313.839C278.201 312.7 275.975 311.554 273.732 310.399C271.433 309.353 269.117 308.299 266.784 307.236C264.471 306.127 262.037 305.248 259.632 304.249C258.424 303.76 257.213 303.271 255.996 302.779C254.77 302.31 253.523 301.883 252.281 301.428C242.344 297.799 231.892 294.525 220.826 292.192Z" fill="#1F1713"/>
<path d="M364.947 226.955C375.784 231.372 400.451 234.161 390.546 251.8C379.561 271.37 349.158 274.827 330.531 278.309C304.694 283.148 278.012 275.182 251.945 266.671L231.021 240.219" fill="white"/>
<path d="M364.833 227.23C364.833 227.23 366.39 227.821 369.389 228.652C372.372 229.538 376.852 230.508 382.361 232.615C383.731 233.154 385.161 233.785 386.592 234.605C388.02 235.424 389.471 236.418 390.74 237.768C392.015 239.099 393.011 240.902 393.347 242.938C393.708 244.977 393.327 247.132 392.606 249.147C391.884 251.183 390.8 253.102 389.533 254.972C388.258 256.837 386.767 258.652 385.029 260.299C381.571 263.615 377.328 266.447 372.599 268.713C363.126 273.305 351.95 275.914 340.137 278.049C337.189 278.581 334.194 279.122 331.156 279.67C329.606 279.916 328.045 280.164 326.474 280.414C324.896 280.64 323.294 280.745 321.689 280.915C315.252 281.413 308.615 281.212 301.926 280.439C288.524 278.897 274.989 275.11 261.412 270.582C259.716 270.007 258.015 269.429 256.308 268.85L253.751 267.962L252.47 267.516L251.683 267.245C251.507 267.227 251.464 267.019 251.349 266.915L251.096 266.584C248.916 263.69 246.725 260.776 244.519 257.848C240.144 251.969 235.72 246.026 231.259 240.033C236.732 246.704 242.172 253.335 247.612 259.965L251.681 264.951C252.001 265.328 252.438 265.916 252.508 265.926L253.846 266.336L256.922 267.285C261.028 268.531 265.14 269.778 269.288 270.929C277.574 273.262 285.986 275.324 294.604 276.687C303.209 278.103 312.046 278.675 320.956 278.077C325.426 277.727 329.796 276.986 334.401 276.14C338.963 275.344 343.55 274.558 348.151 273.62C352.747 272.671 357.365 271.59 361.924 270.162C366.486 268.75 370.997 266.986 375.264 264.659C379.524 262.336 383.51 259.356 386.691 255.56C388.264 253.665 389.682 251.562 390.704 249.315C391.23 248.194 391.591 247.02 391.818 245.833C391.997 244.643 392.005 243.437 391.734 242.276C391.188 239.943 389.475 237.972 387.417 236.453C385.333 234.933 382.928 233.767 380.441 232.751C375.46 230.695 370.077 229.371 364.833 227.23Z" fill="#1F1713"/>
<path d="M241.488 252.568C259.473 237.697 261.028 233.084 284.391 220.313C301.176 211.139 352.539 184.779 367.264 202.62C377.271 214.741 367.599 226.349 355.869 234.99C321.597 260.236 279.887 247.303 242.197 258.295" fill="white"/>
<path d="M241.68 252.806C241.68 252.806 243.319 251.341 246.419 248.573C247.986 247.208 249.836 245.427 252.067 243.384C254.284 241.324 256.809 238.924 259.753 236.33C261.195 234.999 262.85 233.749 264.519 232.35C266.23 231.004 268.107 229.704 270.023 228.287C272.02 226.988 274.1 225.635 276.262 224.229C278.483 222.921 280.786 221.563 283.169 220.16C292.775 214.687 303.922 208.865 316.747 203.647C323.175 201.089 330.017 198.635 337.413 196.943C341.108 196.104 344.944 195.446 348.927 195.239L350.424 195.166L351.94 195.185C352.95 195.171 353.971 195.268 354.997 195.363C356.022 195.412 357.048 195.679 358.079 195.834C358.593 195.938 359.101 196.105 359.614 196.24C360.125 196.388 360.644 196.504 361.138 196.729C363.176 197.432 365.081 198.613 366.792 200.047C367.556 200.856 368.416 201.632 369 202.54L369.965 203.867C370.291 204.305 370.514 204.828 370.793 205.308C371.929 207.223 372.551 209.488 372.812 211.769C373.026 214.087 372.603 216.403 371.907 218.587C370.31 222.896 367.511 226.544 364.329 229.665C361.133 232.805 357.613 235.58 353.832 238.076C346.278 243.085 337.653 246.77 328.568 249.037C319.479 251.336 310 252.318 300.443 252.819C290.878 253.326 281.195 253.371 271.431 253.898C261.677 254.427 251.792 255.45 242.111 258.016C253.187 254.64 264.698 253.268 276.132 252.478C287.58 251.665 299.044 251.36 310.427 249.984C321.774 248.597 333.141 246.078 343.494 240.892C348.667 238.33 353.583 235.177 358.099 231.457C360.344 229.597 362.516 227.628 364.393 225.425C366.268 223.234 367.908 220.833 368.925 218.225C369.948 215.628 370.263 212.819 369.604 210.147C368.976 207.489 367.382 204.948 365.5 202.875C363.595 200.86 360.999 199.526 358.169 198.81C355.333 198.085 352.292 197.916 349.24 198.033C343.112 198.278 336.913 199.671 330.777 201.432C324.635 203.227 318.521 205.474 312.424 208C306.324 210.525 300.236 213.338 294.143 216.363C291.095 217.877 288.05 219.448 285.001 221.071C281.996 222.762 278.915 224.386 275.911 226.177C269.853 229.693 264.06 233.788 258.556 238.484C253.061 243.191 247.52 248.093 241.68 252.806Z" fill="#1F1713"/>
<path d="M203.809 200.145C201.791 183.172 209.584 161.851 213.88 145.598C218.322 128.784 224.984 112.017 234.126 97.1769C241.535 85.1446 254.211 66.1524 270.446 66.6069C293.098 68.6162 285.493 91.6944 285.403 105.198L274.856 143.516L224.813 214.443" fill="white"/>
<path d="M204.109 200.112C204.109 200.112 204.064 199.698 203.977 198.886C203.893 198.073 203.729 196.865 203.702 195.262C203.555 192.067 203.698 187.306 204.616 181.243C205.496 175.174 207.193 167.833 209.473 159.397C210.601 155.176 211.868 150.674 213.084 145.879C213.725 143.479 214.364 140.992 215.082 138.46C215.87 135.948 216.565 133.33 217.498 130.719C217.945 129.406 218.397 128.077 218.855 126.733C219.357 125.404 219.864 124.059 220.377 122.699C221.363 119.961 222.597 117.253 223.763 114.445C226.29 108.92 229.068 103.213 232.464 97.5753C235.801 91.9367 239.49 86.188 243.994 80.7148C246.228 77.9692 248.745 75.3526 251.55 72.9491C254.363 70.5649 257.515 68.389 261.13 66.9171C262.057 66.6082 262.986 66.2972 263.919 65.9857C264.87 65.7334 265.859 65.5902 266.834 65.392C267.816 65.2212 268.853 65.2559 269.865 65.1882C270.119 65.184 270.377 65.1529 270.628 65.1734L271.379 65.2622C271.878 65.3268 272.385 65.3723 272.879 65.4564C274.845 65.7854 276.823 66.3321 278.711 67.2159C280.595 68.0979 282.372 69.3776 283.772 71.0148C285.179 72.6462 286.188 74.5861 286.845 76.5864C287.505 78.5911 287.842 80.6583 288.004 82.7101C288.319 86.8226 287.981 90.8955 287.591 94.9301C287.394 96.9323 287.198 98.9451 287.001 100.966C286.913 101.969 286.849 102.967 286.8 103.964L286.78 104.708L286.768 105.131C286.796 105.37 286.673 105.697 286.649 105.803L286.232 107.286C285.118 111.246 283.994 115.241 282.86 119.269C280.557 127.38 278.217 135.624 275.842 143.984C267.639 155.304 259.236 166.899 250.688 178.694C242.144 190.41 233.419 202.297 224.561 214.273C232.779 202.326 240.941 190.462 249.117 178.576C257.294 166.772 265.483 154.947 273.76 143C276.129 134.198 278.512 125.345 280.918 116.412C281.527 114.162 282.137 111.909 282.75 109.649L283.67 106.256L283.901 105.407L284.012 105C284.012 104.999 284.014 104.989 284.013 104.996L284.012 105L284.014 104.898C284.024 104.291 284.036 103.684 284.07 103.084C284.316 98.2795 284.994 93.6141 285.196 88.9432C285.385 84.3204 285.217 79.5501 283.324 75.5714C282.34 73.6356 280.962 71.9238 279.113 70.7609C277.29 69.5709 275.132 68.8231 272.868 68.4085C272.303 68.2773 271.74 68.2264 271.176 68.154L270.328 68.0523L269.488 68.0956L267.805 68.1686C267.244 68.2188 266.679 68.3692 266.115 68.4611C263.843 68.8317 261.679 69.7745 259.567 70.8021C255.406 73.0677 251.698 76.3016 248.345 79.9142C244.98 83.5333 241.981 87.5785 239.144 91.7953C236.295 96.0152 233.619 100.421 231.108 104.945C226.13 114.038 221.869 123.769 218.395 134.017C216.659 139.158 215.17 144.378 213.652 149.763C212.098 155.109 210.43 160.469 208.903 165.928C207.383 171.387 205.987 176.946 205.011 182.649C204.03 188.344 203.565 194.221 204.109 200.112Z" fill="#1F1713"/>
<path d="M220.201 211.769C220.201 211.769 215.775 194.393 228.333 165.26C235.938 147.618 245.752 130.135 258.262 115.476C267.759 104.347 296.168 82.7514 307.969 104.458C318.468 123.762 298.105 146.572 286.32 160.171C269.422 179.661 252.557 201.679 230.848 216.105" fill="white"/>
<path d="M220.493 211.698C220.493 211.698 220.345 211.175 220.156 210.1C219.985 209.025 219.735 207.415 219.627 205.287C219.389 201.042 219.516 194.696 221.09 186.766C222.545 178.817 225.672 169.371 230.331 158.988C231.506 156.396 232.745 153.724 234.069 150.992C235.461 148.293 236.803 145.462 238.402 142.667C241.433 136.984 245.061 131.221 249.1 125.349C250.147 123.905 251.205 122.444 252.274 120.968C253.356 119.499 254.548 118.09 255.7 116.625C257.943 113.663 260.69 110.836 263.586 108.249C266.5 105.643 269.655 103.193 273.069 100.979C276.486 98.7765 280.168 96.7852 284.218 95.383C288.229 93.9831 292.77 93.1778 297.333 94.1503C299.594 94.6423 301.799 95.6325 303.679 97.0593C305.556 98.4963 307.082 100.312 308.334 102.259C310.833 106.145 312.233 110.822 312.298 115.548C312.341 120.281 311.183 124.939 309.425 129.294C305.815 138.014 300.096 145.703 293.957 153.022C290.878 156.691 287.637 160.243 284.469 163.894C281.283 167.538 278.07 171.21 274.836 174.909C268.325 182.281 261.648 189.716 254.409 196.751C247.119 203.727 239.273 210.29 230.679 215.859C240.415 209.113 248.998 201.005 257.024 192.433C265.056 183.846 272.536 174.751 280.16 165.648C287.733 156.487 295.946 147.765 302.149 137.569C305.228 132.498 307.812 127.038 308.939 121.259C309.497 118.378 309.597 115.429 309.18 112.556C308.782 109.678 307.736 106.901 306.233 104.388C304.731 101.892 302.776 99.6546 300.265 98.3222C299.036 97.6063 297.657 97.2011 296.262 96.8785C294.838 96.658 293.379 96.5339 291.896 96.6613C285.936 97.1222 280.089 99.8765 274.744 103.238C272.054 104.933 269.464 106.839 266.982 108.905C264.498 110.965 262.112 113.19 259.935 115.589C255.697 120.579 251.504 125.834 247.783 131.498L246.347 133.602L244.987 135.767C244.083 137.218 243.176 138.672 242.266 140.132C240.557 143.12 238.764 146.089 237.163 149.197C233.848 155.345 230.771 161.766 227.977 168.392C225.212 175.023 222.928 181.989 221.438 189.259C220.733 192.899 220.203 196.607 219.979 200.369C219.784 204.116 219.786 207.972 220.493 211.698Z" fill="#1F1713"/>
<path d="M167.864 193.597C158.57 189.814 154.189 171.779 149.434 163.524C134.843 138.216 134.51 130.346 125.073 103.116C120.932 91.1702 106.228 42.8405 122.107 33.7705C137.597 24.9265 148.028 51.8024 152.282 61.5277C160.048 79.3325 163.338 98.256 164.121 117.585C164.91 136.98 163.372 157.373 170.616 175.767" fill="white"/>
<path d="M167.973 193.317C167.973 193.317 167.433 193.055 166.381 192.544C165.895 192.219 165.285 191.808 164.597 191.271C163.959 190.672 163.175 190.014 162.449 189.108C160.927 187.359 159.326 184.944 157.74 181.937C156.144 178.934 154.561 175.342 152.794 171.317C151.9 169.311 150.962 167.19 149.83 165.055C148.669 162.955 147.353 160.73 146.036 158.418C145.373 157.258 144.697 156.074 144.006 154.867C143.364 153.632 142.707 152.372 142.039 151.088C141.379 149.799 140.674 148.501 140.017 147.151C139.39 145.784 138.752 144.394 138.104 142.978C137.779 142.27 137.453 141.556 137.123 140.837C136.827 140.103 136.529 139.363 136.229 138.616C135.636 137.121 135.031 135.602 134.419 134.059C133.311 130.936 132.133 127.724 131.05 124.398C129.943 121.08 128.806 117.672 127.64 114.176C126.442 110.699 125.214 107.133 123.957 103.487C121.389 96.1366 119.096 88.3518 117.17 80.1216C115.28 71.8936 113.672 63.215 113.475 54.0296C113.459 49.4488 113.732 44.681 115.434 39.9991C116.306 37.6867 117.667 35.3797 119.739 33.6539C120.274 33.253 120.839 32.8809 121.395 32.5037C121.974 32.2177 122.538 31.9041 123.138 31.6465C124.354 31.1713 125.631 30.745 126.987 30.6431C129.695 30.3018 132.461 31.1099 134.743 32.4013C137.021 33.7411 138.944 35.5043 140.613 37.4251C143.929 41.2969 146.449 45.7034 148.686 50.2376C149.801 52.5083 150.844 54.8228 151.841 57.1552C152.335 58.3172 152.831 59.483 153.328 60.6514C153.802 61.84 154.277 63.0325 154.753 64.2275C155.225 65.4266 155.698 66.6273 156.173 67.8317C156.579 69.0599 156.986 70.2908 157.394 71.5254C157.79 72.763 158.237 73.9882 158.591 75.2442C158.932 76.503 159.275 77.7656 159.618 79.0295C162.307 89.1619 163.886 99.7408 164.548 110.492C165.233 121.259 164.809 132.147 165.09 143.121C165.38 154.067 166.46 165.266 170.334 175.871C167.923 169.834 166.31 163.499 165.388 157.094C164.434 150.688 164.026 144.229 163.802 137.788C163.567 131.345 163.496 124.91 163.199 118.493C162.833 112.086 162.378 105.671 161.394 99.3093C159.643 86.5574 156.193 73.9873 151.023 61.9962C148.39 55.9319 145.763 49.8939 142.231 44.3743C140.468 41.6365 138.481 39.0192 136.104 36.9253C133.759 34.822 130.899 33.3468 127.953 33.4693C126.486 33.5154 125.024 33.9422 123.64 34.6199C122.912 34.9387 122.332 35.3793 121.725 35.7904C121.436 36.018 121.188 36.2999 120.913 36.549C120.627 36.7867 120.398 37.0886 120.172 37.3945C118.265 39.7685 117.358 43.0237 116.839 46.2827C115.869 52.899 116.462 59.8885 117.434 66.8097C119.504 80.7187 123.39 94.6489 128.246 108.723C130.606 115.809 132.729 123.072 135.152 130.307C137.574 137.542 140.395 144.739 144.006 151.733L145.306 154.387L146.721 156.999C147.666 158.744 148.613 160.495 149.564 162.255C151.591 165.793 153.036 169.623 154.585 173.377C156.126 177.141 157.689 180.929 159.688 184.516C160.716 186.285 161.812 188.036 163.163 189.582C164.522 191.112 166.093 192.48 167.973 193.317Z" fill="#1F1713"/>
<path d="M178.198 199.884C165.262 180.455 166.282 141.409 167.041 119.125C167.622 102.302 167.336 5.21258 202.287 28.3094C225.863 43.2982 218.312 92.5334 214.609 115.906C208.403 155.001 198.145 183.588 180.474 219.621" fill="white"/>
<path d="M178.447 199.718C178.447 199.718 178.069 199.101 177.331 197.899C176.974 197.291 176.476 196.564 175.985 195.642C175.532 194.699 175.005 193.606 174.408 192.366C172.165 187.343 169.683 179.522 168.192 169.19C166.583 158.879 165.892 146.13 165.973 131.437C165.989 127.763 166.061 123.967 166.152 120.055C166.219 116.147 166.287 112.12 166.358 107.981C166.53 99.6889 166.862 90.9353 167.591 81.7803C168.342 72.6314 169.411 63.0616 171.538 53.2468C172.614 48.3463 173.951 43.3743 175.955 38.4863C176.963 36.0468 178.159 33.631 179.681 31.3401C181.194 29.0596 183.101 26.8739 185.614 25.2996C188.107 23.7208 191.314 23.0007 194.275 23.48C197.265 23.8633 199.953 25.1698 202.38 26.6579C204.798 28.1866 207.129 30.012 209.042 32.2327C210.956 34.4441 212.557 36.9128 213.889 39.5175C215.199 42.1344 216.202 44.8897 217.045 47.694C217.865 50.5066 218.447 53.3847 218.932 56.2869C219.812 62.1048 220.158 68.0348 220.112 74.0035C220.039 85.9499 218.602 98.0508 216.666 110.229C215.744 116.32 214.51 122.43 213.381 128.6C212.818 131.686 212.017 134.739 211.341 137.827C210.629 140.908 209.968 144.011 209.065 147.068C208.218 150.136 207.366 153.216 206.513 156.306C205.528 159.355 204.538 162.414 203.545 165.483C202.6 168.567 201.445 171.588 200.303 174.623C199.735 176.14 199.166 177.66 198.596 179.183L197.737 181.466L196.792 183.717C195.528 186.719 194.262 189.731 192.992 192.748C191.69 195.752 190.264 198.709 188.898 201.698L186.823 206.177L184.626 210.609C183.154 213.562 181.678 216.522 180.199 219.488C186.746 205.641 192.85 191.683 197.989 177.376L199.866 171.994C200.493 170.201 201.14 168.415 201.659 166.585C202.754 162.946 203.848 159.307 204.945 155.664C205.89 151.979 206.837 148.292 207.783 144.6C208.685 140.898 209.395 137.144 210.214 133.412C213.096 118.418 215.631 103.159 216.827 87.6713C217.403 79.9284 217.587 72.1067 216.991 64.3053C216.365 56.5388 214.994 48.6724 211.674 41.6184C209.998 38.1274 207.849 34.8263 204.99 32.2449C202.154 29.7246 198.702 27.4725 195.101 26.5755C193.3 26.1478 191.449 26.0791 189.724 26.5853C187.998 27.0818 186.399 28.0612 185.006 29.3536C182.235 31.9935 180.238 35.5964 178.637 39.3362C175.48 46.9057 173.693 55.2062 172.288 63.6091C170.917 72.039 170.036 80.6747 169.401 89.4478C168.765 98.2253 168.427 107.14 168.171 116.211C167.823 125.301 167.464 134.465 167.531 143.799C167.64 153.117 168.075 162.594 169.463 172.103C169.871 174.467 170.195 176.862 170.756 179.215C171.027 180.392 171.227 181.594 171.559 182.761C171.881 183.932 172.205 185.104 172.528 186.279C173.979 190.928 175.8 195.526 178.447 199.718Z" fill="#1F1713"/>
<path d="M109.955 158.276C103.805 141.327 92.6929 127.915 87.9814 110.11C85.0453 99.0479 81.0527 87.3736 81.2056 75.7965C81.6433 44.3301 109.428 78.8656 115.543 87.8752C122.266 97.777 128.112 108.199 133.717 118.761C139.228 129.133 145.31 139.147 150.377 149.762C155.647 160.834 159.582 175.676 163.68 187.196" fill="white"/>
<path d="M110.237 158.175C110.237 158.175 109.486 156.474 108.068 153.257C106.616 150.06 104.215 145.489 100.96 139.739C97.7261 133.983 93.5146 127.058 89.9446 118.356C89.7188 117.815 89.4696 117.277 89.2584 116.718C89.0689 116.151 88.8778 115.579 88.685 115.003C88.301 113.847 87.9101 112.675 87.5138 111.485C86.7219 109.098 86.0984 106.656 85.3264 104.129C83.8547 99.0798 82.2734 93.7248 81.1682 87.9379C80.6219 85.0461 80.1924 82.0456 80.035 78.9468C79.8662 75.8449 79.8783 72.6685 80.4932 69.3729C80.7732 67.7352 81.3258 66.035 82.3401 64.4331C82.857 63.6385 83.5722 62.8789 84.4686 62.3373C84.9353 62.0934 85.3906 61.801 85.9111 61.7095L86.6772 61.5214C86.9332 61.4648 87.1831 61.4839 87.4365 61.4665C89.4773 61.3985 91.2526 62.075 92.8616 62.8474C94.4787 63.6368 95.9111 64.6451 97.3271 65.6819C100.105 67.8094 102.66 70.2134 105.096 72.7747C107.537 75.3333 109.871 78.0416 112.126 80.8741C114.375 83.6851 116.581 86.7078 118.514 89.8382C119.515 91.3908 120.52 92.9537 121.532 94.525C122.488 96.1292 123.448 97.7425 124.414 99.364C128.282 105.846 131.862 112.674 135.497 119.59C139.11 126.489 142.98 133.447 146.674 140.64C150.329 147.841 153.688 155.406 156.098 163.33C157.408 167.258 158.586 171.243 159.756 175.251C160.919 179.261 162.184 183.259 163.393 187.299C160.061 178.144 157.132 168.912 153.723 159.897C152.877 157.641 151.836 155.476 150.905 153.262C150.421 152.163 149.964 151.055 149.46 149.964L147.79 146.755C145.621 142.449 143.207 138.246 140.841 134.002C138.421 129.779 136.013 125.528 133.633 121.214C131.218 116.931 128.958 112.567 126.455 108.3C124.038 103.984 121.439 99.747 118.806 95.4915C117.437 93.4 116.064 91.2993 114.684 89.1902C113.312 87.1148 111.781 85.1211 110.218 83.1306C107.071 79.1716 103.699 75.3125 100.001 71.7781C98.1488 70.02 96.2073 68.3426 94.1346 66.9105C93.0936 66.2159 92.026 65.553 90.9251 65.0779C89.8335 64.5516 88.6957 64.2709 87.6788 64.2635C86.6573 64.2709 85.7983 64.599 85.1042 65.3464C84.798 65.7727 84.4253 66.1417 84.2054 66.6968C84.0824 66.9579 83.9434 67.2069 83.8264 67.4761L83.5449 68.3439C82.8209 70.6943 82.6227 73.3509 82.5466 75.9932C82.4481 81.3103 83.2822 86.7198 84.4608 92.1346C85.6453 97.5576 87.2134 103.004 88.6614 108.603C89.0052 110.019 89.4569 111.352 89.8617 112.731C90.2978 114.095 90.6455 115.494 91.158 116.845C92.2447 119.527 93.2005 122.286 94.5157 124.934C99.407 135.655 105.995 146.156 110.237 158.175Z" fill="#1F1713"/>
<path d="M236.675 221.173C237.729 220.247 241.212 221.669 242.718 222.96C244.57 225.064 242.696 226.333 243.728 228.783C244.971 234.032 251.038 232.439 253.34 236.765C255.878 240.503 253.405 244.912 255.937 248.652C259.062 252.633 262.088 251.841 262.284 258.009C262.148 259.986 261.444 261.729 262.128 263.364C262.344 266.158 263.742 266.053 264.193 268.268C266.153 271.772 265.312 275.486 264.811 280.026C263.977 283.75 264.192 286.544 263.588 289.677C263.433 295.035 261.221 295.487 258.16 299.66C255.107 303.827 255.56 306.04 248.463 305.181C243.924 304.687 239.858 303.031 234.844 303.697C230.657 304.021 225.509 306.667 221.446 305.013C217.621 302.77 216.375 297.528 213.362 294.947C205.733 287.096 194.937 282.022 186.009 275.682C177.429 270.154 170.61 261.962 164.379 254.002C158.488 246.867 152.937 240.547 146.81 233.988C142.873 230.355 141.027 228.241 141.759 223.127C142.362 219.99 142.967 216.845 143.223 212.895C143.851 206.372 144.713 199.281 145.917 193C146.867 190.678 148.178 185.798 149.468 184.299C151.578 182.444 152.161 182.678 154.718 183.046C158.093 183.063 157.622 184.23 161.228 183.669C163.682 182.639 165.79 180.787 168.007 180.338C170.568 180.702 171.493 181.76 173.473 181.889C176.03 182.254 176.508 181.093 179.299 180.875C181.279 181.006 184.527 183.007 186.503 183.136C190.228 183.975 193.837 183.413 197.326 184.833C201.388 186.492 201.241 191.84 205.536 192.916C210.184 194.811 211.261 190.51 215.779 194.379C217.86 195.906 215.752 197.754 220.055 198.831C224.119 200.487 224.834 198.744 227.37 202.487C228.873 203.778 228.4 204.942 230.482 206.468C231.41 207.52 234.21 207.305 235.134 208.36C237.902 211.518 239.837 218.4 236.675 221.173Z" fill="#D19117"/>
<path d="M236.874 221.397C236.887 221.414 236.979 221.247 237.444 221.178C237.9 221.105 238.683 221.203 239.66 221.537C240.151 221.705 240.693 221.928 241.267 222.232C241.552 222.386 241.851 222.553 242.142 222.755C242.288 222.847 242.441 222.971 242.569 223.068C242.68 223.193 242.781 223.351 242.897 223.502C243.368 224.106 243.534 224.935 243.392 225.849C243.268 226.753 243.216 227.816 243.659 228.811L243.656 228.8C243.904 229.652 244.293 230.53 244.985 231.235C245.667 231.947 246.588 232.444 247.58 232.854C248.571 233.271 249.653 233.615 250.716 234.163C251.775 234.701 252.817 235.519 253.461 236.698L253.453 236.686C253.893 237.346 254.25 238.085 254.474 238.885C254.683 239.689 254.782 240.53 254.828 241.381C254.921 243.079 254.809 244.854 255.299 246.551C255.722 248.285 257.102 249.581 258.613 250.761C259.37 251.352 260.222 251.9 260.966 252.687C261.709 253.477 262.21 254.522 262.449 255.584C262.583 256.116 262.656 256.659 262.705 257.2L262.764 258.046L262.685 258.892C262.555 259.982 262.321 261.044 262.377 262.033C262.414 262.271 262.426 262.517 262.502 262.741L262.625 263.11C262.663 263.209 262.684 263.34 262.696 263.429L262.725 263.618C262.794 264.13 262.909 264.616 263.145 265.041C263.35 265.48 263.713 265.867 264.067 266.41C264.254 266.66 264.382 266.977 264.53 267.271C264.592 267.424 264.629 267.583 264.68 267.74L264.749 267.976C264.778 268.062 264.765 268.037 264.78 268.061C265.304 269.089 265.809 270.335 265.943 271.576C266.158 272.827 266.106 274.085 266.048 275.335C265.95 276.577 265.81 277.818 265.674 279.052L265.575 279.982L265.42 280.977C265.323 281.585 265.225 282.195 265.126 282.81C265.02 284.076 264.913 285.356 264.805 286.651C264.771 287.303 264.679 287.976 264.587 288.652L264.451 289.669L264.433 289.796C264.434 289.814 264.444 289.707 264.437 289.789L264.418 290.052L264.379 290.58C264.351 291.968 263.943 293.484 263.219 294.814C262.464 296.168 261.429 297.148 260.568 298.193C259.673 299.225 258.866 300.29 258.123 301.446C257.347 302.574 256.781 303.934 255.411 305.139C254.719 305.726 253.825 306.083 253.005 306.231C252.171 306.403 251.373 306.422 250.592 306.409C249.036 306.369 247.541 306.166 246.026 305.922C243.018 305.404 240.124 304.677 237.218 304.719C235.763 304.759 234.271 304.891 232.827 305.211C231.353 305.527 229.832 305.971 228.223 306.318C226.614 306.657 224.886 306.939 223.033 306.704C222.575 306.642 222.107 306.553 221.651 306.41L220.87 306.146L220.235 305.692C219.868 305.409 219.448 305.16 219.127 304.837L218.178 303.853C215.86 301.136 214.627 297.863 212.499 295.957L212.445 295.908L212.41 295.874C204.037 287.43 192.091 282.286 181.368 274.131C176.009 269.954 171.306 264.898 166.946 259.536C165.839 258.2 164.774 256.848 163.703 255.49C162.623 254.14 161.477 252.848 160.361 251.514C158.095 248.88 155.888 246.163 153.527 243.534C151.162 240.91 148.776 238.266 146.375 235.602L145.925 235.103L145.82 234.986C145.809 234.973 145.811 234.977 145.818 234.983L145.764 234.931L145.514 234.693L144.513 233.743C143.855 233.064 143.182 232.41 142.567 231.611C142.241 231.247 141.961 230.81 141.69 230.366C141.555 230.143 141.408 229.933 141.288 229.699L140.972 228.962C140.872 228.714 140.756 228.471 140.675 228.217L140.496 227.436L140.328 226.653L140.286 225.877C140.178 224.833 140.344 223.825 140.434 222.83L140.929 220.134C141.312 218.329 141.48 216.534 141.69 214.731C142.123 211.051 142.558 207.347 142.997 203.622C143.219 201.752 143.587 199.893 143.877 198.019L144.342 195.209L144.574 193.802L144.691 193.097L144.721 192.916C144.742 192.82 144.735 192.742 144.782 192.629L144.946 192.206C145.601 190.517 146.174 188.676 146.89 186.858C147.27 185.937 147.609 185.038 148.266 184.057C148.424 183.844 148.62 183.486 148.921 183.292L149.524 182.803L150.219 182.332C150.488 182.191 150.765 182.046 151.06 181.932C151.679 181.723 152.386 181.65 152.918 181.714C153.485 181.747 153.965 181.836 154.44 181.904L154.796 181.959C154.873 181.972 154.819 181.963 154.835 181.967L155.032 181.978L155.82 182.023C156.352 182.087 156.902 182.17 157.418 182.325C158.477 182.658 159.019 182.822 159.915 182.766C160.124 182.76 160.354 182.722 160.572 182.704L160.878 182.672C160.926 182.673 160.971 182.663 161.011 182.639C161.36 182.486 161.811 182.28 162.204 182.06C163.025 181.629 163.838 181.125 164.724 180.642C165.155 180.397 165.629 180.168 166.108 179.953L166.857 179.656L167.757 179.411C167.944 179.324 168.14 179.383 168.335 179.422L168.783 179.508C169.046 179.552 169.302 179.623 169.558 179.699C170.07 179.834 170.572 180.032 171.028 180.218C171.964 180.609 172.716 180.931 173.539 180.984L173.581 180.987L173.608 180.991C174.625 181.165 175.4 181.007 176.492 180.608C177.039 180.418 177.647 180.255 178.257 180.146L179.224 180.031C179.651 180.049 179.94 180.133 180.274 180.182C181.488 180.5 182.523 180.981 183.569 181.404C184.592 181.822 185.653 182.278 186.56 182.37L186.645 182.378L186.679 182.386C190.153 183.257 194.177 182.672 197.945 184.425C198.898 184.892 199.698 185.624 200.314 186.423C200.938 187.225 201.415 188.082 201.894 188.896C202.81 190.535 203.925 192.013 205.662 192.439L205.693 192.446L205.728 192.46C206.514 192.776 207.329 192.98 208.158 192.955C208.992 192.944 209.812 192.689 210.728 192.475C211.634 192.254 212.704 192.222 213.622 192.591C214.541 192.942 215.292 193.526 216.008 194.118L215.987 194.103C216.346 194.388 216.681 194.737 216.894 195.163C217.112 195.585 217.198 196.033 217.3 196.418C217.401 196.808 217.538 197.146 217.783 197.421C218.033 197.688 218.351 197.913 218.71 198.085C219.067 198.257 219.452 198.398 219.846 198.51C220.277 198.631 220.66 198.796 221.046 198.93C221.82 199.224 222.633 199.381 223.458 199.529C224.291 199.656 225.169 199.916 225.856 200.477C226.149 200.795 226.491 201.073 226.738 201.42L227.482 202.436C228.143 202.981 228.518 203.816 228.884 204.551C229.26 205.302 229.841 205.92 230.504 206.443L230.508 206.447C231.692 207.539 233.567 207.278 234.846 208.189C235.43 208.693 235.847 209.401 236.24 210.074C236.641 210.754 236.946 211.485 237.236 212.218C237.764 213.701 238.106 215.264 238.092 216.826C238.073 217.604 237.96 218.375 237.716 219.098C237.445 219.809 237.032 220.45 236.478 220.945C237.015 220.433 237.402 219.788 237.648 219.08C237.867 218.36 237.957 217.599 237.952 216.833C237.923 215.298 237.541 213.767 236.983 212.327C236.678 211.616 236.36 210.907 235.951 210.256C235.764 209.918 235.531 209.615 235.318 209.299C235.084 209.033 234.835 208.632 234.603 208.517C234.108 208.164 233.309 208.016 232.544 207.842C231.779 207.644 230.904 207.568 230.107 206.8L230.186 206.874C229.47 206.345 228.789 205.653 228.36 204.849C227.915 204.034 227.671 203.443 227.007 202.906C226.949 202.855 226.887 202.765 226.851 202.719L226.758 202.6L226.574 202.361L226.207 201.882C225.967 201.553 225.666 201.341 225.405 201.06C224.83 200.625 224.182 200.427 223.351 200.319C222.515 200.191 221.627 200.042 220.797 199.754C220.392 199.624 219.921 199.443 219.622 199.373C219.192 199.261 218.761 199.119 218.328 198.925C217.899 198.73 217.462 198.463 217.084 198.072C216.705 197.67 216.477 197.133 216.355 196.698C216.135 195.795 215.933 195.358 215.366 194.943L215.325 194.91C214.661 194.384 213.971 193.888 213.249 193.632C212.525 193.371 211.816 193.403 211.002 193.608C210.199 193.809 209.241 194.141 208.213 194.182C207.181 194.238 206.159 194.006 205.238 193.654L205.345 193.689C204.287 193.434 203.277 192.853 202.522 192.093C201.757 191.338 201.208 190.474 200.702 189.657C199.715 188.015 198.776 186.493 197.311 185.817C195.776 185.124 193.946 184.844 192.098 184.716C190.237 184.576 188.271 184.525 186.292 184.092L186.444 184.114C185.021 183.979 183.986 183.49 182.909 183.091C181.855 182.682 180.821 182.241 179.864 182.007L179.281 181.922L178.606 182.014C178.118 182.11 177.648 182.239 177.138 182.426C176.63 182.609 176.015 182.836 175.33 182.95C174.995 183.003 174.646 183.012 174.307 183.029L173.324 182.956L173.406 182.964C172.403 182.911 171.416 182.571 170.641 182.252C169.856 181.931 169.169 181.691 168.429 181.546C167.871 181.456 168.227 181.456 167.75 181.571C167.416 181.66 167.072 181.831 166.729 181.979C166.039 182.317 165.34 182.733 164.616 183.169C163.887 183.601 163.137 184.053 162.313 184.445L161.57 184.793L160.74 184.9C160.296 184.971 159.81 184.987 159.312 184.983C158.823 184.972 158.268 184.902 157.804 184.771C157.322 184.65 156.954 184.518 156.604 184.443C156.246 184.359 155.905 184.311 155.529 184.283L154.961 184.259L154.819 184.252C154.786 184.25 154.575 184.246 154.516 184.229L154.196 184.183C153.355 184.071 152.529 183.929 152.09 184.054C151.64 184.155 151.069 184.534 150.467 185.073C150.225 185.291 149.796 186.083 149.509 186.79C149.195 187.524 148.915 188.304 148.638 189.092L147.82 191.499C147.675 191.91 147.549 192.309 147.387 192.732L147.159 193.338C147.173 193.265 147.129 193.539 147.098 193.745C146.84 195.416 146.583 197.089 146.326 198.765C146.083 200.442 145.774 202.11 145.582 203.801C145.398 205.491 145.215 207.183 145.03 208.879C144.845 210.583 144.66 212.288 144.473 213.995C144.266 215.73 144.142 217.499 143.863 219.214L143.411 221.776C143.257 222.631 143.088 223.51 143.063 224.24C142.938 225.779 143.105 227.245 143.806 228.499C144.491 229.775 145.686 230.946 146.898 232.122L147.364 232.561L147.598 232.78L147.715 232.89C147.75 232.919 147.884 233.049 147.903 233.079L148.787 234.051L150.557 235.997C152.906 238.607 155.319 241.173 157.637 243.849C159.934 246.546 162.24 249.252 164.555 251.969C169.046 257.524 173.409 263.099 178.605 267.962C181.168 270.422 183.976 272.57 186.951 274.589C189.941 276.663 192.986 278.617 196.131 280.555C202.377 284.426 208.849 288.48 214.333 294.004L214.243 293.919C216.311 295.807 217.356 298.077 218.606 299.999C218.906 300.493 219.218 300.967 219.552 301.394C219.718 301.612 219.874 301.844 220.045 302.053L220.589 302.624C220.927 303.045 221.35 303.314 221.753 303.616L222.009 303.813C222.072 303.862 222.072 303.84 222.221 303.898C222.445 303.986 222.68 304.052 222.928 304.094C226.952 304.912 231.735 302.198 236.957 302.318C239.564 302.287 242.085 302.805 244.48 303.296C245.687 303.543 246.859 303.779 248.042 303.932C249.222 304.099 250.431 304.234 251.536 304.191C252.672 304.157 253.578 303.927 254.236 303.295C254.93 302.67 255.539 301.541 256.243 300.484C256.934 299.395 257.756 298.36 258.585 297.367C259.425 296.388 260.322 295.474 261.023 294.575C261.686 293.663 262.143 292.709 262.34 291.577C262.471 291.03 262.466 290.416 262.539 289.837C262.551 289.746 262.539 289.761 262.58 289.451L262.614 289.225L262.681 288.773L262.816 287.866C263.135 285.429 263.223 282.802 263.802 280.197L263.846 279.953L263.867 279.815L263.928 279.334L264.049 278.372L264.289 276.469C264.421 275.216 264.558 273.963 264.487 272.758C264.422 271.555 264.228 270.373 263.711 269.314L263.53 268.91L263.397 268.616C263.361 268.536 263.344 268.459 263.321 268.379L263.288 268.265C263.225 268.006 263.152 267.752 263.029 267.529C262.814 267.066 262.399 266.604 261.999 265.926C261.61 265.239 261.417 264.461 261.344 263.746L261.316 263.536C261.309 263.509 261.331 263.582 261.289 263.445C261.232 263.253 261.163 263.061 261.121 262.869C261.063 262.481 261.008 262.091 261.027 261.722C261.034 260.976 261.156 260.288 261.264 259.646C261.368 259.027 261.492 258.312 261.489 257.848C261.453 256.592 261.264 255.359 260.74 254.35C260.221 253.344 259.234 252.614 258.157 251.78C257.08 250.922 256.056 250.027 255.214 248.759C254.438 247.5 254.118 246.02 254.055 244.637C253.971 243.244 254.06 241.907 253.964 240.62C253.879 239.336 253.547 238.12 252.871 237.078L252.85 237.047L252.839 237.026C252.407 236.208 251.752 235.515 250.915 234.985C250.083 234.448 249.102 234.06 248.091 233.639C247.085 233.212 246.008 232.756 245.093 231.959C244.171 231.171 243.564 230.034 243.302 228.879L243.325 228.947C242.893 227.927 242.946 226.718 243.123 225.729C243.179 225.236 243.211 224.767 243.072 224.339C242.973 223.917 242.641 223.475 242.386 223.165C241.634 222.544 240.67 222.028 239.701 221.652C239.211 221.465 238.706 221.307 238.201 221.23C237.707 221.15 237.171 221.173 236.874 221.397Z" fill="#1F1713"/>
<path d="M236.874 221.398C236.887 221.415 236.979 221.248 237.444 221.179C237.9 221.106 238.683 221.204 239.66 221.538C240.151 221.706 240.693 221.93 241.267 222.233C241.552 222.387 241.851 222.554 242.142 222.756C242.288 222.849 242.441 222.972 242.569 223.069C242.68 223.195 242.781 223.352 242.897 223.504C243.368 224.107 243.534 224.936 243.392 225.85C243.268 226.754 243.217 227.817 243.66 228.812L243.657 228.801C243.904 229.653 244.294 230.531 244.985 231.236C245.667 231.948 246.589 232.445 247.58 232.855C248.572 233.272 249.654 233.616 250.717 234.164C251.776 234.702 252.817 235.52 253.462 236.699L253.454 236.687C253.893 237.348 254.25 238.086 254.474 238.887C254.684 239.691 254.782 240.531 254.828 241.382C254.921 243.08 254.81 244.855 255.3 246.552C255.723 248.286 257.103 249.582 258.614 250.762C259.371 251.353 260.223 251.901 260.967 252.688C261.71 253.478 262.211 254.523 262.45 255.585C262.584 256.117 262.657 256.66 262.706 257.201L262.765 258.047L262.686 258.893C262.556 259.983 262.322 261.045 262.378 262.034C262.415 262.272 262.428 262.518 262.504 262.742L262.626 263.111C262.664 263.21 262.685 263.341 262.697 263.429L262.727 263.619C262.795 264.131 262.91 264.616 263.146 265.042C263.351 265.481 263.714 265.868 264.068 266.411C264.255 266.661 264.384 266.978 264.531 267.272C264.593 267.424 264.631 267.584 264.681 267.741L264.75 267.977C264.779 268.063 264.766 268.038 264.781 268.062C265.305 269.09 265.811 270.336 265.945 271.577C266.159 272.827 266.107 274.085 266.049 275.336C265.952 276.577 265.811 277.819 265.676 279.052L265.576 279.983L265.422 280.977C265.324 281.585 265.226 282.196 265.128 282.811C265.022 284.077 264.915 285.357 264.807 286.651C264.773 287.303 264.68 287.977 264.589 288.653L264.453 289.669L264.435 289.796C264.436 289.814 264.445 289.708 264.438 289.79L264.42 290.053L264.38 290.58C264.353 291.969 263.945 293.484 263.221 294.815C262.465 296.168 261.431 297.149 260.57 298.193C259.675 299.225 258.868 300.291 258.125 301.446C257.349 302.574 256.783 303.934 255.413 305.139C254.721 305.726 253.827 306.083 253.007 306.231C252.173 306.403 251.375 306.422 250.594 306.409C249.038 306.369 247.542 306.166 246.028 305.921C243.02 305.403 240.126 304.677 237.22 304.718C235.765 304.759 234.272 304.891 232.828 305.21C231.355 305.526 229.834 305.97 228.224 306.318C226.615 306.656 224.887 306.938 223.034 306.704C222.577 306.641 222.109 306.552 221.653 306.41L220.871 306.146L220.237 305.692C219.869 305.408 219.449 305.159 219.129 304.837L218.179 303.852C215.862 301.135 214.629 297.863 212.5 295.957L212.446 295.907L212.412 295.873C204.037 287.429 192.092 282.285 181.368 274.13C176.009 269.953 171.306 264.897 166.946 259.535C165.839 258.199 164.774 256.847 163.703 255.489C162.623 254.139 161.476 252.847 160.36 251.513C158.094 248.879 155.887 246.162 153.527 243.533C151.161 240.909 148.775 238.265 146.374 235.601L145.924 235.101L145.819 234.985C145.808 234.972 145.81 234.975 145.817 234.981L145.763 234.93L145.513 234.692L144.512 233.742C143.854 233.063 143.18 232.409 142.566 231.61C142.24 231.246 141.96 230.809 141.689 230.365C141.554 230.142 141.406 229.932 141.286 229.698L140.97 228.961C140.871 228.713 140.754 228.47 140.674 228.216L140.495 227.435L140.327 226.652L140.284 225.876C140.176 224.832 140.342 223.824 140.433 222.829L140.928 220.133C141.311 218.328 141.479 216.533 141.688 214.73C142.122 211.051 142.557 207.346 142.995 203.621C143.217 201.751 143.585 199.892 143.875 198.019L144.34 195.209L144.572 193.801L144.689 193.097L144.719 192.916C144.74 192.819 144.733 192.742 144.78 192.629L144.944 192.206C145.599 190.517 146.172 188.676 146.888 186.858C147.268 185.937 147.607 185.038 148.264 184.057C148.422 183.844 148.618 183.486 148.919 183.292L149.522 182.803L150.217 182.332C150.486 182.191 150.763 182.046 151.058 181.932C151.677 181.723 152.384 181.65 152.916 181.714C153.483 181.747 153.963 181.836 154.438 181.904L154.794 181.959C154.871 181.972 154.817 181.963 154.833 181.967L155.03 181.978L155.818 182.023C156.35 182.087 156.901 182.17 157.416 182.325C158.476 182.658 159.017 182.822 159.913 182.766C160.123 182.761 160.352 182.722 160.57 182.704L160.876 182.672C160.924 182.673 160.969 182.663 161.009 182.639C161.358 182.486 161.809 182.28 162.203 182.06C163.023 181.63 163.837 181.125 164.723 180.642C165.153 180.397 165.628 180.168 166.106 179.954L166.855 179.656L167.755 179.411C167.942 179.324 168.138 179.383 168.333 179.422L168.781 179.509C169.044 179.553 169.3 179.623 169.556 179.7C170.068 179.835 170.57 180.033 171.026 180.219C171.962 180.609 172.714 180.932 173.537 180.984L173.58 180.987L173.607 180.992C174.623 181.166 175.398 181.008 176.49 180.609C177.037 180.418 177.646 180.255 178.255 180.147L179.222 180.031C179.65 180.05 179.939 180.134 180.272 180.183C181.486 180.501 182.521 180.981 183.567 181.404C184.591 181.823 185.652 182.279 186.558 182.37L186.643 182.379L186.678 182.387C190.151 183.258 194.176 182.673 197.944 184.426C198.896 184.893 199.696 185.625 200.313 186.424C200.937 187.225 201.414 188.083 201.893 188.897C202.809 190.536 203.924 192.014 205.661 192.44L205.692 192.447L205.727 192.461C206.513 192.777 207.328 192.981 208.157 192.956C208.991 192.945 209.811 192.69 210.727 192.476C211.633 192.255 212.703 192.223 213.621 192.592C214.54 192.943 215.291 193.527 216.007 194.119L215.987 194.104C216.345 194.389 216.68 194.738 216.893 195.164C217.111 195.586 217.197 196.034 217.299 196.419C217.401 196.809 217.538 197.147 217.782 197.422C218.032 197.69 218.35 197.914 218.709 198.086C219.067 198.258 219.451 198.4 219.846 198.511C220.276 198.632 220.659 198.797 221.045 198.931C221.819 199.225 222.632 199.382 223.458 199.53C224.29 199.657 225.169 199.917 225.855 200.479C226.148 200.796 226.49 201.074 226.737 201.421L227.481 202.437C228.142 202.982 228.517 203.817 228.884 204.552C229.26 205.303 229.841 205.922 230.504 206.444L230.508 206.448C231.692 207.54 233.567 207.28 234.846 208.191C235.43 208.694 235.847 209.403 236.24 210.075C236.641 210.755 236.946 211.486 237.236 212.219C237.763 213.702 238.105 215.265 238.092 216.827C238.073 217.605 237.96 218.376 237.716 219.099C237.445 219.81 237.031 220.451 236.478 220.946C237.015 220.434 237.401 219.789 237.648 219.081C237.866 218.362 237.957 217.6 237.951 216.834C237.923 215.299 237.541 213.769 236.982 212.328C236.678 211.617 236.36 210.908 235.951 210.257C235.763 209.919 235.531 209.617 235.317 209.3C235.084 209.034 234.834 208.634 234.603 208.518C234.107 208.165 233.308 208.017 232.543 207.843C231.778 207.645 230.903 207.569 230.106 206.802L230.186 206.875C229.47 206.346 228.788 205.654 228.359 204.85C227.914 204.035 227.671 203.444 227.006 202.908C226.949 202.856 226.886 202.766 226.85 202.72L226.758 202.601L226.574 202.362L226.206 201.883C225.967 201.554 225.666 201.342 225.405 201.061C224.83 200.626 224.181 200.428 223.35 200.32C222.514 200.192 221.627 200.043 220.796 199.755C220.391 199.625 219.921 199.444 219.621 199.374C219.192 199.263 218.76 199.12 218.328 198.926C217.898 198.731 217.461 198.464 217.083 198.073C216.704 197.671 216.476 197.134 216.354 196.699C216.134 195.796 215.933 195.359 215.365 194.944L215.324 194.911C214.66 194.385 213.97 193.889 213.248 193.633C212.524 193.372 211.815 193.404 211.001 193.609C210.198 193.81 209.24 194.142 208.212 194.183C207.18 194.239 206.158 194.007 205.237 193.655L205.344 193.689C204.286 193.435 203.276 192.854 202.521 192.094C201.756 191.339 201.207 190.475 200.701 189.658C199.714 188.016 198.774 186.494 197.31 185.818C195.774 185.125 193.944 184.845 192.097 184.717C190.236 184.577 188.269 184.526 186.291 184.093L186.442 184.115C185.02 183.979 183.985 183.491 182.908 183.091C181.854 182.682 180.819 182.242 179.862 182.008L179.28 181.923L178.604 182.015C178.117 182.11 177.646 182.24 177.136 182.426C176.628 182.61 176.013 182.836 175.328 182.951C174.993 183.003 174.645 183.013 174.305 183.03L173.323 182.956L173.404 182.964C172.402 182.911 171.415 182.571 170.639 182.252C169.854 181.931 169.167 181.692 168.427 181.546C167.869 181.457 168.226 181.457 167.748 181.572C167.414 181.66 167.07 181.831 166.728 181.98C166.037 182.318 165.338 182.733 164.614 183.169C163.885 183.602 163.135 184.054 162.311 184.445L161.568 184.794L160.738 184.9C160.294 184.971 159.808 184.988 159.31 184.983C158.821 184.972 158.266 184.902 157.802 184.771C157.32 184.65 156.952 184.518 156.603 184.443C156.244 184.359 155.903 184.311 155.527 184.283L154.959 184.259L154.817 184.252C154.784 184.25 154.573 184.246 154.514 184.229L154.194 184.183C153.353 184.071 152.527 183.929 152.088 184.054C151.638 184.155 151.067 184.534 150.465 185.073C150.223 185.291 149.794 186.083 149.507 186.79C149.193 187.523 148.913 188.304 148.636 189.092L147.818 191.498C147.674 191.91 147.547 192.309 147.385 192.732L147.157 193.337C147.171 193.265 147.127 193.539 147.096 193.745C146.838 195.416 146.581 197.089 146.324 198.765C146.081 200.442 145.772 202.11 145.581 203.8C145.397 205.49 145.214 207.183 145.029 208.879C144.844 210.582 144.658 212.287 144.472 213.994C144.265 215.73 144.14 217.499 143.861 219.213L143.41 221.775C143.256 222.63 143.087 223.509 143.062 224.239C142.937 225.779 143.104 227.244 143.805 228.498C144.49 229.775 145.685 230.945 146.897 232.121L147.363 232.56L147.597 232.779L147.714 232.889C147.749 232.918 147.883 233.048 147.902 233.078L148.786 234.05L150.556 235.996C152.905 238.606 155.318 241.172 157.636 243.848C159.933 246.545 162.239 249.251 164.555 251.968C169.046 257.523 173.409 263.098 178.605 267.961C181.169 270.421 183.976 272.569 186.951 274.588C189.941 276.662 192.986 278.617 196.132 280.554C202.378 284.426 208.85 288.479 214.334 294.004L214.244 293.919C216.312 295.807 217.358 298.076 218.607 299.998C218.907 300.493 219.22 300.966 219.554 301.393C219.719 301.611 219.876 301.844 220.046 302.053L220.59 302.623C220.929 303.045 221.351 303.313 221.754 303.615L222.011 303.812C222.074 303.861 222.074 303.84 222.223 303.897C222.446 303.985 222.682 304.051 222.929 304.094C226.953 304.912 231.736 302.197 236.959 302.318C239.566 302.286 242.087 302.805 244.482 303.296C245.688 303.543 246.861 303.779 248.044 303.932C249.224 304.099 250.433 304.234 251.538 304.191C252.674 304.157 253.58 303.927 254.238 303.295C254.932 302.67 255.541 301.541 256.245 300.485C256.935 299.395 257.758 298.36 258.587 297.368C259.427 296.388 260.323 295.475 261.025 294.575C261.687 293.663 262.145 292.709 262.342 291.577C262.473 291.03 262.467 290.416 262.541 289.837C262.553 289.747 262.541 289.76 262.582 289.451L262.615 289.225L262.682 288.773L262.818 287.867C263.137 285.429 263.225 282.802 263.803 280.197L263.848 279.954L263.869 279.816L263.929 279.335L264.051 278.372L264.29 276.47C264.423 275.217 264.559 273.964 264.489 272.759C264.423 271.555 264.229 270.374 263.712 269.315L263.532 268.911L263.398 268.617C263.362 268.536 263.345 268.459 263.322 268.38L263.29 268.266C263.226 268.007 263.153 267.753 263.03 267.53C262.816 267.066 262.401 266.605 262 265.927C261.611 265.239 261.418 264.462 261.345 263.747L261.317 263.537C261.31 263.51 261.332 263.583 261.29 263.445C261.233 263.254 261.164 263.062 261.122 262.87C261.064 262.482 261.009 262.092 261.028 261.723C261.035 260.977 261.157 260.289 261.265 259.647C261.369 259.028 261.493 258.313 261.49 257.849C261.454 256.593 261.265 255.36 260.741 254.351C260.222 253.345 259.235 252.615 258.158 251.781C257.081 250.923 256.057 250.028 255.215 248.76C254.438 247.501 254.119 246.021 254.055 244.638C253.972 243.245 254.06 241.908 253.964 240.621C253.879 239.337 253.548 238.121 252.871 237.079L252.851 237.048L252.84 237.027C252.407 236.21 251.752 235.516 250.915 234.986C250.083 234.449 249.102 234.061 248.091 233.64C247.086 233.213 246.008 232.757 245.093 231.96C244.172 231.172 243.564 230.035 243.302 228.88L243.325 228.948C242.893 227.928 242.946 226.72 243.123 225.73C243.18 225.238 243.211 224.768 243.072 224.341C242.973 223.918 242.641 223.476 242.386 223.166C241.634 222.545 240.67 222.029 239.701 221.653C239.211 221.466 238.706 221.308 238.201 221.231C237.707 221.151 237.171 221.175 236.874 221.398Z" fill="#1F1713"/>
<path d="M145.363 204.288C142.223 187.657 138.177 164.351 127.719 150.159C125.246 147.348 115.674 139.837 111.629 140.897C105.405 142.875 108.126 153.91 108.87 158.726C110.966 171.316 116.006 183.296 120.275 194.966C124.689 208.499 126.461 221.856 137.417 232.637" fill="white"/>
<path d="M145.657 204.231C145.657 204.231 144.476 199.208 142.376 190.271C141.28 185.814 139.893 180.387 137.911 174.259C136.923 171.195 135.77 167.961 134.352 164.635C132.959 161.301 131.292 157.869 129.185 154.528C128.693 153.669 128.105 152.865 127.526 152.045L127.092 151.427C126.962 151.25 126.761 150.941 126.714 150.906C126.396 150.565 126.038 150.225 125.67 149.882C124.167 148.528 122.495 147.229 120.744 146.018C118.988 144.819 117.116 143.691 115.182 142.885C114.234 142.514 113.209 142.2 112.432 142.221C112.277 142.269 112.139 142.233 111.965 142.296C111.785 142.389 111.605 142.473 111.419 142.549C111.221 142.608 111.095 142.793 110.922 142.898C110.843 142.961 110.754 143.014 110.677 143.082L110.482 143.33C109.923 143.95 109.554 144.86 109.361 145.885C109.137 146.892 109.085 148.011 109.104 149.146C109.143 151.426 109.5 153.797 109.919 156.228C110.323 158.726 110.786 161.118 111.293 163.583C111.589 164.806 111.885 166.038 112.183 167.275C112.496 168.51 112.871 169.741 113.213 170.984C114.658 175.947 116.389 180.963 118.203 186.072C119.108 188.638 120.021 191.227 120.941 193.836C121.818 196.487 122.529 199.208 123.242 201.912C124.669 207.333 125.998 212.838 128.112 218.149C130.164 223.478 133.193 228.522 137.204 232.853C132.207 228.202 128.54 222.261 126.018 215.968C123.452 209.676 121.778 203.103 119.669 196.751C117.425 190.465 114.747 184.154 112.477 177.607C111.931 175.958 111.359 174.313 110.831 172.644C110.344 170.96 109.794 169.29 109.36 167.573C108.446 164.182 107.718 160.587 107.132 157.123C106.542 153.609 105.848 149.944 106.393 145.963C106.494 145.463 106.593 144.96 106.726 144.459C106.923 143.955 107.032 143.444 107.317 142.952C107.579 142.456 107.838 141.961 108.25 141.525C108.595 141.05 109.075 140.692 109.562 140.341C110.032 139.975 110.63 139.803 111.172 139.554C111.806 139.41 112.538 139.335 113.07 139.423C114.239 139.522 115.196 139.883 116.142 140.246C119.806 141.843 122.888 144.104 125.877 146.606C126.619 147.239 127.344 147.902 128.056 148.62L128.589 149.192C128.869 149.492 128.941 149.684 129.093 149.886L129.914 151.114L130.729 152.349L131.468 153.631C131.958 154.488 132.473 155.338 132.896 156.233C134.734 159.75 136.22 163.473 137.52 167.298C138.816 171.124 139.949 175.058 140.903 179.09C142.846 187.147 144.253 195.55 145.657 204.231Z" fill="#1F1713"/>
<path d="M180.642 248.438C189.33 249.272 193.405 243.708 202.236 246.405C207.657 248.612 212.303 250.505 215.228 254.409C223.396 263.15 229.962 280.264 220.582 289.979C212.923 297.695 195.254 292.305 187.683 286.513C182.126 282.445 176.278 274.643 176.159 268.278C176.052 261.913 177.796 255.408 177.691 249.038L180.642 248.438Z" fill="white"/>
<path d="M180.616 248.739C180.616 248.739 180.843 248.74 181.287 248.742C181.73 248.752 182.387 248.754 183.244 248.668C184.101 248.605 185.151 248.424 186.365 248.139C187.574 247.83 188.936 247.384 190.464 246.848C191.992 246.323 193.71 245.719 195.703 245.424C197.689 245.119 199.947 245.206 202.236 245.819C204.509 246.62 206.747 247.465 209.175 248.628C211.554 249.793 214.071 251.37 216.019 253.815L215.95 253.733C218.561 256.452 220.882 259.73 222.78 263.473C224.685 267.206 226.099 271.486 226.488 276.172C226.61 278.51 226.565 280.969 225.854 283.382C225.2 285.782 224.086 288.187 222.326 290.144L221.696 290.901C221.473 291.146 221.187 291.352 220.933 291.579C220.401 292.009 219.901 292.503 219.289 292.803C218.69 293.118 218.125 293.543 217.485 293.758C216.853 293.99 216.224 294.266 215.577 294.454C212.976 295.219 210.28 295.31 207.631 295.144C204.975 294.964 202.338 294.463 199.765 293.69C197.188 292.928 194.651 291.943 192.198 290.702C187.232 288.265 182.904 284.324 179.724 279.641C178.134 277.287 176.784 274.703 176.047 271.865C175.672 270.47 175.495 268.922 175.636 267.499C175.751 266.068 175.839 264.632 175.986 263.205C176.422 260.387 176.86 257.549 177.302 254.696C177.548 253.274 177.582 251.83 177.737 250.382L177.83 249.392C177.843 249.318 177.831 249.225 177.865 249.171L178.11 249.134L178.589 249.062L180.705 248.736L178.971 249.139L178.305 249.3L178.149 249.338L178.071 249.357C178.06 249.375 178.068 249.409 178.065 249.435L178.064 249.76L178.01 253.172C177.899 255.547 177.612 257.919 177.422 260.258C177.322 261.428 177.192 262.599 177.115 263.765L177.042 267.244C176.959 268.433 177.127 269.467 177.36 270.562C177.654 271.635 178.004 272.702 178.499 273.724C179.435 275.786 180.724 277.708 182.154 279.505C183.589 281.302 185.216 282.96 186.991 284.413C190.521 287.348 194.835 289.317 199.334 290.724C203.825 292.072 208.664 292.82 213.23 292.034C215.498 291.646 217.63 290.705 219.226 289.223C220.826 287.646 222.129 285.642 222.896 283.419C224.325 278.899 223.873 273.709 222.24 268.842C221.46 266.387 220.371 263.988 219.054 261.692C217.742 259.395 216.211 257.177 214.412 255.171L214.359 255.112L214.334 255.078C212.729 252.891 210.377 251.223 207.762 249.86C206.449 249.179 205.078 248.552 203.677 247.938L202.62 247.48L202.09 247.25C201.979 247.202 201.979 247.197 201.895 247.174L201.63 247.1L200.559 246.799C200.198 246.716 199.832 246.662 199.467 246.591C198.003 246.355 196.499 246.335 194.986 246.545C193.473 246.748 191.958 247.167 190.408 247.599C188.862 248.029 187.266 248.457 185.617 248.68C183.972 248.908 182.284 248.925 180.616 248.739Z" fill="#1F1713"/>
<path d="M148.975 246.375C136.82 229.688 128.744 207.438 132.757 186.51C134.369 178.141 136.26 173.491 145.091 176.188C162.841 181.606 172.09 209.645 173.157 226.134C173.74 235.154 178.881 243.069 179.865 251.983C180.517 257.862 178.793 271.1 169.646 266.526C162.536 261.825 148.975 246.375 148.975 246.375Z" fill="white"/>
<path d="M149.217 246.199C149.217 246.199 148.973 245.876 148.501 245.249C148.041 244.613 147.3 243.703 146.434 242.441C144.667 239.943 142.186 236.162 139.544 231C138.201 228.431 136.918 225.473 135.632 222.192C134.446 218.878 133.215 215.241 132.37 211.214C131.509 207.194 130.883 202.824 130.753 198.154C130.616 193.487 131.116 188.528 132.198 183.471C132.505 182.198 132.812 180.904 133.346 179.598C133.876 178.307 134.591 176.949 135.812 175.864C137.022 174.761 138.719 174.2 140.261 174.145C141.819 174.075 143.313 174.309 144.714 174.7C150.458 176.14 155.464 180.019 159.349 184.681C163.249 189.395 166.277 194.929 168.64 200.841C171.005 206.761 172.761 213.079 173.785 219.683C174.045 221.333 174.231 223.007 174.374 224.696L174.462 225.967L174.598 227.159C174.704 227.95 174.748 228.747 174.9 229.541C175.484 232.72 176.531 235.893 177.602 239.127C178.702 242.352 179.784 245.705 180.433 249.216L180.829 251.876C180.912 252.793 180.931 253.7 180.911 254.606C180.868 256.415 180.656 258.217 180.257 260.002C179.852 261.779 179.254 263.562 178.189 265.165C177.653 265.958 176.977 266.702 176.123 267.247C175.275 267.798 174.24 268.076 173.246 268.071C172.248 268.065 171.289 267.833 170.419 267.465C170.194 267.387 169.991 267.269 169.776 267.173C169.585 267.091 169.285 266.943 169.127 266.786L168.056 265.936C166.588 264.843 165.288 263.583 163.96 262.345C158.729 257.322 153.916 251.813 149.199 246.178C152.075 249.301 155.024 252.345 158.023 255.319C161.005 258.309 164.114 261.162 167.331 263.824L169.831 265.653C170.053 265.835 170.127 265.846 170.399 265.964C170.623 266.064 170.848 266.16 171.078 266.227C171.531 266.386 171.993 266.501 172.446 266.55C174.283 266.829 175.873 265.837 176.829 264.172C177.816 262.542 178.33 260.536 178.623 258.532C178.905 256.521 178.978 254.438 178.783 252.438C178.303 248.379 176.935 244.4 175.482 240.377C174.044 236.352 172.517 232.172 171.984 227.649C171.916 227.094 171.826 226.507 171.78 225.976L171.637 224.389C171.528 223.33 171.39 222.271 171.234 221.21C170.919 219.091 170.507 216.975 170.017 214.868C169.038 210.653 167.758 206.468 166.135 202.388C164.526 198.304 162.549 194.327 160.137 190.605C157.714 186.902 154.788 183.459 151.21 180.848C149.423 179.549 147.471 178.477 145.387 177.745C143.32 177.035 141.032 176.483 139.202 176.939C137.39 177.34 136.184 179.035 135.415 181.174C134.657 183.288 134.13 185.677 133.744 188.033C132.048 197.478 132.774 207.609 135.532 217.496C138.283 227.401 142.917 237.14 149.217 246.199Z" fill="#1F1713"/>
</g>
<defs>
<clipPath id="clip0_52_3221">
<rect width="443" height="695" fill="white"/>
</clipPath>
</defs>
</svg>
