<svg width="523" height="485" viewBox="0 0 523 485" fill="none" xmlns="http://www.w3.org/2000/svg">
<mask id="mask0_297_2432" style="mask-type:alpha" maskUnits="userSpaceOnUse" x="86" y="23" width="309" height="413">
<rect x="86.4762" y="23.1847" width="308" height="412" fill="#D9D9D9"/>
</mask>
<g mask="url(#mask0_297_2432)">
<path d="M188.226 337.42L161.527 337.747L162.699 433.549L189.398 433.222L188.226 337.42Z" fill="#E9B085"/>
<path d="M328.78 335.701L302.082 336.028L303.254 431.83L329.951 431.503L328.78 335.701Z" fill="#E9B085"/>
<path d="M280.891 283.992L207.857 284.886L209.641 430.76L282.675 429.866L280.891 283.992Z" fill="#F4F2F2"/>
<path d="M327.349 138.465L304.578 138.743L284.358 138.991L203.678 139.977L183.262 140.227L163.566 140.468L164.686 232.022L184.382 231.782L184.629 251.975L205.045 251.725L205.534 291.719L286.214 290.732L285.725 250.738L305.945 250.491L305.698 230.298L328.469 230.019L327.349 138.465Z" fill="#E9B085"/>
<path d="M327.349 138.465L304.578 138.743L284.358 138.991L203.678 139.977L183.262 140.227L163.566 140.468L164.686 232.023L184.382 231.782L184.629 251.975L205.045 251.725L205.778 311.716L286.459 310.729L285.725 250.738L305.945 250.491L305.698 230.298L328.469 230.019L327.349 138.465Z" fill="#E9B085"/>
<path d="M203.865 171.347L345.204 169.619L344.13 81.7892L324.107 82.0341L324.346 101.639L299.612 101.941L299.19 67.4369L279.559 67.677L279.809 88.066L257.823 88.3349L257.923 96.569L232.796 96.8763L232.964 110.6L182.711 111.214L182.957 131.342L163.325 131.582L164.307 211.831L184.724 211.581L184.973 231.97L204.604 231.73L203.865 171.347Z" fill="#301A06"/>
<path d="M244.351 190.852L224.132 191.1L224.379 211.292L244.598 211.045L244.351 190.852Z" fill="#301A06"/>
<path d="M304.813 190.113L284.594 190.36L284.841 210.553L305.06 210.306L304.813 190.113Z" fill="#301A06"/>
<path d="M239.255 432.286L222.569 432.49L222.818 452.879L239.504 452.675L239.255 432.286Z" fill="#0E0E0E"/>
<path d="M276.356 431.832L259.867 432.034L260.116 452.423L276.606 452.221L276.356 431.832Z" fill="#0E0E0E"/>
<path d="M259.67 432.036L239.255 432.286L239.504 452.675L259.92 452.425L260.116 452.423L259.867 432.034L259.67 432.036Z" fill="#666666"/>
<path d="M316.447 290.494L306.5 290.616L306.239 290.619L296.292 290.74L286.216 290.864L286.084 290.865L276.008 290.989L265.8 291.113L265.925 301.308L266.045 311.11L266.05 311.502L266.169 321.305L266.294 331.499L276.37 331.376L276.502 331.375L286.578 331.251L296.525 331.13L296.786 331.126L306.733 331.005L316.941 330.88L327.149 330.755L327.024 320.561L326.904 310.758L326.899 310.366L326.779 300.564L326.655 290.369L316.447 290.494Z" fill="#9B0004"/>
<path d="M276.47 331.407L266.262 331.532L266.387 341.726L266.512 351.921L266.633 361.855L266.636 362.115L266.758 372.05L266.881 382.112L266.883 382.244L267.002 392.047L267.006 392.307L267.127 402.241L267.252 412.436L267.373 422.368L267.377 422.63L267.498 432.563L267.621 442.627L267.623 442.757L267.746 452.822L277.593 452.701L287.801 452.576L287.676 442.382L287.552 432.187L287.43 422.255L287.427 421.993L287.306 412.06L287.182 401.996L287.181 401.866L287.061 392.063L287.058 391.801L286.936 381.869L286.812 371.674L286.69 361.74L286.687 361.48L286.565 351.545L286.442 341.483L286.441 341.351L286.318 331.288L276.47 331.409L276.47 331.407Z" fill="#9B0004"/>
<path d="M316.745 330.916L306.733 331.038L306.855 340.971L306.858 341.233L306.979 351.166L307.103 361.23L307.104 361.36L307.227 371.424L317.239 371.302L317.435 371.3L327.447 371.177L327.325 361.243L327.322 360.983L327.2 351.048L327.077 340.986L327.076 340.854L326.953 330.791L316.941 330.914L316.745 330.916Z" fill="#9B0004"/>
<path d="M286.084 290.865L276.008 290.989L276.133 301.183L286.209 301.06L286.084 290.865Z" fill="#9B0004"/>
<path d="M306.239 290.619L296.292 290.74L296.416 300.935L306.364 300.813L306.239 290.619Z" fill="#9B0004"/>
<path d="M306.624 300.81L316.571 300.688L316.447 290.494L306.5 290.616L306.239 290.619L306.364 300.813L306.624 300.81Z" fill="#141414"/>
<path d="M326.655 290.369L316.447 290.494L316.571 300.688L326.779 300.564L326.655 290.369Z" fill="#9B0004"/>
<path d="M326.779 300.564L316.571 300.688L316.691 310.491L326.899 310.366L326.779 300.564Z" fill="#141414"/>
<path d="M276.001 301.185L265.925 301.308L266.045 311.11L276.121 310.987L276.001 301.185Z" fill="#9B0004"/>
<path d="M286.46 310.861L296.276 310.741L296.156 300.938L286.341 301.058L286.209 301.06L286.329 310.862L286.46 310.861Z" fill="#9B0004"/>
<path d="M306.364 300.813L306.484 310.616L306.744 310.613L316.691 310.491L316.571 300.688L306.624 300.81L306.364 300.813Z" fill="#9B0004"/>
<path d="M276.257 311.378L276.377 321.18L286.453 321.057L286.333 311.254L286.328 310.862L276.253 310.985L276.257 311.378Z" fill="#9B0004"/>
<path d="M306.484 310.616L296.536 310.737L296.541 311.129L296.661 320.932L306.608 320.81L306.488 311.008L306.484 310.616Z" fill="#9B0004"/>
<path d="M306.484 310.616L306.488 311.008L306.608 320.81L306.869 320.807L316.816 320.685L316.696 310.883L316.691 310.491L306.744 310.613L306.484 310.616Z" fill="#141414"/>
<path d="M316.696 310.883L316.816 320.685L327.024 320.561L326.904 310.758L326.899 310.366L316.691 310.491L316.696 310.883Z" fill="#9B0004"/>
<path d="M327.024 320.561L316.816 320.685L316.941 330.88L327.149 330.755L327.024 320.561Z" fill="#141414"/>
<path d="M276.245 321.182L266.169 321.305L266.294 331.499L276.37 331.376L276.245 321.182Z" fill="#9B0004"/>
<path d="M276.377 321.18L276.257 311.378L276.253 310.985L286.329 310.862L286.209 301.06L276.133 301.183L276.008 290.989L265.8 291.113L265.925 301.308L276.001 301.185L276.121 310.987L266.045 311.11L266.05 311.502L266.169 321.305L276.245 321.182L276.37 331.376L276.502 331.375L286.578 331.251L286.453 321.057L276.377 321.18Z" fill="#141414"/>
<path d="M286.585 321.055L286.453 321.057L286.578 331.251L296.525 331.13L296.4 320.935L286.585 321.055Z" fill="#9B0004"/>
<path d="M296.661 320.932L296.541 311.129L296.536 310.737L306.484 310.616L306.364 300.813L296.417 300.935L296.292 290.74L286.216 290.864L286.084 290.865L286.209 301.06L286.341 301.058L296.156 300.938L296.276 310.741L286.46 310.861L286.329 310.862L286.333 311.254L286.453 321.057L286.585 321.055L296.4 320.935L296.525 331.13L296.786 331.126L306.733 331.005L306.608 320.81L296.661 320.932Z" fill="#141414"/>
<path d="M306.869 320.807L306.608 320.81L306.733 331.005L316.941 330.88L316.816 320.685L306.869 320.807Z" fill="#9B0004"/>
<path d="M276.73 382.124L266.883 382.244L267.002 392.047L276.85 391.926L276.73 382.124Z" fill="#9B0004"/>
<path d="M277.345 432.442L267.498 432.563L267.621 442.627L267.623 442.757L277.47 442.637L277.593 452.701L287.801 452.576L287.676 442.382L277.468 442.507L277.345 432.442Z" fill="#141414"/>
<path d="M287.061 392.063L276.853 392.188L276.973 401.99L287.181 401.866L287.061 392.063Z" fill="#9B0004"/>
<path d="M276.975 402.121L267.127 402.241L267.252 412.436L277.099 412.315L277.219 422.118L287.427 421.993L287.305 412.06L277.098 412.185L276.975 402.121Z" fill="#9B0004"/>
<path d="M277.099 412.315L267.252 412.436L267.373 422.368L267.377 422.63L277.224 422.51L277.344 432.312L287.552 432.187L287.43 422.255L287.427 421.993L277.219 422.118L277.099 412.315Z" fill="#141414"/>
<path d="M277.224 422.51L267.376 422.63L267.498 432.563L277.345 432.442L277.468 442.507L287.676 442.382L287.552 432.187L277.344 432.312L277.224 422.51Z" fill="#9B0004"/>
<path d="M276.605 371.929L266.758 372.05L266.881 382.112L266.882 382.244L276.73 382.124L276.85 391.926L267.002 392.047L267.006 392.307L267.127 402.241L276.975 402.121L277.098 412.185L287.305 412.06L287.182 401.996L287.181 401.866L276.973 401.99L276.853 392.188L287.061 392.063L287.058 391.801L286.936 381.869L276.728 381.993L276.605 371.929Z" fill="#141414"/>
<path d="M276.11 331.413L276.233 341.476L286.441 341.351L286.318 331.288L276.47 331.409L276.11 331.413Z" fill="#9B0004"/>
<path d="M276.11 331.413L276.47 331.409L276.47 331.407L266.262 331.532L266.387 341.726L276.234 341.606L276.234 341.608L276.358 351.67L286.565 351.545L286.442 341.483L286.441 341.351L276.233 341.476L276.11 331.413Z" fill="#141414"/>
<path d="M276.234 341.608L276.234 341.606L266.387 341.726L266.512 351.921L276.359 351.8L276.479 361.604L286.687 361.48L286.565 351.545L276.358 351.67L276.234 341.608Z" fill="#9B0004"/>
<path d="M276.359 351.8L266.512 351.921L266.633 361.855L266.636 362.115L276.484 361.995L276.604 371.799L286.811 371.674L286.69 361.74L286.687 361.48L276.479 361.604L276.359 351.8Z" fill="#141414"/>
<path d="M317.063 340.846L317.064 340.976L327.076 340.854L326.953 330.791L316.941 330.914L317.063 340.846Z" fill="#9B0004"/>
<path d="M327.201 351.048L317.189 351.171L317.31 361.105L327.322 360.983L327.201 351.048Z" fill="#9B0004"/>
<path d="M307.104 361.36L307.227 371.424L317.239 371.302L317.435 371.3L317.312 361.235L307.104 361.36Z" fill="#9B0004"/>
<path d="M317.066 341.108L316.87 341.111L306.858 341.233L306.98 351.166L317.187 351.041L317.066 341.108Z" fill="#9B0004"/>
<path d="M317.063 340.846L316.941 330.914L316.745 330.916L306.733 331.038L306.855 340.971L306.858 341.233L316.87 341.111L317.066 341.108L317.187 351.041L306.979 351.166L307.103 361.23L307.104 361.36L317.312 361.235L317.435 371.3L327.447 371.177L327.325 361.243L327.322 360.983L317.31 361.105L317.189 351.171L327.2 351.048L327.077 340.986L327.076 340.854L317.064 340.976L317.063 340.846Z" fill="#141414"/>
<path d="M276.484 361.995L266.636 362.115L266.758 372.05L276.605 371.929L276.728 381.993L286.936 381.869L286.812 371.674L276.604 371.799L276.484 361.995Z" fill="#9B0004"/>
<path d="M216.532 332.108L226.608 331.985L226.484 321.79L226.364 311.988L226.359 311.596L226.239 301.793L226.114 291.599L215.907 291.724L205.83 291.847L205.7 291.848L195.622 291.972L185.676 292.093L185.414 292.097L175.469 292.218L165.259 292.343L165.384 302.538L165.504 312.34L165.509 312.732L165.628 322.535L165.753 332.729L175.963 332.604L186.17 332.479L196.116 332.358L196.378 332.354L206.324 332.233L216.401 332.11L216.532 332.108Z" fill="#9B0004"/>
<path d="M216.434 332.141L216.434 332.143L206.586 332.263L206.71 342.326L206.711 342.458L206.834 352.521L206.956 362.455L206.959 362.715L207.08 372.649L207.205 382.844L207.327 392.776L207.33 393.038L207.45 402.841L207.451 402.971L207.574 413.035L207.696 422.968L207.699 423.23L207.821 433.162L207.945 443.357L208.07 453.551L218.278 453.427L228.124 453.306L228.001 443.242L228 443.112L227.877 433.047L227.755 423.115L227.752 422.853L227.63 412.92L227.506 402.726L227.384 392.791L227.381 392.531L227.261 382.729L227.26 382.597L227.136 372.534L227.015 362.6L227.012 362.34L226.89 352.406L226.766 342.211L226.641 332.016L216.434 332.141Z" fill="#9B0004"/>
<path d="M175.963 332.638L165.95 332.76L166.073 342.823L166.075 342.955L166.198 353.018L166.319 362.952L166.322 363.212L166.444 373.146L176.457 373.024L176.653 373.021L186.665 372.899L186.542 362.835L186.54 362.704L186.417 352.64L186.295 342.708L186.292 342.446L186.171 332.513L176.159 332.635L175.963 332.638Z" fill="#9B0004"/>
<path d="M215.907 291.724L205.83 291.847L205.955 302.041L216.032 301.918L215.907 291.724Z" fill="#9B0004"/>
<path d="M195.622 291.972L185.676 292.093L185.801 302.288L195.747 302.166L195.622 291.972Z" fill="#9B0004"/>
<path d="M185.539 302.291L175.593 302.413L175.469 292.218L185.414 292.097L185.676 292.093L185.801 302.288L185.539 302.291Z" fill="#141414"/>
<path d="M175.469 292.218L165.259 292.343L165.384 302.538L175.593 302.413L175.469 292.218Z" fill="#9B0004"/>
<path d="M175.593 302.413L165.384 302.538L165.504 312.34L175.713 312.215L175.593 302.413Z" fill="#141414"/>
<path d="M226.239 301.793L216.162 301.917L216.282 311.719L226.359 311.596L226.239 301.793Z" fill="#9B0004"/>
<path d="M205.944 311.845L196.129 311.965L196.009 302.163L205.824 302.043L205.954 302.041L206.074 311.844L205.944 311.845Z" fill="#9B0004"/>
<path d="M185.801 302.288L185.921 312.09L185.659 312.094L175.713 312.215L175.593 302.413L185.539 302.291L185.801 302.288Z" fill="#9B0004"/>
<path d="M216.157 312.113L216.277 321.915L206.199 322.038L206.079 312.236L206.074 311.844L216.152 311.721L216.157 312.113Z" fill="#9B0004"/>
<path d="M185.921 312.09L195.867 311.969L195.871 312.361L195.991 322.163L186.046 322.285L185.926 312.482L185.921 312.09Z" fill="#9B0004"/>
<path d="M185.921 312.09L185.926 312.482L186.046 322.285L185.783 322.288L175.838 322.41L175.718 312.607L175.713 312.215L185.659 312.094L185.921 312.09Z" fill="#141414"/>
<path d="M175.718 312.607L175.838 322.41L165.628 322.535L165.509 312.732L165.504 312.34L175.713 312.215L175.718 312.607Z" fill="#9B0004"/>
<path d="M175.838 322.41L165.628 322.535L165.753 332.729L175.963 332.604L175.838 322.41Z" fill="#141414"/>
<path d="M226.484 321.79L216.407 321.913L216.532 332.108L226.608 331.985L226.484 321.79Z" fill="#9B0004"/>
<path d="M216.277 321.915L216.157 312.113L216.152 311.721L206.074 311.844L205.955 302.041L216.032 301.918L215.907 291.724L226.114 291.599L226.239 301.793L216.162 301.917L216.282 311.719L226.359 311.596L226.364 311.988L226.484 321.79L216.407 321.913L216.532 332.108L216.401 332.11L206.324 332.233L206.199 322.038L216.277 321.915Z" fill="#141414"/>
<path d="M206.069 322.04L206.199 322.038L206.324 332.233L196.378 332.354L196.254 322.16L206.069 322.04Z" fill="#9B0004"/>
<path d="M195.991 322.163L195.871 312.361L195.867 311.969L185.921 312.09L185.801 302.288L195.747 302.166L195.622 291.972L205.699 291.848L205.83 291.847L205.955 302.041L205.824 302.043L196.009 302.163L196.129 311.965L205.944 311.845L206.074 311.844L206.079 312.236L206.199 322.038L206.069 322.04L196.254 322.16L196.378 332.354L196.116 332.358L186.17 332.479L186.046 322.285L195.991 322.163Z" fill="#141414"/>
<path d="M185.783 322.288L186.046 322.285L186.17 332.479L175.963 332.604L175.838 322.41L185.783 322.288Z" fill="#9B0004"/>
<path d="M227.261 382.729L217.415 382.849L217.534 392.652L227.381 392.531L227.261 382.729Z" fill="#9B0004"/>
<path d="M218.03 433.168L227.877 433.047L228 443.112L228.001 443.242L218.155 443.362L218.278 453.427L208.07 453.551L207.945 443.357L218.153 443.232L218.03 433.168Z" fill="#141414"/>
<path d="M217.538 392.913L207.33 393.038L207.45 402.841L217.658 402.716L217.538 392.913Z" fill="#9B0004"/>
<path d="M217.659 402.846L227.506 402.726L227.63 412.92L217.784 413.041L217.904 422.843L207.696 422.968L207.574 413.035L217.782 412.91L217.659 402.846Z" fill="#9B0004"/>
<path d="M217.784 413.041L227.63 412.92L227.752 422.853L227.755 423.115L217.908 423.235L218.028 433.038L207.821 433.162L207.699 423.23L207.696 422.968L217.904 422.843L217.784 413.041Z" fill="#141414"/>
<path d="M217.909 423.235L227.755 423.115L227.877 433.047L218.03 433.168L218.153 443.232L207.945 443.357L207.821 433.162L218.028 433.038L217.909 423.235Z" fill="#9B0004"/>
<path d="M217.29 372.655L227.137 372.534L227.26 382.597L227.261 382.729L217.415 382.849L217.534 392.652L227.381 392.531L227.384 392.791L227.506 402.726L217.659 402.846L217.782 412.91L207.574 413.035L207.451 402.971L207.45 402.841L217.658 402.716L217.538 392.913L207.33 393.038L207.327 392.776L207.205 382.844L217.413 382.719L217.29 372.655Z" fill="#141414"/>
<path d="M216.794 332.138L216.917 342.201L206.71 342.326L206.586 332.263L216.434 332.143L216.794 332.138Z" fill="#9B0004"/>
<path d="M216.794 332.138L216.434 332.143L216.434 332.141L226.641 332.016L226.766 342.211L216.919 342.331L216.919 342.333L217.042 352.396L206.834 352.521L206.711 342.458L206.71 342.326L216.917 342.201L216.794 332.138Z" fill="#141414"/>
<path d="M216.919 342.333L216.919 342.331L226.766 342.211L226.89 352.406L217.044 352.526L217.164 362.33L206.956 362.455L206.834 352.521L217.042 352.396L216.919 342.333Z" fill="#9B0004"/>
<path d="M217.044 352.526L226.89 352.406L227.012 362.34L227.015 362.6L217.168 362.72L217.288 372.524L207.08 372.649L206.959 362.715L206.956 362.455L217.164 362.33L217.044 352.526Z" fill="#141414"/>
<path d="M176.084 342.57L176.086 342.701L166.073 342.823L165.95 332.76L175.963 332.638L176.084 342.57Z" fill="#9B0004"/>
<path d="M176.211 352.895L166.198 353.018L166.319 362.952L176.332 362.829L176.211 352.895Z" fill="#9B0004"/>
<path d="M186.542 362.835L186.665 372.899L176.653 373.021L176.457 373.024L176.334 362.96L186.542 362.835Z" fill="#9B0004"/>
<path d="M176.088 342.832L176.284 342.83L186.295 342.708L186.417 352.64L176.209 352.765L176.088 342.832Z" fill="#9B0004"/>
<path d="M176.084 342.57L175.963 332.638L176.159 332.635L186.171 332.513L186.292 342.446L186.295 342.708L176.284 342.83L176.088 342.832L176.209 352.765L186.417 352.64L186.54 362.704L186.542 362.835L176.334 362.96L176.457 373.024L166.444 373.146L166.322 363.212L166.319 362.952L176.332 362.829L176.211 352.895L166.198 353.018L166.075 342.955L166.073 342.823L176.086 342.701L176.084 342.57Z" fill="#141414"/>
<path d="M217.168 362.72L227.015 362.6L227.137 372.534L217.29 372.655L217.413 382.719L207.205 382.844L207.08 372.649L217.288 372.524L217.168 362.72Z" fill="#9B0004"/>
<path d="M305.716 250.53L286.741 250.763L286.841 258.932L305.816 258.699L305.716 250.53Z" fill="black"/>
<path d="M205.471 251.855L197.096 251.957L197.527 287.181L205.902 287.078L205.471 251.855Z" fill="black"/>
<path d="M203.801 251.777L184.826 252.009L184.926 260.178L203.901 259.946L203.801 251.777Z" fill="black"/>
<path d="M232.951 96.1277L224.51 96.231L224.679 110.019L233.12 109.916L232.951 96.1277Z" fill="black"/>
<path d="M232.659 101.85L182.408 102.465L182.508 110.633L232.759 110.019L232.659 101.85Z" fill="black"/>
<path d="M257.356 87.692L233.016 87.9897L233.116 96.1579L257.456 95.8602L257.356 87.692Z" fill="black"/>
<path d="M307.992 67.4971L299.552 67.6003L299.971 101.844L308.411 101.74L307.992 67.4971Z" fill="black"/>
<path d="M323.391 93.1589L301.667 93.4246L301.767 101.593L323.491 101.327L323.391 93.1589Z" fill="black"/>
<path d="M344.085 72.7749L323.932 73.0214L324.032 81.1895L344.185 80.943L344.085 72.7749Z" fill="black"/>
<path d="M345.265 169.231L325.112 169.477L325.212 177.645L345.365 177.399L345.265 169.231Z" fill="black"/>
<path d="M323.608 81.4237L315.167 81.527L315.407 101.132L323.848 101.029L323.608 81.4237Z" fill="black"/>
<path d="M279.201 67.8492L270.762 67.9525L270.998 87.2961L279.438 87.1929L279.201 67.8492Z" fill="black"/>
<path d="M278.983 79.3232L257.259 79.5889L257.359 87.7571L279.082 87.4914L278.983 79.3232Z" fill="black"/>
<path d="M299.678 59.2004L279.525 59.4469L279.625 67.6151L299.778 67.3686L299.678 59.2004Z" fill="black"/>
<path d="M184.51 231.621L164.357 231.867L164.457 240.035L184.61 239.789L184.51 231.621Z" fill="black"/>
<path d="M182.874 111.119L174.433 111.222L174.669 130.566L183.111 130.463L182.874 111.119Z" fill="black"/>
<path d="M182.654 122.592L163.023 122.832L163.123 131L182.754 130.76L182.654 122.592Z" fill="black"/>
<path d="M186.88 433.16L166.725 433.406L166.825 441.574L186.98 441.328L186.88 433.16Z" fill="black"/>
<path d="M205.733 283.91L165.162 284.406L165.262 292.574L205.833 292.078L205.733 283.91Z" fill="black"/>
<path d="M184.612 231.913L176.433 232.013L176.679 252.141L184.858 252.041L184.612 231.913Z" fill="black"/>
<path d="M205.405 332.149L185.448 332.393L185.57 342.326L205.527 342.082L205.405 332.149Z" fill="black"/>
<path d="M165.422 292.212L156.916 292.316L158.643 433.471L167.148 433.367L165.422 292.212Z" fill="black"/>
<path d="M194.06 332.778L185.554 332.882L186.785 433.519L195.29 433.415L194.06 332.778Z" fill="black"/>
<path d="M306.894 330.908L286.937 331.152L287.059 341.085L307.016 340.84L306.894 330.908Z" fill="black"/>
<path d="M313.617 230.335L305.438 230.435L305.685 250.563L313.863 250.463L313.617 230.335Z" fill="black"/>
<path d="M325.687 229.894L305.533 230.141L305.633 238.309L325.786 238.062L325.687 229.894Z" fill="black"/>
<path d="M326.067 282.438L285.496 282.935L285.596 291.103L326.167 290.606L326.067 282.438Z" fill="black"/>
<path d="M328.15 431.432L307.996 431.678L308.096 439.846L328.25 439.6L328.15 431.432Z" fill="black"/>
<path d="M334.903 290.532L326.397 290.636L328.124 431.791L336.629 431.687L334.903 290.532Z" fill="black"/>
<path d="M293.967 330.64L286.246 330.735L288.954 552.073L296.674 551.979L293.967 330.64Z" fill="black"/>
<path d="M206.614 331.905L198.894 331.999L201.851 573.727L209.571 573.632L206.614 331.905Z" fill="black"/>
<path d="M306.87 331.398L298.363 331.502L299.593 432.14L308.1 432.035L306.87 331.398Z" fill="black"/>
<path d="M163.451 131.062L155.074 131.164L156.311 232.325L164.688 232.222L163.451 131.062Z" fill="black"/>
<path d="M333.03 169.51L324.655 169.612L325.396 230.256L333.772 230.154L333.03 169.51Z" fill="black"/>
<path d="M352.103 80.9105L343.728 81.0129L344.808 169.366L353.183 169.263L352.103 80.9105Z" fill="black"/>
<path d="M293.579 250.777L285.073 250.881L285.483 284.34L293.988 284.236L293.579 250.777Z" fill="black"/>
<path d="M203.865 171.347L345.204 169.619L344.114 80.485L323.305 80.7395L323.557 101.326L300.263 101.611L299.845 67.4289L278.905 67.685L279.141 87.0287L257.155 87.2976L257.256 95.5316L232.784 95.8309L232.955 109.815L182.701 110.43L182.944 130.297L163.312 130.537L164.307 211.831L184.724 211.581L184.973 231.97L204.604 231.73L203.865 171.347Z" fill="#301A06"/>
<path d="M244.351 190.852L224.132 191.1L224.379 211.292L244.598 211.045L244.351 190.852Z" fill="#301A06"/>
<path d="M304.813 190.113L284.594 190.36L284.841 210.553L305.06 210.306L304.813 190.113Z" fill="#301A06"/>
</g>
<path d="M496 24.6666V418.483L25.1202 418.483V25.518H496L495.995 1.47024e-06L25.1202 0V24.6666H0V419.333H25.1202V444L496 444L497.186 419.333H522.916V24.6666L496 24.6666Z" fill="black"/>
<rect x="111" y="407.375" width="276" height="77" rx="38.5" transform="rotate(-0.700731 111 407.375)" fill="black"/>
<path d="M173.501 458.718L173.455 454.968L169.705 455.014L169.659 451.264L177.159 451.172L177.205 454.922L188.454 454.785L188.362 447.285L173.363 447.469L173.317 443.719L169.568 443.765L169.476 436.265L173.226 436.219L173.18 432.47L191.928 432.24L191.974 435.99L195.724 435.944L195.77 439.694L188.27 439.786L188.224 436.036L176.975 436.174L177.067 443.673L192.066 443.49L192.112 447.239L195.861 447.193L195.953 454.693L192.203 454.739L192.249 458.488L173.501 458.718ZM212.498 458.241L212.223 435.743L204.723 435.834L204.677 432.085L227.176 431.809L227.222 435.559L219.722 435.651L219.997 458.149L212.498 458.241ZM232.746 457.993L232.517 439.245L236.267 439.199L236.221 435.449L239.971 435.403L239.925 431.653L251.174 431.516L251.22 435.266L254.969 435.22L255.015 438.969L258.765 438.924L258.994 457.672L251.495 457.764L251.403 450.264L240.154 450.402L240.246 457.901L232.746 457.993ZM240.108 446.652L251.357 446.515L251.266 439.015L247.516 439.061L247.47 435.311L243.72 435.357L243.766 439.107L240.016 439.153L240.108 446.652ZM264.244 457.608L263.923 431.36L286.421 431.085L286.467 434.834L290.217 434.789L290.354 446.038L282.855 446.129L282.901 449.879L286.651 449.833L286.696 453.583L290.446 453.537L290.492 457.287L279.243 457.424L279.197 453.675L275.447 453.721L275.401 449.971L271.652 450.017L271.743 457.516L264.244 457.608ZM271.606 446.267L279.105 446.175L279.059 442.426L282.809 442.38L282.717 434.88L271.468 435.018L271.606 446.267ZM306.991 457.085L306.716 434.587L299.216 434.679L299.17 430.929L321.669 430.654L321.714 434.403L314.215 434.495L314.49 456.993L306.991 457.085Z" fill="white"/>
</svg>
