<svg width="1064" height="970" viewBox="0 0 1064 970" fill="none" xmlns="http://www.w3.org/2000/svg">
<path d="M481.704 328.631H295.686V244.449C295.686 223.138 292.786 205.113 286.898 190.475L286.898 190.472C283.843 182.897 279.087 177.095 272.601 173.218C266.144 169.359 258.151 167.511 248.763 167.511C225.598 167.511 209.581 175.368 201.807 191.723C194.402 207.268 190.733 224.305 190.733 242.794V716.693C190.733 743.191 194.166 764.933 201.2 781.827C204.796 790.484 210.183 797.105 217.401 801.536C224.599 805.954 233.437 808.085 243.773 808.085C254.456 808.085 263.556 805.961 270.934 801.551C278.338 797.126 283.831 790.503 287.443 781.826L287.444 781.825C294.462 764.926 297.91 742.811 297.91 715.58V576.134V573.634H295.41H245.716V409.738H479.483V974.207H405.376L372.681 893.539L370.727 888.717L368.183 893.255C334.6 953.173 281.786 983.096 209.332 983.096C140.235 983.096 88.7315 958.393 54.3834 909.168C19.921 859.779 2.5 785.382 2.5 685.588V263.897C2.5 172.91 22.4291 105.135 61.8502 60.1231C101.216 15.1742 160.397 -7.5 239.878 -7.5C305.476 -7.5 355.4 5.69888 389.966 31.7286C424.602 57.8109 448.576 95.9021 461.796 146.205C474.892 196.094 481.553 256.889 481.704 328.631Z" fill="white" stroke="black" stroke-width="5"/>
<path d="M866.969 816.707L866.768 814.427H864.478H746.757H744.443L744.264 816.734L732.236 972.206L547.394 972.207L641.316 -0.610352H968.26L1060.52 972.207H880.66L866.969 816.707ZM758.156 660.594L757.931 663.301H760.647H849.491H852.241L851.98 660.563L804.489 163.321L799.509 163.352L758.156 660.594Z" stroke="black" stroke-width="5"/>
</svg>
