<svg width="66" height="59" viewBox="0 0 66 59" fill="none" xmlns="http://www.w3.org/2000/svg">
<path d="M12.4052 59C4.13509 59 0 53.0744 0 41.2212V16.2314C0 5.41075 4.73846 0 14.2154 0C18.1198 0 21.1149 0.785153 23.1989 2.35453C25.2829 3.9239 26.7195 6.21241 27.5098 9.2192C28.299 12.226 28.6945 15.8915 28.6945 20.2157H17.3745V15.0789C17.3745 13.8283 17.2042 12.7803 16.8644 11.9356C16.5238 11.0909 15.8169 10.6676 14.742 10.6676C13.4033 10.6676 12.5206 11.1183 12.093 12.018C11.6645 12.9177 11.4512 13.9053 11.4512 14.9808V43.0645C11.4512 44.6238 11.6535 45.8909 12.0601 46.8675C12.4657 47.8441 13.2614 48.3324 14.4462 48.3324C15.6741 48.3324 16.4909 47.8441 16.8974 46.8675C17.303 45.8909 17.5063 44.6018 17.5063 42.9985V34.7349H14.4132V24.7259H28.5628V58.4732H23.9232L21.9481 53.6002C19.9301 57.2007 16.749 59 12.4052 59Z" fill="white"/>
<path d="M34.276 58.4732L39.8705 0.52681H59.5148L65.0106 58.4732H54.0531L53.2298 49.123H46.2535L45.5302 58.4732L34.276 58.4732ZM47.0767 39.8708H52.3417L49.8081 10.4038H49.2815L47.0767 39.8708Z" fill="white"/>
</svg>
