<?xml version="1.0" encoding="utf-8"?>
<!-- Generator: Adobe Illustrator 16.0.0, SVG Export Plug-In . SVG Version: 6.00 Build 0)  -->
<!DOCTYPE svg PUBLIC "-//W3C//DTD SVG 1.1//EN" "http://www.w3.org/Graphics/SVG/1.1/DTD/svg11.dtd">
<svg version="1.1" id="Capa_1" xmlns="http://www.w3.org/2000/svg" xmlns:xlink="http://www.w3.org/1999/xlink" x="0px" y="0px"
	 width="1130.296px" height="1080px" viewBox="0 0 1130.296 1080" enable-background="new 0 0 1130.296 1080" xml:space="preserve">
<path d="M242.869,1075.412c-150.801,0-226.202-107.991-226.202-324.009V295.977c0-197.201,86.403-295.809,259.21-295.809
	c71.193,0,125.807,14.309,163.808,42.91c38.001,28.601,64.197,70.308,78.606,125.105c14.392,54.797,21.604,121.6,21.604,200.406
	H333.48v-93.616c0-22.791-3.105-41.891-9.3-57.285c-6.211-15.394-19.101-23.108-38.702-23.108c-24.41,0-40.505,8.214-48.302,24.61
	c-7.814,16.396-11.704,34.395-11.704,53.996v511.81c0,28.417,3.689,51.509,11.103,69.307C243.971,872.101,258.48,881,280.085,881
	c22.39,0,37.283-8.899,44.696-26.697c7.396-17.798,11.103-41.29,11.103-70.509V633.193h-56.4V450.785h258.008v615.026h-84.6
	l-36.014-88.807C380.08,1042.621,322.076,1075.412,242.869,1075.412z"/>
<path d="M563.057,1065.812L665.07,9.769h358.203l100.212,1056.043H923.681L908.67,895.409H781.461l-13.19,170.402H563.057z
	 M796.471,726.793h96.004l-46.199-537.021h-9.601L796.471,726.793z"/>
</svg>
