<svg width="34" height="34" viewBox="0 0 34 34" fill="none" xmlns="http://www.w3.org/2000/svg">
<path d="M16.0942 33.032C14.0288 33.032 11.9493 33.032 9.88382 33.032C8.30381 33.108 6.7325 32.7575 5.33539 32.0172C3.93828 31.277 2.76708 30.1744 1.94515 28.8258C1.26639 27.5606 0.823624 26.1829 0.638428 24.7597V24.5915V9.0704C0.822577 7.64259 1.26535 6.26008 1.94515 4.99033C2.76583 3.66658 3.92766 2.587 5.30929 1.86436C6.69091 1.14172 8.24165 0.802531 9.79951 0.882221C12.1413 0.826138 14.4831 0.798096 16.8249 0.798096C19.1667 0.798096 21.56 0.826138 24.0048 0.882221C25.4593 0.81831 26.9068 1.11682 28.2167 1.7508C29.5266 2.38479 30.6577 3.3343 31.5079 4.51362C32.6238 6.16851 33.1981 8.12788 33.1519 10.122C33.1519 14.146 33.2643 18.9271 33.1519 23.7643C33.0816 27.592 31.6765 30.2279 28.7259 31.7982C27.2542 32.5755 25.6137 32.98 23.9486 32.976C21.3211 33.032 18.7077 33.032 16.0942 33.032ZM12.6097 2.66287H9.92597C5.94961 2.76102 3.44858 4.65383 2.71794 8.131C2.55411 8.84429 2.46465 9.57258 2.45097 10.3042V12.9542C2.45097 16.4314 2.45097 19.9646 2.45097 23.5539C2.54933 28.3351 5.05036 30.9429 9.67306 31.1112C11.9633 31.1953 14.352 31.2374 16.6984 31.2374C19.059 31.2374 21.5319 31.2374 24.0189 31.1112C27.8126 30.985 30.2293 29.1202 31.0442 25.7132C31.192 25.1256 31.2768 24.524 31.2972 23.9185C31.2972 22.6426 31.2972 21.3667 31.2972 20.0908C31.4302 16.3275 31.3598 12.5598 31.0864 8.804C30.9964 7.27795 30.3567 5.83578 29.2851 4.7433C28.2135 3.65082 26.7824 2.98166 25.2553 2.85916C24.0346 2.70403 22.8045 2.63375 21.574 2.64885H19.635H17.7241L12.6097 2.66287Z" fill="white"/>
<path d="M16.8697 1.40583C19.2456 1.40583 21.6495 1.40583 24.0394 1.49018C25.3837 1.42805 26.7223 1.70134 27.9346 2.28543C29.1469 2.86952 30.1949 3.74606 30.9841 4.83607C32.0127 6.37272 32.5428 8.18897 32.5024 10.0377C32.5024 14.0583 32.6148 18.8382 32.5024 23.6883C32.418 27.2872 31.0966 29.7334 28.4255 31.1673C27.0511 31.8876 25.5208 32.2594 23.9691 32.2498C21.3543 32.2498 18.7535 32.2498 16.1387 32.2498C13.8613 32.2498 11.8369 32.2498 9.93909 32.2498C8.48541 32.3347 7.03552 32.0287 5.74009 31.3637C4.44466 30.6987 3.35096 29.6988 2.57264 28.4681C1.93666 27.2631 1.5224 25.9536 1.34958 24.6021V9.13792C1.51889 7.78747 1.92834 6.47818 2.55858 5.27188C3.32506 4.05052 4.40479 3.05686 5.68547 2.39426C6.96615 1.73166 8.40097 1.42433 9.84069 1.50424C12.1603 1.50424 14.522 1.41989 16.8697 1.41989M17.8257 1.92599H12.6383H9.93909C5.72166 2.0244 2.91003 4.17533 2.05249 7.97108C1.87908 8.73253 1.78486 9.50987 1.77132 10.2907V12.9196C1.77132 16.392 1.77132 19.9488 1.77132 23.5477C1.86973 28.6931 4.68135 31.6313 9.67199 31.814C11.9775 31.8984 14.3674 31.9405 16.7713 31.9405C19.1753 31.9405 21.6214 31.9405 24.1237 31.814C28.2146 31.6734 30.9279 29.5647 31.7432 25.8533C31.902 25.2134 31.9915 24.5582 32.0103 23.8992C32.0103 22.6199 32.0103 21.3406 32.0103 20.0612C32.1452 16.2598 32.0748 12.4538 31.7995 8.65994C31.6793 6.99521 30.9765 5.42604 29.8145 4.22798C28.6525 3.02992 27.1055 2.27959 25.4452 2.10875C24.1914 1.94598 22.9278 1.87082 21.6636 1.88382H19.7095H17.8116M16.8697 0C14.5174 0 12.1743 0.0281167 9.84069 0.08435C8.16623 0.0148501 6.50329 0.390716 5.02149 1.17361C3.53969 1.95651 2.29205 3.11842 1.40581 4.54084C0.667395 5.94237 0.190984 7.46691 0 9.03951V24.7146C0.190365 26.2873 0.66681 27.8119 1.40581 29.2132C2.30467 30.6466 3.56883 31.8148 5.06848 32.598C6.56813 33.3812 8.24921 33.7511 9.93909 33.6697C12.0197 33.6697 14.1565 33.6697 16.1668 33.6697C18.7817 33.6697 21.3965 33.6697 24.0113 33.6697C25.795 33.6743 27.5524 33.2398 29.1284 32.4045C32.5727 30.5347 33.852 27.3997 33.9363 23.7164C34.0347 19.1475 34.0066 14.5785 33.9363 10.0095C33.9593 7.88111 33.3314 5.79647 32.1369 4.03474C31.2195 2.76532 30.0031 1.7419 28.5955 1.05524C27.1879 0.368588 25.6326 0.0399271 24.0675 0.0984084C21.6682 0.0328028 19.269 0 16.8697 0ZM17.8257 3.31777C19.105 3.31777 20.3843 3.31777 21.6776 3.31777C22.871 3.30233 24.064 3.36809 25.2484 3.51458C26.6209 3.60916 27.9112 4.20366 28.875 5.18555C29.8387 6.16744 30.409 7.46859 30.478 8.84269C30.9279 13.8615 30.6608 18.9085 30.6326 23.9414C30.6116 24.5012 30.5315 25.0572 30.3937 25.6002C29.7189 28.6509 27.582 30.352 24.0956 30.4644C21.6589 30.5488 19.2221 30.5909 16.7854 30.5909C14.3487 30.5909 12.0056 30.5488 9.75634 30.4644C5.5389 30.3098 3.30366 27.962 3.20525 23.5758C3.10684 19.1896 3.20525 14.7472 3.20525 10.3329C3.2214 9.65129 3.30618 8.97307 3.4583 8.30848C4.11903 5.17347 6.35427 3.47241 9.99532 3.38806H12.6523H17.8398L17.8257 3.31777Z" fill="white"/>
<path d="M16.8616 24.8944C14.7153 24.8798 12.6618 24.0284 11.1481 22.5258C9.63433 21.0232 8.78297 18.9909 8.7793 16.8714C8.81212 14.7772 9.67017 12.778 11.1713 11.2982C12.6724 9.81847 14.6984 8.97467 16.8193 8.94593H16.9603C18.0492 8.90098 19.136 9.07395 20.1554 9.45443C21.1749 9.83491 22.1058 10.4151 22.8924 11.16C23.6789 11.9049 24.3047 12.7992 24.7323 13.7891C25.1598 14.779 25.3802 15.844 25.3802 16.9202C25.3802 17.9964 25.1598 19.0614 24.7323 20.0513C24.3047 21.0412 23.6789 21.9355 22.8924 22.6804C22.1058 23.4253 21.1749 24.0055 20.1554 24.3859C19.136 24.7664 18.0492 24.9394 16.9603 24.8944H16.8616ZM16.8616 10.7845C16.0208 10.745 15.1805 10.8743 14.3918 11.1648C13.603 11.4553 12.8822 11.9009 12.273 12.4745C11.6637 13.0482 11.1787 13.7379 10.8473 14.5021C10.5159 15.2663 10.3451 16.0889 10.3451 16.9202C10.3451 17.7515 10.5159 18.5741 10.8473 19.3383C11.1787 20.1024 11.6637 20.7922 12.273 21.3659C12.8822 21.9395 13.603 22.3851 14.3918 22.6755C15.1805 22.966 16.0208 23.0954 16.8616 23.0558C17.7025 23.0954 18.5427 22.966 19.3315 22.6755C20.1202 22.3851 20.841 21.9395 21.4503 21.3659C22.0595 20.7922 22.5445 20.1024 22.8759 19.3383C23.2073 18.5741 23.3782 17.7515 23.3782 16.9202C23.3782 16.0889 23.2073 15.2663 22.8759 14.5021C22.5445 13.7379 22.0595 13.0482 21.4503 12.4745C20.841 11.9009 20.1202 11.4553 19.3315 11.1648C18.5427 10.8743 17.7025 10.745 16.8616 10.7845Z" fill="white"/>
<path d="M16.8408 9.55712H16.9669C17.9554 9.51362 18.9424 9.67185 19.8684 10.0223C20.7945 10.3727 21.6404 10.908 22.3551 11.596C23.0699 12.2841 23.6387 13.1105 24.0273 14.0255C24.4159 14.9405 24.6163 15.9252 24.6163 16.9202C24.6163 17.9152 24.4159 18.8999 24.0273 19.8149C23.6387 20.7299 23.0699 21.5564 22.3551 22.2444C21.6404 22.9324 20.7945 23.4677 19.8684 23.8182C18.9424 24.1686 17.9554 24.3268 16.9669 24.2833H16.8828C14.9364 24.2685 13.0744 23.4814 11.702 22.0933C10.3295 20.7052 9.55751 18.8284 9.55388 16.8709C9.58289 14.9378 10.3604 13.0923 11.7211 11.7266C13.0818 10.3609 14.9185 9.58258 16.8408 9.55712ZM16.9529 23.8324C18.3075 23.8074 19.6246 23.3808 20.7391 22.6061C21.8536 21.8314 22.7159 20.7431 23.2178 19.4776C23.7197 18.2121 23.8389 16.8257 23.5605 15.4924C23.282 14.159 22.6184 12.938 21.6527 11.9824C20.687 11.0268 19.4622 10.3792 18.132 10.1208C16.8018 9.86232 15.4253 10.0045 14.1751 10.5296C12.9249 11.0547 11.8567 11.9392 11.1044 13.0723C10.3521 14.2054 9.94924 15.5366 9.94625 16.8991C9.94801 17.8186 10.1313 18.7286 10.4854 19.5764C10.8395 20.4241 11.3575 21.1927 12.0093 21.8377C12.661 22.4826 13.4336 22.991 14.2822 23.3334C15.1308 23.6758 16.0386 23.8454 16.9529 23.8324ZM16.8408 8.14792C14.5877 8.23874 12.457 9.20269 10.8948 10.8379C9.33265 12.4731 8.46021 14.6527 8.46021 16.9202C8.46021 19.1878 9.33265 21.3674 10.8948 23.0025C12.457 24.6377 14.5877 25.6017 16.8408 25.6925H16.9389C18.1139 25.7399 19.2862 25.5481 20.3857 25.1286C21.4851 24.709 22.489 24.0705 23.3369 23.2513C24.1849 22.432 24.8596 21.4489 25.3205 20.361C25.7813 19.2731 26.0189 18.1027 26.0189 16.9202C26.0189 15.7377 25.7813 14.5674 25.3205 13.4794C24.8596 12.3915 24.1849 11.4084 23.3369 10.5892C22.489 9.76991 21.4851 9.13138 20.3857 8.71187C19.2862 8.29237 18.1139 8.10055 16.9389 8.14792H16.8408ZM16.9529 22.4232C16.211 22.4609 15.4692 22.3466 14.7726 22.0871C14.076 21.8276 13.4391 21.4283 12.9007 20.9136C12.3623 20.3989 11.9336 19.7795 11.6407 19.093C11.3478 18.4065 11.1967 17.6673 11.1967 16.9202C11.1967 16.1732 11.3478 15.4339 11.6407 14.7474C11.9336 14.0609 12.3623 13.4415 12.9007 12.9268C13.4391 12.4121 14.076 12.0128 14.7726 11.7533C15.4692 11.4938 16.211 11.3795 16.9529 11.4173C17.6948 11.3795 18.4366 11.4938 19.1332 11.7533C19.8298 12.0128 20.4667 12.4121 21.0051 12.9268C21.5435 13.4415 21.9722 14.0609 22.2651 14.7474C22.5581 15.4339 22.7091 16.1732 22.7091 16.9202C22.7091 17.6673 22.5581 18.4065 22.2651 19.093C21.9722 19.7795 21.5435 20.3989 21.0051 20.9136C20.4667 21.4283 19.8298 21.8276 19.1332 22.0871C18.4366 22.3466 17.6948 22.4609 16.9529 22.4232Z" fill="white"/>
<path d="M25.2909 8.94157C24.7219 8.94157 24.1762 8.71555 23.7739 8.31321C23.3716 7.91088 23.1456 7.3652 23.1456 6.79622C23.142 6.24682 23.3493 5.71699 23.7248 5.31593C23.9337 5.09998 24.1836 4.928 24.4599 4.8101C24.7363 4.6922 25.0334 4.63077 25.3338 4.62942C25.6249 4.62484 25.9138 4.67953 26.183 4.79018C26.4523 4.90083 26.6962 5.06511 26.8999 5.27302C27.2911 5.66731 27.5141 6.19795 27.5221 6.75331C27.5221 7.3223 27.296 7.86798 26.8937 8.27031C26.4914 8.67264 25.9457 8.89867 25.3767 8.89867L25.2909 8.94157Z" fill="white"/>
</svg>
