<svg width="818" height="681" viewBox="0 0 818 681" fill="none" xmlns="http://www.w3.org/2000/svg">
<path fill-rule="evenodd" clip-rule="evenodd" d="M91.4276 221.008C64.979 221 38.6488 221 12.1995 221C8.41654 221 4.5686 220.997 0.785651 221.008C0.546159 221.009 0 221.119 0 221.178V312H92V221.178C92 221.119 91.6977 221.008 91.4276 221.008ZM82.1283 303.112C58.2951 303.085 34.4701 303.09 10.637 303.09C9.48622 303.09 9.49133 303.088 9.49133 301.918V231.445C9.49206 230.287 9.48038 230.572 10.6435 230.572H82.0516C83.2476 230.572 83.2381 230.287 83.2381 231.502V266.694C83.2381 278.455 83.233 290.215 83.2644 301.974C83.2673 302.87 83.0534 303.113 82.1283 303.112ZM40.7575 249.051C35.8888 247.925 30.9879 248.48 26.0922 248.974C25.0532 249.079 24.8546 249.518 24.8575 250.428C24.8889 261.386 24.8254 272.345 24.8254 283.303V283.897H31.3968V271.026C35.0476 271.296 38.3888 271.232 41.6548 270.082C46.8893 268.239 49.5055 264.237 49.2229 258.394C48.9944 253.676 45.9912 250.262 40.7575 249.051ZM39.3315 265.152C36.9993 266.274 34.5197 266.248 32.0262 265.915C31.832 265.889 31.5334 265.546 31.5319 265.35C31.5027 261.508 31.51 257.667 31.51 253.721C33.7961 253.369 35.964 253.198 38.1267 253.734C40.8086 254.399 42.3645 256.125 42.6544 258.718C42.9728 261.567 41.7439 263.992 39.3315 265.152ZM63.6465 270.273C62.5739 269.693 61.3976 269.302 60.2834 268.793C59.2538 268.323 58.2148 267.86 57.2357 267.298C56.553 266.906 56.2427 266.222 56.2427 265.416C56.2427 264.053 57.1875 262.954 58.8011 262.823C60.0052 262.726 61.2552 262.849 62.4476 263.068C63.4523 263.253 64.4051 263.716 65.4281 264.074L66.7183 259.556C64.2759 258.386 61.7904 257.946 59.2086 258.036C57.0137 258.111 54.9634 258.663 53.1103 259.908C49.6471 262.235 47.9576 268.417 53.1475 271.738C54.4655 272.582 55.99 273.111 57.4197 273.785C58.309 274.205 59.237 274.563 60.0782 275.062C61.1384 275.692 61.4991 276.717 61.3151 277.901C61.1347 279.065 60.344 279.802 59.2444 279.972C58.0177 280.162 56.7136 280.286 55.5074 280.076C53.7996 279.78 52.1494 279.153 50.4153 278.65C50.1042 279.796 49.8085 281.063 49.4047 282.296C49.1835 282.972 49.3135 283.306 49.9852 283.57C54.0865 285.178 58.2608 285.509 62.4578 284.087C65.5945 283.024 67.5068 280.827 67.7558 277.48C67.9982 274.217 66.5087 271.822 63.6465 270.273Z" fill="#80B5E2"/>
<path fill-rule="evenodd" clip-rule="evenodd" d="M1 39V130.82C1.73015 130.88 1.72285 130.992 1.99228 130.992C28.4742 131 55.0488 131 81.5308 131C85.1771 131 88.7293 131.003 92.3765 130.992C92.6159 130.991 93 130.88 93 130.82C92.9993 100.193 92.9993 69.6573 92.9993 39H1ZM84.2374 84.9232V120.362C84.2374 121.594 84.0527 121.483 82.8648 121.483H11.7851C10.5971 121.483 10.492 121.595 10.492 120.363V49.3943C10.492 48.1614 10.5971 47.7592 11.8749 47.7592H82.7749C84.0534 47.7592 84.2374 48.1614 84.2374 49.4841V84.9232ZM47.3019 67.7361C47.1457 67.2529 46.8551 67.2281 46.4308 67.2303C44.1572 67.2441 41.8827 67.2806 39.6105 67.2303C38.892 67.2149 38.5802 67.4303 38.3583 68.1303C35.1566 78.1924 31.9205 88.248 28.6962 98.3029C28.1705 99.9423 27.6615 101.588 27.1008 103.368C29.2263 103.368 31.1685 103.339 33.1092 103.387C33.7685 103.403 34.0431 103.186 34.2227 102.565C35.0536 99.7007 35.9532 96.8562 36.776 93.9897C36.9695 93.3138 37.2828 93.1313 37.9625 93.1393C41.1927 93.1773 44.4244 93.1773 47.6546 93.1393C48.2832 93.132 48.5388 93.335 48.717 93.9145C49.6026 96.797 50.5438 99.662 51.4287 102.545C51.612 103.14 51.842 103.369 52.5291 103.32C53.4805 103.25 54.4414 103.234 55.3986 103.234H58.7514L58.7361 102.993C54.9233 91.2357 51.1053 79.4961 47.3019 67.7361ZM38.2385 87.9057C39.7259 82.7961 41.2022 77.7975 42.6567 72.8369C44.1557 77.78 45.6802 82.7961 47.2274 87.9057H38.2385ZM60.1424 103.234H67.4439V76.9567H60.1424V103.234ZM63.845 66.4127C61.6816 66.4149 60.084 67.9507 60.0986 70.0157C60.1132 72.0865 61.648 73.561 63.791 73.5646C66.0187 73.5676 67.5936 72.0938 67.5783 70.0201C67.5622 67.896 66.0252 66.4105 63.845 66.4127Z" fill="#FAA625"/>
<path d="M10.1818 409.857H82.9091V484.036H10.1818V409.857ZM0 494H92V401H0V494ZM57.5219 439.631C56.9354 439.352 56.1536 439.233 55.2154 439.233C50.1727 439.233 46.6545 443.168 46.6545 449.726C46.6545 457.197 50.2508 460.218 54.7465 460.218C55.7236 460.218 56.74 460.099 57.5219 459.741V439.631ZM55.4499 433.153C56.2708 433.153 56.74 433.153 57.5217 433.232V422.66C57.5217 422.382 57.7172 422.263 57.9124 422.263H64.2452C64.5579 422.263 64.6361 422.382 64.6361 422.581V459.741C64.6361 460.854 64.6361 462.245 64.8315 463.755C64.8315 464.033 64.7534 464.073 64.4798 464.232C61.1179 465.862 57.5608 466.577 54.2381 466.577C45.599 466.577 39.4225 461.132 39.4225 450.044C39.3836 440.545 45.5599 433.153 55.4499 433.153ZM32.5038 465.464C32.5038 465.861 32.4256 465.981 31.9955 465.981H25.9755C25.5846 465.981 25.4672 465.782 25.4672 465.464V422.779C25.4672 422.382 25.6627 422.263 25.9755 422.263H32.0346C32.3472 422.263 32.5038 422.382 32.5038 422.74V465.464Z" fill="#FF408C"/>
<path d="M58.25 641.125C66.3962 641.125 73 634.521 73 626.375C73 618.228 66.3962 611.625 58.25 611.625C50.1038 611.625 43.5 618.228 43.5 626.375C43.5 634.521 50.1038 641.125 58.25 641.125Z" stroke="white" stroke-width="7" stroke-linecap="round" stroke-linejoin="round"/>
<path d="M43.5 611.625V582.125H28.75C24.8381 582.125 21.0863 583.679 18.3202 586.445C15.554 589.211 14 592.963 14 596.875C14 600.787 15.554 604.539 18.3202 607.305C21.0863 610.071 24.8381 611.625 28.75 611.625L43.5 611.625Z" stroke="white" stroke-width="7" stroke-linecap="round" stroke-linejoin="round"/>
<path d="M43.5 611.625V641.124L28.75 641.125C24.8381 641.125 21.0863 639.571 18.3202 636.804C15.554 634.038 14 630.287 14 626.375C14 622.463 15.554 618.711 18.3202 615.945C21.0863 613.179 24.8381 611.625 28.75 611.625H43.5ZM43.5 611.625V582.125H58.25C62.1619 582.125 65.9137 583.679 68.6798 586.445C71.446 589.211 73 592.963 73 596.875C73 600.787 71.446 604.539 68.6798 607.305C65.9137 610.071 62.1619 611.625 58.25 611.625L43.5 611.625Z" stroke="white" stroke-width="7" stroke-linecap="round" stroke-linejoin="round"/>
<path d="M43.5 641.124V655.874C43.5 658.792 42.635 661.644 41.0143 664.069C39.3936 666.495 37.0899 668.385 34.3947 669.502C31.6995 670.618 28.7338 670.91 25.8725 670.341C23.0113 669.772 20.3831 668.367 18.3203 666.305C16.2574 664.242 14.8526 661.614 14.2834 658.752C13.7143 655.891 14.0064 652.925 15.1228 650.23C16.2392 647.535 18.1297 645.231 20.5553 643.61C22.981 641.99 25.8327 641.125 28.75 641.125L43.5 641.124Z" stroke="white" stroke-width="7" stroke-linecap="round" stroke-linejoin="round"/>
<rect x="174" y="75" width="622" height="24" rx="12" stroke="white" stroke-width="6"/>
<rect x="174" y="75" width="622" height="24" rx="12" fill="#FAA625" stroke="white" stroke-width="6"/>
<rect x="174" y="259" width="622" height="24" rx="12" stroke="white" stroke-width="6"/>
<path d="M452 283H186C179.373 283 174 277.627 174 271C174 264.373 179.373 259 186 259H452C458.627 259 464 264.373 464 271C464 277.627 458.627 283 452 283Z" fill="#FAA625" stroke="white" stroke-width="6"/>
<rect x="174" y="441" width="622" height="24" rx="12" stroke="white" stroke-width="6"/>
<path d="M186 441H396C402.627 441 408 446.373 408 453C408 459.627 402.627 465 396 465H186C179.373 465 174 459.627 174 453C174 446.373 179.373 441 186 441Z" fill="#FAA625" stroke="white" stroke-width="6"/>
<rect x="174" y="625" width="622" height="24" rx="12" stroke="white" stroke-width="6"/>
<path d="M524 649H186C179.373 649 174 643.627 174 637C174 630.373 179.373 625 186 625H524C530.627 625 536 630.373 536 637C536 643.627 530.627 649 524 649Z" fill="#FAA625" stroke="white" stroke-width="6"/>
<path d="M817.628 12.4065H813.387V7.99143H793.671V4.5038H789.15V0H767.122V4.9244H762.793V11.0757H755.485V15.4222H742.026V19.3653H737.417V22.8525H714.827V27.4964H710.498V33.6481H704.312V37.9584H700V103.677H704.312V107.866H710.779V114.438H715.142V118.801H721.714V129.997L723.397 130H727.603L736.295 129.579H737.977V102.696H737.084V102.644H726.937V91.8653H726.884V91.708H716.263V49.8059H726.603V49.6482H726.796V39.0104H753.626V38.5376H753.715V31.58H767.156V27.2335H777.373V34.647H777.707V34.7345H786.487V34.7871H801.365V59.3048H790.815V59.3738H790.57V91.708H779.932V91.8653H779.88V102.644H768.786V118.801H768.839V129.937H785.172V118.801H791.674V114.438H796.038V107.866H802.504V103.677H806.833V75.4626H813.282V71.1506H817.628V12.4065Z" fill="white"/>
<path d="M774.727 112.913H774.675V108.532H775.077V108.512H785.768V97.7537H785.821V97.596H796.458V65.4006H731.755V97.787H721.24V86.8513H710.375V97.596H720.996V97.7537H721.048V108.512H731.861V108.584H732.089V129.963H775.078V129.79H774.728V112.913H774.727ZM774.867 76.126H785.698V86.9565H774.867V76.126ZM753.311 86.9565H742.481V76.126H753.311V86.9565Z" fill="#E9B085"/>
<path d="M807.464 65.2622H807.394V65.4006H807.464V65.2622Z" fill="#301A06"/>
<path d="M720.908 43.7598H720.82V43.8098H720.715V43.9175H710.375V86.8512H721.24V97.7869H731.755V65.4006H796.458V65.2622H796.704V65.1932H807.254V18.366H796.738V18.3836H796.896V28.8987H792.375V28.8461H783.595V28.8082H783.489V28.7586H783.262V10.3922H773.01V10.3018H772.974V10.8128H773.202V21.1878H773.01V21.3451H761.373V21.2374H761.198V21.3106H761.267V25.6916H747.914V25.6537H747.826V32.6492H747.738V33.0142H747.738V33.1219H720.82V33.3848H720.908V43.7598Z" fill="#301A06"/>
<path d="M783.489 10.3018H783.262V10.3918H783.489V10.3018Z" fill="#301A06"/>
<path d="M753.311 76.1259H742.481V86.9563H753.311V76.1259Z" fill="#301A06"/>
<path d="M785.698 76.1259H774.867V86.9563H785.698V76.1259Z" fill="#301A06"/>
<path d="M811.74 18.2948H807.499V13.8798H796.704V18.3659H796.738H807.254V65.1931H796.704V65.2621H796.458V65.4005V97.5963H785.821V97.7536H785.768V108.512V108.532H775.077H774.675V112.913H774.727L774.727 129.963H779.283L779.284 112.913H785.785V108.549H790.149V101.977H796.616V97.7889H800.944V69.5741H807.394V65.4005V65.2621H807.464H811.74V18.2948Z" fill="black"/>
<path d="M773.01 21.3452V21.1878H773.202V10.8129H772.974H768.681V16.9642H761.373V21.2375V21.3452H773.01Z" fill="black"/>
<path d="M783.262 10.3922V10.3018V5.88843H773.01V10.3018V10.3922H783.262Z" fill="black"/>
<path d="M783.262 28.7586H783.489H783.595V28.8082V28.8461H792.375V28.8987H796.896V18.3836H796.738H792.375V24.2548H787.783V10.3922H783.489H783.262V28.7586Z" fill="black"/>
<path d="M747.738 33.0142V32.6491H747.738H747.826V25.6537V25.2537H743.305V28.7409H720.715V33.1219H720.82H747.738V33.0142Z" fill="black"/>
<path d="M761.267 25.6915V21.3105H761.198H747.914V25.6537V25.6915H761.267Z" fill="black"/>
<path d="M731.861 108.584H731.195V108.532H721.048V108.512V97.7536H720.996V97.5963H710.375V86.8512V43.9175H720.715V43.8098V43.7597H720.82H720.908V33.3848H720.82H716.387V39.5365H710.2V43.8468H705.888V97.789H710.2V101.977H716.667V108.549H721.031V112.913H727.603V130H732.089V129.963V108.584H731.861Z" fill="black"/>
<path d="M538.628 197.406H534.387V192.991H514.671V189.504H510.15V185H488.122V189.924H483.793V196.076H476.485V200.422H463.026V204.365H458.417V207.853H435.827V212.496H431.498V218.648H425.312V222.958H421V288.677H425.312V292.866H431.779V299.438H436.142V303.801H442.714V314.997L444.397 315H448.603L457.295 314.579H458.977V287.696H458.084V287.644H447.937V276.865H447.884V276.708H437.263V234.806H447.603V234.648H447.796V224.01H474.626V223.538H474.715V216.58H488.156V212.234H498.373V219.647H498.707V219.735H507.487V219.787H522.365V244.305H511.815V244.374H511.57V276.708H500.932V276.865H500.88V287.644H489.786V303.801H489.839V314.937H506.172V303.801H512.674V299.438H517.038V292.866H523.504V288.677H527.833V260.463H534.282V256.151H538.628V197.406Z" fill="white"/>
<path d="M495.727 297.913H495.675V293.532H496.077V293.512H506.768V282.754H506.821V282.596H517.458V250.401H452.755V282.787H442.24V271.851H431.375V282.596H441.996V282.754H442.048V293.512H452.861V293.584H453.089V314.963H496.078V314.79H495.728V297.913H495.727ZM495.867 261.126H506.698V271.956H495.867V261.126ZM474.311 271.956H463.481V261.126H474.311V271.956Z" fill="#E9B085"/>
<path d="M528.464 250.262H528.394V250.401H528.464V250.262Z" fill="#301A06"/>
<path d="M441.908 228.76H441.82V228.81H441.715V228.917H431.375V271.851H442.24V282.787H452.755V250.401H517.458V250.262H517.704V250.193H528.254V203.366H517.738V203.384H517.896V213.899H513.375V213.846H504.595V213.808H504.489V213.759H504.262V195.392H494.01V195.302H493.974V195.813H494.202V206.188H494.01V206.345H482.373V206.237H482.198V206.311H482.267V210.692H468.914V210.654H468.826V217.649H468.738V218.014H468.738V218.122H441.82V218.385H441.908V228.76Z" fill="#301A06"/>
<path d="M504.489 195.302H504.262V195.392H504.489V195.302Z" fill="#301A06"/>
<path d="M474.311 261.126H463.481V271.956H474.311V261.126Z" fill="#301A06"/>
<path d="M506.698 261.126H495.867V271.956H506.698V261.126Z" fill="#301A06"/>
<path d="M532.74 203.295H528.499V198.88H517.704V203.366H517.738H528.254V250.193H517.704V250.262H517.458V250.401V282.596H506.821V282.754H506.768V293.512V293.532H496.077H495.675V297.913H495.727L495.727 314.963H500.283L500.284 297.913H506.785V293.549H511.149V286.977H517.616V282.789H521.944V254.574H528.394V250.401V250.262H528.464H532.74V203.295Z" fill="black"/>
<path d="M494.01 206.345V206.188H494.202V195.813H493.974H489.681V201.964H482.373V206.237V206.345H494.01Z" fill="black"/>
<path d="M504.262 195.392V195.302V190.888H494.01V195.302V195.392H504.262Z" fill="black"/>
<path d="M504.262 213.759H504.489H504.595V213.808V213.846H513.375V213.899H517.896V203.384H517.738H513.375V209.255H508.783V195.392H504.489H504.262V213.759Z" fill="black"/>
<path d="M468.738 218.014V217.649H468.738H468.826V210.654V210.254H464.305V213.741H441.715V218.122H441.82H468.738V218.014Z" fill="black"/>
<path d="M482.267 210.692V206.311H482.198H468.914V210.654V210.692H482.267Z" fill="black"/>
<path d="M452.861 293.584H452.195V293.532H442.048V293.512V282.754H441.996V282.596H431.375V271.851V228.917H441.715V228.81V228.76H441.82H441.908V218.385H441.82H437.387V224.536H431.201V228.847H426.889V282.789H431.201V286.977H437.667V293.549H442.031V297.913H448.603V315H453.089V314.963V293.584H452.861Z" fill="black"/>
<path d="M473.628 379.406H469.387V374.991H449.671V371.504H445.15V367H423.122V371.924H418.793V378.076H411.485V382.422H398.026V386.365H393.417V389.853H370.827V394.496H366.498V400.648H360.312V404.958H356V470.677H360.312V474.866H366.779V481.438H371.142V485.801H377.714V496.997L379.397 497H383.603L392.295 496.579H393.977V469.696H393.084V469.644H382.937V458.865H382.884V458.708H372.263V416.806H382.603V416.648H382.796V406.01H409.626V405.538H409.715V398.58H423.156V394.234H433.373V401.647H433.707V401.735H442.487V401.787H457.365V426.305H446.815V426.374H446.57V458.708H435.932V458.865H435.88V469.644H424.786V485.801H424.839V496.937H441.172V485.801H447.674V481.438H452.038V474.866H458.504V470.677H462.833V442.463H469.282V438.151H473.628V379.406Z" fill="white"/>
<path d="M430.727 479.913H430.675V475.532H431.077V475.512H441.768V464.754H441.821V464.596H452.458V432.401H387.755V464.787H377.24V453.851H366.375V464.596H376.996V464.754H377.048V475.512H387.861V475.584H388.089V496.963H431.078V496.79H430.728V479.913H430.727ZM430.867 443.126H441.698V453.956H430.867V443.126ZM409.311 453.956H398.481V443.126H409.311V453.956Z" fill="#E9B085"/>
<path d="M463.464 432.262H463.394V432.401H463.464V432.262Z" fill="#301A06"/>
<path d="M376.908 410.76H376.82V410.81H376.715V410.917H366.375V453.851H377.24V464.787H387.755V432.401H452.458V432.262H452.704V432.193H463.254V385.366H452.738V385.384H452.896V395.899H448.375V395.846H439.595V395.808H439.489V395.759H439.262V377.392H429.01V377.302H428.974V377.813H429.202V388.188H429.01V388.345H417.373V388.237H417.198V388.311H417.267V392.692H403.914V392.654H403.826V399.649H403.738V400.014H403.738V400.122H376.82V400.385H376.908V410.76Z" fill="#301A06"/>
<path d="M439.489 377.302H439.262V377.392H439.489V377.302Z" fill="#301A06"/>
<path d="M409.311 443.126H398.481V453.956H409.311V443.126Z" fill="#301A06"/>
<path d="M441.698 443.126H430.867V453.956H441.698V443.126Z" fill="#301A06"/>
<path d="M467.74 385.295H463.499V380.88H452.704V385.366H452.738H463.254V432.193H452.704V432.262H452.458V432.401V464.596H441.821V464.754H441.768V475.512V475.532H431.077H430.675V479.913H430.727L430.727 496.963H435.283L435.284 479.913H441.785V475.549H446.149V468.977H452.616V464.789H456.944V436.574H463.394V432.401V432.262H463.464H467.74V385.295Z" fill="black"/>
<path d="M429.01 388.345V388.188H429.202V377.813H428.974H424.681V383.964H417.373V388.237V388.345H429.01Z" fill="black"/>
<path d="M439.262 377.392V377.302V372.888H429.01V377.302V377.392H439.262Z" fill="black"/>
<path d="M439.262 395.759H439.489H439.595V395.808V395.846H448.375V395.899H452.896V385.384H452.738H448.375V391.255H443.783V377.392H439.489H439.262V395.759Z" fill="black"/>
<path d="M403.738 400.014V399.649H403.738H403.826V392.654V392.254H399.305V395.741H376.715V400.122H376.82H403.738V400.014Z" fill="black"/>
<path d="M417.267 392.692V388.311H417.198H403.914V392.654V392.692H417.267Z" fill="black"/>
<path d="M387.861 475.584H387.195V475.532H377.048V475.512V464.754H376.996V464.596H366.375V453.851V410.917H376.715V410.81V410.76H376.82H376.908V400.385H376.82H372.387V406.536H366.201V410.847H361.889V464.789H366.201V468.977H372.667V475.549H377.031V479.913H383.603V497H388.089V496.963V475.584H387.861Z" fill="black"/>
<path d="M597.628 563.406H593.387V558.991H573.671V555.504H569.15V551H547.122V555.924H542.793V562.076H535.485V566.422H522.026V570.365H517.417V573.853H494.827V578.496H490.498V584.648H484.312V588.958H480V654.677H484.312V658.866H490.779V665.438H495.142V669.801H501.714V680.997L503.397 681H507.603L516.295 680.579H517.977V653.696H517.084V653.644H506.937V642.865H506.884V642.708H496.263V600.806H506.603V600.648H506.796V590.01H533.626V589.538H533.715V582.58H547.156V578.234H557.373V585.647H557.707V585.735H566.487V585.787H581.365V610.305H570.815V610.374H570.57V642.708H559.932V642.865H559.88V653.644H548.786V669.801H548.839V680.937H565.172V669.801H571.674V665.438H576.038V658.866H582.504V654.677H586.833V626.463H593.282V622.151H597.628V563.406Z" fill="white"/>
<path d="M554.727 663.913H554.675V659.532H555.077V659.512H565.768V648.754H565.821V648.596H576.458V616.401H511.755V648.787H501.24V637.851H490.375V648.596H500.996V648.754H501.048V659.512H511.861V659.584H512.089V680.963H555.078V680.79H554.728V663.913H554.727ZM554.867 627.126H565.698V637.956H554.867V627.126ZM533.311 637.956H522.481V627.126H533.311V637.956Z" fill="#E9B085"/>
<path d="M587.464 616.262H587.394V616.401H587.464V616.262Z" fill="#301A06"/>
<path d="M500.908 594.76H500.82V594.81H500.715V594.917H490.375V637.851H501.24V648.787H511.755V616.401H576.458V616.262H576.704V616.193H587.254V569.366H576.738V569.384H576.896V579.899H572.375V579.846H563.595V579.808H563.489V579.759H563.262V561.392H553.01V561.302H552.974V561.813H553.202V572.188H553.01V572.345H541.373V572.237H541.198V572.311H541.267V576.692H527.914V576.654H527.826V583.649H527.738V584.014H527.738V584.122H500.82V584.385H500.908V594.76Z" fill="#301A06"/>
<path d="M563.489 561.302H563.262V561.392H563.489V561.302Z" fill="#301A06"/>
<path d="M533.311 627.126H522.481V637.956H533.311V627.126Z" fill="#301A06"/>
<path d="M565.698 627.126H554.867V637.956H565.698V627.126Z" fill="#301A06"/>
<path d="M591.74 569.295H587.499V564.88H576.704V569.366H576.738H587.254V616.193H576.704V616.262H576.458V616.401V648.596H565.821V648.754H565.768V659.512V659.532H555.077H554.675V663.913H554.727L554.727 680.963H559.283L559.284 663.913H565.785V659.549H570.149V652.977H576.616V648.789H580.944V620.574H587.394V616.401V616.262H587.464H591.74V569.295Z" fill="black"/>
<path d="M553.01 572.345V572.188H553.202V561.813H552.974H548.681V567.964H541.373V572.237V572.345H553.01Z" fill="black"/>
<path d="M563.262 561.392V561.302V556.888H553.01V561.302V561.392H563.262Z" fill="black"/>
<path d="M563.262 579.759H563.489H563.595V579.808V579.846H572.375V579.899H576.896V569.384H576.738H572.375V575.255H567.783V561.392H563.489H563.262V579.759Z" fill="black"/>
<path d="M527.738 584.014V583.649H527.738H527.826V576.654V576.254H523.305V579.741H500.715V584.122H500.82H527.738V584.014Z" fill="black"/>
<path d="M541.267 576.692V572.311H541.198H527.914V576.654V576.692H541.267Z" fill="black"/>
<path d="M511.861 659.584H511.195V659.532H501.048V659.512V648.754H500.996V648.596H490.375V637.851V594.917H500.715V594.81V594.76H500.82H500.908V584.385H500.82H496.387V590.536H490.2V594.847H485.888V648.789H490.2V652.977H496.667V659.549H501.031V663.913H507.603V681H512.089V680.963V659.584H511.861Z" fill="black"/>
</svg>
